<svg id="_12" data-name="12" xmlns="http://www.w3.org/2000/svg" viewBox="0 0 500 500"><title>Artboard 2Australia</title><path d="M281.18,97.43c3.56-1.73,2.65-.71,4.78,0,4.17-6.1,1.73-2.24,2.65-5.8.81-3,2.85-3.66,4.27-5.9l-2.54-1.63c-2.84-1.53-2.24,1.12-2.24-4-2.24,1.12-4.27,2.14-5.6,4.17-.71-.91-.71,1.42-.71-2a10.71,10.71,0,0,1-3.46,1.32c2-2.65,1.12,0,2.14-2.75-4.68,1.12-6.41,1.22-9.05,3.46-1.73-1.22-2.74-1.12-3.46-3.46-3.46.3-.92.51-4.07,1.42a16.12,16.12,0,0,0-5.59-2.85V78.11c-3.66.3-6.1,2.34-9.26-1.22-.2-.2-1.53-2.54-1.83-2.95-2.54.71-1.42.71-3.46,2-.41-1.63-.81-2.44-3.05-3.86-1.12-.71-.31-.31-1.42-.51l-3.86.31c-.51.2,1,.3-2,.61v2.14c2.64.61.2-.1,1.93.81.2.1.3.2.51.31s.2.2.41.2c2,.91,2.24,0,5.49,0,.71,2.64.92,1.12,1.32,6.31L238,84a.78.78,0,0,1-.41.2l-6.2.71c-2.65-.3-1.73-.61-2.75-2.64-.51.2-1.22.61-1.83.91l-1.73,1c-2,1.52,1,.61-2.34,1.83-1.22.51-1.73.3-3.15.3,0,1.83,0,1.73-1.52,4s-.1,2-3.36,2.34c0,5,.51,2.14,1.42,5.49l-2.24.82c-3.46.81-1.83.81-3.05,4.27-1.32,3.76-3,1-4.37,7.42,2.24,1.53,2.75,1.53,3.15,2.95a5.49,5.49,0,0,1,.3,2.54c-6.61-.51-3.66.41-6.1-.2-2.95-.71-4.17-1.22-7.73-1.22-.1,5.09-.2,1.63-1.42,3l-.3.3-1,1.63c.1-4.78,1-1.42,1.32-5.49-5.8-1.63-5.59-7.83-11.49-8.85-4.78-.91,0-1.42-5.08-1.52-1.22,2.54-.51,3.05-2.75,4.78.71-3.25.41-1,0-2-2.54.61-1.53.71-3.46,2-.41-3.15-.81-2.65-3.46-1.32.51,2-.1,1.42,2,2-.81,1.63-1.22,1.83-1.42,4.17l-4.07-3.46c-1.83,3.56.41,2.34-2.65,4.27l-.91.51a24.49,24.49,0,0,0-2,1.42c1,3.76,1.83.71.71,3.46-2.34.31-2.54,1-4.17,3.15-.1,0-.2.2-.31.2a3.21,3.21,0,0,1-.51.61c-.3.3-.81.71-1.12,1-1,.92-2.24,1.32-2.54,3.46-.1,1.63.81,2.65,1.73,4-1.52,1.83-1.32,1.22-1.42,4.17l-3.05-1c-3.15-.71-1.53,1.73-2.44-1h-3.46c0,4.68-1.73,3.56-.71,5.59.71,1.32,2.54,1.73,4.17,4.07-1.73.71-.61.51-2.75,0,.31,3.66.81,1.22,0,4.88-2.13-1.53-1-1.12-3.46-5.59s-2.54-1.53-2.14-6.2c-2.85.81-2.64,2.24-4.07,4.17l-3.36,3.56a12.2,12.2,0,0,0-2.75,5.49c-.1,2,1.22,3.15,1.22,6.81,1.12.61-1.32.71,2,0-.41,1.53-.1.81-1,1.83-.1.1-.51.61-.61.71-1,1.12-.41.41-1.12,1l-1.12.92c-.1.1-.31.2-.41.31l-.81.61c-1.73,1.42-1.32,1.63-2.13,3.46l-.31.91c-4.17,11-6.71,11-19,15.66-2.34.81.1.51-2.54.71-3.35.3-1.83-1.63-4.68.3-2.64,1.63-.51,1.63-2.75,3.46-3.46,2.75-4-1.12-10.48,5.49a5.6,5.6,0,0,1-4.27,1.73c-3.56-.1-.92-2-5.49,1-.31-3.66.71-1.32-1.32-2.14-.61,2.24-.51,1.83-2.34,3.25-4.17,3.15-.81-.91-6.81,5.7l-.71.71-2.14,2.65c-.1.1-.41.61-.61.81C57,209.72,50,208.19,50,219.28H48a48.84,48.84,0,0,1-.71-7.63C43.7,214,42.48,220,42.38,224.06c2.24.81.61-1.12,1.83,1.73a9.63,9.63,0,0,1-.51,8.54,11.11,11.11,0,0,0-1.32,3.76v5c.2,1.63.61,1.12,2.24,3.05,1.93,2.54.51,2.54,3.56,6.1.1.1.31.2.41.31.81,1,.92,1.32,1.73,2.44,2.75,3.56,3.86,1.73,3.86,10H52.75c-.92-4.27-3.46-7.93-7.63-9.05,0,6.41,1.73,2.14,2.14,6.92-1.63-1-.71-.82-2.75-1.32-.3,3.56.61,1.22-1.42,2,4.48,6.71,11.49,9.25,13.22,17.9.71,3.87,4.78,5.9,6.21,9.16.81,1.83-.31.41,1.12,2.24.71.82,1.32,1.22,2.13,2,1.63,1.93,1.83,3,2.34,6,2.34,14.64,11.19,17.69,12.1,26.44l.1,5.18c-.51,3.05.41,2.54,1.12,5.59.71,2.75-.41,4.07-1,6.41a15.63,15.63,0,0,1-4.07-.61c0,5-.2,9.56,4.27,9.46,5.8-.1,7.83,7.12,17.39,5.49,3-.51,7.93.2,10.58-1.33s3.05-3.25,4.07-4.37l.31-.31,1-1.12c.1-.1.51-.61.61-.71l2-1.22c1.63-.2,4.17,0,4.88-2.44,0,0,.1-1.12.1-1.32,1-3.86,6.51-3.76,10.07-5l7.93-1.12c.61,0,.81.1,1.63.1,2.54-.2-.71-.41,1.83-.41l1,.31c.1,0,.2.1.31.2,2.44,1.12-1.83.61,2.54.92.61-1.53,1.42-2.34,5.8-2.24,3,0,8,2.13,10.27-7.22.31-1.42.31-2.34,1.32-3.56,1.73-2,2.85-1.12,5.59-2.75,11-6.41,6.71-7.53,19.22-7.73,4.88-.1,9.05-2.34,13.22-4.07,8.14-3.25,7.32-5.6,19.94-5.6,4.37-.1,4.78-.51,7.93-1.12s9.15,4.37,11.49,5.9c4-1,1.83-2.85,6.71.2,2.95,1.73,5,1.12,8.44,1.93.92,2.14.31.1,0,3.46,2.24-.51,2.24-.91,4.17,0-.61,1.53-1.32,1-1.73,2.54l1.43,4c1.73,1.52,3-.1,4.78,2.13,1.42,1.73,1.12,3,3.66,6.1,1.52,1.83,2,4.07,2.23,6.71-.1,0-.3-.1-.3,0s-.31.1-.31.1-.3.1-.41.1l-1.73,1.83c4.17.41,3,3.05,6.81,4,1.32.2.1-.1,1.43.31,0,0,.2.31,1.42.61l-.51-2.75c-.51-2.14.3-2.75,4.07-7.53,2.54-3.26,7.32-3.26,9.25-6.82,1.12-2.13,1.43-3.56,3.05-5.19,1.73-1.83.51.71,1.53-1.94.81.92-.3-.51.91,1.12a11.74,11.74,0,0,1,1.12,1.63c-2,.2-1.73.31-2.74,1.32,1.42,3.15,1.52,2.75-.1,4.68A16.37,16.37,0,0,0,291.45,342c.1,4.07-.92,3.15-4.78,3.15-.61,2.54-1.12,1.93-1.42,4.89,2.65-.21,3.15-.92,4.88-1.43,3-.71,3.26,1.63,4.88-2l2.74-8.34,1.32,2.14c.1.2.1.41.2.51l.51.91a.77.77,0,0,1,.2.41c3.86,7.84-2.54,8-2.95,12.61h-3.46v-2a25.3,25.3,0,0,0-8.44,1.32c-5.08,1.32-2.85,2.44-1.22,4.88,9.66,0,6.51-.81,12-1.73,2.24-.41,2.44.31,1.12-2.44,3.05,0,4.07-.61,6.92-1.33.1.1.3.1.41.31s.31.21.41.31c4.27,3.66,8.85,8.44,6.92,14.74,0,.1-.1.31-.1.41l-.2,3.45c.51,2,1.93,3.05,2.95,4.38l2.84,4.68c2.14,2.34,5.29,1.32,7.73,4.07l1.93,2.24c2-.71,2-1.53,4.17-.92l1.52.61c.2.1.41.1.61.21,1.83.51.91-.1,2.64.82,1.32.71,7,4,7.63,5.49,3.86-.31,11.29-9.86,13.12-2.75,3.46-.3,3.56-2.44,6.3-2.74l-.51.91c-.91,2-.51-1.22-.91,2.54l3.25,2.95,1,1,2.14.81a5.63,5.63,0,0,1,1.22,2.85c2.24-.61,2.85-2.85,2-4.89,8.14,0,10.47-8.13,19.12-7.83,5.59.3,10,1.93,14-1.32l1.43-1.93c1-2.44,0-3,.41-5.19l3.66-10.07c2.85-7.53,5.59-7.63,7.32-9,2-1.73.51-.51.71-1.83v-.51l.41-1.83c1-2.64,1.73-5,3.76-6.61,4.07-3.36,2.34-5.7,8.44-12.31l4-2.24c.2-.1.3-.2.51-.2l4.38-3.25a1.62,1.62,0,0,1,.2-.51c.71-1.52.3-2.44,1.42-4.07,2.65-3.66,6.51-7.22,6.61-13.12,0-3.66,4.58-10.37,5.79-14.54a19,19,0,0,1,2.24-4.78c1.93-3.05,2.24-6,1.73-9.87-.51-4.88-1.73-7.43-2.44-11.49-.82-2.95-1.22,2.95.61-.91a3,3,0,0,0,.41-1.43c.51-3.66-.31-5.29.81-9.15,1-3.46,1.63-.81,0-4.17-1.32-2.75-.92.3-.92-4.07,0-4-.1-1.93-1.73-3.56-2.13-2.24-1.12-1.83-1.93-4.37-1.32-4-.41-.51-2.85-3.36-1.63-1.93-1.63-6.31-4-7.73l-1.22-.41c-2.54-.71-3.66-2.85-5.19-5.08-.91-1.22-.81-.1-1.63-2.44-1.73-5.19,2.24-7.22-1-13.53-2.75.92-.1.1-2.75,2-1.52-2.24-2-1.63-2.85-4.78-3.05.82-1.52,1.83-4.07,2.75-2.75-5.19-.61-7.73-2.65-11.9-3.25-6.51,1.43-.51-4.58-7.22a10.56,10.56,0,0,1-1.83-3h2.75c-.51-2.54-1.63-4.68-3.87-5.7-2-.92-1,.2-2.44-1.22-.1,0-.2-.2-.31-.3l-1.53-1.22c-2.44-1.52-2,.41-2.95-3.35l-.92.51a1.42,1.42,0,0,0-.41.2c-1.53.41-1-2.75-2.44-4.47-1.63-2.14.61,1.32-3-.51-1.94-.91.1,0-1.12-.81a3.07,3.07,0,0,0-1.42-.71l-1.22-.31c-5.7-2.34-4.68-3.25-4.68-9.05-4.88-1.32-1.93-5.08-1.63-8.24.61-5.08-2.44-5.7-1.22-11.19-6.81-.1-4.07-6.81-6-14.14l-.31-6.71c.31-1.42.1.61.81-1.93l-1.83-.91c-6.51-3.86-5.19-6.92-7.12-8.14l-4.78,1.52c-1.43,1,0,.71-2.14,1.22-4.58-4.27-2.44-13.22-4-18.92-.61-2.44-1.12-5.8-4.37-6.61a10.6,10.6,0,0,1,2-4.17c-1.63-.81-2.44-.61-4.07-1.42,0-4.37-.11-7.63-2.14-11.09-1.32-2.24-.41-2.44-3.46-2.75-.81,3.25-.51,1.32-3.46,2.75,0,4-.51,7.22-2.54,10.68,0,.1-.2.31-.2.41l-.61.81c-1.42,2.14-2.64,4.07-2.85,6.82h2c-.2,3.15-.2,1.32-1.52,3.25-1.83,2.75-.82-.2-.41,3.46s-2.44,3.87-2.13,7.73c.2,2.54,1.12,1.73,1,4.17,0,1.43-.71,2-.61,4,.2,5.19,2.14,3.86-.2,8.85-2.44,5.19-1.52,10.17-4.68,15.36-2.24,3.66-2.75,6.1-3.56,7.53-1,1.63-5.29,3.46-7.83,3.05-1.73-.2-5.29-2.54-7-3.46-1.32-.71-2.34-1.12-3-2.44-.81-1.42-.2-.92-.81-2-1.62-3.46-6.2-3.15-9.46-4.37-3.35-1.42-4.48-5.9-12.41-9l-4.17-1.32c-.1,0-3.05-2-3.25-2.24l-2.64-3c-.82-.71-2.24-1.52-3.25-2.34l-2.95-1.83c-2.75-1.53-2.34,0-2.44-3.86,1.53-.51,3.25-3.36,4.58-5.19.82-1,.2-.1.82-1.22l.61-1.53c.1-.1.1-.3.2-.41.41-1,1-2.54,1.42-3.46-2.85-1.12.1.51-2.74-.71,1.12-1.63.81-.71,1.42-2.75Zm67.73,310.71c0-4.88.51-4.47-2-6.21-.71,2.85-.2.1-.91,2.24-1.12,3.36-1.22,6.2,3,4Zm31.22.71,2.75,6.21c1.22-.61.81-.51,2.75-.61,0-4.27.1-2.74-1.42-4.88-.91-1.22-.91-1.63-2.75-2-.51,1.93,1.12,1.12-1.32,1.32ZM351,419.94a18.81,18.81,0,0,0,2,8.44c.91,1.83,1.32,1.22,1.22,3.87-.1,5-.71,6.41,1.42,10.58,1.12,2.34,3.36,4.88,3.67,7.53,4.88,0,4.17-.2,4.78,1.42,4.58-.1,1.63-1,4.17-1.42.2,0,4.68,1.12,3.46-4.78,3.46.91,1.83,2.74,4.07,2.54,1.83-.2.91-1.73,1.22-3.86.2-2.54-.91-.61,2.34-2.13l-.71-4.17c0-4.88,1.12,0,2.74.71l2-14.65c.2-1.12,1.52-.61-1.32-4.78-3.15.41-1.32.51-2,.71l-9.25,1.32c-1.93.3-3.36,1.12-4.58,1-3.56-.2-5.39-4.48-10.37-5.49-1.22-.2,0,.2-1.83-.61-2.44-1,.61-.3-2.34-1.12-.1,3.25-.71,2.34-.71,4.88Z"/></svg>