<?xml version="1.0" encoding="UTF-8"?>
<svg width="55px" height="60px" viewBox="0 0 55 60" version="1.1" xmlns="http://www.w3.org/2000/svg" xmlns:xlink="http://www.w3.org/1999/xlink">
    <!-- Generator: Sketch 42 (36781) - http://www.bohemiancoding.com/sketch -->
    <title>iconmonstr-chart-6</title>
    <desc>Created with Sketch.</desc>
    <defs></defs>
    <g id="Welcome" stroke="none" stroke-width="1" fill="none" fill-rule="evenodd">
        <g id="Desktop" transform="translate(-1225.000000, -2549.000000)" fill-rule="nonzero" fill="#0BB26C">
            <g id="Our-Approach" transform="translate(-4.000000, 2104.000000)">
                <g id="Group-6" transform="translate(879.000000, 240.000000)">
                    <g id="Growth" transform="translate(350.000000, 205.000000)">
                        <g id="iconmonstr-chart-6">
                            <path d="M9.91735537,49.5867769 L9.91735537,54.5454545 L4.95867769,54.5454545 L4.95867769,49.5867769 L9.91735537,49.5867769 Z M14.8760331,44.6280992 L0,44.6280992 L0,59.5041322 L14.8760331,59.5041322 L14.8760331,44.6280992 Z M29.7520661,42.1487603 L29.7520661,54.5454545 L24.7933884,54.5454545 L24.7933884,42.1487603 L29.7520661,42.1487603 Z M34.7107438,37.1900826 L19.8347107,37.1900826 L19.8347107,59.5041322 L34.7107438,59.5041322 L34.7107438,37.1900826 Z M49.5867769,32.231405 L49.5867769,54.5454545 L44.6280992,54.5454545 L44.6280992,32.231405 L49.5867769,32.231405 Z M54.5454545,27.2727273 L39.6694215,27.2727273 L39.6694215,59.5041322 L54.5454545,59.5041322 L54.5454545,27.2727273 Z M54.5454545,2.20209526e-15 L39.6694215,3.02727273 L43.9239669,7.26198347 L26.9404959,23.9553719 L19.5,16.5123967 L0.0595041322,35.8438017 L3.5553719,39.3595041 L19.4900826,23.5165289 L26.9057851,30.9371901 L47.4347107,10.7628099 L51.5677686,14.8785124 L54.5454545,0 L54.5454545,2.20209526e-15 Z" id="Shape"></path>
                        </g>
                    </g>
                </g>
            </g>
        </g>
    </g>
</svg>