<svg xmlns="http://www.w3.org/2000/svg" xmlns:xlink="http://www.w3.org/1999/xlink" viewBox="0 0 1591.94 1591.94"><defs><style>.cls-1{isolation:isolate;}.cls-2{fill:#b3b3b3;}.cls-10,.cls-3,.cls-6,.cls-8{mix-blend-mode:multiply;}.cls-3{fill:url(#radial-gradient);}.cls-4{fill:#fff;}.cls-5{fill:#0bb26c;}.cls-6{fill:url(#radial-gradient-2);}.cls-7{fill:#0058a0;}.cls-8{fill:url(#radial-gradient-3);}.cls-9{fill:#df2935;}.cls-10{fill:url(#radial-gradient-4);}.cls-11{fill:#212922;}</style><radialGradient id="radial-gradient" cx="1084.73" cy="432.26" r="301.94" gradientTransform="translate(-288.48 -130.32)" gradientUnits="userSpaceOnUse"><stop offset="0" stop-color="#b3b3b3"/><stop offset="0.27" stop-color="#b6b6b6"/><stop offset="0.48" stop-color="silver"/><stop offset="0.68" stop-color="#d1d1d1"/><stop offset="0.87" stop-color="#e9e9e9"/><stop offset="1" stop-color="#fff"/></radialGradient><radialGradient id="radial-gradient-2" cx="751.02" cy="277.26" r="301.94" gradientTransform="translate(24.68 1547.26) rotate(-90)" xlink:href="#radial-gradient"/><radialGradient id="radial-gradient-3" cx="906.02" cy="454.85" r="301.94" gradientTransform="translate(1701.7 1744.85) rotate(180)" xlink:href="#radial-gradient"/><radialGradient id="radial-gradient-4" cx="1239.24" cy="609.35" r="301.94" gradientTransform="translate(1899.35 -443.53) rotate(90)" xlink:href="#radial-gradient"/></defs><title>Asset 5@4x supply</title><g class="cls-1"><g id="Layer_2" data-name="Layer 2"><g id="Layer_1-2" data-name="Layer 1"><path class="cls-2" d="M413,413c-211.5,211.5-211.5,554.42,0,765.93s554.42,211.5,765.93,0,211.5-554.42,0-765.93S624.51,201.5,413,413Zm722.69,722.69c-187.62,187.62-491.82,187.62-679.45,0s-187.62-491.82,0-679.45,491.82-187.62,679.45,0S1323.32,948.07,1135.69,1135.69Z"/><circle class="cls-3" cx="796.24" cy="301.93" r="301.93" transform="translate(19.72 651.46) rotate(-45)"/><circle class="cls-4" cx="796.24" cy="301.93" r="267.09"/><circle class="cls-5" cx="796.24" cy="301.93" r="239.21" transform="translate(19.72 651.46) rotate(-45)"/><circle class="cls-6" cx="301.93" cy="796.24" r="301.93" transform="translate(-474.6 446.71) rotate(-45)"/><circle class="cls-4" cx="301.93" cy="796.24" r="267.09"/><circle class="cls-7" cx="301.93" cy="796.24" r="239.21" transform="translate(-474.6 446.71) rotate(-45)"/><circle class="cls-8" cx="795.69" cy="1290.01" r="301.93" transform="translate(-679.12 940.47) rotate(-45)"/><circle class="cls-4" cx="797.64" cy="1290.01" r="267.09"/><circle class="cls-9" cx="797.64" cy="1290.01" r="239.21" transform="translate(-678.55 941.85) rotate(-45)"/><circle class="cls-10" cx="1290.01" cy="795.69" r="301.93" transform="translate(-184.81 1145.23) rotate(-45)"/><circle class="cls-4" cx="1290.01" cy="795.69" r="267.09"/><circle class="cls-11" cx="1290.01" cy="795.69" r="239.21" transform="translate(-184.81 1145.23) rotate(-45)"/><path class="cls-4" d="M259.42,852.25,208.7,712.91H187.35a10.42,10.42,0,1,1,0-20.83h35.94l57,156.51a36.4,36.4,0,0,1,22.28,11.33l117.27-42.68,7.12,19.57L311.84,878.7a36.46,36.46,0,1,1-52.42-26.45Zm16.47,18.86a13.67,13.67,0,1,1-13.68,13.67A13.67,13.67,0,0,1,275.89,871.12Zm60.41-128L386,725l28.5,78.3L295.64,846.58l-28.5-78.31,49.57-18,13.8,37.91L350.09,781ZM341.89,730l-78.31,28.5L242.2,699.74l78.31-28.5Z"/><path class="cls-4" d="M820.42,1415H680.81V1185.84h31.25c12.82,0,22.72-11.29,31.25-20.83h83.33c8.55,9.54,18.46,20.83,31.25,20.83h31.25v95.31a78.86,78.86,0,0,0-15.63-1.56l-5.21.17v-73.08H826.64l-20.83,20.83H765.21l-21.91-20.83H701.64v187.5H804.41A78.42,78.42,0,0,0,820.42,1415Zm53.09-114.58a57.29,57.29,0,1,0,57.29,57.29A57.31,57.31,0,0,0,873.51,1300.42Zm0,93.75A36.46,36.46,0,1,1,910,1357.71,36.47,36.47,0,0,1,873.51,1394.17Zm26-31.25H868.31v-31.25h10.42v20.83h20.83Zm-157.82-42.21-10.93-10.25-8.33,8.57,19.42,18.5,32.67-33.25-8.49-8.42Zm64.07,11H785v-10.42h20.83Zm20.83-20.83H785v-10.42h41.67Zm-84.91-41.93-10.93-10.24-8.33,8.57,19.42,18.5,32.67-33.25-8.49-8.42Zm84.91,10.68H785v-10.42h41.67Zm0-20.83H785v-10.42h41.67Zm-52.08-62.5A10.42,10.42,0,1,0,785,1185.84,10.43,10.43,0,0,0,774.56,1196.26Z"/><path class="cls-4" d="M1290,691.53a104.17,104.17,0,1,1-104.17,104.17A104.28,104.28,0,0,1,1290,691.53Zm0-20.83a125,125,0,1,0,125,125A125,125,0,0,0,1290,670.69Zm41.67,146.7c0-22.34-23.25-28.56-41.07-36.94-10.82-5.62-9.46-19.05,6.05-20,8.6-.52,17.45,2,25.45,4.84l3.77-17.16a96,96,0,0,0-25.45-4.39v-10.6H1290v11.11c-20.26,2.78-31.08,15.49-31.08,29.69,0,25.4,29.66,29.27,39.35,33.78,13.23,5.92,10.78,18.23-1.19,20.95-10.39,2.35-23.64-1.75-33.59-5.62l-4.74,17.13A72.24,72.24,0,0,0,1290,847.8v10.4h10.42v-11C1317.68,844.81,1331.69,835.29,1331.67,817.39Z"/><path class="cls-4" d="M921.24,301.93a125,125,0,1,1-250,0h20.83a104.52,104.52,0,1,0,30.22-73.16l21.47,21.47-72.52,14.1,13.59-73.05L707.53,214a124.9,124.9,0,0,1,213.71,87.93Zm-135.42-62.5v83.33h72.92V301.93H806.66v-62.5Z"/></g></g></g></svg>