<?xml version="1.0" encoding="UTF-8"?>
<svg width="60px" height="60px" viewBox="0 0 60 60" version="1.1" xmlns="http://www.w3.org/2000/svg" xmlns:xlink="http://www.w3.org/1999/xlink">
    <!-- Generator: Sketch 42 (36781) - http://www.bohemiancoding.com/sketch -->
    <title>capital</title>
    <desc>Created with Sketch.</desc>
    <defs></defs>
    <g id="Welcome" stroke="none" stroke-width="1" fill="none" fill-rule="evenodd">
        <g id="Desktop" transform="translate(-675.000000, -3093.000000)" fill-rule="nonzero" fill="#0058A0">
            <g id="Credibility" transform="translate(0.000000, 2897.000000)">
                <g id="Capital" transform="translate(675.000000, 196.000000)">
                    <path d="M30,4.9992 C43.8075606,4.9992 55.0008,16.1924394 55.0008,30 C55.0008,43.8075606 43.8075606,55.0008 30,55.0008 C16.1924394,55.0008 4.9992,43.8075606 4.9992,30 C5.01375091,16.1984711 16.1984711,5.01375091 30,4.9992 L30,4.9992 Z M30,0 C13.4314575,-1.01453063e-15 2.02906125e-15,13.4314575 0,30 C-2.02906125e-15,46.5685425 13.4314575,60 30,60 C46.5685425,60 60,46.5685425 60,30 C60,22.0435053 56.8392948,14.4128879 51.2132034,8.78679656 C45.5871121,3.16070521 37.9564947,4.87194788e-16 30,0 Z M40.0008,35.208 C40.0008,29.8464 34.4208,28.3536 30.144,26.3424 C27.5472,24.9936 27.8736,21.7704 31.596,21.5424 C33.66,21.4176 35.784,22.0224 37.704,22.704 L38.6088,18.5856 C36.6295489,17.9608914 34.5749619,17.6064852 32.5008,17.532 L32.5008,15 L30,15 L30,17.6664 C25.1376,18.336 22.5408,21.384 22.5408,24.792 C22.5408,30.888 29.6592,31.8168 31.9848,32.8992 C35.16,34.32 34.572,37.2744 31.6992,37.9272 C29.2056,38.4912 26.0256,37.5072 23.6376,36.5784 L22.5,40.6896 C24.8319624,41.8501152 27.395445,42.4702729 30,42.504 L30,45 L32.5008,45 L32.5008,42.36 C36.6432,41.7864 40.0056,39.5016 40.0008,35.208 L40.0008,35.208 Z" id="capital"></path>
                </g>
            </g>
        </g>
    </g>
</svg>