<?xml version="1.0" encoding="UTF-8"?>
<svg width="60px" height="60px" viewBox="0 0 60 60" version="1.1" xmlns="http://www.w3.org/2000/svg" xmlns:xlink="http://www.w3.org/1999/xlink">
    <!-- Generator: Sketch 42 (36781) - http://www.bohemiancoding.com/sketch -->
    <title>Shape</title>
    <desc>Created with Sketch.</desc>
    <defs></defs>
    <g id="Welcome" stroke="none" stroke-width="1" fill="none" fill-rule="evenodd">
        <g id="Desktop" transform="translate(-875.000000, -2344.000000)" fill-rule="nonzero" fill="#0BB26C">
            <g id="Our-Approach" transform="translate(-4.000000, 2104.000000)">
                <g id="Group-6" transform="translate(879.000000, 240.000000)">
                    <g id="Global">
                        <g id="iconmonstr-globe-5">
                            <path d="M32.86,20.4275 C32.7725,20.2625 33.715,20.1725 33.8825,20.1725 C34.0675,20.195 33.3925,21.3025 32.86,20.4275 Z M27.48,12.7475 L27.75,12.67 C27.91,12.8075 27.57,12.9075 27.6225,13.01 C27.8375,13.3975 27.675,13.63 27.6425,13.84 C27.6075,14.0525 27.3825,13.96 27.27,14.0725 C27.1375,14.2375 27.915,14.26 27.925,14.285 C27.9525,14.3675 26.9875,14.5075 27.165,14.7125 C27.405,15.0525 29.225,14.225 28.935,14.2725 C29.4975,13.99 29.0075,13.96 28.6925,13.7975 C28.585,13.26 28.495,12.43 28.16,12.0975 L28.38,11.8425 C27.865,11.095 27.48,12.7475 27.48,12.7475 L27.48,12.7475 Z M60,30 C60,46.5675 46.5675,60 30,60 C13.43,60 0,46.5675 0,30 C0,13.4325 13.43,0 30,0 C46.5675,0 60,13.4325 60,30 Z M39.225,16.5725 C39.21,16.2075 38.75,15.8625 38.27,16.495 C37.9325,16.93 37.9925,17.5925 37.81,17.8875 C37.55,18.325 39.2275,18.735 39.2275,18.3225 C39.29,17.63 41.0575,18.165 41.4025,18.26 C42.0225,18.4325 43.01,17.695 41.93,17.3075 C41.0425,16.9825 40.575,16.635 40.495,16 C40.495,16 40.965,15.56 40.76,15.585 C40.215,15.6525 39.225,17.55 39.225,16.5725 L39.225,16.5725 Z M54.965,30 C54.965,27.4125 54.5225,24.8 54.0725,23.42 C53.9275,22.985 53.6,22.64 53.175,22.475 C52.535,22.225 49.8325,23.9675 49.425,23.11 C49.1575,22.5375 48.615,23.475 47.995,23.13 C47.695,22.965 46.86,21.8425 46.4825,21.98 C45.71,22.2575 47.6675,24.39 48.2025,24.67 C48.705,24.29 50.3325,23.5075 50.6825,24.575 C51.3525,26.585 48.84,28.7875 47.555,29.9475 C45.635,31.6825 45.995,28.825 44.6875,27.8175 C44,27.29 44.0075,26.1675 43.3125,25.78 C43.0025,25.605 41.58,23.9675 41.5925,23.7475 L41.55,24.1625 C41.315,24.34 40.815,23.4925 40.7625,23.36 C40.7625,24.0975 41.9625,25.2725 42.36,25.8625 C43.0375,26.875 43.4,28.35 44.23,29.1775 C44.675,29.6225 46.375,31.4625 46.8175,31.4225 C47.3,31.38 48.825,30.2775 49.095,30.34 C50.705,30.72 45.305,38.3525 44.7925,39.2975 C44.37,40.09 45.1375,42.05 45.075,42.9875 C45.0025,44.07 44.15,44.42 43.3425,45.01 C42.4775,45.6425 42.68,46.8725 41.9525,47.3225 C40.66,48.1175 39.73,50.705 37.895,50.6925 C37.355,50.69 35.045,51.5925 34.7425,50.71 C34.5075,50.07 34.1925,49.585 33.86,48.9525 C33.535,48.3325 33.8225,47.69 33.4275,47.1425 C33.155,46.7625 32.24,45.9 32.1575,45.45 C32.1525,45.0625 32.45,43.885 32.8575,43.68 C33.43,43.3875 32.9675,42.535 32.8975,42.04 C32.7775,41.155 32.23,40.425 31.5725,39.9125 C30.6,39.165 31.1025,38.57 31.33,37.5025 C31.33,36.9925 31.02,36.3225 30.335,36.5225 C28.925,36.9325 29.3525,35.4225 28.325,35.49 C27.585,35.5425 26.98,36.0125 26.2925,36.22 C25.4275,36.48 24.5425,36.015 23.6875,35.9075 C20.17,35.4625 19.0225,31.4425 19.94,28.5425 C20.0325,28.0675 19.655,27.1875 19.82,26.82 C20.215,25.94 21.02,24.9525 21.725,24.285 C22.12,23.91 22.6275,24.005 23.0925,23.7125 C23.81,23.26 23.82,22.33 24.5225,21.76 C25.5225,20.9475 26.8875,20.965 28.1925,20.79 C28.8875,20.6975 31.5325,20.125 31.95,20.64 C31.95,20.735 32.4275,22.15 31.9025,22.07 C32.985,22.1275 34.5275,23.9425 35.555,23.5175 C36.0825,23.2975 35.89,21.6775 36.9725,22.46 C37.6275,22.93 40.5625,23.14 41.1725,22.6325 C41.5475,22.3225 41.7575,20.3075 41.3025,20.08 C41.5925,20.3675 39.775,20.39 39.605,20.325 C39.305,20.215 39.025,20.61 38.5425,20.3875 C38.8325,20.525 36.9275,19.5025 37.9975,18.72 C37.55,19.0475 37.1325,18.6275 36.65,18.9875 C36.3175,19.2575 36.805,19.4375 36.33,19.6725 C35.575,20.055 35.005,18.36 34.72,18.1675 C34.43,17.9775 32.185,16.4025 32.795,17.43 L34.7675,19.3925 C34.67,19.455 34.25,18.6775 34.25,19.245 C34.3825,18.9075 34.3,20.6925 33.99,20.1125 C33.8525,19.89 34.215,19.765 34.005,19.4425 C34.005,19.23 33.435,19.0225 33.325,18.8775 C33.0125,18.49 32.1825,17.635 31.7325,17.43 C31.6075,17.3725 29.8225,17.6475 29.6725,17.705 C29.4975,17.95 29.3475,18.2075 29.225,18.4825 C28.855,18.62 28.5075,18.7975 28.1775,19.0175 L27.785,19.9 C27.615,20.0525 25.8725,20.6275 25.8625,20.65 C25.935,20.4625 24.645,20.2225 24.73,19.8475 C24.825,19.435 25.2625,18.1475 25.15,17.6775 C25.03,17.185 27.835,18.3875 28.015,17.09 C28.0875,16.5275 28.13,15.8725 27.2325,15.7775 C27.4025,15.7975 28.97,15.1625 29.23,14.8775 C29.595,14.4575 30.4325,13.7725 31.04,13.7725 C31.75,13.7725 31.5975,12.74 31.925,12.235 C32.2525,12.3675 31.75,13.175 32.1425,13.5025 C32.1175,13.245 33.255,13.645 33.365,13.585 C33.625,13.45 35.075,13.53 34.85,12.85 C34.6,12.1575 34.9775,12.3625 35.3025,12.2175 C35.2475,12.24 36.1525,10.67 36.3075,11.185 C36.2,10.655 35.255,11.37 34.925,11.3425 C34.1625,11.2825 34.485,10.0425 34.7725,9.68 C34.995,9.3925 34.165,9.04 34.155,9.59 C34.14,10.4125 33.375,11.1575 33.5525,12.25 C33.8225,13.8975 31.715,11.8525 31.53,11.965 C30.83,12.39 30.2575,11.43 30.62,10.855 C30.99,10.2675 31.8825,10.295 32.25,9.665 C32.51,9.22 32.8125,8.7025 33.2125,8.365 C34.55,7.2425 34.92,8.14 36.2525,8.2625 C37.555,8.3825 36.6925,8.5725 36.5125,9.0725 C36.34,9.5475 37.2275,9.7175 37.535,9.32 C37.71,9.09 38.1075,8.5125 38.28,8.085 C38.5025,7.53 40.5325,7.5925 39.115,6.745 C38.18,6.1875 34.105,5.065 31.375,5.065 C30.785,5.065 30.3725,5.7225 29.9225,6.095 C29.0325,6.8325 26.7525,8.28 25.485,7.84 C24.1875,7.3925 21.41,9.49 20.965,9.505 C20.8025,9.515 20.975,7.92 21.86,7.8025 C21.4775,7.86 24.9775,6.035 24.8825,5.655 C24.7675,5.205 17.885,7.71 18.1925,8.2125 C18.34,8.4425 18.94,8.4425 18.1525,8.9475 C17.7025,9.22 17.2225,10.95 16.8,10.95 C15.5375,11.5025 15.4575,9.8625 14.0525,11.9725 L11.8175,12.8725 C8.4975,16.4 6.2,20.8675 5.3675,25.83 C5.335,26.0275 6.2025,26.395 6.315,26.53 C6.595,26.865 6.595,28.31 6.7325,28.7825 C7.0775,29.9775 7.93,30.6425 8.5825,31.73 C8.9675,32.3775 9.6075,34.015 9.405,34.695 C9.675,34.25 12.08,36.7325 12.52,37.25 C13.555,38.4675 14.3525,39.9425 12.6725,41.1475 C12.13,41.5375 13.4975,43.97 12.7925,44.5675 L11.89,44.8 C11,45.3475 11.4025,46.69 11.9425,47.255 C16.4875,52.0075 22.8925,54.9725 29.9925,54.9725 C43.785,54.9725 54.965,43.7925 54.965,30 L54.965,30 Z M26.1975,14.1075 C26.51,13.97 26.93,13.975 26.975,13.5575 C27.0125,13.1875 27.085,13.4425 27.175,13.3075 C27.2625,13.175 27.0075,12.9625 26.9,12.9425 C26.74,12.9075 26.63,13.115 26.5275,13.2025 L26.3475,13.25 L26.1775,13.4675 L26.1975,13.5875 L25.98,13.8525 C25.7675,14.0625 25.985,14.2 26.1975,14.1075 L26.1975,14.1075 Z" id="Shape"></path>
                        </g>
                    </g>
                </g>
            </g>
        </g>
    </g>
</svg>