<?xml version="1.0" encoding="UTF-8"?>
<svg width="60px" height="60px" viewBox="0 0 60 60" version="1.1" xmlns="http://www.w3.org/2000/svg" xmlns:xlink="http://www.w3.org/1999/xlink">
    <!-- Generator: Sketch 42 (36781) - http://www.bohemiancoding.com/sketch -->
    <title>history</title>
    <desc>Created with Sketch.</desc>
    <defs></defs>
    <g id="Welcome" stroke="none" stroke-width="1" fill="none" fill-rule="evenodd">
        <g id="Desktop" transform="translate(-375.000000, -3093.000000)" fill-rule="nonzero" fill="#0058A0">
            <g id="Credibility" transform="translate(0.000000, 2897.000000)">
                <g id="History" transform="translate(375.000000, 195.000000)">
                    <path d="M59.9999888,30.9913756 C59.9999888,47.559915 46.5685338,60.99137 29.9999944,60.99137 C13.431455,60.99137 2.02906087e-15,47.559915 0,30.9913756 L4.99919907,30.9913756 C4.95881555,42.9791259 13.4059831,53.3200565 25.1606558,55.6728117 C36.9153286,58.0255669 48.6918699,51.7325103 53.2685663,40.6527252 C57.8452627,29.5729401 53.9428474,16.8034201 43.9543937,10.1748018 C33.96594,3.5461835 20.6833953,4.91128168 12.2519977,13.4329789 L17.4047968,18.5857779 L0,21.9721773 L3.26159939,4.43778054 L8.70959838,9.88817953 C17.2593632,1.24227107 30.185027,-1.38229975 41.4297912,3.24430694 C52.6745554,7.87091363 60.0104575,18.8320129 59.9999888,30.9913756 L59.9999888,30.9913756 Z M27.4991949,15.9913784 L27.4991949,35.9905747 L44.9999916,35.9905747 L44.9999916,30.9913756 L32.5007939,30.9913756 L32.5007939,15.9913784 L27.4991949,15.9913784 Z" id="history"></path>
                </g>
            </g>
        </g>
    </g>
</svg>