<svg id="Hong_Kong" data-name="Hong Kong" xmlns="http://www.w3.org/2000/svg" viewBox="0 0 500 500"><title>Artboard 5Hong Kong</title><path d="M229.54,308.43l0,2.07.91,1,1.28,0,1.64-1,0-1.41-1-1-2.54,0Zm-38.63-3.78H189l-1,1,0,1.43.28.32,1.94,0,1-1.73,0-.65Zm-9.64,22.12-1,1.73,0,2.05,2.21,2.46,1.28,0,1.24-2.07,2.26-.37.64-1.36v-2.07l-1.6-1.73Zm-1.62,9.33,0-3.46-2.26-1.77-4.43,0-.66-.69h-2.56l-.6.67-3.22,0-1.62,1.75,0,1.31,1.62,1.06h2.56l2.88,2.42.32,1.75,1.28,0,.64-.67.34.37,1.28,4.81,2.22,2.44,1.94,0,1-1,.6-4.86-1.92-2Zm11.89-74.29-.32.32,0,1.38,1,1,1.28,0,.32-.35,0-1.38-1-1ZM228,248l.34-.39,0-2.05-1.6-1.73-1.24,0-.32.39v2.05l1.58,1.73Zm-.34,23.84,0-6.25,1.28-2.72,1.28-2.07-.64-1.43.64-1.38,0-2.77L228,252.1l-2.22.32.64-1.38V249l-2.56-2.1,0-1.36-1-1h-4.43l-.66.67H210l-1.9,1.38-1.9,0-1.62,1.7,0,.72,1,1,1,.35-.66.69,0,2.08.91,1h1.94l.91,1,.32,4.52,2.6,0,1.58,1.06-1.28,2.08,0,1.36.3.39,1.28,0,.64-.69.35.32L214.19,267l0,1.38-1.28,2.07v2.07l.64,1.38,3.52,1,.64-.67h2.56l.66-.69H226Zm-25.88,36.3-.32,2.44,1,1,3.22,0,.3-3.8-2.88-.32Zm-7-58.08-5.16.69-1.28-.69-.91,1,.61,2.79-2.56,2.1v.67l2.58.71,0,1.31-.7.74,1.65,1.73,1.25.69.64-.69,1.32,0,1.6-1-.06-2.77-1.22-2.08,0-1.38,1.28-.74ZM174.25,372.38l-3.86,0-2.21-2.42-.66-1.36.32-1.06,4.81-1.7-1-1.75-1-.3,1.3-1.41,0-2-1.55-.39-.66.71H165.9l-1.58,3.11.66.69,0,1.38-2.54,2.76,0,1.38,1.62.35,1.26-.69,1,1,.66,2.07-.66.67v1.38l-1,1.06-1.24-.69-1.94.67-1.25,2.79-.69-.71-1.26,0-.32,3.82,1.62.39.64,1.36,1.28,0,.6-.67,1.28,0,1.94-2.1h.66l.64-1.4,1.9-1.36h1.94l1.28,2.07.6,0,.36-1.7,2.55-2,0-1.43.7-.67Zm-15-16.24,1.3-1.4-1-1.68-.64.67H157l-1.3-1.36-1.94,0-1.22-2-1.28,0-1.3,1.36-1.32,0-1.21-2.07h-1.94l-.64.71-3.3-2.72-1.92.71-1-1.73,3.22-2.07v-.71l3-3.18.64-.71,3.2,0,1.26-1.36,1.28,0,1.3-1.4,1.6-.35,0-1.33-3.18-3.5-.62-2.07-1.6-1.73-1.32,0-.62-.72-1.28,0-.62,1.38-1.34-2-2.61,0-.64.64-1-.34.36-1,1.58-1,.64-2.07,1-1,1.28,0,.73-.94,3.17-.53,2.56,2.1,1.26,0,1,1v.67l1.64,1.06,7,0,1-1.73,0-2.69-2-.74,1.31-1.41V316l1.25-.69,0-1.34-.64-.71,0-4.12-2.58-.71,0-1.38.66-.72,0-2.76-.62-.65,1-1.06.6,1.36,2-1.38,1.28,0,.32-3.13-1-1.68-1.28,0-2.54,2.74-4.18-1,.34-1.75,3.2,0,.94-1.06-.94-1.68L156,293.22l1.32-2.07,0-1.38,1-1,6.37,0,3.22-2.05,1.9,2.77,2.56,0,1-1v-2.1l-.64-.69,0-4.13-1.92-3.43.34-2.44h2.54l1.28-.69L176.5,278l-.66.67,1.92,3.48,1.62.3.62.71,1.3-1.36,3.82-.69.64-1.41,1.28.69,1-.3,0-1.43-1.26-1.36.66-.72,0-2.05,1.3-1.41-.32-1.71-1-.34,0-2.1,1.9-2L188,264.87l-.62-2.74-1.6-1.73h-.66l-1.32-2.12-2.52-.65-.69-.71h-1.9l-1,5.21-1.53.3-1,1.08-1,1.73-3.86,1.41-1.91,3.46-1.94-.07L165,271.79l-.3,1.73-2,.69-.57,1.41-1-.37,1.94-4.13-1-1.75-2.55-.65-3.2,3.43-1.28,0-2.24,1.75,0,1.38L151.23,277l-1.94,0-1.9,2.1-1.94,0-.62,1.38-.74,1.47-.64-.74-1.58.41,0,3.41-.91,1.75-.68,0-1,1v2.07l-1,1-3.16,0-.69.71-2.56,0-4.82,4.47v4.79l-1,1.08-.26-1.06-1.64-1H121l-.62.69-5.77,0-.62.72-3.84,0L107.63,304l-3.82,2.07-1.9.72-2.6,2.05-5.72,0-.32,1.71-1.3.69-.61,1.41v2.05l-.35.37-1.25-.69-1.31.69-1-1.06,0-1.38-1.9-2.07L85,307.86l-1-1.06-.69,0-1.9-1.43H74.37l-1.28.69-2.51-1.38-1.28,0-1.94,2.12-.64-.69-1.28,0L64.13,304l-.91,1.75-1.32,2.07,0,2-1.31,3.5L59,315.11l-.62,0-2.86,3.8,0,2.1,1.3,2.07-.32,1-1.94,0-.3-1.75-1.58-1-1.3,1.41-3.2,1.36-4.46.67-3.56,5.92-1,1-1.28,0-.6-.67-3.22,0-1.91,1.38-1.28,0-1.6,2.44,0,1.38.91,1.06,5.78-.69.94,1-.64,1.36V341l-2.22,2.44-1.94,0-2.88,2.46,0,4.15.64.67,0,3.48-1,1-1.28,0-3.2-2.76-1.9,0-1,1.7,0,1.38-1.94,2.76.64,1.38-.61,5.55,3.2,3.43-.66,2.1-.62.69v2.76l.62,1.38,1.62,1.7,1.28,0,1.6,1-1.3,3.45-1.26,1.41.34,2.42,2.54-1.43,3.17.69,1.6-1-1.24-2.07,3.48-2.39,1.28,0L37.27,378l1.3,2,1.91,0,1.6-1.73v-.71l1.91-1.4,0-.67,2.88-2.39,3.5-.37L49.76,370l1-.32L53,367.29l0-.71,2.22-2.4,1.28,0,.64.69h2.56l.6-2.1.7.74,3.5.34-.64,1.38.64,3.43,1,1.06,1.28,0L68,371.76l1.9.69,3.84,3.46,1.94,0,2.58-3.41,1.9,1.36,2.55,2,2.54-1.38,1.94,0,2.88-2.42,0-3.45-1.6-2.42-7.06.67-1-1.06,1.62-1,2.24-2.37.34-1.11,5.09.07L92.28,360l2.58-1.38,1.28,0,5.74-3.46,1.28,0,1.3-1.38,3.82,0,1.3,1.36,1.9,0,.62-.69,4.5-2.76,1.28,0,3.84-2.79,6.73.37v2.76l-1.94,2.1,0,2-.64.69,1,1.75h.62l1.62,1.7,0,.71,1.28.69v1.36l-1.91,2.07-.6,2.07.91,1.06h1.94l.3,1,1.62,1.7,1.28,0,1.28-2.07,3.2,0,1.28-2.12h2.56l.34,1.77,1.58,1,.73-1.47.66-.71h2.56l.91-1,0-1.41,1.57-1h1.94l.3-1.7,2.21-2.42,3.24-.69,1-1.73ZM85.29,397.32l-1.32,0-.3.32,0,1.38,1.58,1.73,1.58-1.06,0-1.36-1-.32ZM99.63,285l0-1.38,1.87-1.38.06-2.76-1-.39-5.09,6.27-1-1.06,0-1.38-1.58-1-4.48,4.15-2.24,1.06V292l.64.69,0,1.36.68,1.41,1.26,1.36,0,.71,1.31,1.36v2.74L91.34,303l-.64,1.43.3,2.37h1.91l2.26-1.73-1.25-2.74,1.25-1.38v-2.81l1-1.71,1-.3v-5.58l.61-.69,0-3.43,1-.35Zm37.1,96.75-1.6-2.42-3.15,0-2.92,4.51,0,3.43,1.58,1,1.28,0,1.94,2.09,1.9,0,.66-.69,2.24-.35.64-4.17-2.58-.67Zm43-76.82,0-1.38-1-1h-2.56l-1.28,1.36-1.9,0-1.64,1,1.32,2.07.64,4.17.94,1.68,1.28,0,.69.69,2.54,0,2.24-1.7v-2.77l-1-1.73h-2.56l-.64.69-1-.32,1.62-1.75Zm-60.87-30.35.61-2-.94-1.06-1.92-.67-1,1,0,2.74,1,1h.66Zm15.63-28,1-1-.94-1h-.66l-.34.32,0,1.38.35.35ZM130,265.29l-2.22,1.78-.61,3.46,1.6.3,1.6-1.73ZM73.43,300.23l-.3-3.82-1.94,0-.32,1.75,1.26,1.36.36,1ZM236,308.45v-.72l-.34-.34-1.28,0-.28.39-.06,2.05.34.37Zm12.49-27.31,1.88-.69,3.2,4.17,1.28,0,1.6-2.42,0-1.38,1.92-1.41,0-1.38-1-1-1.86,1.43-1.94-.07-1.31-.69-1.25-2-1.94-.07-1.28,2.12-3.2.69-.3,1.71,1,1.75h2.55ZM345,354.41l-3.54.3,1.64,1.77,1.28,0,.91-1Zm9.3,51.49-.64-.69,1.28-2.79-1.32-2.07,0-1.38-1-1-1.28,0-2.54-2.74-2.24,1.75-1,1.73-1.94-.07-3.5,2.44L337,406.55l0,2.81,1,1,.64-.71.3.37.32,2.42,2.86,1,0,.71-1.26,1.4.32,2.42,1.91-.69,2.84-2.44,0-2,2.26-2.49.92.37.34,1h5.78l.32-2.37-.66-.71Zm-15.06-8.66,2.9-2.44v-5.5l-1-1.08-8.29.74-1.6,1v1.38l.61.71,0,4.12,1,2.46,1.6-1.08.34-1.73,2.58,1.38Zm-12.13,2.07h-.66l-.35.34,0,1.38.28.32.66,0,.32-.39,0-1.38Zm14.69-41.47-.32,1.06.34.32h2.56l.32-1-.34-.37Zm-4.46,53.93-.66.67-.6,0-.38.37,0,.67.34.37,1.87,0,.32-.34,0-1.38-.32-.32ZM267,371l-3.22,0-.6.67-1-1-.32-1.77-1.28,0-1.3,1.41-1.28,0-1.9,2.1h-2.54l-1.3-.69-.64.67h-2.56l-.64.74-1.28,0-1.62,1.68-.94,2.44-2.24-3.09.3-1.73h.62l1.62-1.75.3-1,1.28,0,3.56-1.73.64-1.41-.64-.69V363l-1.58-1.73-2.58,1.43-1.28,2-1.91-1.36-1-1.73,0-3.48-1-1-1.32,0-.3-1-1.91-1.41.64-.71,0-1.38,1.26-1.36,0-3.46-.92-1-1.28,0-.69-1.36-1.28,0-1.88,2.74-3.2.67L228,350.24l-1.28,0-1,1v1.43l2.24,1.7,1.62.37-1.31,1.34,0,1.38,2,1.38-2.92.35L225.07,361l-.58,1.36,0,2.79.34.34.64-.74,3.81,0,.66-.67,3.82-.69,2.58,1.36.92,1,0,4.15.62.69-1.26,2.79,1.94,2.76-.64.67,0,4.86-.64.67,0,4.19L235,388.94l-1.91.69-.94,1.06.6,4.12,2.9,2.42h3.2l.66-.69,1.9,1.4h1.9l1.28-2.07h.66l1.3-1.36,3.2,4.12,1.28,0-.32-4.47-2-3.48,0-2.76,1.28,0,1.6,2.4,2.58,1.38,1.22,2.07,2.58.71.68,1.36,1.28,0,.3-1.73L258.34,392l0-1.38-2.58-3.45-.61-3.41-1-1.08-1.62-.3.32-1.06,1.28,0,1.94-1.36.64.69,1.6-.37.6-2.76,2-1.36.32-1.06h.62l1.92,2.1h1.94l1.94-2.79.94-.3-.34-2.46Zm76.75,4.19-.32.34v.65l1,1h.6l.38-.34,0-1.38-.35-.32ZM253.91,343.7l0-.71-.34-.32-1.28,0-.64.74-.94.3v.71l.3.32h1.94ZM267,342l-1.9,0-.64.67h-1.9l-2.58-1.38-1.28,0-2.88,2.44,1,1h.62l1,1,1,1.75,1.3.69h1.87l.32,1.7,1,1.08,1.24.69,3.22,0,.32-2.42-.66-.71,0-5.51Zm-17.57,18.29v-2.1l-.34-.32h-.6l-1.62,1.7v.71l.34.32,1.9,0Zm66.2,12.78-1,1.06,1,1,1.28,0,.28-.34,0-1.38-.32-.32Zm-46.35-20.38-.35-.37-1.9,0-.3,1,1.24,1.4,0,.71,1,1h.62l.34-2.44-.64-.69ZM291,359.6v.71l.3.32h.66l1-1-1-1Zm-4.16-9.33-.62-.71-1.28,0-1,1,2.21,3.09h1.94l2.24-1.75-1-1.68Zm.66,15.2-.66-.71-.62,0-.32.32v2.76l1,1.08.62,0,.64-.71,1.28,0,.3-1.73-.92-1Zm45.39,9,4.48,0,.66-.69.62.71h2.6l.6-.67.68.69,1.9,0,.64-.67.94-.34-.3-1H345l-1.87-2.05-2.28-.39.64-.67-.62-.71v-5.5l-2.58-4.14v-2.07l3.84,0-2.24-3.16-1.6-.34,1.28-1.36v-2.81l-1.92-2,0-1.38-1.3-1.36,0-.71-1.28-.67,0-.71,1.6-.32,1-1.06.3-1.73.64.71,1.28,0,1-1,.64-4.15.64-.69-.64-1.4v-2.77l.66-.67,0-1.38-1.62-2.44H338l-1.26,1.41h-.66l-1.87-4.86-.69,0-3.2,2.77-1.28,0-.3-1,1.25-.74v-5.53l-1.58-.35-1.62-1.73,1-.34,1-1.73-3.54-4.47-1.28,0-.64,1.4-1.94,0-1.26,3.46-1.9-.69-2.9-3.06,0-1.43-.92-1.71h-7.06l-.94-3.13-1-1-1.28-.69-1.9,0-.69-.64-.6.67-3.81,0-.66.74-2.56,0-3.22,4.15H290l.34,1-2.24,1.75h-1.94l-1.24-.69L283,310.87l-.64-.69-.64.67-1.28,0-.6.69h-5.16l-.64.67h-2.56l-1.91-2.05-3.82-1.4L262.5,306h-1.94l-.58-.71h-7.72l-.64.69-5.76.71-1.9,2.05-1.32.74h-2.54l-4.46,2-1.6,2.4,0,4.19,1,1,.62,0L239.8,323l1.28,2.79,0,1.31,1.6,1.77,1.28,0,.64-1.38.94,1.75.64,1.36-.62,4.86.64,1.36,2.54,2.1.3,1,2.62-1.38,1.88,1.38,1.28,0,.62.71,8.32,0,.68.71,3.2,0,1.25,1.41,1.9,0,.35.39-.66.71,0,1.34,1.3.69,0,.71-1.58,1-.32,1.06,3.22,2.07-.66.69,0,1.36,1,1,.69,0,2.54,2.1,1.28,0,1-1.68.64-5.53.64-1.38,1.26-.69,1.6-3.11h5.16l.3,1-.64.67v2.76l1.58,1.73.66,0,1.32,1.41,1.85-1.36h1.94l1,1,.64,1.36v2.1l-1.26,1.36,0,1.38.69.69-1,1.73-1.64.37.32,1.7,4.8,1.77.66,2.07-1.6.32-2.22,2.42,0,1.36.61.71.28,2.42,2.61-.67,2.56-2.1,1.9,0,.32-2.44,2.24-1.75,1.28,0,1,1,.64,1.36V370l-1.28.69L307,372v4.86l-.64.67,0,2,.68.69v2.81l1,1.68,4.44,0,.66-.67h2.54l1-1.08v-2.74l-.61-.71-.69-2.74-1.26-1.4,0-1.38-1.24-1.33,3.79-3.5-.62-.65-1-1.75-2.54-1.38-2.26-2.42,0-2.1,3.2-3.43.3-1.06,1.28,0,1.94-2.79,1.92,2.1,1.9,0,1-1-.64-1.38v-2.74l-1.6-2.44-2.24-1.06-.66-4.84.34-.35,1,1,0,1.43.91,1.68,2.61-.71,2.54,2.1.66-.67.32.32-.66,2.76,1.31,2.79,0,1.38.62.69v4.81l-.66.71.64.71,0,1.36,1.28.69,0,1.38,2.28.35.92,1,.62,3.48L330,371.32l1,2.42,1.28,0ZM375.7,119.26l.38-.39,0-.67-.34-.37-1.28,0-.32.32,0,.71.28.35Zm-5.1-2.1-.91,1.06,0,.67.34.32,1-1v-.71ZM377,129l-.32.32v.67l.3.32,1.28,0,.32-.32,0-.72-.28-.32Zm3.16-5.58.7,1.41,1.28,0L384,122l1.28,0,2.58-1.39.32-1,2.56-2.77,0-1.43-2.9-.32-.34-3.14-4.8-3.12-1.28,0-1,1.73,1.3.69,0,4.16-1.3,1.36v.71l-3.16,2.77-.32,1-1.3-1.36-3.84,0-.64-.69-1,1,0,1.39,1.92,1.38-.68,2.08,1.6,1.78,1.32-.74H377l1.88-2.75ZM382.43,96l-3.52-.35-1,1.73,0,1.43.91,1,1.28,0,1.26-.69Zm-15,25.3-.32.32v.67l.3.39.66,0,.35-.35,0-.67-.3-.37Zm-1.26-18-1.3,0-.32.32,1,1.08,1-1.06Zm18.21-6.58,0-1.39L384,95h-.61l-.32.35,0,1.39.35.32.66,0Zm-15.67,5.91.64-.69.64.72,1.28,0,2.56-2.1.66,0,.92,1L373.52,103l.3,1,3.18,0,1.28.69,1-1.73v-2.05l-1-1.06-1.94,0-1.9-2.1h-.66l-1-1v-2.1l-1.6-.3-1-1.09,0-1.39.94-1h3.22L377,93.6l1.28,0,3.22-2.77,3.17.67.64-1.41,1.28,0,.94-1.06-.91-1-1.28.74-.66-.71h-5.11l-.64-.69-.64.67-4.46,0-.68-.65-.6.67-.68-.69-1.9,0-.61-2.82-3.22,0-.3,3.81.94.32,1,1.73-3.22,0v2.1l1.6,1.69,2.58,1.43.94,2.4-.94.3-.64-1.32-2.56.67-1,1,0,1.39-1.26,1.41.91,1Zm62,43.59.32-.32,0-1.38-1.62-1-1.28,0-.3,1.06,1.58,1.68ZM448,174.57l1-1,0-.71-.28-.32-1.28,0-1,1,1,1Zm-85-61.56-.32,1.06.94,1.69.66-.67,1.26,0,1-1-1.58-1Zm89.23,73.74.28.32,1.28,0,.39-.35,0-.67-.34-.32-1.28,0-.32.35Zm1.62-1.75.28-.39,0-1.31-.34-.39-.66,0-.28.32,0,1.38.34.39Zm-66.54-78.92-.66,0L385,104.38l-1-2.47-2.56-.67-1,4.5,1.58,1.73,5.8,2.75,1.24,1.41,1.9,0,.32-3.12-.62-.65V105l1.3-1.36,0-2.08-1.24-.69-.36-1.71-1.24,0-1,1v2.75l.64.72Zm12.13-8.31.32-.35,0-.71L398.76,95l-1.94,0-.32,1,1,1.73ZM417.65,132l0,1.38,1,1.08.64-.74,1.9,0,.32-3.16,2.56-2.75v-.67l-1.58-.35-.61-.72-3.22.67-1,1.08,0,1.36-1.26.69,0,1.38Zm-1,15.6,1,1,0,2.1.68.65v2.81l1.9,0-1.25,2.05v2.1l.64,1.43,2.24.28,2.22-2.35v-2.82l1.91-1.36,0-1.38.62-.74-.62-2-1-.37-1.58-1,0-1.38,1.3-1.41,0-1.36-1-1-1.28,0-1.3-1.36-2.56.67-1.91,2.79-1.6,1,1,1.75Zm-68.1-49.55,0,.71,1,1.09.66,0,.28-.37,0-1.34-.28-.37-1.32,0Zm11.83,6.6.32-.35-.69-.65,0-.72-.34-.37h-.62l-.32.39,0,1.34.34.37ZM54.91,256l1,1,1.28,0,.94-1.75,0-1.36-.32-.35-1.28,0-1.6,1.73ZM18.75,366.25l-1.94,0L16.49,368l.7.69.26,1,1.28,0,1-1,0-1.38ZM56.8,260.82l1.28,1.41,0,1.38,1.66.3,0-4.13H57.1Zm-4.5-25.59-.62,5.56,2.22.32,1-1.73-.62-2.72,1.24-2.79-.62-2.05-1.58-1.08-3.84,0-1,2.4,2.28.35ZM74.39,406.32l-1,1,.64,2.76-1.6.35-1.26,1.36-.64-.69-1.94,0-2.54,1.36-.34,3.08,1.57,1.75,1.28,0,.64.67,1.92-2h2.56l.64.69,1.26-1.41,1.32.69,1.58-1.73,0-1.38-1.87-2.07,1-1h1.91l.32-1.7-2.24-1.75Zm-2.88-2.44v-.71l-1-1-1.28,0-.3.39v.69l1,1,1.28,0Zm8-9.3H76.31l-1.3-.74-1.9-2.74H71.17l-1,1.75,0,2,.62.74-.64,2.74,1,1.06,1.28,0,1-1,.32-1.75,1.28,0,1,1,0,2.07,2.87,1,.64-2,2.24-.39,0-2-1.66-.37ZM66.69,406.32l2.24-1.77-1-1.73-2.56.71-1,1,1.62,1.73ZM330.33,89.47l.66,0,.25-.32V88.4l-.3-.32h-.61l-.36.35,0,.67Zm23.62,13.13-.62,0-.32.32v.71l.34.32H354l.35-.35,0-.67Zm-1.56-2.4,0,.67,1,1.09,1-1.06v-.67l-.3-.39-1.28,0Zm4.8,3.81.32-1-1.6-1.73h-.66l-.32.35,0,2.05.34.37ZM353,89.1v-.67L350.75,86l-.6,0-.64-.72L349.17,87l2.26,2.45Zm-269,328.23-.62.71-.66,0-.3.34,0,1.36.38.35H84.6l.35-.35v-2.07l-.35-.35ZM346.31,88.79l.32-.39,0-1.34-.34-.37-1.9,0-.28.35,0,1.39.34.37Zm1.28,8.31.61,0,.64-.72.68,0,.28-.32-.64-.72,0-.71-.35-.32h-.66l-1,1,0,1.36Zm-4.5-4.87-.32.32,1,1,1.28,0,.94-1.06,0-.67-1-.37-.66.74ZM389.15,295l-.28.39,0,1.34.34.37.62,0,.64-.67h.62l.32-.35,0-.71-.35-.32Zm39.32-6.54,0-4.84-1.58-3.11-2.58-1.38-1.94,0-.91,1.06v3.43l4.11,8,1.65-.35,0-2.76Zm-2.24,34.91h-.59l-.35.35,0,.71.28.32.69,0,.32-.32,0-.72Zm2.9-64.64-.35-.37h-.6l-.32.39v.67l-.64.67.32.37h.62l1-1Zm-1.26,65.66,0,1.43.32.32.66,0,.3-.32,0-.67-1-1Zm-7.06-52.52,2.88.37,1.3,1.36.94-.35.66-2.79L425.9,269l1.34-2.07,0-1.36-1-1.75-1.9,0-1.26.69-2.28,2.42.66,2.74-.64.74Zm13.75-24.55-.32.32v.72l1,1,.66,0,.28-.32,0-1.38-.35-.32Zm10.24-4.84-.32.32,0,2.1.3.32,1.28,0,.32-.28,0-1.43-1-1ZM430.08,286h-.61l-.32.39,0,1.34.28.37.62,0,.38-.32,0-1.38Zm3.82-13.83-3.16-2.74-1.9,0-.34,1.73,2.22,3.14,4.77-.37,0-.72-1-1Zm-4.77-3.76,0-.72-.34-.37h-.66l-.28.39,0,.67.34.32.66,0Zm-7.06-7.63-1.24-1.36.64-1.38-.66-1.43.3-2.42,1.28,0,1.3,2.08h1.94l1.6-1.06-1.6-2.4-1-.32.36-.39h2.56l1.26,1.41,1.28,0,.64-.67,1.62-.37,0-1.38.6-.67-.64-1.43,1-.3.32-1-1-.37-1.9-2.72-1.28-.69-1.9,0-1.91-2.05h-5.17l-1.24-.69-1-1.75v-2.1l-1-1H416l-1.3,1.36-1.28-.69h-1.9l-.64,1.43-1.3-1.41-3.18,0-1.26.72-.68-.69-1.28,0-.57,1.38-.68-.65-.29,1.71.64.71-1.62.3-2.24,1.77v2.74l1,1,.66,0,1.87,2.08,1.28,0,3.5,3.11-2.22.32-.32,2.44,2.9,3.8H409l1.94-2.79,1.28,0,.36-1.75.92-1,1.28,0,.94,2.44,1.3,1.36-1,1.06-1.3,0-.3,1.06,2.56,6.23V267l2.9.32,2.24-4.45ZM408.68,235.8l0-.64-.28-.35-.66,0-1,1.06.34.32,1.28,0Zm5.09,26.33.34.37h.62l.32-.39,0-.67-1-1-.28.34Zm.64-9-.32-.32-.94,1,.3.32.66,0,.32-.35Zm14.07,22.17,0-.72-.34-.35h-1.94l-.25.32,0,1.38.35.39,1.28,0Zm3.2-11.11,0,.72.34.32,1.26,0,.3-.32,0-.67-1-1ZM425,277.67l-.32.34,1,1,.61,0,.36-.32V278l-.34-.35Zm30.38-78.51-1.28-.69-.32-1.71-3.2-1.38-1-1,0-3.48-.68-.69,0-1.38,2-1.43,1.26-3.44-1-1-1.94,0-.6.67-1.94-2.77-.6.67-.34-.32-.32-2.42h-.69l-1.9,2.05-3.82.71-1.3,1.36H435.2l-2.56-2.05-2.58.72-.6,1.34-1.6-.3v-2.81l-.69-.69,0-1.34L425.92,175l1-1.06,1.6-.32V168l-1.57-1L425,164.24l-1.3-.69-2.88.32,0,4.15.64.69,0,1.43-2.81.35-2,1.36-.64-.69-1.6.35,0,2.05L415,175l1,1.71,1,.37,0,2.08-.6.69.62.69-.6.69,0,4.13-.64.69,0,1.43.68.64-.64.72,0,1.38,1.32,2.07,0,.67-1.28.74.64.65-.32,1.06-1.28,0-.62-.71-1.28.69-1.62-1.06,1-1.73,1.6-.32,0-1.36-1.26-1.41v-2.77l-1.26-2.08v-2.77l-1-1.06-1.25,0-2.24,2.42,0,3.46-.94,1-.68-.69-1.56.37,1.28,2.05-3.54,1.06-.34-1,2-1.41,0-3.44-.64-1.41-1.92-2.05,1-1.06,3.84,0,1.58-1.75,0-3.42-1-1.08-1.62-.3.64-.74L403.56,168l1.28-2.08v-3.48l1-.35,1.88,1.41h1.94l1.58-1v-2.77l-2.54-4.2v-3.42l-.64-.71-.66-2.75-1-1.09-.94.35v.67l-1.94,2.15v2.75l.61.71-.6.67v2.77l-1.3,1.41.68.69-1,1-1.26.69-2.58-.71-2.56,2.1-.34-.32,1.28-2.79.64-3.44,1.6-.37.32-1.06-1.6-2.4-1.28,0-.64,1.41-1.9,0-.34-1-.64-.65.64-1.45-1.24-3.39-1.66-.42-.3,1.78-.94,1.06-2.56,0-3.2,4.15-1.26,0-4.2,3.78-.66,3.49-1.26.69.68.72,0,4.13-1.58,1.75-1.32-2.12-.64.71H370.6l-.64-1.36-1.9-.07-.36,5.91-.3.35-1-1v-.67l-1.57-1.09-1.28,0-4.8,4.47-.3,1.78-.66,0-1,1.06.32,2.42h.66l1.26-1.36.64.65,1.25,0,.36,1-1.3,1.36,0,1.38,1.91,3.48v2.77l1.6,1.73,2.21.35,0,.67-4.16,3.83-1.92.69-4.2,3.09-.32,5.9-.94-2.42-3.82-4.15,0-.67,1.91-1.41,0-6.92-.64-.69,0-1.38L350.15,185l-3.84,0-1.91,1.41h-2.56l-.66.69L339.92,185,338,185l-1.26,1.41h-2.56l-1.3,1.36-.32-1.71,1.62-.37,1-1-.36-1h-2.56l-2.54-1.38-1.31.69h-1.94l-.3,1.71,1.3,2.08-2.26,2.47-1.6.3-1.26,6.23-2.26,1-.3,1.71-1.91,1.43,1.28,2.08L316.55,204l-.66,2.79-1.26.69,0,2-1,1-1.94,0L310.5,212l-2,.65-.6,1.38-1,.37-2.54,6.23.62.64,1.3,2.79-1.94,3.46-.3,1.73-3.84-.64-1-1.08-.32-1.71-1.28,0-.66.74-1.26,0-1,1.73-2.9,2.42-1-.35,2.56-2.77.64-4.15,1.91-3.46,3.84-4.17.64-2.05,4.18-4.5.6,0,2.24-1.75-.64-1.36,0-3.48,1.26-.69.64-1.38V195.7L306.32,193l-.3-1.06-1.28-.67-3.84,0-.64-.72-1.62-.35v-5.51l-1.6-1.8-1.28,0-1.92-2.08-3.17,0-.64.71-1.3-.69-2.54-2.07-2.58-.67-1.6-1.78.66-.69-1-1-4.5,0L274,171.85l-1.28,0-.36-1,1-2.4,1.24.69.64-1.38,3.24.69.64-.74,1.28,0,.64.71,1.28,0,.32-3.16,2.22-.32,3.22-2.77,4.46,1.38.68.67,1.24,0,1.26,2.05,1.94,0,1.3-1.41h2.56l1.25,1.41,1.3.69,1.26-.69.62.69,1.28,0,1,1.08L307,171.53l-1.3,1.34,1,1.09,1.28,0,.64-.67,1.28,2.05h.66l1.28-2.08,1.24.69,1.32-.69.32-1.06-1-1-2.56-.72-1.6-3.78-1-1-1.28,0L305,163.89l1.25-7.64,2-1.38.32-1,.62,0,1.6,1.78,1,2.42,1.28-.69h2.56l1.9-2.08,4.51-1.38.3,1-.64,1.41,1.6,1.73,2.24-1.71.61-2.77,1.94-2.1.62-2.05,2.56-2.82,0-1.34.66-.72,0-4.15-1.26-2.05v-2.06l-.66-.69.35-1.73,1.6,2.4.32,1.71,3.2,1.41,1.25,1.36,1.94,0,.61.69,1.28,0,2.58,1.38,1.9,0,.62,2.75,1.28,0,1.62-1.75,0-2.05,1.62-1.73,1.24,0,.64-.67.64.69,1.94,0,3.79-2.05,3.56.35L361,140l-1,.35,1,3.79,1.28,0,1.92-3.46,1.62,1-.66,2.05-1.26,1.41,0,1.38-3.17,2.1-.34,1.73-3.84,0-1.25,2.12-.66-.72h-2.56l-1.24-.69-1.35,2.08-3.17,0L345,155.24l-.94.35,0,1.38L342.75,159l1,1,1.28,0,.66-.74,1,.37-4.77,5.91-1.62-.37.66-.67-1-1.09H338l-4.12,4.5,0,2.1-.64.67.3,1.75,1.3,0,.34-1.71,1.58-1,4.5,0,1.87-1.43.66,0,1.62-1.75.64-2.1,3.52-3.78,3.17-2.1,2.54-.67,0-1.38L352.67,158h-2.54l0-1.38,1.9.67,2.56-2.08h4.5l.62-.67,1.25,0,1.94-1.36,1.25,0,1.31-1.41,1.3.69,1.25-1.36,1.92-.69,1.3-2.08.62.65.66-.67,3.81-.69,3.84-2.79,1-1,0-1.38-1.28-.69,1-1.06,1.28,0,1.24-1.38.66,2.08,3.81-3.46h.62l5.78-7.64,1.28,0,1.9-2.08,1.3,0,3.5-2.4,0-3.46-1.6-1.75-3.84,2.08-2.56,2.81-1.9,0-.7.69-1.9,0-.64.74-2.56-.07-.66.74h-2.56l-1.26.69-.59.67-1.28,0L378.89,131l-1.26.69-3.79-3.46-1.32.69-.34-.32-.28-2.42-1.94,0-.61-2.79-2.9.35,0,.71,1.3,1.41-.94.35-2.24-1.06.64-.67-.35-1.11-3.17,0,0-.67,2.28-.37-2.26-1.73-.66.69h-3.22l-.25,1.06-1.66.3-1.24,1.41-1.62-.35,1.91-1.36v-2.1l-1.3-.69,0-2.06,1.6-.35,1.94,2.77,1.28,0,.3-2.4,1-1.78.94-.3,0-1.38,3.88-3.44-1-1.75-1.28,0-3.82,3.51-.32-1.78,1.9-2.75-.32-1.75-1.32.69h-1.9l-1.91-1.36-.32,3.12-2.87.32-.64-.69-2.54,0-.66.62-2.24-.28,1.3-2.12,0-1.34,3.88-2.79-1-1.73-2.92-1,0-1.39-.91-1.75-.66.74-1.28,0-1.3,1.41-1-.37L342.8,96l-.64-4.18,1.6-.32,1-1.06-.36-1h-2.56l-.61-.65-1.28,0-.68,2.05-1.28,0-.61-.72-.66.69-.94.35-.3,1.06h-.64l-.3-1.75-1-1-3.2.69-1.62,1.73,0,1.39-1.92,3.46,0,1.38-.61.69v2.08l-1.62,1.75-2.56.67-1.92-1.41-1,1.75,0,1.41-2.26,1.06-1.24-1.41-1.34,0-1.56,2.45,0,1.39-1,1-.9-.3-.32-1.78-2,1.39H306l-.66.71-.28-.37.64-1.34v-2.1l-.64-.71,0-4.85.32-.35,1,1,0,.72,2.21.35,1.58-1.75.66-3.44,3.51-3.83,1,.37L314,94.68l.3,1h2.56l1.44-1.19L318,94l-.09-.37,0-.37.22-.13.15-.24.23-.25.06-.09.16-.25.23-.53-.14-.4-.38-.37-.43-.67-.41-.48-.38-.29-.09-.28-.1-.16L317,89h0l-.29,0h-.36l-.33-.22-.48-.21-.42-.14-.35-.07-.2-.25-.1-.39,0-.38-.11-.23-.18-.26-.38,0-.28-.26,0-.1-.12-.24-.15-.3-.17-.29-.26-.27-.68-.53-.25,0-.18.06-.22.08-.13.41-.4.09-.42-.07-.36.18-.47,0-.71.06-.49-.06-.81-.57-.58-.38-.52,0-.35-.15-.37-.35-.29-.12-.42-.31-.38.09-.23.18-.24.14-.32.18-.51,0-.27-.2-.58.05-.61.05-1.1.11-.39.09-.68.07-.28-.24-.15-.31,0-.07-.17-.32-.34-.18-.38.08-.22.19h0l-.23.2-.39,0-.26-.14-.08,0-.3.06-.1,0-.39,0-.5,0-.43,0-.2.24v.09l0,.41-.17.34-.8.27-.6.12-.47-.1-.29-.11-.35-.17-.35-.08-.43.2-.52.07h-.53l-.67-.06-.64-.06-.46,0-.38.13-.25.38-.12.29,0,0-.39.06-.3-.09-.1,0-.6-.18-.73-.15-1,0-.35-.11-.34,0-.26.06-.12.37-.06.17-.24.46-.52-.24-1.34-.74-.47-.2-.14-.26,0-.78-.07-.25-.06-.24,0-.14h0l0-.25,0-.66-.22-.32-.38-.41-.24-.29-.26-.2-.66.14-.28.11-.13.05-.5.13-.45,0h-.37l-.32-.07h-.54l-.36.12-.36,0-.27-.13-.17-.14-.44-.37-.18-.25-.2-.2-.29-.11-.51-.11-.34,0-.29.1-.22.13-.25.22-.29.22-.08.33-.1.26-.22.33-.29.06-.43.1-.47,0-.52-.08-.33-.27-.12-.33-.14-.31-.3-.79-.25-.34-.42-.27-.37.06-.29.13-.23.07-.48.47-.18.25-.56.83-.44.68-.2.38-.2.34-.21.62-.09.27-.12.36-.16.26-.26.3-.17.32-.1.56-.25.26-.54-.14-.45.07h-.33l-.07,0-.17-.06-.25-.09-.36-.09-.45-.15-.37.1-.24.53v.69l-.07.29v.34l.1.39,0,.37-.22.51-.22.23h-.35l-.35.09-.25.36-.13.51-.08.68,0,.8,0,.21.15.4.65.21.32-.1-.2-.42v-.33l.36-.07.3.06.24.32,0,.44-.17.36-.32.2-.4,0-.33.17-.24.3-.22.32-.35.31-.25.3-.5.6h0l-.07.3v.48l.26.63-.36.37-.37.22-.62.07-.33.28-.36-.13-.38.09-.56.26-.32-.15-.06-.31.07-.38,0-.19-.65.16-.33-.09-.26-.09-.33.12h0l-.32,0-.13-.39-.32-.17-.4,0-.52-.17-.33-.05-.3-.3-.32-.14-.77,0-.3-.06-.45.12-.65.55L249,96l-.35.21-.11.08-.22.16-.08.11-.24.34-.21.07-.22-.19-.26-.3h-.36l-.38-.12-.17-.25-.24-.08-.38.35-.35.22-.29-.09-.27-.26-.4-.11-.3.18,0,.34-.12.42-.15.34-1,1-.36.18-.16-.08-.15-.08-.57-.4v-.39l.34-.11.07-.32-.31-.24-.57.27-.21.44-.09.45-.46.36-.29,0-.73.23-.28.16-.3.1-.31.27-.34.35-.18.35v.48l.23.28.41.67.12.41-.34-.07-.36-.32-.23-.09h-.32l-.37.27.08.41.2.17.13.38-.67,0-.48-.05-.5,0-1-.38h0l-.5.11h-.06l-.33.19-.37.41,0,.69v1.93l-.46.33-.26.12-1.14.67-.56.12-1-.37-.4-.27-.38-.34-.24-.35,0-.47.08-1.06,0-.42,0-.89-.08-1-.21-.36-.38-.24h-.44l-.32.36-.17.66-.17.29-.24.32,0,0-.46.12h-.05l-.45,0-.34-.13-.28-.13-.46.06-.29.4v.38l0,.5-.08.44-.15.42-.31.21-.43,0-.09-.31.12-.33,0-.27.07-.32.06-.3,0-.08.17-.65-.2-.55-.34-.06-.71.2-.64.23-.33.14-.06,0-.5.09-.71.19L220,103l-.37.06-.41.07-.38-.08-.34-.14-.16-.12-.08-.05,0,0-.33-.31-.27-.43-.07-.11-.19-.3-.27-.42-.27-.28-.31-.2-.33-.17-.38-.12-.5-.18-.49,0-.51.11-.31.08-.06,0-.3.08-.38.12-.36.22-.39.35-.27.28-.28.26-.31.41-.21.27-.18.33-.22.35h0l-.24.36-.23.33-.2.4-.22.28-.31.19-.33.13-.55.14-.35,0L208,105l-.75.13h0l-.41.06-.9.31-.46.2-.29.27-.25.41-.07.45,0,.68.1.35.39.46.3.32.45.4.23.16.82.45.11.06.31.16.46.24.65.39.25.16.1.06.1.07.39.29.43.48.13.23.06.38-.08.45-.22.67-.5.68-.53.74-.91,1v.39l-1.64,2-3,1-2.82-2.24-3.11.1-2.56.79-1.9,2.08-.66,0-1.62,2.4-.64,3.48-2.21,2.42-1.61,1-2.26.61-3.13-1-.68-.65-5.12,0-3.82,3.51-1.91.64-2.92,3.16-.62,2.72.64.72.64,4.18,1.32,1.34,0,2.1-.64.69V150l.64.72-.66.67-.3,3.81-1-5.21-1.6-1.68-1.28,0-2.51,2.1-4.5,2.05-1.25,1.41h-3.22l-.3-3.83.6-.69,0-3.46,3.2-4.13-.94-1.73h-1.94l-.66.67-3.84,0-.62-.65h-1.94l-.6,1.43h-2l-2.26,1.78-1.94,4.87-2.2,3.81-.66,0-2.56,2.77-.66,0-3.5,3.83,0,.67L125.9,164l-.68,2.75-2.85,3.14-10.21,4.84h-2.61l-1.6,1.78,0,.65-5.8,6.23-1.26,6.25L98,192h-.61l-1.58,1.71-.36,3.09-3.81,2.08-3.18,0-.66.71-3.84,0-.64.71-1.26-.69H79.53l-.69.69-1.25,0-2.24,2.4,0,1.36-1.56,2.45-1.3.69H69.94l-1.6,1.73,0,2.05,2.24,1.75,3.21,0,3.54,3.11.62,1.38-.66.69,0,2.77,1.55,2.42h.66l1.58,1.71,0,1.38.64.72v4.8l-1.26,1.41,0,2.05,3.2,3.48.36,1.06,2.54,1.38,5.76,0,.66.71,3.2.69,2.56,2,1.24,0,1.3.69,1.3-.69,1.26-2.08,4.5-2.1,1.26-1.36,3.54-.35v-1.38l3.18-3.46,0-3.48,1.3-1.36,0-.69,2.22-2.44,1-.37,0-2-.6-.69.3-2.42.64.69,4.78.32,0,1.38,1.9,2.08,0,2.77-.62.72-.6,1.36-.06,2.81.66.62,0,1.43,1.55,1.68,1.28,0,3.22,2.77,3.22,0,1.56,1.68-.91,1.75-.66,0-.92,1,1,1.73,3.16.72.66-.69,1.26,1.36,1.94,0,.64.67.73-.81.64-1.38h1.9l2.56-2,1.28,0,1,1.06.35,1.71L155,244.5l2.9,1v2.1l1.62,3.11,3.84,0,.62.72,3.84,0,.64-.74H171l1.91-1.36,1.28,0,4.47-2.81,3.84,0,.64-.67,1.28,0,5.12-4.13,1.28,0,3.81,2.05.64.71,3.86-.69,1.28-2.12,1.28-.65,3.88,0,.62-1.41,3.84,2.12,1.88,0,.66-.67,3.84,0,.64-.74,4.48-.65,2.55-2.77,4.5.67,2.86,3.8v2.1l-1.9,2,3.2,4.17v2.1l.64,1.36-.64,1.34.64,1.43,1,1,1.28,0,1.28-2.12,1.6-1,.3-1.73,1.28,0,.32,1.7-.66.69v2.79l-.6,0-1-1.8-1,1.73,1.62,3.11,3.18.76,4.5,5.51,1.94,0,1.88-3.46.36,1.75-1.32,2.77,1.58,1,1.28,0,.68.72,5.72,0,1.32-.74,1.26,1.41h.66l6.06,5.88-.64.72,0,4.15.94,1.73.64-.67,2.56,0,1,1.73,0,3.48.58,1.36-1.9,1.43,0,1.31.62.71L274,302.58h5.78l1.92-2.81.62,0,.64-1.38,1.28,0,1.58-1,0-2.77,1-1.73,5.08,2.81,1-1.06v-2.1l.64-.67V289.1l-1-1.08-1.58-.3,0-2.1,1-.34,2.22-2.42,0-1.38,1.6-1,4.48,4.86.66,0,9,9,1.62-2.4-2.9-3.8-1.9,0L305.34,286l-.62,0-9.23-9.33.94-.34,2.56,2.74,1-1.73,0-2.05-.64-.69.32-1.06h5.16l2.26,1.78-.36,4.47-1.58-1,0-2.1-1-.34-.3,1.7-1.94,2.07,0,1.38,2.26,2.44.62,0,1.87,2.1,2.58-1.41.64,1.41.66,0,4.16,4.49.3,1,.66,0,2.21,2.37,2.88,5.23,1.26-.74,2.9.37,0,.67L323,300.87l.64,1.36,0,.71,1.28.69.3,1,1.58.35.35,3.13,1.28.69,1.9,0,.66.69,1.6-1.08,0-.67,7.7-9,.61-1.38,0-2.1-1.28-2.77-1.31-.69,1-.3,1.58-1.75.62-2.1,1.3-1.36-.66-7.61-2.22-2.42h-.66l-1.3,1.41-.32-1.75,1-1.06,3.84,0,1.28.69.32,1.7,1.32,2.12,0,1.31,1.58,1.8,1.9,0,.34-1.71,1-1,.3,1.06,1.28.69-1.28,1.34-.3,1.77-1.28,0-1,1.06,0,4.15,1.31.69,0,.64,1.28.69.66,1.38,0,2.07.64,1.43,1.6,1.68,1.6.34,0,1.38.68.69,0,2.1.64.72-.62,4.82.92,1.73,1.94,0,.32,1.75.68.69-3.22,2.77.66,7.6.92,1.75,1.94,0,.6-1.38,1-.35.34-2.4.61.71,4.5.67.32,1.71.92,1H370l1.28.69,1.94,4.82,1.28,0,1-1.06v-3.41l.94-.37,1.92,1.41,1.64-1,.62-2.1-1-2.4L377,322.6l-1-.3,0-4.19-.62-.65,0-2.1,1.34-1.41-1-1.7-1.28,0L372.84,314l-.62,2.05L370,318.45l-1-.32,1.6-2.44.94-.35,0-1.38-4.16-.34-.61-.67-1-.37,0-2.07,1.32-.65,0-1.43-1.32-2.07,2.24-1.7,1.28,0,.34,1,2.22,1.73h4.47l2.56-2.74,3.2-1.38,1-1.08,0-3.41,1.25-.69-1.94-2.77,0-1.38-3.86-4.17,0-1.38-.91-1-1.26,0-.66.72h-2.56l-2.28,2.42,0,1.38-1,.35-.92-1.75-1.3-.69,1.28-.67V287l-.61-.67,0-1.43-1.3-.69-.34-5.83-1.28,0-.64.71-3.84-.74-1.92,1.43-1.28,0-.64-1.43-2.56-.67-1-1.06.06-4.82-2-3.48,0-1.38-1.64-1-1-1.75,0-4.13.66-.69v-2.07l1.3-2.08-1-1.08-1.32,0-.6.69-1-1,0-1.38L344.41,250l-.66,0-1.3,2.05-3.81,0-.36-1,3.22-2.1.64-2.05,2.54-2.77v-2.77l1-.35.62.72,1-1.08.32-2.37,2.83,2.37,0,1.43.62.65-.64.69,0,2.1-2.52,2.08.32,2.42,1.28-.74,2.55.71.9,3.14,2.28,2.42,1.58-1,0-2.1,1.32-.69-.7-1.36.66-.74v-2.77l-3.2-1.36,0-1.38L353,240l1.28-2.79,0-4.13-2.2-1.73-1.62-.35,1-1.06,1.28,0,.3-1.06,2.56-2.74,0-1.38,1.26-1.36.66-2.81.91-1,.69.69,1.28,0,.3-1,1.6-1.08h1.94l1.6,2.4,2.24,3.16h2.56l1.24-2.08.32,1.71,1.3,1.36.32,2.47,1.28,0,1-1,0-1.38.32-.37,1.94,2.77,1.28,0,.6-.74,1.94.07.3-1.78-.61-.64,0-1.43,1.6-2.4,1.28,0,.62-.69,1.94,0,2.58-1.38.94.32-.36,1-2.2,1v2.1l1.28.69-.66,5.53,1,.32,1.86-1.36.36,1,1.6,1.73,5.09,2.77,2.54-1.38.34,1,2.26,1.73h1.9l.64-1.38,1.28.69,1-1.06-1.92-4.1-1.3-.69.34-2.44,1.92,1.41,1.28,0,.6,2.08,2.28.35v2.1l2.88,2.42,1.28,0,.62.69h3.21l.64-2.05,1,1.68-.64.74,0,2,2.26,2.44,3.86.69,1.25,1.36,1.26,0,1.28,2.08h1.94l.62.67,3.21,0,.94-1,0-1.38-1.6-1.73L433,238.62l0-2.1-.64-.69,1.6-1.75,1.28,1.41,1.28,0,1.3-1.34,1,1-.06,2.1,1.92,4.15,1,1h1.9l1.62-1.73,0-2.1-.94-1.68-1-.37-1.28-2.79,3.21-.67-.66-7.61-.64-.69,0-2.05-.94-.37L441.64,221l-1.28,0-.7,1.38-.57-1.41-1.64-1-.64-2.08-2.9-3.09-1.87,0-1.94,3.46-1-.37.66-.67v-2.05l-1.9-1.38,2.22-.39,2.24-1.68v-5.58l1.58-1,.64,1.41.62,0,1-1.06-1.28-2.05.62-2.79,1-1.06,2.56,0,1.94-2.79,1.28,0,.62.72,3.22,0,1.57,3.78,1,1h.66l1.87,2.1.64-.71,1.28,0,1.3.69,1.58-1.75-.64-1.36Zm-38.06,75L415.35,277l-1.24-1.36-1.28,0-1.62,3.11,0,1.38L410,281.47l0,1.41.66.67,0,1.43,1,1h.61l1-1.06.34-1.73,1.3.69,2.2-1.71v-2.1l-.62-.65,2.56-2.14.64-1.34-.34-1ZM314,183.25l.34.37,1.58-1.75-.32-2.42L314,181.86Zm4.82-10.7h1.9l1.3-2.12,1.58-1,0-1.34,1.26-1.41,0-.72-1.58-1h-2.56l-.3,1.06-1.92,1.36,0,2.1-2.56,2.05,0,1.36,2.28.35Zm-7.06-6.25-.64-.67-.94.32,0,.72.91,1,1.94,0,.32-.35-.36-1Zm3.21-2.05,1-1,0-2.08-.29-.35-.66,0-1.58,1,0,2,.34.39Zm157.67-6.55,0,1.34-.66.72.3.32,1.28,0,.32-.37,0-1.34-1-1.08ZM354.31,187.4l0-1.38-.28-.32h-.66l-1,1,0,.69.32.35,1.28,0ZM479.37,95l-2-2.05-1.28,0-.91-1,.32-5.91-3.2.67-1,1.06-.66,3.44.68.72,0,3.42,1,1.09,1.94,0,2.54,2.1,1.28,0,.64.69h3.21l1.58-1.75,0-2Zm-12.84,67.13-.32.39,0,.72,1,1,.62,0,.32-.35v-.71l-1-1ZM457,202.28l-.32.39,0,1.31.35.39,1-1v-.71l-.34-.39Zm-139.44-99-.36.35,1,1,.34-.35,0-.71-.3-.32Zm-11.24,4.5.35.32h.66l.3-.35-.94-1-.36.35Zm93.43,38.77v.67l.91,1,.35-.35,0-1.38-.34-.32H400Zm40.59,66.78,1.28,0,.32-1-.64-.69,0-1.38-.35-.32-1.26,0-.34.32.68.72L440,213ZM399.4,152.45l.32-.35,0-.67-.32-.37-.62,0-.32.32v.72l.3.35ZM364.18,165.6l1.28,0,1-1.06,0-.67-.3-.37-1.28,0-.32.35,0,.72-.66.67ZM354,194l.94-1,0-.71-.34-.32h-.66l-.92,1,0,.71.34.32Zm12.77-31.83,1.28,0,.35-.35,0-1.38-.28-.32-.61,0-.39.35,0,.72-.6.67ZM399.68,150l0-1.31-.61-.72-.32-1.75-1,.35v2.77l1,1.08Zm-35.46,86.17.32-.32,0-1.38-.3-.32-1.28,0-.32.32,0,1.38.34.37ZM350.15,317l1.26.69,1.28-2,1.94,0,1-1,0-1.38-1-1-5.12-.74-2.24,3.8v2.77l1,1.08.66,0Zm9.59-87.77-.68-.72-.28.39V231l.32.37.62,0,.64.71.66,0,.91-1.06-1.58-1.73Zm6.39,1.41-.66-.71-.62,0-.32.32,0,.67,1,1,.66,0,.94-1-.3-.32Zm-2.92-8,0-.67-.32-.37-.62,0L362,222l0,.71-.6.69.32.37.61,0Zm8,14.9-.32.35,0,.72.32.32.62,0,.32-.32v-.71l-.34-.32ZM369,249l1.9.67-.66,2.79,2.87.37.32-1.06-.62-.69V249l-.66-.65,0-3.48,1.26-1.41-.64-.69,0-1.34-2.58-2.1V236.5l1.6-.3.32-1.06-2.25-1.73-.62,0-1.24,2.08-1,.35-.66,2.77L364.52,240l0,1.38,3.18,3.46Zm8.32,2.07,0,3.43,1.28,2.79,2.26,2.42,3.2,1.38,1.24-2.08.66,0,1.28,2.08,1.94,0,.61.69H393l1-1.73-1.3-2.08,1.91-.69,0-1.38,1.24-1.41-.61-1.36.61-1.41-.28-3.14-2.58-.67-1.9-1.38-2.24-.35,1.26-1.36,0-4.17-2.58-4.15.64-.67v-2.77l-1.58-1.73L385,233.11l0,1.36-1.6,1.75-1-.37,1.94-2.07.64-3.44-2.54,0-.68,2.1-1.26.69-.64,2.05-1,.35-.32,1.06-2.54,2.77,0,2.08,1.62.37.59-.74.35.32v2.81l1.32,2.08-2,.69.68.67,0,2.1Zm-10.9-16.64.32.39.61,0,.34-.35,0-.65-.34-.39-.62,0-.32.35Zm-1.6,11.46.32-.35,0-2.1-.28-.32-.66,0-.32.32v.67l-.64.74,1,1Zm2.54,141.67-.3.34,0,.71,1,1,.32-.34,0-1.38-.32-.37Zm-1.28,0-1.28.65-.61,1.45-2.26,1v2.74l.64.71,0,1.38,1,1,1.9.07,1.62-1.08,0-5.5Zm-6.74-61.84-.28-.32-.62,0-.38.35,0,.71.35.32.61,0,.32-.32Zm-3.47.35-1,1,.35.37h.6l.68.69h.62l.32-.35,0-1.38-.34-.37Zm15.35-47.68,1.3.67,1.28,0,.6-.67.66.72.94-.37.64-4.15-1.62-.35-4.46-4.15-1.6.37,0,4.84,2,2Zm2.26,54.91-1.28-.69-.32-1.71-3.26.69L367.4,333l-.66,0L365.46,335l-.57-.67h-2.61l-2.21,2.42v3.43l-.64.71,0,1.38,2.88,2.42,1.28,0,1.62,1.06-.64.69,0,2.07,2.21.35,1-1.06.34-2.42,1.26-.65,1.92,1.38,1-.39.64-1.34,0-2.1-.64-.71,1.92-1.36,0-2.81-1.3-.69Zm5.09,55.94,0,3.52,1,.32.94-1-.3-3.13ZM377,393.82l-.32.32,0,1.38.3.32h.66l1-1v-.71l-.34-.32ZM386.56,315l-1.28,0-.6.71-1,.3,0,1.43.92,1,1.94.67,1-1.73,0-1.36Zm-5.09-85,.32-.39,0-.67-.28-.32-.62,0-.38.32,0,.72.35.39Zm8,57.74,0-1.38.64-.72-.28-.32-1.32,0-.35.37,0,2.05.3.37h.66Zm8.94-19.36-2.54-2.1,0-1.38-1.56-2.4-6.42,0-1.58,1.73,0,2.1,1.31,1.41.61,2.74.69.71,0,1.36,1.56,3.11,1.32-.69,1.9,0,1.9,1.38,2-2.07,1.28,0,.32-3.14-.69-.71Zm-6.08-28-.32.32v.72l1,1,1.28,0,.32-.39v-.71l-1-1ZM402,265.91l-1.94-.69-.32.39,0,2.77.3.32h1.88l.38-.37,0-2.05Zm-17.91,29.75.94-.35,0-2.05-1-1.08-1,.37,0,2.07ZM409,326.79l-.32.35,0,.67,1,1,.94-1-1-1Zm5.09-8.32h-.66l-.28.34,0,1.38.34.32,1.28,0,.32-.37-.68-.67,0-.71Zm-35.84-88.55-.59.74-.69-.72-1.28,0-.28,3.11,2.22,2.42,2.24-2.47-.64-.65,0-1.38Zm33.62,91.68-2,1.36,0,2.76,1.6,1.73.94-.35,0-1.38,1.9-2.07-1-2.42-1.24-.69ZM411.26,334l-1-1.08-.92,1.06v.67l1,1.08,1.28,0,.34-.35-.69-.64Zm-36.14-97.14-.34.35,0,1.38.35.32,1-1,0-.71-.34-.32Zm40.58,94.35-.94-2.42-1,.37-.28,2.42-1.28-.69-1,1,1.62,3.82,1.26-.69,1.3.69.32-.34-.66-2.79Zm-20.47-88.47,1.62.35.32-3.14.64-.69v-2.77l-4.18-3.76-2.56-.07-.94,3.16,1.56,2.4,1.28,0,1.3-1.34.34.32Zm-20.79-8.67-.32.35,0,.72,1,1,1.28,0,.32-.37-1.65-1.71Zm5.43-3.09,0,.72.32.32.62,0,.34-.32,0-.67-.35-.39-.61,0Zm10.24,2.77-.94-1-.36.35,0,1.36.35.39Zm-4.78-12.11-.66,0-.32.32,0,1.38.3.32.66,0,.32-.39,0-1.38Zm.62,5.51,1.28,0,1-1.06v-.67l.64-.74-.34-1h-1.9l-.32.35,0,.72-.6.67,0,1.38Z"/></svg>