<svg xmlns="http://www.w3.org/2000/svg">
    <symbol viewBox="0 0 1792 1792" id="globe">
        <title>Globe</title>
        <path d="M896 128q209 0 385.5 103t279.5 279.5 103 385.5-103 385.5-279.5 279.5-385.5 103-385.5-103-279.5-279.5-103-385.5 103-385.5 279.5-279.5 385.5-103zm274 521q-2 1-9.5 9.5t-13.5 9.5q2 0 4.5-5t5-11 3.5-7q6-7 22-15 14-6 52-12 34-8 51 11-2-2 9.5-13t14.5-12q3-2 15-4.5t15-7.5l2-22q-12 1-17.5-7t-6.5-21q0 2-6 8 0-7-4.5-8t-11.5 1-9 1q-10-3-15-7.5t-8-16.5-4-15q-2-5-9.5-11t-9.5-10q-1-2-2.5-5.5t-3-6.5-4-5.5-5.5-2.5-7 5-7.5 10-4.5 5q-3-2-6-1.5t-4.5 1-4.5 3-5 3.5q-3 2-8.5 3t-8.5 2q15-5-1-11-10-4-16-3 9-4 7.5-12t-8.5-14h5q-1-4-8.5-8.5t-17.5-8.5-13-6q-8-5-34-9.5t-33-.5q-5 6-4.5 10.5t4 14 3.5 12.5q1 6-5.5 13t-6.5 12q0 7 14 15.5t10 21.5q-3 8-16 16t-16 12q-5 8-1.5 18.5t10.5 16.5q2 2 1.5 4t-3.5 4.5-5.5 4-6.5 3.5l-3 2q-11 5-20.5-6t-13.5-26q-7-25-16-30-23-8-29 1-5-13-41-26-25-9-58-4 6-1 0-15-7-15-19-12 3-6 4-17.5t1-13.5q3-13 12-23 1-1 7-8.5t9.5-13.5.5-6q35 4 50-11 5-5 11.5-17t10.5-17q9-6 14-5.5t14.5 5.5 14.5 5q14 1 15.5-11t-7.5-20q12 1 3-17-4-7-8-9-12-4-27 5-8 4 2 8-1-1-9.5 10.5t-16.5 17.5-16-5q-1-1-5.5-13.5t-9.5-13.5q-8 0-16 15 3-8-11-15t-24-8q19-12-8-27-7-4-20.5-5t-19.5 4q-5 7-5.5 11.5t5 8 10.5 5.5 11.5 4 8.5 3q14 10 8 14-2 1-8.5 3.5t-11.5 4.5-6 4q-3 4 0 14t-2 14q-5-5-9-17.5t-7-16.5q7 9-25 6l-10-1q-4 0-16 2t-20.5 1-13.5-8q-4-8 0-20 1-4 4-2-4-3-11-9.5t-10-8.5q-46 15-94 41 6 1 12-1 5-2 13-6.5t10-5.5q34-14 42-7l5-5q14 16 20 25-7-4-30-1-20 6-22 12 7 12 5 18-4-3-11.5-10t-14.5-11-15-5q-16 0-22 1-146 80-235 222 7 7 12 8 4 1 5 9t2.5 11 11.5-3q9 8 3 19 1-1 44 27 19 17 21 21 3 11-10 18-1-2-9-9t-9-4q-3 5 .5 18.5t10.5 12.5q-7 0-9.5 16t-2.5 35.5-1 23.5l2 1q-3 12 5.5 34.5t21.5 19.5q-13 3 20 43 6 8 8 9 3 2 12 7.5t15 10 10 10.5q4 5 10 22.5t14 23.5q-2 6 9.5 20t10.5 23q-1 0-2.5 1t-2.5 1q3 7 15.5 14t15.5 13q1 3 2 10t3 11 8 2q2-20-24-62-15-25-17-29-3-5-5.5-15.5t-4.5-14.5q2 0 6 1.5t8.5 3.5 7.5 4 2 3q-3 7 2 17.5t12 18.5 17 19 12 13q6 6 14 19.5t0 13.5q9 0 20 10.5t17 19.5q5 8 8 26t5 24q2 7 8.5 13.5t12.5 9.5l16 8 13 7q5 2 18.5 10.5t21.5 11.5q10 4 16 4t14.5-2.5 13.5-3.5q15-2 29 15t21 21q36 19 55 11-2 1 .5 7.5t8 15.5 9 14.5 5.5 8.5q5 6 18 15t18 15q6-4 7-9-3 8 7 20t18 10q14-3 14-32-31 15-49-18 0-1-2.5-5.5t-4-8.5-2.5-8.5 0-7.5 5-3q9 0 10-3.5t-2-12.5-4-13q-1-8-11-20t-12-15q-5 9-16 8t-16-9q0 1-1.5 5.5t-1.5 6.5q-13 0-15-1 1-3 2.5-17.5t3.5-22.5q1-4 5.5-12t7.5-14.5 4-12.5-4.5-9.5-17.5-2.5q-19 1-26 20-1 3-3 10.5t-5 11.5-9 7q-7 3-24 2t-24-5q-13-8-22.5-29t-9.5-37q0-10 2.5-26.5t3-25-5.5-24.5q3-2 9-9.5t10-10.5q2-1 4.5-1.5t4.5 0 4-1.5 3-6q-1-1-4-3-3-3-4-3 7 3 28.5-1.5t27.5 1.5q15 11 22-2 0-1-2.5-9.5t-.5-13.5q5 27 29 9 3 3 15.5 5t17.5 5q3 2 7 5.5t5.5 4.5 5-.5 8.5-6.5q10 14 12 24 11 40 19 44 7 3 11 2t4.5-9.5 0-14-1.5-12.5l-1-8v-18l-1-8q-15-3-18.5-12t1.5-18.5 15-18.5q1-1 8-3.5t15.5-6.5 12.5-8q21-19 15-35 7 0 11-9-1 0-5-3t-7.5-5-4.5-2q9-5 2-16 5-3 7.5-11t7.5-10q9 12 21 2 8-8 1-16 5-7 20.5-10.5t18.5-9.5q7 2 8-2t1-12 3-12q4-5 15-9t13-5l17-11q3-4 0-4 18 2 31-11 10-11-6-20 3-6-3-9.5t-15-5.5q3-1 11.5-.5t10.5-1.5q15-10-7-16-17-5-43 12zm-163 877q206-36 351-189-3-3-12.5-4.5t-12.5-3.5q-18-7-24-8 1-7-2.5-13t-8-9-12.5-8-11-7q-2-2-7-6t-7-5.5-7.5-4.5-8.5-2-10 1l-3 1q-3 1-5.5 2.5t-5.5 3-4 3 0 2.5q-21-17-36-22-5-1-11-5.5t-10.5-7-10-1.5-11.5 7q-5 5-6 15t-2 13q-7-5 0-17.5t2-18.5q-3-6-10.5-4.5t-12 4.5-11.5 8.5-9 6.5-8.5 5.5-8.5 7.5q-3 4-6 12t-5 11q-2-4-11.5-6.5t-9.5-5.5q2 10 4 35t5 38q7 31-12 48-27 25-29 40-4 22 12 26 0 7-8 20.5t-7 21.5q0 6 2 16z"/>
    </symbol>
    <symbol viewBox="0 0 60 60" id="globe-2">
        <title>Globe</title>
        <path d="M32.86,20.4275 C32.7725,20.2625 33.715,20.1725 33.8825,20.1725 C34.0675,20.195 33.3925,21.3025 32.86,20.4275 Z M27.48,12.7475 L27.75,12.67 C27.91,12.8075 27.57,12.9075 27.6225,13.01 C27.8375,13.3975 27.675,13.63 27.6425,13.84 C27.6075,14.0525 27.3825,13.96 27.27,14.0725 C27.1375,14.2375 27.915,14.26 27.925,14.285 C27.9525,14.3675 26.9875,14.5075 27.165,14.7125 C27.405,15.0525 29.225,14.225 28.935,14.2725 C29.4975,13.99 29.0075,13.96 28.6925,13.7975 C28.585,13.26 28.495,12.43 28.16,12.0975 L28.38,11.8425 C27.865,11.095 27.48,12.7475 27.48,12.7475 L27.48,12.7475 Z M60,30 C60,46.5675 46.5675,60 30,60 C13.43,60 0,46.5675 0,30 C0,13.4325 13.43,0 30,0 C46.5675,0 60,13.4325 60,30 Z M39.225,16.5725 C39.21,16.2075 38.75,15.8625 38.27,16.495 C37.9325,16.93 37.9925,17.5925 37.81,17.8875 C37.55,18.325 39.2275,18.735 39.2275,18.3225 C39.29,17.63 41.0575,18.165 41.4025,18.26 C42.0225,18.4325 43.01,17.695 41.93,17.3075 C41.0425,16.9825 40.575,16.635 40.495,16 C40.495,16 40.965,15.56 40.76,15.585 C40.215,15.6525 39.225,17.55 39.225,16.5725 L39.225,16.5725 Z M54.965,30 C54.965,27.4125 54.5225,24.8 54.0725,23.42 C53.9275,22.985 53.6,22.64 53.175,22.475 C52.535,22.225 49.8325,23.9675 49.425,23.11 C49.1575,22.5375 48.615,23.475 47.995,23.13 C47.695,22.965 46.86,21.8425 46.4825,21.98 C45.71,22.2575 47.6675,24.39 48.2025,24.67 C48.705,24.29 50.3325,23.5075 50.6825,24.575 C51.3525,26.585 48.84,28.7875 47.555,29.9475 C45.635,31.6825 45.995,28.825 44.6875,27.8175 C44,27.29 44.0075,26.1675 43.3125,25.78 C43.0025,25.605 41.58,23.9675 41.5925,23.7475 L41.55,24.1625 C41.315,24.34 40.815,23.4925 40.7625,23.36 C40.7625,24.0975 41.9625,25.2725 42.36,25.8625 C43.0375,26.875 43.4,28.35 44.23,29.1775 C44.675,29.6225 46.375,31.4625 46.8175,31.4225 C47.3,31.38 48.825,30.2775 49.095,30.34 C50.705,30.72 45.305,38.3525 44.7925,39.2975 C44.37,40.09 45.1375,42.05 45.075,42.9875 C45.0025,44.07 44.15,44.42 43.3425,45.01 C42.4775,45.6425 42.68,46.8725 41.9525,47.3225 C40.66,48.1175 39.73,50.705 37.895,50.6925 C37.355,50.69 35.045,51.5925 34.7425,50.71 C34.5075,50.07 34.1925,49.585 33.86,48.9525 C33.535,48.3325 33.8225,47.69 33.4275,47.1425 C33.155,46.7625 32.24,45.9 32.1575,45.45 C32.1525,45.0625 32.45,43.885 32.8575,43.68 C33.43,43.3875 32.9675,42.535 32.8975,42.04 C32.7775,41.155 32.23,40.425 31.5725,39.9125 C30.6,39.165 31.1025,38.57 31.33,37.5025 C31.33,36.9925 31.02,36.3225 30.335,36.5225 C28.925,36.9325 29.3525,35.4225 28.325,35.49 C27.585,35.5425 26.98,36.0125 26.2925,36.22 C25.4275,36.48 24.5425,36.015 23.6875,35.9075 C20.17,35.4625 19.0225,31.4425 19.94,28.5425 C20.0325,28.0675 19.655,27.1875 19.82,26.82 C20.215,25.94 21.02,24.9525 21.725,24.285 C22.12,23.91 22.6275,24.005 23.0925,23.7125 C23.81,23.26 23.82,22.33 24.5225,21.76 C25.5225,20.9475 26.8875,20.965 28.1925,20.79 C28.8875,20.6975 31.5325,20.125 31.95,20.64 C31.95,20.735 32.4275,22.15 31.9025,22.07 C32.985,22.1275 34.5275,23.9425 35.555,23.5175 C36.0825,23.2975 35.89,21.6775 36.9725,22.46 C37.6275,22.93 40.5625,23.14 41.1725,22.6325 C41.5475,22.3225 41.7575,20.3075 41.3025,20.08 C41.5925,20.3675 39.775,20.39 39.605,20.325 C39.305,20.215 39.025,20.61 38.5425,20.3875 C38.8325,20.525 36.9275,19.5025 37.9975,18.72 C37.55,19.0475 37.1325,18.6275 36.65,18.9875 C36.3175,19.2575 36.805,19.4375 36.33,19.6725 C35.575,20.055 35.005,18.36 34.72,18.1675 C34.43,17.9775 32.185,16.4025 32.795,17.43 L34.7675,19.3925 C34.67,19.455 34.25,18.6775 34.25,19.245 C34.3825,18.9075 34.3,20.6925 33.99,20.1125 C33.8525,19.89 34.215,19.765 34.005,19.4425 C34.005,19.23 33.435,19.0225 33.325,18.8775 C33.0125,18.49 32.1825,17.635 31.7325,17.43 C31.6075,17.3725 29.8225,17.6475 29.6725,17.705 C29.4975,17.95 29.3475,18.2075 29.225,18.4825 C28.855,18.62 28.5075,18.7975 28.1775,19.0175 L27.785,19.9 C27.615,20.0525 25.8725,20.6275 25.8625,20.65 C25.935,20.4625 24.645,20.2225 24.73,19.8475 C24.825,19.435 25.2625,18.1475 25.15,17.6775 C25.03,17.185 27.835,18.3875 28.015,17.09 C28.0875,16.5275 28.13,15.8725 27.2325,15.7775 C27.4025,15.7975 28.97,15.1625 29.23,14.8775 C29.595,14.4575 30.4325,13.7725 31.04,13.7725 C31.75,13.7725 31.5975,12.74 31.925,12.235 C32.2525,12.3675 31.75,13.175 32.1425,13.5025 C32.1175,13.245 33.255,13.645 33.365,13.585 C33.625,13.45 35.075,13.53 34.85,12.85 C34.6,12.1575 34.9775,12.3625 35.3025,12.2175 C35.2475,12.24 36.1525,10.67 36.3075,11.185 C36.2,10.655 35.255,11.37 34.925,11.3425 C34.1625,11.2825 34.485,10.0425 34.7725,9.68 C34.995,9.3925 34.165,9.04 34.155,9.59 C34.14,10.4125 33.375,11.1575 33.5525,12.25 C33.8225,13.8975 31.715,11.8525 31.53,11.965 C30.83,12.39 30.2575,11.43 30.62,10.855 C30.99,10.2675 31.8825,10.295 32.25,9.665 C32.51,9.22 32.8125,8.7025 33.2125,8.365 C34.55,7.2425 34.92,8.14 36.2525,8.2625 C37.555,8.3825 36.6925,8.5725 36.5125,9.0725 C36.34,9.5475 37.2275,9.7175 37.535,9.32 C37.71,9.09 38.1075,8.5125 38.28,8.085 C38.5025,7.53 40.5325,7.5925 39.115,6.745 C38.18,6.1875 34.105,5.065 31.375,5.065 C30.785,5.065 30.3725,5.7225 29.9225,6.095 C29.0325,6.8325 26.7525,8.28 25.485,7.84 C24.1875,7.3925 21.41,9.49 20.965,9.505 C20.8025,9.515 20.975,7.92 21.86,7.8025 C21.4775,7.86 24.9775,6.035 24.8825,5.655 C24.7675,5.205 17.885,7.71 18.1925,8.2125 C18.34,8.4425 18.94,8.4425 18.1525,8.9475 C17.7025,9.22 17.2225,10.95 16.8,10.95 C15.5375,11.5025 15.4575,9.8625 14.0525,11.9725 L11.8175,12.8725 C8.4975,16.4 6.2,20.8675 5.3675,25.83 C5.335,26.0275 6.2025,26.395 6.315,26.53 C6.595,26.865 6.595,28.31 6.7325,28.7825 C7.0775,29.9775 7.93,30.6425 8.5825,31.73 C8.9675,32.3775 9.6075,34.015 9.405,34.695 C9.675,34.25 12.08,36.7325 12.52,37.25 C13.555,38.4675 14.3525,39.9425 12.6725,41.1475 C12.13,41.5375 13.4975,43.97 12.7925,44.5675 L11.89,44.8 C11,45.3475 11.4025,46.69 11.9425,47.255 C16.4875,52.0075 22.8925,54.9725 29.9925,54.9725 C43.785,54.9725 54.965,43.7925 54.965,30 L54.965,30 Z M26.1975,14.1075 C26.51,13.97 26.93,13.975 26.975,13.5575 C27.0125,13.1875 27.085,13.4425 27.175,13.3075 C27.2625,13.175 27.0075,12.9625 26.9,12.9425 C26.74,12.9075 26.63,13.115 26.5275,13.2025 L26.3475,13.25 L26.1775,13.4675 L26.1975,13.5875 L25.98,13.8525 C25.7675,14.0625 25.985,14.2 26.1975,14.1075 L26.1975,14.1075 Z"></path>
    </symbol>
    <symbol viewBox="0 0 55 60" id="chart">
        <title>Chart</title>
        <path d="M9.91735537,49.5867769 L9.91735537,54.5454545 L4.95867769,54.5454545 L4.95867769,49.5867769 L9.91735537,49.5867769 Z M14.8760331,44.6280992 L0,44.6280992 L0,59.5041322 L14.8760331,59.5041322 L14.8760331,44.6280992 Z M29.7520661,42.1487603 L29.7520661,54.5454545 L24.7933884,54.5454545 L24.7933884,42.1487603 L29.7520661,42.1487603 Z M34.7107438,37.1900826 L19.8347107,37.1900826 L19.8347107,59.5041322 L34.7107438,59.5041322 L34.7107438,37.1900826 Z M49.5867769,32.231405 L49.5867769,54.5454545 L44.6280992,54.5454545 L44.6280992,32.231405 L49.5867769,32.231405 Z M54.5454545,27.2727273 L39.6694215,27.2727273 L39.6694215,59.5041322 L54.5454545,59.5041322 L54.5454545,27.2727273 Z M54.5454545,2.20209526e-15 L39.6694215,3.02727273 L43.9239669,7.26198347 L26.9404959,23.9553719 L19.5,16.5123967 L0.0595041322,35.8438017 L3.5553719,39.3595041 L19.4900826,23.5165289 L26.9057851,30.9371901 L47.4347107,10.7628099 L51.5677686,14.8785124 L54.5454545,0 L54.5454545,2.20209526e-15 Z"></path>
    </symbol>
    <symbol viewBox="0 0 68 58" id="megaphone">
        <title>Megaphone</title>
        <path d="M49.7009434,12.0650943 C52.1235849,13.2283019 54.104717,15.3169811 55.0584906,18.0566038 C56.0179245,20.7933962 55.7773585,23.6603774 54.6141509,26.0830189 L58.5962264,28.0018868 C60.2518868,24.5603774 60.6,20.4849057 59.2386792,16.5962264 C57.8773585,12.704717 55.0669811,9.73584906 51.6283019,8.08018868 L49.7009434,12.0650943 Z M53.0632075,5.08867925 C57.2688679,7.11226415 60.6990566,10.7433962 62.3632075,15.4981132 C64.0273585,20.2528302 63.6028302,25.2367925 61.5792453,29.4424528 L65.6632075,31.4122642 C68.190566,26.1566038 68.7169811,19.9358491 66.6424528,13.9981132 C64.5650943,8.06037736 60.2830189,3.53207547 55.0330189,1.00471698 L53.0632075,5.08867925 L53.0632075,5.08867925 Z M22.1235849,40.4490566 L15.495283,22.2311321 L6.3254717,25.5679245 C1.32735849,27.3877358 -1.23962264,32.940566 0.594339623,37.9698113 C2.42264151,42.9990566 7.96132075,45.6028302 12.9566038,43.7858491 L22.1235849,40.4490566 L22.1235849,40.4490566 Z M4.23396226,36.6481132 C3.13867925,33.6339623 4.66698113,30.2971698 7.65,29.2160377 L13.1716981,27.2037736 L17.1509434,38.1339623 L11.6264151,40.1433962 C8.6490566,41.2273585 5.33207547,39.659434 4.23396226,36.6481132 L4.23396226,36.6481132 Z M37.6811321,3.84056604 L50.9433962,40.2735849 C40.1320755,38.0037736 31.8679245,37.9528302 25.7660377,39.1216981 L24.4330189,35.4537736 C30.2632075,34.2339623 37.154717,34.1716981 45,35.2839623 L36.3396226,11.490566 C31.0301887,17.4254717 25.8028302,21.7160377 20.4735849,24.5773585 L19.1377358,20.9066038 C24.4924528,17.9292453 30.6849057,12.7528302 37.6811321,3.84056604 L37.6811321,3.84056604 Z M30.7386792,52.7349057 C29.504717,52.3075472 28.4320755,51.5207547 27.6537736,50.4792453 L23.0207547,44.2698113 L11.8245283,48.3481132 L19.1915094,57.8009434 C20.0235849,58.8622642 21.4386792,59.2669811 22.6981132,58.8084906 L30.8264151,55.8509434 C31.4745283,55.6132075 31.9103774,54.990566 31.904717,54.2971698 C31.8990566,53.6009434 31.4632075,52.9867925 30.8037736,52.7603774 L30.7386792,52.7349057 L30.7386792,52.7349057 Z M21.9056604,54.9707547 L18.1273585,50.1566038 L21.6481132,48.8745283 L25.3273585,53.7226415 L21.9056604,54.9707547 Z"></path>
    </symbol>
    <symbol viewBox="0 0 60 60" id="shop">
        <title>Shop</title>
        <path d="M25,22.5 L25,19.755 L27.6175,7.5 L32.38,7.5 L35,19.75 L35,22.495 C35,25.1625 32.6675,27.5 30,27.5 C27.3325,27.5 25,25.1675 25,22.5 Z M37.5,22.5 C37.5,25.1675 39.835,27.5 42.5025,27.5 C45.17,27.5 47.5,25.4175 47.5,22.75 L47.5,20.005 L40.01,7.5 L35.1525,7.5 L37.5,19.755 L37.5,22.5 Z M12.5,22.67 C12.5,25.3375 14.8325,27.5 17.5,27.5 C20.1675,27.5 22.5,25.3375 22.5,22.67 L22.5,19.9275 L24.8475,7.5 L19.99,7.5 L12.5,19.9275 L12.5,22.67 Z M2.5,30 L57.5,30 L57.5,60 L2.5,60 L2.5,30 Z M7.5,50 L52.5,50 L52.5,35 L7.5,35 L7.5,50 Z M10,22.67 L10,19.9275 L17.2175,7.5 L12.1825,7.5 L0,19.9275 L0,22.6725 C0,25.3375 2.3325,27.5 5,27.5 C7.6675,27.5 10,25.3375 10,22.67 L10,22.67 Z M47.8175,7.5 L42.7825,7.5 L50,19.755 L50,22.5 C50,25.1675 52.3325,27.5 55,27.5 C57.6675,27.5 60,25.3375 60,22.67 L60,19.9275 L47.8175,7.5 Z M47.5,0 L12.5,0 L12.5,5 L47.5,5 L47.5,0 Z"></path>
    </symbol>
    <symbol viewBox="0 0 60 60" id="supply">
        <title>Supply</title>
        <path d="M19.8494362,43.3839893 L7.69233161,9.98790515 L2.5749384,9.98790515 C1.66462292,10.0161159 0.811119513,9.54657547 0.347622648,8.76258518 C-0.115874216,7.97859489 -0.115874216,7.00446129 0.347622648,6.220471 C0.811119513,5.43648072 1.66462292,4.96694029 2.5749384,4.99515103 L11.1870198,4.99515103 L24.8493811,42.5091188 C26.8942283,42.755629 28.7859343,43.7176142 30.1896865,45.2248127 L58.2934033,34.9948201 L60,39.6855641 L32.4140148,49.7262012 C33.1608728,54.1506371 30.435663,58.42175 26.1084582,59.6086489 C21.7812535,60.7955479 17.2583211,58.512511 15.6433538,54.3261868 C14.0283865,50.1398626 15.8462208,45.4107345 19.8494362,43.3839893 L19.8494362,43.3839893 Z M23.8067272,47.9069499 C25.6160141,47.9082735 27.0817819,49.3758293 27.0808997,51.1851165 C27.0800175,52.9944037 25.6128192,54.4605294 23.8035319,54.4600885 C21.9942445,54.4596477 20.527761,52.9928071 20.5277605,51.1835197 C20.5277602,50.3141039 20.8732983,49.4803321 21.4882928,48.8657871 C22.1032874,48.2512422 22.9373116,47.9063139 23.8067272,47.9069499 L23.8067272,47.9069499 Z M38.2864332,17.2265597 L50.1726875,12.8905577 L57.0038681,31.6583276 L28.5310279,42.0249439 L21.6998473,23.2499832 L33.5813077,18.9355533 L36.8890373,28.022222 L41.5797814,26.3156253 L38.2864332,17.2265597 Z M39.6263034,14.0770259 L20.8465489,20.9082065 L15.721965,6.83118063 L34.4921318,0 L39.6263034,14.0770259 Z"></path>
    </symbol>
    <symbol viewBox="0 0 60 60" id="logistics">
        <title>Logistics</title>
        <path d="M33.5064,60 L0,60 L0,4.9992 L7.5,4.9992 C10.5768,4.9992 12.96,2.2896 15,0 L34.9992,0 C37.0512,2.2896 39.4296,4.9992 42.4992,4.9992 L49.9992,4.9992 L49.9992,27.8736 C48.7643761,27.6242708 47.507744,27.4988488 46.248,27.4992 L44.9976,27.54 L44.9976,10.0008 L34.9992,10.0008 L30,15 L20.2584,15 L15,10.0008 L4.9992,10.0008 L4.9992,55.0008 L29.664,55.0008 C30.6545673,56.8714135 31.9535927,58.5615258 33.5064,60 L33.5064,60 Z M46.248,32.5008 C38.6546182,32.5021254 32.4999165,38.6586178 32.5008001,46.2519997 C32.5016837,53.8453816 38.6578179,60.0004415 46.2511999,59.9999998 C53.8445818,59.999558 59.9999999,53.843782 60,46.2504 C59.9973508,38.6578032 53.8429968,32.5034492 46.2504,32.5008 L46.248,32.5008 Z M46.248,55.0008 C41.4152875,55.0008 37.4976,51.0831125 37.4976,46.2504 C37.4976,41.4176875 41.4152875,37.5 46.248,37.5 C51.0807125,37.5 54.9984,41.4176875 54.9984,46.2504 C54.997076,51.0816269 51.0816263,54.9981508 46.2504,55.0008 L46.248,55.0008 Z M52.488,47.5008 L45,47.5008 L45,40.0008 L47.5008,40.0008 L47.5008,45 L52.5,45 L52.488,47.5008 Z M14.6232,37.3704 L12,34.9104 L10.0008,36.96 L14.6616,41.4 L22.5024,33.42 L20.4648,31.3992 L14.6232,37.3704 Z M30,40.0104 L25.0008,40.0104 L25.0008,37.5 L30,37.5 L30,40.0104 Z M34.9992,35.0112 L25.0008,35.0112 L25.0008,32.5008 L35.0016,32.5008 L34.9992,35.0112 Z M14.6232,24.9384 L12,22.4808 L10.0008,24.5376 L14.6616,28.9776 L22.5,20.9976 L20.4624,18.9768 L14.6232,24.9384 Z M35.0016,27.5016 L25.0008,27.5016 L25.0008,25.0008 L35.0016,25.0008 L35.0016,27.5016 Z M35.0016,22.5024 L25.0008,22.5024 L25.0008,19.9992 L35.0016,19.9992 L35.0016,22.5024 Z M22.5,7.5 C22.5,8.8811537 23.6196463,10.0008 25.0008,10.0008 C26.3819537,10.0008 27.5016,8.8811537 27.5016,7.5 C27.5016,6.1188463 26.3819537,4.9992 25.0008,4.9992 C23.6201947,5.00052305 22.5013231,6.1193947 22.5,7.5 L22.5,7.5 Z"></path>
    </symbol>
    <symbol viewBox="0 0 60 63" id="history">
        <title>History</title>
        <path d="M59.9999888,30.9913756 C59.9999888,47.559915 46.5685338,60.99137 29.9999944,60.99137 C13.431455,60.99137 2.02906087e-15,47.559915 0,30.9913756 L4.99919907,30.9913756 C4.95881555,42.9791259 13.4059831,53.3200565 25.1606558,55.6728117 C36.9153286,58.0255669 48.6918699,51.7325103 53.2685663,40.6527252 C57.8452627,29.5729401 53.9428474,16.8034201 43.9543937,10.1748018 C33.96594,3.5461835 20.6833953,4.91128168 12.2519977,13.4329789 L17.4047968,18.5857779 L0,21.9721773 L3.26159939,4.43778054 L8.70959838,9.88817953 C17.2593632,1.24227107 30.185027,-1.38229975 41.4297912,3.24430694 C52.6745554,7.87091363 60.0104575,18.8320129 59.9999888,30.9913756 L59.9999888,30.9913756 Z M27.4991949,15.9913784 L27.4991949,35.9905747 L44.9999916,35.9905747 L44.9999916,30.9913756 L32.5007939,30.9913756 L32.5007939,15.9913784 L27.4991949,15.9913784 Z"></path>
    </symbol>
    <symbol viewBox="0 0 60 60" id="dollar">
        <title>Dollar</title>
        <path d="M30,4.9992 C43.8075606,4.9992 55.0008,16.1924394 55.0008,30 C55.0008,43.8075606 43.8075606,55.0008 30,55.0008 C16.1924394,55.0008 4.9992,43.8075606 4.9992,30 C5.01375091,16.1984711 16.1984711,5.01375091 30,4.9992 L30,4.9992 Z M30,0 C13.4314575,-1.01453063e-15 2.02906125e-15,13.4314575 0,30 C-2.02906125e-15,46.5685425 13.4314575,60 30,60 C46.5685425,60 60,46.5685425 60,30 C60,22.0435053 56.8392948,14.4128879 51.2132034,8.78679656 C45.5871121,3.16070521 37.9564947,4.87194788e-16 30,0 Z M40.0008,35.208 C40.0008,29.8464 34.4208,28.3536 30.144,26.3424 C27.5472,24.9936 27.8736,21.7704 31.596,21.5424 C33.66,21.4176 35.784,22.0224 37.704,22.704 L38.6088,18.5856 C36.6295489,17.9608914 34.5749619,17.6064852 32.5008,17.532 L32.5008,15 L30,15 L30,17.6664 C25.1376,18.336 22.5408,21.384 22.5408,24.792 C22.5408,30.888 29.6592,31.8168 31.9848,32.8992 C35.16,34.32 34.572,37.2744 31.6992,37.9272 C29.2056,38.4912 26.0256,37.5072 23.6376,36.5784 L22.5,40.6896 C24.8319624,41.8501152 27.395445,42.4702729 30,42.504 L30,45 L32.5008,45 L32.5008,42.36 C36.6432,41.7864 40.0056,39.5016 40.0008,35.208 L40.0008,35.208 Z"></path>
    </symbol>
</svg>
