<?xml version="1.0" encoding="UTF-8"?>
<svg width="60px" height="60px" viewBox="0 0 60 60" version="1.1" xmlns="http://www.w3.org/2000/svg" xmlns:xlink="http://www.w3.org/1999/xlink">
    <!-- Generator: Sketch 42 (36781) - http://www.bohemiancoding.com/sketch -->
    <title>logistic</title>
    <desc>Created with Sketch.</desc>
    <defs></defs>
    <g id="Welcome" stroke="none" stroke-width="1" fill="none" fill-rule="evenodd">
        <g id="Desktop" transform="translate(-375.000000, -3365.000000)" fill-rule="nonzero" fill="#0058A0">
            <g id="Credibility" transform="translate(0.000000, 2897.000000)">
                <g id="logistics" transform="translate(375.000000, 468.000000)">
                    <path d="M33.5064,60 L0,60 L0,4.9992 L7.5,4.9992 C10.5768,4.9992 12.96,2.2896 15,0 L34.9992,0 C37.0512,2.2896 39.4296,4.9992 42.4992,4.9992 L49.9992,4.9992 L49.9992,27.8736 C48.7643761,27.6242708 47.507744,27.4988488 46.248,27.4992 L44.9976,27.54 L44.9976,10.0008 L34.9992,10.0008 L30,15 L20.2584,15 L15,10.0008 L4.9992,10.0008 L4.9992,55.0008 L29.664,55.0008 C30.6545673,56.8714135 31.9535927,58.5615258 33.5064,60 L33.5064,60 Z M46.248,32.5008 C38.6546182,32.5021254 32.4999165,38.6586178 32.5008001,46.2519997 C32.5016837,53.8453816 38.6578179,60.0004415 46.2511999,59.9999998 C53.8445818,59.999558 59.9999999,53.843782 60,46.2504 C59.9973508,38.6578032 53.8429968,32.5034492 46.2504,32.5008 L46.248,32.5008 Z M46.248,55.0008 C41.4152875,55.0008 37.4976,51.0831125 37.4976,46.2504 C37.4976,41.4176875 41.4152875,37.5 46.248,37.5 C51.0807125,37.5 54.9984,41.4176875 54.9984,46.2504 C54.997076,51.0816269 51.0816263,54.9981508 46.2504,55.0008 L46.248,55.0008 Z M52.488,47.5008 L45,47.5008 L45,40.0008 L47.5008,40.0008 L47.5008,45 L52.5,45 L52.488,47.5008 Z M14.6232,37.3704 L12,34.9104 L10.0008,36.96 L14.6616,41.4 L22.5024,33.42 L20.4648,31.3992 L14.6232,37.3704 Z M30,40.0104 L25.0008,40.0104 L25.0008,37.5 L30,37.5 L30,40.0104 Z M34.9992,35.0112 L25.0008,35.0112 L25.0008,32.5008 L35.0016,32.5008 L34.9992,35.0112 Z M14.6232,24.9384 L12,22.4808 L10.0008,24.5376 L14.6616,28.9776 L22.5,20.9976 L20.4624,18.9768 L14.6232,24.9384 Z M35.0016,27.5016 L25.0008,27.5016 L25.0008,25.0008 L35.0016,25.0008 L35.0016,27.5016 Z M35.0016,22.5024 L25.0008,22.5024 L25.0008,19.9992 L35.0016,19.9992 L35.0016,22.5024 Z M22.5,7.5 C22.5,8.8811537 23.6196463,10.0008 25.0008,10.0008 C26.3819537,10.0008 27.5016,8.8811537 27.5016,7.5 C27.5016,6.1188463 26.3819537,4.9992 25.0008,4.9992 C23.6201947,5.00052305 22.5013231,6.1193947 22.5,7.5 L22.5,7.5 Z" id="logistic"></path>
                </g>
            </g>
        </g>
    </g>
</svg>