<?xml version="1.0" encoding="UTF-8"?>
<svg width="68px" height="58px" viewBox="0 0 68 58" version="1.1" xmlns="http://www.w3.org/2000/svg" xmlns:xlink="http://www.w3.org/1999/xlink">
    <!-- Generator: Sketch 42 (36781) - http://www.bohemiancoding.com/sketch -->
    <title>iconmonstr-megaphone-11</title>
    <desc>Created with Sketch.</desc>
    <defs></defs>
    <g id="Welcome" stroke="none" stroke-width="1" fill="none" fill-rule="evenodd">
        <g id="Desktop" transform="translate(-875.000000, -2566.000000)" fill-rule="nonzero" fill="#0BB26C">
            <g id="Our-Approach" transform="translate(-4.000000, 2104.000000)">
                <g id="Group-6" transform="translate(879.000000, 240.000000)">
                    <g id="Innovative" transform="translate(0.000000, 221.000000)">
                        <g id="iconmonstr-megaphone-11">
                            <path d="M49.7009434,12.0650943 C52.1235849,13.2283019 54.104717,15.3169811 55.0584906,18.0566038 C56.0179245,20.7933962 55.7773585,23.6603774 54.6141509,26.0830189 L58.5962264,28.0018868 C60.2518868,24.5603774 60.6,20.4849057 59.2386792,16.5962264 C57.8773585,12.704717 55.0669811,9.73584906 51.6283019,8.08018868 L49.7009434,12.0650943 Z M53.0632075,5.08867925 C57.2688679,7.11226415 60.6990566,10.7433962 62.3632075,15.4981132 C64.0273585,20.2528302 63.6028302,25.2367925 61.5792453,29.4424528 L65.6632075,31.4122642 C68.190566,26.1566038 68.7169811,19.9358491 66.6424528,13.9981132 C64.5650943,8.06037736 60.2830189,3.53207547 55.0330189,1.00471698 L53.0632075,5.08867925 L53.0632075,5.08867925 Z M22.1235849,40.4490566 L15.495283,22.2311321 L6.3254717,25.5679245 C1.32735849,27.3877358 -1.23962264,32.940566 0.594339623,37.9698113 C2.42264151,42.9990566 7.96132075,45.6028302 12.9566038,43.7858491 L22.1235849,40.4490566 L22.1235849,40.4490566 Z M4.23396226,36.6481132 C3.13867925,33.6339623 4.66698113,30.2971698 7.65,29.2160377 L13.1716981,27.2037736 L17.1509434,38.1339623 L11.6264151,40.1433962 C8.6490566,41.2273585 5.33207547,39.659434 4.23396226,36.6481132 L4.23396226,36.6481132 Z M37.6811321,3.84056604 L50.9433962,40.2735849 C40.1320755,38.0037736 31.8679245,37.9528302 25.7660377,39.1216981 L24.4330189,35.4537736 C30.2632075,34.2339623 37.154717,34.1716981 45,35.2839623 L36.3396226,11.490566 C31.0301887,17.4254717 25.8028302,21.7160377 20.4735849,24.5773585 L19.1377358,20.9066038 C24.4924528,17.9292453 30.6849057,12.7528302 37.6811321,3.84056604 L37.6811321,3.84056604 Z M30.7386792,52.7349057 C29.504717,52.3075472 28.4320755,51.5207547 27.6537736,50.4792453 L23.0207547,44.2698113 L11.8245283,48.3481132 L19.1915094,57.8009434 C20.0235849,58.8622642 21.4386792,59.2669811 22.6981132,58.8084906 L30.8264151,55.8509434 C31.4745283,55.6132075 31.9103774,54.990566 31.904717,54.2971698 C31.8990566,53.6009434 31.4632075,52.9867925 30.8037736,52.7603774 L30.7386792,52.7349057 L30.7386792,52.7349057 Z M21.9056604,54.9707547 L18.1273585,50.1566038 L21.6481132,48.8745283 L25.3273585,53.7226415 L21.9056604,54.9707547 Z" id="Shape"></path>
                        </g>
                    </g>
                </g>
            </g>
        </g>
    </g>
</svg>