<svg id="New_Zealand" data-name="New Zealand" xmlns="http://www.w3.org/2000/svg" viewBox="0 0 500 500"><title>Artboard 2new zealand</title><path d="M356,379.22l0,0,0,0ZM27.85,452.54l-.1-.3.09-.15-1.16.18h-.42l.06-.17.06-.35,0-.16-.34.1-1.24.17H24.5l-.45-.16-.34,0-.34.12-.44.08.55.42-.06.56-.31.62-.18.58-.12.79-.33.6L22,456l-3.43,1.55-1,1,.26,1.45.6-.53.33-.23.22,0,.32.32.29.18.34.09.46,0,.38-.05.26-.17.14-.27V459l-.12-.31-.21-.18-.26-.15-.28-.23h.37l.59.28.36.07.22-.1-.14-.23-.29-.23-.23-.14.34-.27.35,0,.34.22.28.26.13.37-.16.4-.25.39-.16.34.65-.27L23,459l.27-.27.41.55.73.26.8.18.61.33.4.14.4-.24.29-.43.06-.44-.19-.17-.42-.19-.46-.14-.35,0v-.18l.21,0,.44,0,.22,0-.11-.22,0-.22,0-.22.12-.23-.34,0-.67.06-.4,0,.29-.42.24-.45-.54,0-.89-.32h-.51v-.17l.68-.09,1.36.1.61-.18-.37-.17-.41-.09h-.42l-.39.09.51-.41.2-.11-.08-.15-.11-.38.17.06.36.06.17.05-.24-.62-.18-.25-.27-.19.44-.16.31.11.32.07.44-.27.09-.19,0-.2.08-.16.24-.06h1.07l-.17-.13ZM24,460.33l-.77-.31-.28,0-.17.06-.33.23-2,.32h-.36l-.71-.39L19,460l-.47,0,.2.32.25.22.6.34.23.22.11.16.18.11,3.52.2.18-.24.35,0,.35,0,.69-.23.72-.1.36-.12-.54-.25Zm332-80.87v-.09h0Zm-1.39-.38,0,0h0Zm-5.42,49.37-.34-.12h-.37l-.35.07-.42.24-1.09.86-.27.3,0,.71.59.37.81.14,1,0,.2,0,.11-.17,0-.43.11-.43.19-.43.12-.43-.12-.43Zm6.1-48.91v.07l.1.06v-.07Zm-.38-.4v.09l.27-.11-.07,0ZM480.4,294.81l0-.17,0-.18v-.17l-.09-.15L480,294l-.43-.06-.45,0-.35.11-.32.26.05.14.22.18.17.38-.07.2-.41.66-.16.2.07.09-.1.07.07.1.1.23.07.1-.1.38.47-.1.88-.38.18-.57.28-.31.84-.35-.48-.41Zm-2.91-14.37-.53-.17-1.35-.88-.29-.08-.92-.1-.22-.11-.43-.31-.18-.08-.49,0-.22.29-.17.43-.33.48-.49.2-2-.09-.22-.12-.47-.46,0-.1-.33.09v.21l.09.24,0,.19-.5.24-.48,0-.46.12L467,281l.54.62,1.64-.21.6.37.35-.09.34.06.2,0,0-.39.2-.18.21.14.21,0,.25-.1.34,0,.31.09.25.16.44.45.39.55.66,1.79,0,.66-.5.36-.56.24-.16.28-.29.2-1.45.73-.53.15-.22.17.08.15.2.14.15.16.33,1.11.06.53,0,.58.13.26.39.14,1.36.2.17,0,.25-.53,1-.26.62-.37.62-.12.25-.12.61,0,.93.09.67-.12-.17-.67-.22-.17-.57-.22-.25-.25-.31-.49-.06-.28,0-.42,0-.62-.95.54-.45-.43,0-.35.08-.34,0-.35-.1-.38-.58-1,.17-.34,1.83-1-1.92-.68-.35-.39.06-.64.52-.07,1.2.39,1.19.19.61.3.3.6-.18.5-.46.54-.53.43-.38.2.08.29v.29l-.12.64,0,.25.14.09.16-.07.11-.21.17-.51.27-.42,1.37-1.49.93-.75,1-.29.81.6.08-.42.2-.3.28-.14.35,0,0-.17Zm-442,54.93-.07-.13H35.2l-.11,0H35l-.44.12-.05.05,0,.12-.14.11-.07.11,0,.08.31.07h.22l.5-.4Zm9,14.45h-.15l-.38,0,.23.2.33.27,0-.16,0-.22ZM34.12,336.17H34l-.06.14,0,.14.31.09.06,0v-.18l-.1-.14Zm2.65,2-.4.09-.34.25,0,.35.07.28,0,.09.11.06.25-.09.71-.47.17-.2-.13-.21Zm-.18,49.5-.15-.23.22-.53.13-.16-.47.11-1.29.94V388l.94-.17.21.07.24.38.14.15.24.1v-.3l-.08-.28Zm-3.1-57.84.41-.14.36-.15.32,0,.28-.12v-.13l-.37-.12h-.36l-.25.14h-.4l-.52.12-.09.22v.11l.12.1Zm.9-1.56L36,327l.44,0,.37.49,0,.3.08.51.13.5.15.27.19,0h.24l.2-.1.18-.46.21.13.19.26.05.14L39,329l.45-.23.29-.41.1-.56-.07-.55-.21-.58-.34-.49-.47-.27-.24,0-.47,0-2.05.5-.65,0-.3.06-.2.38-.29.39-.08.08-.3.18-.31.41-.24.47-.13.34.54-.13ZM232.18,213.95l-.68.07-.27.06-.37.25-.31.06-.32-.07-.37-.17-.35-.23-.27-.25-.24.07-.53.09-.5.26-.28,0-.28-.07-.29,0-.46.23-.35.24-.38.11-.56-.14-.27.14-.72.16h-.6l.08-.3.36-.25.46-.22.47-.1.4.12.18-.27.27-.11.31,0,.31.17.41-.37.68-.15h1.35l.36-.06.18-.14.13-.17.21-.16.52-.25v.06l.08,0,.32-.08.12,0-.16-.39-.18-.23-.54-.45-.2-.26-.19-.34v-.21l.38.12.09-.25.18-.31.18-.19.08.12v1l.11.26H231l.24-.11.1-.07-.06-.06.32-.19.36-.16.08.07.08-.22,0-.49.15-.25,1.32-1.6.2-.44-.19-.33-.36.1-1,.79-.54.53-.44.33-.49.14-.46-.31-.12-.22v-.17l.12-.11.55-.06.13-.09,0-.18V208l-.14-.37-.31-.38-.41-.29-.39-.1.1.47-.25.41-.43.14-.44-.33-.39.46-.48.12-.54-.13-.55-.27-.93-.74-.44-.15,0,.54-.4-.15-.18.1,0,.26.21.33h-.89l.19.3.79.65.34.12.16-.27.11-.4.16-.25h.42l.22.28v.38l-.44.52.12.25.43.5h-.78l-.33.29-.22.49-.45.62-.14-.79.06-.4.27-.4-.89-.16,0,.26,0,.16-.12.08-.22,0-.19.06v.14l.05.18-.05.16-.32.22-.33.17-.26.24-.13.41.23.78.68,0,1.37-.45-.17.35.14.09.1,0,.12,0h.17l.23,0,.05-.1v-.12l.07-.08.44-.1,2.89-.06-.55.46-.74.16-1.52-.11.4.29.16.07-.4.17-.62.15-.61.06-.41-.12-.4-.17-.54,0-1.08.1.21.23.28,0h.34l.38.09v.17l-1,.2-2.71,1.2-.21-.07-.22-.12-.18-.2-.09-.29,1.4-.31.72-.28.32-.3.06-.31.25-.57.06-.26L222,212l-.39-.27-.47-.15h-.39l.27-.38.4-.1.37-.17.18-.59.21.09h.17l.12-.11,0-.25,0-.11-.13-.15,0-.1.07-.21h.15l.18.09.12,0,.18,0,.24.1h.21l.09-.23.05-.26.14-.15.22-.05.28,0-.66-.27-.9,0-1.69.24,0,.12-.6.66-.11.4-.27.14-.29-.06-.22-.21.24-.18.22-.24.17-.3.09-.33-.43-.12v-.19l.25-.21.36-.18-.62-.51.39-.26.73-.08.4,0,.36.28.81,0,.83-.21.43-.31-.23,0-.08-.07-.05-.1-.16-.15.25-.19.26-.08H224l.29.09.12-.36.24-.18.15-.18-.16-.34,1.23.24.45-.09-.28-.68-.21-.13-.3-.05h-.3l-.22,0-1.26.52-.39.09-.14.07,0,.08-.06.33-.07.13-.78.6-.09.1-.62-.11.1-1.18-.63.33-.57.68-.13.11-1.3.16-.28.1-.24.14-.59.23-.22.15-.41.4,0,.14v.34l.16.07,1-.52.32.07.2.19,0,.26-.2.28-.61.25-.69.17-.37.29.36.61-.37.17-.13-.25-.13-.08-.13.08-.12.25h-.17l0-.5-.26-.46-.4-.33-.45-.13-.37.13-.45.3-.24.36.27.28-.22.28H214l-.22-.11h-.22l-.21.17-.41.61-.36.28-.43.22-.89.29.1-.18.08-.23v-.2l-.17-.08-.27.08-.28.37-.64.21-1.59,1.19-1,1.05-.44.37-.89.41-.95.62-.49.19-.54.07H203l-.57-.1-.45-.22-.18-.38.1-.19.45-.16.14-.16,0-.2-.32-.69-.24-1-.2-.33-.27.32h-.17l-.07-.29-.14-.19-.4-.32-.09-.23.18-.92.24.1.21.16.15.21.1.24.11-.42-.2-.35-.28-.34-.15-.39,0-.4-.31-1.27-.25.12-.2,0-.19,0-.24-.11.65-.4.58-.48.29-.33.06-.17-.07-.23-.09-.47.25-1.13.08-.13-.27-.38-.33-.09-.38,0-.43-.06.31-.26,0-.21-.15-.24.14-.51v-.23l-.13-.32-.35-.39-.37,0-.36.24-.33.4-.26-.29-.2,0-.41.31,0,.12.05.34-.1.07-.33,0-.13.05-.61.37-.34.1-.33-.09-2.2-1.33-.88-.69-.35-.73-.55.22-.17.13-.14-.41.31-.76v-.43l-.12-.12-.43-.13-.15-.09-.35-.68.44,0,.36,0,.13-.2-.23-.53.38-.25.23-.48.28-1,.24-.53.27-.26.4-.08,5.54.35.59-.18-.84-.07-1.53-.33-1.66-.16-5.08.19-1.17.46-1,1,.32.1.36,0,.37-.16.33-.25.08.09.3.26,0,.23-.79.27.12.37-.16.12-.22.13-.23.08-.42-.16-.19.17-.15.24-.13.13-.36-.11,0-.28.41-.85-1,.29-1.12.82-2.56,2.41-1.33.78-.11.1-.31.07-.71.37-.35.24-.18,0-.38,0L180,202l-.11.16-.08.17-.08.11-.17.06h-.17l-.17,0-.17.13-.06.11,0,.27-.09.14-.61.62-.33.51-.18.15-.22.07-.32,0-.22.2v.45l.15.8v2.78l.16,1.33,0,.24-.23.59-.06.31.23,2.83.15.31.5.72h-.3l-.3.11-.24.12-.12,0-.25-.07-.12.25-.08.62v.55l-.05.3-.35.5-.06.24,0,.25.1.24-.53.15-.76.36-.67.43-.3.38,0,.3-.08.27-.13.25-.21.23-.13.09-.07,0,0,.06,0,.53-.08.09-.12,0-.13.13-1,1.6-.36.43-.25.18-.26.13-.2.16-.18.6-.24.06-.35,0-.38.06-.22.14-.65.57-2.42,1.17L165,227h-.19l-.48,0-1.78.19L161,227l-.41.22,0,1.21,0,.15.11.18.19-.19.16.29-.52,1-.25.83-.36.51-.43,1.61-.25.59-.38.45-.87.81-.14.2-.26.63-.12.57-.45.95-.69,3.78-.54,1.15-1.25,1.44-.16.59.33.51.79.19,1.7-.08.69-.15.59-.27-1.06.85-2.86,0-.52.12-.53.46-1.83,2.78-.45.21-.65.9-.43.47-.41.2-.27.09-.24.22-.38.48-.2.33.06.18.5.36.43.61.12.56v.57l.08.63.07.24.12.21.19.21.31.24.45.27.15.15.09.27-1.22-.72-.18-.23-.31-.2-.61-.06-.44.16.22.47.47.66.39,1,.07.91-.51.54-.07-1.32-.13-.62-.88-1.36.31-.39.63-.27.49-.42,0-.59-.25-.7-.42-.59-.5-.25-.65,0-.24.07-.33.25-2.19,2.8-.43.28-.47.2-.91,1-.45.37-.94.35-.29.17-.33.28,0,.14.1.18.23,1,.64.9.08.68-.58-.64-.62-1.11-.71-.87-.81.09-1,.59-2.29.61-1,.47,2.2.7,1,.55.67.85-.46-.4-3.16-1.35-.68-.07-.09.43L134,260l-.39.22-.36.37-.45.26.21.24.46.05.21.23-.77.18h-2.56v.19l2.33.73.68.5.49.62.17.39-.09.42,0,.48,0,.2-.3.51,0,.21h-.16l-.17-.53,0-1-.07-.54-.21-.44-.32-.42-.47-.27-.55-.21-1-.19-1.12.35-.87.76-.49,1.11.61-.32.57-.67.64-.53.82.11-1.66,1.94-.3-.06-.55-.25-.29-.06-.41.05-.35.12-.66.35-.62.2-.26.16-.19.36-.09.41.1.16.25.12.37.27.39.53.16.48-.18.17-.65-.39-1-.86-.51-.09-.21.68-.33.4L120.31,269l-.55.33-.53.48-.16.56.53.3.86.12.79,0,.66-.12h.3l.26.12-1.13.31-.49.07-.67,0-1.44-.19-.67.09-.52.45,1,.41.5.31.21.4,0,.81-.14.13-.42-.32-.47-.88L118,272l-.57.07-.39.33-.87,1-.41.2-.52.11-1.33.77-.56,0-1-.17-.87.49-1,.21-.38.28-.17.53.15.51.34.47.39.42h-.17l-.56-.13-.23-.43-.09-.54-.17-.47-.22-.2-.22,0-.7.06-.25.06-.32.16-.28.21-.12.2-.3.37-.7.27-1.29.31-1.86.92-.51.13-.47.19-1,.85-.48.19-.25.06-.7.32-.19.14-.1.21.05.18.39.48.59.94.41.45.5.19.53.12,1.36.64.47.31-.61,0-1.41-.71-.7-.19-.3,0-.38-.11-.32-.19-.67-1.42-.46.09-1.63.63-.45.25-.49.36-1.19.59-1.54,1.12-1.4.63-1.46.33-1.22-.13-.53-.41-.41-.46-.44-.17-.63.43-.22.08-.65,0-.35.15-.25.18-.52.27-.86.32-1,.16-1.58.08-.51.11-.5.19.52.3.17.07-.29.09-.3.14-.29.18-.26.21-.21.31-.07.32,0,.27,0,.15-.85.79-1,.72-1.6.78-.94.79-.48.22-1.2.29v.17l.63.18.3.31v.39l-.31.44-.24.1h-2.3l.13.84-.64.58-.93.46-.75.48-2.12,1.74-.6.63.21.29.15.38.17.75,0,.68,0,.19.13.18.12.05.13,0,.15.09.69.53.58.25.14.1.17.33.07.39-.06.38-.18.3-.79-1.14-.34-.27-.86-.36-1.14-.74-.75-.13-.75.23-.74.57-.18.11-.44.1-.17.07-.14.17-.21.36-.18.15-1.36.28-.41.24-.21.37.11.27.65.43,1,.86.43.17-.66-.14-.48-.18-.42-.3-.48-.49-.28-.14-.28.1-.26.18-.49.18.06.19.28.34.16.45.67.53.05.52-.2.45-.27.34-.22.38,0,.58-.46-.25-.27-.3-.06-.37.12-.47.23-.37.21-.18.07-.18-.18-.34L59.5,304l-.93.09-.75.57-.32.88.07.31.37.83.18.27.18.37v.41l-.05.37.07.26.53.37.07.15,0,.18.06.2.08.18.12.14.07.28-.44.06-1-.07.17-.48-.18-.31-.31-.27-.21-.35,0-.24.26-.49.07-.24-.08-.25-.18-.19-.19-.15-.08-.11-.35-.8L56,306l-2,.84.13.12.25.28.14.12-.61,0-.48.07-.42.16-1.28.78-.43.36-.12.36.3.22,3.08,1.27.48.1-.36.29-.57-.22-.63-.39-.54-.2-.68-.13-.68-.24-.66-.14-.62.17-.35.4,0,.42.3.43.43.42.54.25,1.45.38.39.32-1.56-.12-.39.12-.12.2.08.51-.13.35-.3-.22,0-.29,0-.34-.06-.37-1-1.16-.57-.1-.61.43-1,1.18.63,0,.53.33.93.86.92.56.14.16-.2.19h-.4l-.43-.12-.29-.17-1-1-.61-.32H47l-.58.27-.18.43.07,1.14.11.29.47.28.16.51.23.51.05.34.44.18,2.08-.15.65-.12,1-.33h1v0l-.22.12-.14.28,0,.48.07.12.25.27.35.19.9,0,.41.09-.28.34-.46.14h-.53l-.47-.12-.36-.23-.45-.62-.26-.2-.47,0-2.61.55-.43.18-.37.35,2.58,1.83,1.33,1.22.14.83-.17-.12-.34-.13-.19-.1-.06.1-.11.06-.46-.86-.17-.61-.26-.21-.32-.15-.7-.45-.18.13-.1.33-.18.33-.33.27-.31.13-.87,0-.23-.11.27-.24.66-.36.24-.33,0-.25-.1-.22-.18-.24-.73-.53-.69,0-.72.24-.82.06.09-.24.16-.19.21-.16.24-.12L44,318.1l-.48-.32-.2-.44-.25-.09-.56.31-.87.66-.35.42-.15.32.08.28.33.29.46.23,1,.37.47.28.31-.6.4.23.39.63.29.6-1.11-.18-1.24-.58-1.25-.37-1.14.43-.26.4-.46,1.54-1,1.46v.38l.32.47.21.1.45,0,.29,0,.55-.11.29,0,1.41-.56,2.11-.3,3.41-1.28-.22.65-.75.4-1.66.37.31.28.39.1h.86l-.56.37-.7,0-1.35-.34-.75.09-1.29.48-.69.11-.59.16-.29.42,0,.57.2.61.43.08,2.47-.26-.4.24-1.36.29-.44.22-.31.28-.47.75.59.14,2.4-.5,1.84.16.39,0,1.09-.31-.32.54-.54.3-1.24.39-.51.26-.25.17-.22.2-.29.16h-.35l-.76-.09-.7.08-1.36.36-.66.08h-1.6l-.75.15-.64.38-.19-.19.19-.18H34.68l-1.66.18-.42.25-.17.59v2.3l.14.51,0,.35-.1.3v.2l.13.32.2.3L33,336l.2-.1.6-.47.34-.15,2.43-.51.38-.28.09-.26.69-.79.16-.11.47-.24,0-.14.08-.18.11-.17.11-.11.24-.18.28-.16.29,0,.25.21,0,.19-.23.27-1.4,1.2.07.17.4.14.49.09.35,0,.89-.21.87-.3-.43.58-.67.22-1.55.26-.72.32-.49.4-.28.56-.09.82-.41-.18-.22.2-.09.41V338l1.85-.28.81-.33.34-.8.28.19V337l-.11.2,0,.13.22.22h.07l0-.1.8-.61.1-.05,0-.25-.08-.17-.06-.18.09-.29.38-.33.6-.24,1.12-.29,1.56-.66.56-.06v.16l-.64.27-1.17.68-.75.13-.53.22-.4.52-.72,1.2-.87.88-1,.78-.26.14-.73.23-.15.16.11.25.76.72,1.45.74,1.71.21,3.52-.06,1.75.33h.44l.43-.05h.44l1.63.54.3,0,.1.08.11.15.15.1.18-.07.16-.1.21-.08.42-.08.56,0,1,.28.51,0,.37-.1.78-.34.42-.1.88,0,.39-.08.33-.32.15-.38.05-.34.1-.35.3-.41.09-.19,0-.42.16-.19.21,0,2.93.22.38.07,1.21.55.51.12,1,.08.39.24v.51L65,342l1.31,1.21-.24.31-.31.15-.35.1-.36.15.31.18.6.25.25.17.36.47.23.23.29.09.24.25.25.17.29.09.15-.05.39-.24.17-.06.2,0,.36.13.26.06.31,0,.3-.07.14-.27.22-.24h.49l.78.08.32-.09.44.1.45.15.37.08.06-.14-.09-.3,0-.3.36-.14,2.51-.31.72.13.42.32,1.37,1.77.54,1.06.3.35.52,0,.5-.37.25-.6-.21-.65h.65l.47.6.18.83-.24.68-1.34.78-.16.18-.12-.18v-.11l0-.07-.27-.06h-.28l-.79.17,0,.3.11.23.19.14.67.16.16.24,0,.24.09.11.58.19.93.79.7.08-.3-.46-.78-.69-.16-.52.22-.45.52.08,1,.45,2.24,0,.74.21.59.44-.46.15-.74-.1-.27-.29-.31-.07H83.5l-.36.08-.22.11-.15.13-.32.44,4.42.31,1.37-.31-.09-.08-.16-.19-.09-.08.33-.26-.15-.2-.33-.23-.2-.36,1.28,0,.64.11.51.21-.35.13-.36,0-.31.09-.22.27h.88l2.63-.36.75-.2h.35l.15.29,0,.25.65,1.61.3.31.47,0,.84,0,.71.17.88.3.87.16.69-.28.09-.32-.08-.32V352l.33,0,.18.13.17.25.27.23.46.11h.77l.16-.06.07-.12,0-.12.32-.18,0-.57.23-.18.37.07.06.3-.1.51.33.24.34,0,.9-.09.31-.06.31-.16.52-.4.35-.16.45,0,.88.11.16.06.54.29.47-.59.79,0,.86.18.69-.15-.14-.12-.25-.3-.14-.12,1.35-.56.33-.22.53-.17.72.12.66.19.37,0,.85-.5.92-.25.8-.38.52-.89-2.06-.07-.4-.12.41-.08.74-.23.44,0,.43.06.86.24.44.05.21-.08.59-.36.73-.19.12-.26-.06-.68.35-1.34.89-.86,3.55-1.76.48-.39.44-.46.55-.47.64-.28,1.35-.39.54-.25.58-.39.46-.49.19-.54.05-.24.23-.47.08-.77.09-.29.41-.6,1.49-1.51,1.9-1,2.19-.52,5.3-.39.06-.14V333l.13-.17.27-.15.1,0,.52,0,.54,0,.38-.13.23-.33.08-1.4-.1-.4-.27-.32-.27.35-.29.12-.32.06-.36.17-.31.31-.39.58-.35.24-1.16.32-.78.48-.93.17-.48.18.24-.44,1-.45.32-.65.25-.1.29,0,.22-.06.19-.16.49-.55.51-.19,1.25-.18.45-.24v-.34l-.51-.27-.68-.24-.46-.28-.35.29-.33,0-.34-.16-.39-.1h-.23l-.11-.06,0-.13v-.24l0-.23h.12l.17,0,.21-.06.53-.32.32-.14.29-.06.2-.14.61-.92-.58-.06-.38-.25V326l.51-.13.92,0,.33-.1.43-.29-.23-.49-.09-.26,0-.28.44.24.35,0,.31-.15.31-.3-.19-.63.53-.4.71-.34.36-.47-.06-.33-.1-.27v-.28l.23-.34,1-.8,0-.59-.45-.3-.36-.32.31-.64.34-.54.61-1.82,1.39-2.14,2.84-2.08,1.73-2.31,0-.31L152,309l-6.42-1.71,6.61,1.18.84,0,.51-.27.27-.51.21-1.52,0-.84-.25-.62-.74-.09.25-.31.35-.14.31-.19.13-.49,0-.44-.3-1.23v-1.93l-.13-.88-.57-.51.75-.32.21,0,.3-.11.08-.25v-.29l.06-.24.74-.64.35-.38.14-.48v-1.46l.1-.3,1.39-1.85.08-.25-.17-.21-.51-.23-.66-.16-2.16,0,.68-.28,2.13.11.41.1.41.17.4.08.37-.18.5.14.63-.26,1.57-1.21.31-.18.66-.18-.2-.23-.66-.34-.46-.36-.45-.52-.35-.58-.14-.56-.22-.51-.51-.4-.58-.36-.44-.4,0-.28.57.1.73.3.76.5.67.18.29.17.49.44.47.52.54.89.26.56.52,0,.28-.08.68-.36.72-.16.29-.19.27-.23.31-.22.4-.11.95-.16,1.9-1,.22-.4-.3-2.61.25.29.06.29v.31l0,.35.46.83.06.31.34.49.77-.09,4.95-2.61,2.67-.91.53-.34.21-.58-1-.71-.8-1-.64-1-.47-.51-.56-.21-.67-.08-1.43-.49-1.38-.92-.57-.58,6,2.2,1.41,1,1.67,1.84.37.22.3,0,2.14-.25.28-.11.31-.31.07-.13-.06-.15-.06-.38v-.63l.11-.76.24-.64.43-.27.72-.12.67-.2.65-.09.68.24.21.18.31.37.18.14.44.13.81-.09.32.05.7.34.19.19-.37.08-.4,0-3.86,1-.69.08-.31.12-.25.19-.11.27.22.1,1-.12,2.25-.59,1.49-.11.71-.27,2.09-.22.7-.25.45,0-.49.48,0,.34,1,.75.55.52.31.18.58-.13.59.51.35.15h1.68l.6.09L199,282l-.81-.93-.28-.69,0-.7.37-.69-.33-.22-.07-.3.17-.26.4-.11.33.12,0,.31,0,.38.14.33.3.33,0,.19-.07.22v.39l.1.34.32.58.11.33.22-.17.22-.09.23,0,.21.22v-.17l.17-.55.47.08.63-.61.31.35.32-.63.21-.73.07-.74-.09-.69-.07-.13-.21-.26-.07-.15,0-.13.09-.18.07-.21,0-.21-.29-.3-.36-.21-.3-.26-.1-.45-.31.13-.73.58-.1-.35-.29-.22-.39-.11-.38,0-.33.12-.22.27-.18.3-.22.2-.35.07-.09-.16.08-.71,0-.43-.15-.22-.68-.3-.23.64-.12.66-.11.09-.24-.21-.24-.37L196,275l-.41-.05h-.92l-1,.18-.53.5-.57-.13-.72-.09-.29-.19.68-.46.76-.19,1.69-.08.73-.24-1.57-.32-.39-.21-.21-.35.12-.17.3,0,.32.29,0-.41-.73-1.52L193,270l-.25-.52-1.19.65-1.2.45-2.7.48-3.51-.68,3.36.05,1.74-.21,1.55-.41.29-.16.76-.54.37,0h.87l.17-.16,0-1.36.1-.64.19-.62-3.06.18-3.52-.77,5.25.26.47,0,.4-.14.18-.17.13-.21.61-.69.59-1.07.36-.5,2-1.05.69-.64.85-.29,3.46-.63,1.24-.71.22-.18.11-.22.09-.29.15-.25,1.06-.4.72-.08.28-.07,1.12-.51.24-.17.1-.19.06-.35.17-.13.23-.09.24-.22.18-.32,0-.14,0-.14v-.29l-.12-.5.05-.27.81-.3.48-.46.39-.55.28-.89,2-3.18-.14-.06-.1-.06-.12,0h-.18v-.19l1.13-.44.6-.94.4-1.13.5-1,1.35-1.22.32-.19.27-.08.54-.36.33-.08.39,0,.29.14.53.52.19-.17.17-.2-.18-.24-.44-.4-.1-.23,0-.42.19-.21.27-.14.29-.2.11-.15.25-.46.36,0,.18,0,.15-.08.8-1,.55-.39,1.15-.55.5-.37.49-.67.49-.48.05-.12-.95-.81-.45-.29-.31-.39-.12-.75.08-.25.18,0,.18.23.08.31,0,.44.15.25.27.15,1.13.37.31-.12.06-.46,0-.78.15-.52.35-.59.74-.92,5-4,.45-.49,1.82-2.62.15-.62-.48.14-.65-.06-.57-.26-.24-.45-.14-.17-.54-1.41,0-.27h-.48l-.61.32-.85.64-.27.1-1.72.29-.27,0v-.06l.54-.26,1.54-.5.71-.37.72-.57.32-.5-.07-.53-1.41-1.82-.36-.23.07.4.23.52.13.12-.12.51-.28.07-.27-.14-.1-.1.09-.16-.11-.34-.31-.31-.48-.08.17-.43,0-.37-.28-.78,0-.48.12-.32.61-.61.48-.69.4-.74.5-.64.73-.39-.17.37.35.07.54-.4.26.06-.05.16-.43.56-.13.26.38-.08.6-.37.8-.16.17-.2.09-.26.12-.25.25-.24.51-.35.2-.18.4-.6.31-.64-1.05.62ZM63.3,322.68h-.47l-.32.13-.08.23.49.65.12.3-.07.32-.3.41-.17-.12-.31-.38-.44-.32-.56,0,.08.11,0,.09.07.08.14.08-.3.55h-.49l-1.14-.63-.74-.15-.43.31-.42.43-.69.2.62-1,0-.41-.65-.17-.28.06-.69.21h-.18l-.29-.11-.37.07-.65.3.09-.4.25-.15.73-.15.44-.21.23-.19.38-.67.45.51.18.41.28-.06.5-.33,1.18,0,.59.08.48.16.39-.62.74-.11,1.53.38Zm7.43-13.48-.27.24,0,.38.06.61-.22.88-.34.9-.45.83-.54.68-.25.17-.23.09-.16.16-.12.61-.11.17-.12.12-.06.09,0,.43,0,.45,0,.43-.54,1-.75,2.13-.32.45-.52.19-.22.42-.16.42-.33.19-.44-.19,0-.45.22-.52.34-.41-.86-.15-2.12-.08-.78-.39-.23-.19-.76-.47-.23,0-.37.15-.5,0-.48-.15-.32-.25,1-.16.23-.1.39-.23.26,0,.43.11.41.26.64.6.53.27.73.13h2l.47-.14.32-.31.12-.56-.14-.84-.36-.83-.51-.74-.57-.58-.38-.23-.5-.22-.89-.26-.64,0-.62.11h-.59l-.58-.3.48-.18.61,0,1.19.05-.39-.75.25-.16.59.25,1.2.9.82.38.88.12,1.1-.46.38-.06.31-.13.13-.37,0-.36-.07-.38-.19-.3-.34-.12-.42-.29-.43-.66-.34-.76-.13-.56.4.31.5.91.42.19.2.17.93,1.07.54-.8.58-1.15.21-1.1-.61-.64.44-.25.74-.12.77,0,.52.18Zm21.55,8.62-.2.29-.37.37-.15-.06L91.49,317l-.22-.76-.33-.71-.44-.54.32-.13.18-.25.07-.32,0-.36-.15-.29-.45-.43-.1-.25-.19-.72-.46-.12-.57.24-1.08.71-.25.08-.41.07-2.51-.09-.57-.27-.47-.44-.49-.59L82.39,310l-.21-.28-.45-.35-.05-.78.23-1.32-.05-.11-.23-.31,0-.12,0-.14.1-.24.14-.71v-.28l-.51-.78-.17-.59-.3-3.21H81l.13.31.41.42.17.3,0,.37-.2,1,.1.69.26.61.67,1.17.28-1.07.25-.49.54-.38.36-.07-.07.24-.62.86,0,1,0,.28-.18.23-.27.25-.16.3.17.38.38.49.26.5.18.56.37,1.91.21.59.35.52.62.37.75,0,2.24-.51,1.48-.56,1.33-.23.12.05-.47.64,0,.23,1.37,1.47.19.62-.34.7-.26.58.1.62.44,1.17.07.35,0,.29Zm29.82-25.94h-.87l-.8-.2-.69-.51-.32-.59-.17-.8.14-.65L120,289l-.22-.59,0-1.46-.36-1.5-.06-.89.2-.84.57-.54,0,.56-.29,1.05,0,.51.07.26.14.35.2.3.22.13.3-.08.15-.2.11-.26,1-1.75.29-1,.35-.17.21.23-.22.61,0,.6-.2.62-.3.58-.34.47-.71.53-.17.19,0,.33,0,.48,0,.42-.21.19-.23.13.06.3.19.32.15.19.13.28-.05.36-.17.67.27.53.64.34,1.37.54Zm7.25-3.65,0,.2-.16.22-1.11.43-.13.08-.62-.22-.05-.44.19-.58.14-.61-.05-.3-.24-.59-.06-.25.06-.26.48-.81-.17-.37,0-.78-.05-.42-.2-.3-.57-.53-.12-.32-.16-1.41v-1.66l-.52-1.07.32-.21.47,0,.42-.1.18-.45V277l.09-.24.23-.09h.45l.47.11.15.26-.13.3-.4.25-.72,1.43-.28,1,0,.23.39.57V281l-.08.28-.06.38.07.27.16.21.18.17.12.15.68,2,.11.18.08.21-.06.56.4.69.07.45Zm10.48-11.67-.38.52-.39.4-.6.42-.49.22-.28.32,0,.71.14.67,0,2-.11.79-.3.44-1,.8-.35.47-.58,1.08-.54.28.24-.76.94-1.48.12-.46-.08-.25-.16-.25-.11-.25.08-.22.15-.31-.14-.24-.3-.16-.33-.07.08-.36.27-.13.35-.11.34-.29v-.8l0-.12.16-.49.13-.75,0-.7-.64-2-.1-.67-.08-2.31,0-.41.18-.33.31-.18.18.16,0,.34-.18.38v-.17l-.12,2.37.16,1.28.72.69.12.61.09.22.22,0,.34-.13.59-.35.39-.41.47-.92.36-.44.17.68ZM162.29,264l-.42.51-.62.25-1.7.3-.39.44.24.27.54.42.55.54.25.61.19.61-1.76-.7-1.17-.27-.31-.16-.65-.16-5.37.77-.67-.26-.7-.42-.91-.22h-.92l-.72.21-.1-.47.53-.15,1.33.09,2.46.52.58,0,.66-.17.53-.29.17-.4-.24-.29-1.35-1.13.35,0,.5.24.89.6.18.17.2.36.16.17.32.21.19.05,2.39-.14.61.09,1.11.36.52.23.47.28-.39-.42-.51-.35-.46-.38-.2-.52.22-.57.38-.29.18-.27-.43-.53-.25-.1-.3,0-.24-.12-.1-.34-.05-.28-.23-.49-.14-.87-.23-.54-.59-1,.45.27.46.48.36.57.35,1.19.48.36.58.26.5.37.13.32,0,.25.06.19.36.12.31-.06.41-.2.36-.27.15-.26-.11-.3-.48-.29-.11-.29.08-.41.18.07.28.43.55.48.22.41ZM43.35,316.32l.28.32.21.36.5.18.56.13.42.19.45.32.34.07.86-.11-1-1.72-.37-.87-.24-.92-.07-.09-.07-.06,0-.07v-.13l-1.55,1.75-.17.25,0,.12-.25.09Zm-6.93,13.82.72-.06.14,0,.21.05,2.78-.75.07-.06-.13-.07h-.15l-1.26.06-1,.33-.67,0-.32.24-.58.06-.08.08.08,0v.06ZM56.6,364.91l-.13,0-.11.11,0,.13,0,.16,0,.12.21-.29,0-.09,0-.06ZM34.07,336.8l-.22-.08-.23,0-.14.12V337l.39.37.13.07.12-.17.09-.26.1-.14-.05,0Zm7.18-7.36h.64l1-.31.1-.08,0-.15-.12-.12-1.55-.11-.3.12-.24.2v.15l.18.06-.12.1ZM221,204.29l-.35-.23-.3-.3-.39-.28-.15.29,0,.32,0,.32.15.29.08-.1.27-.25.13.29,0,.26-.17.2-.3.13,0,.1v.09l0,.09-.1.09.33.14.37,0,.38-.12.32-.18.08-.11.07-.18.11-.17.18-.07.63-.18.15-.12.3-.32.15-.06.51,0,.11,0,.16-.3.1-.66.08-.26.11-.14.37-.35.14-.07.12-.08,0-.17-.16-.26.25-.66.09-.36v-.36l-.12-.38-.13.16-.28.73-.23.29-.24.21-.58.38H224l-.4.27-.8.2-.2.25-.13-.42.07-.46,0-.38-.37-.15-.22.11-.13.24-.1.35-.27-.06-.07-.21,0-.2-.14,0-.14.22-.32,1-.06.37.08.42.21.34.28.26.31.21v.16ZM86.67,354.81l-.3.22-.37.11-.4,0,.21.32.27.25.17.23-.12.27.24-.24.53-.42.31-.53-.41-.57Zm-3.34-50h0Zm152.36-94.19-.06-.2-.42,0-.33.11-.29.21-.33.18-.46,0,.16.29.26.17.31,0,.32-.14,0,.47-.41.42-.57.16-.44-.34-1.32,1.13-.23.11-.62,0-.27,0-.08,0-.27.2-.13.11h0l1.3.05.4-.05.26-.13.64-.43.35-.14.45,0,.47,0,.46,0,.38-.19.17-.3.16-.76.2-.34-.09-.34ZM78,359.14l0-.17-.2-.18-.21.11-.08.19.31.08Zm-.86,3.25.31.08.29,0,.28-.12.07-.17.16-.65.12-.24-.2-.07-.23-.14-.19-.18-.08-.2-.09-.1-.19,0-.34.14-.33,0-1.38.34h-.29V361l.2-.09.12-.1.09-.14.1-.18-1-.31-.65-.12-.7-.36-.26-.08-.56.21-.89.79-.64.05,1.24-1.2.08-.28-.26-.5.48-.17,1.45,0-.17.35L76,359l.64-.15v-.16l-.52-.19.5-.33-.31-.32-.58-.24-.31-.07-.15-.35L74.9,357l-.43-.21-.36-.26-2.29-2.22-.45-.35-.49-.29-1.2-.43-.29,0-.36.25-.33.13-.39,0-.69-.17-.78,0-.57.13-.36.37-.13.72-.06.14-.1.13,0,.15.11.19.12.12.08.11,0,.13v.16l-.1.19-.2.19-.11.22.16.28.86.9.34.55.13.58-.06.35-.15.28-.43.5L66,360h-.75l-.32.13-.12.55.2.68.1.61-.44.35-.35,0-.31-.11-.33-.07-.42.11-.61.28-.27.17-.26.26-.2.36v.29l.09.3,0,.39-.13.32-.18.27v.24l.44.21-.89.3-.52.28-.49.05-.26.16-.3.41-.31.62-.16.65.14.49.52.12.87,0,.86-.15.47-.17.36-.36.46-.33h.32V368l.8-.6.28-.33.31-.49-1.56.41-.8.1-.47-.34.75-.18,1.32-.72.41.21.17-.62v-.09l.2-.09.43-.07.53-.34.21.19.17.37.25.31.32,0,.93-.1.4.15.34.22.45.14h.45l.35-.19.47-.42,1.6-1,.65-.21,1.59-.19h1.91l-.3-.4.89.26.28-.13-.16-.63.14-.18.57,0,.2.11.19.33.14.09h.2l.27,0,.19-.08,0-.16-.33-.25-1.16-.54v-.18Zm-19.44,4.25-.61.28-.31.36.21.31.58-.13.62-.31.34-.22-.25-.34ZM64,356l.29-.2.27-.43-.33-.19-.34-.06-.38,0-.3.17-.11.34.16.33.35.09Zm.3,10.64.19-.09v-.12h.08l.1-.11-.11-.23-.24,0-.35-.07-.14.16.1.12.14.09v.22Zm3.6-19.12.09-.08,0-.14-.08-.13-.11.07-.32,0-.08.07.27,0ZM260.1,85.26l-.67-.65.17.61.59.52.73.26.6-.16.18.19.08.14v.16l-.08.22.62-.12h.22l.2.13.08.22.06.65.13.27h.27l.38-.18.34-.09.15.28V88l.09.31.19.19.36,0,.24-.19.5-.86-.21-.14-.49-.56,0-.1,0-.12v-.1l-.08,0-.15,0-.15-.06-.13-.08-.11-.09-.32-.44v-.3l.14-.28.09-.39.13-.2.24-.26.13-.23-.23-.1-.24,0-.66-.22-.67-.34-.37-.3-.05-.29.5-.2-.77-.46-.11-.16-.06-.32-.17-.24-.22-.16-.26-.08-.66.08-.29.4.1.51.51.42-.29.26-.33.1h-.77l.3.43.51.22.35.22-.22.45-.08.28.05.34v.32l-.23.21Zm11.06,9.38.21,0,.17.1,0,.1V95l0,.08,0,.07-.08.11,0,.1.06.09.32.13.21,0h.43l.16,0,.16-.06-.12-.25-.16-.17-.22-.09L272,95l-.28-.67-.16-.2-.7.17.12.28ZM248.37,204.72l1-.85.44-.63-.05-.13-.23-.09-.14,0-.2,0-.14.07-.24.45-.13.16-.79.62-.1.12-.06.14.09.13.17.05Zm93.1-82.64-.41-.26-.38-.14-.32,0h-.79l-.33-.08-.49-.36-.32-.08h-.9l-.43,0-.42-.13-.29-.18-.47-.4-.31-.12v-.18l.35-.27-.32-.21-.59-.15-6.31-.25-1-.17.3.4.13.28-.09.25-.34.29-.48.17-1.14.1-.39.17-.61.74-.34.29-.46.11-.52,0-2.55.59-.18.18-.07.3-.16.23-.39.35-.29.45-.29.93-.4.45-1.07.46-.16.16-.08.25-.43.63v.66l-.11.23-.27.28-.78.53-2,1-.46.33-.62.31-2.29.13-.77.16-.29,0-.18.08v.18l0,.18-.1.08-.15,0-.11.08-.11,0-.16-.09-.28-.38-.06-.05h-1.68l-.33-.13-.21-.19-.25-.12-.43.09.19.27.11.35-.06.31-.33.14-.37,0-.33-.12-1.19-.67-.16-.16.28-.07h1.5l-1-.42-2.39-.25-1.4-.71-1.74-.2-1.54-.47-1.62-.21-1-.4-5.12-3-.31.17-.17-.08-.11-.17-.12-.1h-.77l-.31-.11-.62-.48-.3-.11-.74-.14L285,123l-.7-.14-.63-.29-.9-1.3-.5-.35-.34.1.13.36.57.76.35,1.24-.38,0-.41.1h-.32l-.13-.23v-.44l0-.31-.14-.23-.34-.18-.49-.06-.17.2-.13.27-.37.13-.26-.15-.22-.28-.26-.15-.39.22-.25-.38-.15-.37-.21-.31-.45-.18-.09.05-.1.13-.13.13-.2.06-.45,0-.13-.05-.13-.12,0-.13-.12-.57,0-.09.1-.14.07-.15,0-.15-.11,0-.26,0-.14-.08H276l-.13,0-.15,0-.17-.19,0-.18,0-.19.08-.18.09-.15-.12-.1-.23-.28-.15-.15,1.2-.18.66,0,.51.25.35.33.43.32.89.5-.8.23-.26.11.43.32.39.05.38,0,.4,0,.31.13.91.57-.1-.44-.31-.32-.73-.55-.22-.31-.4-.76-.26-.34-.36-.3-.43-.28-.47-.23-.42-.15-1-.13-.24-.17.21-.4.21,0,.19.15.13,0v-.33l-.1-.21-.36-.22-.08-.18-.11-.38-.47-.8-.11-.4-.1-1-.25-1-.24-.47-.3-.24-.88-.33.35-.29,0-.44-.19-.56-.12-.64H274l.12.28.14.25.19.2.25.14-.12-.34,0-.74-.08-.32-.22-.09-.34,0-.26-.09,0-.21.43-.58.38-.67.08-.64-.46-.48-.16.21-.29.27-.28.14-.13-.18.11-.27.21-.28.16-.28-.05-.25v-.15l.08-.82-.16-1.22-.1-.34-.11-.2-.4-.42-.11-.27,0-.66-.1-.28-.58-.39-1.05.18-.56-.24-.34.35.2.8-.41.26,0,.29h-.21l-.31-.16-.28-.23-.06-.21.09-.19,0-.19-.31-.2.38-.54.4-.45.32-.21.66-.21.33-.18.5-.75.12-.12.72.08.26-.09.14-.34-.06-.42-.26,0-.34.16L272,98l-.34-.3-.32-.12-.36,0-.46.14-.64.42-.37.15-.32-.12-.28-.18-.36,0-.32.09-.18.23.16,0,.37.13-1,.65-.36-.07-.18-.74.08-.26.16-.25.09-.26-.16-.29-.28-.07-.74.09-.29-.1-.15-.29.08-.22.25,0,.33.22.27.11.07-.34-.07-.65-.19-.67-.46-.12h-.58l-.53-.35.55-.51,0-.66-.29-.65-.46-.48-.67.61-.26,0-.53-.41-.21-.1-.09-.08-.06-.08-.1-.2-.16-.23-.11-.21-.16-.13-.85.15-.63-.09h-.52l-.21.36.08,1,.12.42.22.34.43.32,1,.29.46.2.47.53.07.07.11.22.25.09.3,0,.22.09.12.58-.33.62-.19.68.58.77-.16.26v.27l.13.26.17.25.13-.12.41-.23.12.63-.43.3-1.29.3.16.05.15.07.18.06h.22l-.16.26-.27.11-.32.06-.31.1.35.16.4.05.84,0-.38.43h-.56l-.61-.09-.54.16.32.24.13.26.08.27.16.28.26.23.65.38.31.25.24.3.18.3.61,1.58.11.21.12.32,0,1.35.08.37.45.78.06.32.24.69.1.81.16.38.27.27.4.09-.47.24-.46-.06-.34-.3-.14-.51,0-.58-.08-.27-.21-.12-.36.05-.14.13-.08.17-.2.17-1,.39-1.17.24-1.14,0-.93-.42-.4-.39-.39-.48-.3-.55-.12-.59.32-1.79,0-.59-.07-.38-.12-.3-.18-.25-.91-.91-.21-.1-.33-.09-.55-.37-.26-.08-.23,0-.84.32-.13,0-.14-.1-.16-.06-.6.34-.43.12-.29.16-.32.11-.39-.09-.33-.45.29-1.17-.31-.59-.54-.18-.81-.07-.6.12.1.43.42.62-.32.19-.65,0-.58.12,0-.67-.2-.59-.56-1.21h-.18l-.7,2.8-.25.29-.17,0-.14-.18-.14-.33-.12-.49.13-.23.25-.17.26-.31.08-.77-.56-.29h-1.61l-1.18-.21-.4.05-.33.14-.27.2-.23.25-.22.29-.18-.19,0,.27,0,.35,0,.31-.21.14-.32-.15-.12-.35,0-1.09v-.15l-.12-.1-.41-.2-.13-.2.25-.2.37-.2.23-.19-.45-.09-.91.11-.21,0V99.9l.42-.38.4-.22.91-.37h.37l.36.7.49.09-.12.22,0,.19.1.16.21.13.67-.3.37.1.33.24.56.13-1.54-3.85-.39-.64-.52-.44L245,96l.42,0,.63-.19,1.19-.56.12-.14-.28-.18h-.3l-1.09.35-.71,0-.35-.08-.26-.14-.33-.28-.12-.07,0-.52-.08-.35-.28-.45V93l.15-.18.53-.27.19-.26-.2-.19-.2-.15-.22-.11-.25-.06v-.19l.58,0,.06-.43L243.8,90l.67.22.41.51.52,1.22.11-.41.06-.46-.05-.44L245.1,90l-.35-1.06-.06-.36.43-.06,2.11.09.78-.11-.62-.16-.71-.08-.57-.19-.2-.47.05-.28.08,0,.1,0,.14-.09v0l.06.06.09,0,.09,0,.07-.11-.06,0-.08,0,0-.07.15-.34,0-.15-.66-.23-1.06-.59L244,85l-1.43-1.8-.45-.41-.38-.25-.27-.31-.12-.61.07-.28.14-.22,0-.24-.25-.33-.28-.13h-.65l-.31,0-.48-.21-1.15-.69-.31-.32,0-.46,0-.66-.09-.62-.42-.37.58-.46.44-.51.11-.5-.42-.45-.56-.16-1.69-.18-.47.07-.19.28-.16.33-.22.22-.39-.05-.19-.2-.07-.31,0-.34.13-.26.09-.43-.12-1.39.12-.56.28.27.2.28.13.31.08.36v.47l-.09.21.05.05h.41l.12-.09.14-.36.17-.08.16.06.27.24.18,0,.36-.08.67-.23.38,0,0,.41.74.17-.18.48.57.32.49.43.52.27.71-.15-.61-1-.06-.23.17-.61,0-.32-.26-.27-1.51-.76.27-.06.29-.11.22-.18.09-.27-.11-.22-.27-.1-.65-.13.37-.16.14,0-1-.43-.42-.29.27-.13.46,0,1.15.16.39.18.34-.87L240,69.1,238.79,68l-1.34-.89-.12-.31,1-.12-.14-.31-.6-.9-.22-.19-.07,0-.09-.22-.11-.09H237L237,65l0,.07,0,0-.52-.11-.52,0-.58-.37-.94-1.72L234,62.3l.25.2.8.51.72.62.16.08.38-.27-.78-.78.25-.36v-.16l-.58,0-.56-.05-.44-.26-.19-.61.16-.6.35-.52.22-.52-.2-.63-.79.53-.7.62-.14.25v.12l0,.09-.29.14v-.08l-.26-.08-.34,0-.27,0,.06.1.13.25-1.31-.15-.62,0-.36.29-.17-.17.24.4.63.27.74.15.57,0,.21.11.08.25-.06.24-.24.11-.21-.08-.17-.16-.21-.13-.37,0,0,.11.08.28,0,.11-.29,0-.27-.09-.51-.23-.08.35-.18.41-.17.27-.07-.07-.06-.69-.08-.31L229,62l-1-.82-.16-.32.07-.33.19-.32,0-.35-.31-.4-.26.16-.28.05-.28-.05-.25-.16-.55.19-.4-.26.08-.36.87-.09-.49-.61-.24-.16.26-.17.62-.28.3.36h.27l.21-.13.13,0,.11.26,0,.29.09.23.29.09,1.07-.28-.2-.64-.5-.53-.63-.36-.62-.13L226,57l-.81-.1-.36-.47-.16-.63-.4-.41-1-.65-.44-.44-.22-.3.07-.14-.74,0-.39,0-.45.2-.43.06-.18.14,0,.15.05.38,0,.16-.52.87,0,.24.05.17-.12.1-.54,0-.87-.62,0-.21.24-.22.57-.36.14-.24.09-.27.15-.23.33-.14-.34-.12-.17,0-.2,0-.22-.06-.1-.14-.08-.18-.14-.17-.07-.14,0-.17,0-.14-.25-.06-.19.06L218,53l-.06.12-.08.06h-.78l-.36-.12-.27-.56-.29-.13-.35,0-.3.26-.29-.39-.35-.26h-.33l-.25.44,0,.41.25.29.33.26.28.29-.06.12-.29.42-.48-.53-.49-.13-1.24.12-.57-.09-.5-.24-.43-.34-.35-.39-.24-.33-.26-.45-.12-.48.17-.41.25-.09h1.07l1.05-.37-.39-.4-.08-.21.13-.26-.29,0-.77.32.16-.41,0-.24,0-.23-.13-.32-.17-.18H211l-.28.22v.17l.12.24.06.3-.18.34-.6.3-.64.09-.48.18-.14.57.35,1.24.06.72-.33.32-.36.11-.14.26-.08.3-.2.23H208l-.85-.2h-.29l-.16,0-.07-.14,0-1.06.08-.26.16-.21.55-.55.07-.29L204,49.9,203,49l-.1-.91.54.35,1.24,1.22-.24-1.07-.87-.87-1.06-.77-.83-.78-.28-1-.26-1.5-.38-1.26-.66-.28.39.55.16.74-.07.75-.29.6-.25.17-.09-.18V43.28l0-.33-.14-.3-.14.26-.21.12-.26,0-.28-.15.13-.18.09-.17.14-.38-.29,0-.2.16-.12.24-.07.29-.81-.5-.26-.23.24-.11.17-.15.1-.2,0-.26.42.21.19-.16.09-.56.19-.64.2,0,.51.15-.05.12-.07.3-.05.12.36.12.19.3.1.3.12.14.41,0,.22-.11.1-.21.06-.34,0-1.37.19-.51.74-.39-.4-.36-.3.06-.25.25-.29.2-.45.07-2.91-.21-.78.43-.8.15-.33.28-.65-.31-1.49-.06-.58-.26-.42-.24-.12.26,0,.41.05.2-.27.48-.17.19-.26.21,2.18,1.08,1,.74,5.23,5.7.46.2.33.27.8,1.67.47.55L203.5,52l.34.42.81,1.6.35,1.29-.09,1.31-.49,1.2-.83,1-.46-.2-.5-.09-.37.14-.06.5.19.34,1,.88.6.66.35.25.44.11.47-.09L206,61l.39.1-.31.3-.9.55-.21.21.15.27.79.77.28.19.23-.66.28-.59.47-.4.78-.1-.15.29-.22.27-.51.48h.17l.36,0h.17l-.88.82-.13.43.31.69,2.2,2.51.21.17.23,0,.09-.21.09-1.9h0L209.8,65l-.07-.13v-.15l.24-.22.32-.12.17-.17-.22-.37.49-.32.29-.13h.2l.3.38.17.09.24-.12.22-.08.29-.06.17-.12-.25-.51.14-.09.25,0,.66.35h.5l.41-.23.15-.45-.2-.41-.32-.48-.1-.47.45-.39.42,1.21.28.38v-.93l.09-.13.28,0,.12.1,0,.19V62l.29.07.93-.23-.42.58-.17.54-.1.17-.32.18-.17-.06-.14-.12h-.25l-.44.36-.11.48v.5l-.15.44-.7-.89-.08.33,0,.89-.06.19-.36-.11-.28-.25-.24-.29-.26-.23,0,.11-.14.26-.49-.2-.33.33-.18.59-.06.58-.19.43-.84.93-.19.41.16.48,11.56,12.67.92,1.5,3.32,3.69.82,2.47.62.9,1.24,0,1.19-.42.51-.35.21-.53-.28-.56-.52-.43-.25-.31.53-.2-.23-.32h-.37l-.39,0-.32-.15-1.41-1.75-.2-.15-.26-.15-.22-.18-.22-.49-.29-.16-.33-.12-.24-.14-.2-.27-.32-.57-.18-.22-.2-.48-.11-.67-.22-.6-.53-.26-.17-.27-1.32-1.5.11-.41,1-.43.16-.56-.14-.13-.25-.18-.19-.25.05-.34.18,0,.28.16.27.22.15.17.12.64-.24.4-.95.71.8.47.31.3.3.77.74.63.16.39,0,1,.17.47.4.2.34.12.44.28.38.32.16.24.25.16,1.22,0,.47.08.44.32.28.37L230,85l.61.73.17.1.28,0,.25.08.34.35.21.09h.25l.22,0,.15-.13.06-.25.14-.05.92-.2-.46-.56-.28-.23h-.23l-.21.27-.12.12-.19,0-.24-.11V85l.16-.37-.27-.32-.25-.15-.33,0h-.46l-.34-.11v-.55l-.27-.21,1.12-.72.39,0-.11.71.54-.52.28-.16.41,0-.23.5-.09.26,0,.29,0,.36.08.09h.17l.28.08.23,0,.22-.06.16.07.07.4.09.23h.22l.28,0,.29.08-.13.1-.39.42.74-.29.62-.7.34-.87-.12-.79,1,.22.25.14.3.41-.08.23-.32,0-.43-.17-.11.38,0,.22,0,.19-.16.28-.6.63-.4.82-.13.65-.19,0-.43-.32-.75-.2-.26.1.13.46.21.14.37.11.65.1.46-.21.51-.39.42-.23.2.3.27-.15.61-.47.25-.1.36,0,.36-.09.33-.16.27-.23.09.17,0,0,.06,0,.15.12-.09.33-.16.09h-.22l-.26.09-.7.52-.76.28-.32.17-.41.33-.41.25-.52.13L234,88l-.41-.13-.35-.19-.28.06-.19.61-.35-.16.17.82.57.43.81.15,1.5-.09.24-.12.32-.24.42-.44h.17l.8.41,0,.15-.57.41-.1.29.21.29.31.28.2.28-.42.4-.1.13,0,.08V92.7l.1.19.23-.39.2.29-.24,1.14.22.5.14-.06.4-.11-.14.24-.41.29-.17.17-.11.38,0,.42-.1.28-.28,0-.27.52-.26-.29-.25-.58-.25-.36v.17l0,.37V96l-.52-.28-.25-.06-.3,0,.14-.27,0-.24-.1-.21-.24-.15.35,0,.38-.12.26-.13,0-.06-.28,0-1-.31.39-.25,0-.29-.25-.23-.43-.1L233.5,93l-.58-.85-.51-.38-.39-.84-.36-.19-.37.11-.25.27-.41.68-.14-.37,0-.35.28-.7-.33,0-.2.14-.11.23-.07.3.16,1.18.75,1.18,3.53,3.59,1.33,2,.48,1.15.56,2.41,1,2.92.3.45.51.22.6-.17.56-.39.35-.45.61.45h.21l.25-.26.12-.29.16-.62.22-.32.67-.41.86-.2,1.73-.07,1.66.24-.1.28-.25.26-.31.19-.29.07-.29.31,0,.57.37.25.66-.63.23.38.18.49.24.33.4-.11.49.34,1.31.42,0,.28.21.3.12.35-.07.29-.36.12L249,108l-1-.91-.63.05-.58.37-1.06,1,0-.56-.17-.06-1.39,1-.38.15.46.17,1.29.2.51,0-.38.24-.34,0-.76-.12-.29.18.06.4.32.66-.28.6-.44-.28-.37-.64-.1-.83-1.29-2,0-.16.25-.28.05-.27-.26-.21-.37-.11-1,.25-.72-.14-.42,0,.18.71,1.08,1.65.16.55.09.22.61.92.26.81,1,2,.38.47.57.39.36-.14.74-1,.21-.17.5-.26.25-.17.35-.14.27.1.13.18-.05.1-.62.21-.34.49-.22.58-.28.48-.29.15-.75.15-.29.14-.23.31v.28l.27,1.18,1.48,2.84,1.64,5,.44.4.78-.28.18,0,.15.08.1,0,.13-.12.1-.29.12-.12,1.06-.52.18.39-.09.35-.27.29-.36.21.25,0,.21.1.15.16.1.22-1.39.18h-1.45l-1.21.35-.69,1.21-.19,2.43.09.47.71.41.32-.32.22-.61.42-.44.59.05.3.44,0,.49-.42.24-.8.72-.33.12-.25,0-.22.09-.23.27-.12.28-.09.41,0,.37.25.16.42-.07.17-.18.1-.25.2-.29.51-.11.71.18.51.38-.07.5.19.19.2-.14.2-.05h.48l-.47.54-.72,0-.78-.08-.68.2.52.43.19.11-.52.21-.36-.19-.32-.33-.39-.23v.37h-.16l-.16-.15-.18-.2-.13-.25,0-.28-.41.13-.48.07-.47,0-.4-.17-.12.38.13.44.21.47.13.46,0,.54-.25.91-.13,1.51-.19,1-.33.9-.9,1.62-.21,1-.06,4.43-.09.45-.16.38-.07.39.17.46-.39.09-.15.27v.79l-.06.33-.24.61-.21.93-.39.53-3.07,2.51-1.13.66-1.24.32-3.41-.19-.57.13-6.55,3.21-2.64.92-1.16.73-.76,1.15-.34,1.22-.13,1.18.15,1.17.49,1.19.77,1,.93.78,3.48,2,1.48.39,4.37.54,1.38.34,1.28.56,1.05.85,1.49,1.83.49.47,2.73,2,.61.31.65.13,1.57.12,2.06.59,2.08,0,.67.09,1.42.52,1.79.87,2.34,2.05.51.72,1.95,1.56.41.58.34.68.48,1.38.33,1.67.4.6.86.17.81-.25.62-.5.48-.65.38-.71h.16l0,.64-.21.52-.35.41-.45.33-.57.34-.32.13-.34.07-.42,0-.28-.08-.16.09-.1,1-.32,1.47-.22.45,0,.22,0,.38.08.39.17.4-.17.08-.23,0h-.19l-.08.06v.15l0,.17v.13l-.14.59-.09,1.44-.21.52-.27.44-.69,1.75-1.2,2L252,203.14l-1.52,1.25-.23.39-.54,1.17-.08.64-.08.26-.19.31-.22.23-.3.23-.32.18-.29.07L248,208l-.45.47-.3.11-.2.16.19.34.31.31.14.07.1.34V210l-.13.23-.33.23-.33-.67h-.26l-.34.29-.55.19-.39.25-.63,1.09-.64.45-1,.92-.42.29-1.16.17-.46.19-.3.51.24.89.94.73,1.25.49,1.17.18.34-.12.32-.23.3-.17.27.08.29.16.28,0,.24-.16.17-.21.16-.58-.37-.25-1.2-.23.14-.41.22-.31.3-.26.4-.24.54-.19.75-.1.67.15.3.58-.12.65-.56,1-.2.54,0,.63.17.47,0,.42-.33.49.05.22.35.27.56.31.41.07.28,0,.24-.14,1.26-1,.59-.31.66-.13.7.06,3.06.89.28.18.11.27-.41,1.91,0,.36.17.31.22.26.11.28-.13.38.4.26.24.8.4.17,2-.14.42-.12.84-.72.43-.23,1.76-.53,5.64-3.33,1.5-.59,1.28-.7.95-.76,3.91-2.43,2.6-2.75.55-1,.82-2.34.28-.54.44-.58.54-.47,1.27-.4.4-.5.4-1.21.9-1.71.59-.73,1-1.92.17-.23.18-.11.42,0,.17-.09.51-.74.14-.28.11-.3,0-.26.23-.33,1.53-1.17,1.49-1.85.5-.13.64.12.63,0,.44-.57.28-1.82,1.64-2.58-.27,0-.24.11-.21.18-.17.22.09-.52.23-.43.64-.71.28-.16.23.12.22.2.25.09.21-.07,1.11-.79,1-1.15.63-1,.41-.88.07-.12.32-.39.05-.12,0-.17,0-.65,0-.33.11-.24.35-.43.55-1,.85-2.25.35-.5.13-.07.4-.13.1-.06,0-.17v-.15l0-.12v-.1L303,176l.2-.28.59-.18.32-.15.27-.2.12-.2.27-.63.45-.51.09-.35-.81-.17-.87.09h-.45l-.34-.17-.18-.14-.67-.39-.42-.17-.15-.15h-.17l-.26.37L301,173l0,.55-.1.15-.43-.24.06-.72.5-1.36-.15-2.38-.18-.53-.29-.28-.29-.18-.22-.23-.09-.43,0-.45.09-.34.18-.29.32-.32.28-.71.09-.08.6-.36.92-.78.62-.66.35-.5.27-.57.11-.57.3-.31,3.52-1.31,4.75-1.81.67-.47.24.06.23.17.32.1,4.15.09,4.05.14.39.11.78.42.27.1.33-.4.48,0,.37.2,0,.3-.24.29-.23.37-.2.42-.13.42,0,.75.2.82.7,1.57.39-.33.41-.26.32-.29.22-.82.61-1.29,1.4-1.12-.36-.65-.85-.34-1.77-.15.19-.51.34-.38.2-.37-.22-.5.18-.43.07-1,.35-.76.28-1.5,0-1.34.16-.57.45-.64.06-.3-.22-.28-.48-.4-.06-.12-.08-.27V149l0-.3.09,0,.17.06.22-.08.54-.31.65-.13.65.12,1,.74.46-.19,2.61-1.81,2.88-2.52.15-.21,0-1.66.11-.22,1-.39.17-.22,0-.36-.15-.27-.26-.18-.32-.09.17-.33.06-.56.12-.33.41-.35.23-.24.08-.29-.27-.34-.49-.45-.36-.51.15-.52.39-.44.31-.51.08-.51-.64-1.08.25-.4.52-.31.41-.34.14-.67-.27-.56-.38-.53-.2-.6.08-.28.19-.25.43-.44.28-.41.72-1.61.37-.56.92-.51.36-.63.52-1.19,1-.8.48-.65.22-.23.05-.43-.4-.52Zm-62.4,29.06-.2.23-1,.66-1.14,1-.45.22-.84.29-.31.2-.4.39-.25-.12-.31-.05h-.57l-.43.07-.13.18.08.28.22.35-.42.1-1.07-.1-.39.06-1.11.48.13-.7.19-.34.25-.8,1-1.48.13-.37-.06-.56-.24-.31-.38,0-.93.55-.25-.19-.08-.43v-.44l.23-.94.5-.79.75-.54,1.48-.32.15.06.06.33.11.11.24-.17.26-.25.17-.13.6.1.08.27-.07.39.17.48.65-.56.41-.18.18.29,0,.42.11.3.24.19.42.07.28,0,.38-.11.33-.25.14-.41.11-.11.24.07.24.18.11.21-.09.6v.1l.16.27.17.41.11.45ZM247.3,89.53l-.06.31.25.63v.28l-.37.23.25.1.91,0,.38-.1.05-.25-.18-.62-.14-.35-.34-.3-.4-.13ZM254,85.35l.43,0,.39-.12L255,85v-.33l-.19-.27-.23-.21L254.5,84l-.35,0-.65.29-.37.49.5.57ZM251.61,100l.32-.22.26,0,.56.43-.19.19,1,.32.55.06.53-.06.51-.15h.21l.33,0,.11-.06.07-.19,0-.25-.2-.52,0-.25.28-.21.36-.08.2-.13-.22-.35-.26-.27-.14-.07-.57.25-1.13.79-.48.25-.27-.13-.21-.25L253,99l-1.29,0-.19,0-.22.31-.06.44.1.3Z"/></svg>