<svg id="Layer_1" data-name="Layer 1" xmlns="http://www.w3.org/2000/svg" viewBox="0 0 879 768"><defs><style>.cls-1{fill:#fff;}</style></defs><title>Artboard 1noru_logo_white</title><path class="cls-1" d="M310.82,730.65c187.82-438.93,550.9-537.83,550.9-537.83-382.63,66.92-557.95,385-557.95,385L7,288.78Z"/><path class="cls-1" d="M362.42,732.43c-1.78,5.33-3.62,10.66-5.39,15.38a371.6,371.6,0,0,0,100.13,13.6,384.86,384.86,0,0,0,145.72-29Z"/><path class="cls-1" d="M463.1,535.8c-8.33,12.44-16.61,24.88-24.32,37.87H783a321,321,0,0,0,18.94-37.87Z"/><path class="cls-1" d="M431.67,584.94c-7,12.42-14.22,24.86-21.26,37.3H749.21a425.15,425.15,0,0,0,26.66-37.3Z"/><path class="cls-1" d="M405,634.07c-6.49,12.44-12.38,24.88-18.32,37.32H700.62a454.18,454.18,0,0,0,38.54-37.32Z"/><path class="cls-1" d="M817.91,278.67a422.15,422.15,0,0,0-16.61-45.59c-22.49,11.83-47.92,27.21-75.8,45.59Z"/><path class="cls-1" d="M627.15,721.15C648.47,710.49,668,697.5,687,683.22H382c-5.39,12.5-10.72,24.88-15.44,37.93Z"/><path class="cls-1" d="M708.89,289.95c-16.54,11.21-33.76,23.71-50.92,37.87H829.18c-1.78-13-4.72-25.43-7.72-37.87Z"/><path class="cls-1" d="M499.19,486.59c-9.43,12.44-18.93,24.88-28.43,37.93H806.63c4.78-12.44,8.89-24.88,13.05-37.93Z"/><path class="cls-1" d="M643.75,339.09c-14.22,11.83-29,24.27-43.26,37.93h232.8c-.55-13-1.16-25.49-2.33-37.93Z"/><path class="cls-1" d="M540.68,437.44c-10.66,11.83-21.94,24.33-32.6,37.93H822.62a360.54,360.54,0,0,0,7.11-37.93Z"/><path class="cls-1" d="M588.05,388.3c-12.44,11.83-24.88,24.27-37.32,37.87H831a265.43,265.43,0,0,0,2.33-37.87Z"/><path class="cls-1" d="M273.56,401.9c-31.43,0-57.48-26-57.48-57.48a57.17,57.17,0,0,1,114.35,0C330.43,375.86,304.94,401.9,273.56,401.9ZM456.55,8C264.07,8,105.29,152.5,82.8,339.09L287.17,475.38S432.28,250.24,780.59,191.59C714.28,81.41,594,8,456.55,8Z"/></svg>