<?xml version="1.0" encoding="UTF-8"?>
<svg width="60px" height="53px" viewBox="0 0 60 53" version="1.1" xmlns="http://www.w3.org/2000/svg" xmlns:xlink="http://www.w3.org/1999/xlink">
    <!-- Generator: Sketch 42 (36781) - http://www.bohemiancoding.com/sketch -->
    <title>noru logo</title>
    <desc>Created with Sketch.</desc>
    <defs>
        <polygon id="path-1" points="0.00421052632 37.6116556 0.00421052632 0.0285804978 59.9804211 0.0285804978 59.9804211 37.6116556 0.00421052632 37.6116556"></polygon>
    </defs>
    <g id="Welcome" stroke="none" stroke-width="1" fill="none" fill-rule="evenodd">
        <g id="Desktop" transform="translate(-375.000000, -5230.000000)">
            <g id="footer" transform="translate(0.000000, 5208.000000)">
                <g id="noru-logo" transform="translate(375.000000, 22.000000)">
                    <g id="Group-3" transform="translate(0.000000, 12.927609)">
                        <mask id="mask-2" fill="white">
                            <use xlink:href="#path-1"></use>
                        </mask>
                        <g id="Clip-2"></g>
                        <path d="M21.3208421,37.6116556 C34.5014035,6.93982005 59.9804211,0.0285804978 59.9804211,0.0285804978 C33.1294737,4.70460151 20.8263158,26.933171 20.8263158,26.933171 L0,6.73437588 L21.3208421,37.6116556" id="Fill-1" fill="#FFFFFF" mask="url(#mask-2)"></path>
                    </g>
                    <path d="M24.9418246,50.6634396 C24.8169825,51.0358945 24.6879298,51.4084193 24.5632982,51.7381781 C26.808,52.3589829 29.138807,52.6887417 31.5899649,52.6887417 C35.2065263,52.6887417 38.6553684,51.9479548 41.816,50.6634396 L24.9418246,50.6634396" id="Fill-4" fill="#FFFFFF"></path>
                    <path d="M32.0070175,36.9231382 C31.4222456,37.7924325 30.841614,38.6617269 30.2999298,39.5693848 L54.4546667,39.5693848 C54.9534035,38.7003001 55.4093333,37.8351984 55.7834386,36.9231382 L32.0070175,36.9231382" id="Fill-5" fill="#FFFFFF"></path>
                    <path d="M29.8010526,40.35734 C29.3065263,41.2255862 28.8034386,42.0948806 28.3089123,42.9641749 L52.085193,42.9641749 C52.7474386,42.1376465 53.3751579,41.2682823 53.9557193,40.35734 L29.8010526,40.35734" id="Fill-6" fill="#FFFFFF"></path>
                    <path d="M27.9304561,43.7904937 C27.4746667,44.659858 27.0618947,45.5290824 26.6446316,46.3984467 L48.6750877,46.3984467 C49.6339649,45.5718484 50.5456842,44.702554 51.3799298,43.7904937 L27.9304561,43.7904937" id="Fill-7" fill="#FFFFFF"></path>
                    <path d="M56.905614,18.9553688 C56.5703158,17.8806303 56.2004211,16.8056821 55.7402807,15.7695168 C54.1621053,16.5958356 52.3775439,17.6708536 50.4208421,18.9553688 L56.905614,18.9553688" id="Fill-8" fill="#FFFFFF"></path>
                    <path d="M43.5190175,49.8754145 C45.0153684,49.1304348 46.3872982,48.2225673 47.7204211,47.2247655 L26.3134737,47.2247655 C25.9350175,48.0984622 25.5609123,48.9634241 25.2298246,49.8754145 L43.5190175,49.8754145" id="Fill-9" fill="#FFFFFF"></path>
                    <path d="M49.2555088,19.743324 C48.0945263,20.5269468 46.8861754,21.4004339 45.6820351,22.3896406 L57.6969825,22.3896406 C57.5723509,21.4817031 57.3658246,20.6126184 57.1551579,19.743324 L49.2555088,19.743324" id="Fill-10" fill="#FFFFFF"></path>
                    <path d="M34.5398596,33.4845339 C33.8778246,34.3537584 33.2111579,35.2231226 32.5446316,36.135113 L56.1145965,36.135113 C56.4498947,35.2658187 56.7381053,34.3968038 57.0305263,33.4845339 L34.5398596,33.4845339" id="Fill-11" fill="#FFFFFF"></path>
                    <path d="M44.6844211,23.1775958 C43.6865965,24.0039146 42.6460351,24.873209 41.6484211,25.8282448 L57.985193,25.8282448 C57.946386,24.9203773 57.9035088,24.0468902 57.8218246,23.1775958 L44.6844211,23.1775958" id="Fill-12" fill="#FFFFFF"></path>
                    <path d="M37.4512281,30.0501923 C36.7031579,30.8767906 35.9117895,31.7502078 35.1634386,32.7009112 L57.2367719,32.7009112 C57.4475088,31.8316168 57.6152982,30.9625321 57.7357193,30.0501923 L37.4512281,30.0501923" id="Fill-13" fill="#FFFFFF"></path>
                    <path d="M40.7754386,26.6159904 C39.9024561,27.4425887 39.0294737,28.3118132 38.1564211,29.2625166 L57.8218246,29.2625166 C57.946386,28.3931523 57.985193,27.5283302 57.985193,26.6159904 L40.7754386,26.6159904" id="Fill-14" fill="#FFFFFF"></path>
                    <path d="M31.5470175,0.041158712 C18.0397895,0.041158712 6.89761404,10.1384599 5.31964912,23.1775958 L19.6609123,32.7009112 C19.6609123,32.7009112 29.844,16.9683604 54.2868772,12.870448 C49.6339649,5.17125325 41.1924912,0.041158712 31.5470175,0.041158712 Z M18.7062456,27.5666239 C16.5002807,27.5666239 14.6726316,25.7469057 14.6726316,23.5500507 C14.6726316,21.357668 16.4615439,19.5763133 18.7062456,19.5763133 C20.908,19.5763133 22.6969123,21.357668 22.6969123,23.5500507 C22.6969123,25.7469057 20.908,27.5666239 18.7062456,27.5666239 L18.7062456,27.5666239 Z" id="Fill-15" fill="#FFFFFF"></path>
                </g>
            </g>
        </g>
    </g>
</svg>