<svg id="Mapa" xmlns="http://www.w3.org/2000/svg" viewBox="0 0 500 500"><title>Mesa de trabajo 3singapore</title><path d="M136.29,388.48c.08.12,0,.56.4.68s.89-.32,1,0,1.37,3,1.69,3.71,1,.85,1.33,1.25.44.77,1,.85.81-.2,1.21-.2.36.28,1,.52a4,4,0,0,0,2.3,0c.4-.2.81.08.68-.85s-.44-4.11-.2-4.27.6,0,1-.44a4.69,4.69,0,0,0,.89-1.73c0-.2,0-.52-1.21-.24a18,18,0,0,1-4.59-.11c-.52-.09-1.53-.53-1.73-.57a1.63,1.63,0,0,1-.89-.48c-.28-.32-.2-.68-1-.32A27,27,0,0,0,136.29,388.48Z"/><path d="M126.71,381c.16.2.85.81,1,.77s.08-.77.64-1,1.69-.56,2.05-.77a2.59,2.59,0,0,0,1-.73c.24-.36.12-.77.6-.81s1-.6,1.33,0,.36.73.81.73a7.31,7.31,0,0,0,1.45-.32s.4-.27,0-.68-.73-.85-.48-1.05.44,0,.48-.44-.16-1.85.36-1.89.81.36,1.25.56a2.08,2.08,0,0,0,1.73-.28c.2-.28.4-1.57,0-1.85s-.81-.64-1.37-.52-.73.4-1.29.44-.93-.85-1.41-.93a18.92,18.92,0,0,0-2.82-.32c-.32.08-1.09,0-1.13.56s.12,2.3,0,2.74-.73.85-1,1-1,.08-1.89.08-2.62-.4-2.78-.08a.79.79,0,0,0,.44,1c.44.24,1.09.64,1.09,1.09S126.71,381,126.71,381Z"/><path d="M114,346.09a.91.91,0,0,0,0,1c.24.36.93.93,1,.68s.2-.63,0-.84S114,346.09,114,346.09Z"/><path d="M122.76,351.77a4.81,4.81,0,0,0-1.41,1.29c-.44.56-1,.89-1,1.25a2.15,2.15,0,0,1-1.29,1.69c-1,.52-3.34,1.89-3.3,2.18s-.52.85.28,1,5.88.6,6.69.68.48.68,1.29.85a12.87,12.87,0,0,0,2.5,0c.56,0,.44-.81,1.37-.81s2.82.24,3.46.24.44.75,1.93.64a15.51,15.51,0,0,0,2.38-.47,4.44,4.44,0,0,0,1.25-.08c.4-.12,1.25-.6,1.69-.68s.81.2,1.37.24,1.57.48.89-.44-2.46-2.05-2.74-2.5-.6-.89-1-.85-1.41,0-1.49-.52a1,1,0,0,1,.4-1.09,5.31,5.31,0,0,0,1.09-1.49c0-.24-.36-.73-.6-.6s-.4.93-.85,1.21a2.72,2.72,0,0,1-1.85.36,4.28,4.28,0,0,1-1.29-.64,6.09,6.09,0,0,1-.89-1.13c-.24-.32-.28-1-1.53-1.09s-1-.4-1.76,0-.78.93-1.83,1S122.76,351.77,122.76,351.77Z"/><path d="M191.86,347.58s-.77.44-.77.89.52,1.39,1,1.12.93-.19,1-.67.28-.77,0-.93A8.13,8.13,0,0,0,191.86,347.58Z"/><path d="M199.47,353.75a4.62,4.62,0,0,0-1.41-.28c-.16,0-.32,0-.2,1a8.56,8.56,0,0,0,.52,2.62,8.77,8.77,0,0,0,1.33,2.18,35.11,35.11,0,0,0,4.79,2.74,3.46,3.46,0,0,0,2.22.44c.44-.2,1.21-.52.64-.93s-2.86-1.65-3.26-2a18.18,18.18,0,0,1-1.25-2.3c-.28-.36-1.81-1.69-2.05-2.05S199.47,353.75,199.47,353.75Z"/><path d="M165.26,346.57a1.05,1.05,0,0,1,1,.81c.2.68.48,2,.93,2.25s1,.45,1,1.13-.4,2,0,2.42.24.43,1.17.28,1.89.41,3.34,1,2.62,1.13,3.26.93,3.42-1.54,4.19-1.9a8.47,8.47,0,0,1,3.59-.6c1.09.12,2-.29,2.34.6s.64.13.56,2.42.12,5.94-.36,6.67A2.78,2.78,0,0,1,184.6,364c-1.09.48-3.71.68-3.75,1.65s0,2.62-.12,3.47-3.79,3.71-4.27,3.91-3.1.44-3.63,0-5.44-4.63-5.56-5-.77-1.73-.08-2.26,2.22-3.91,2.5-4.19.4-2.22,0-2.22-.93.77-1.13,1-1.73.6-1.89,1-.2.77-.56.73-1.21-.2-1-.93.4-1.89,0-2.42-1.35-1.33-1.23-2a6.3,6.3,0,0,1,.77-2.78,3.87,3.87,0,0,0,1.09-2C165.79,351.17,164.3,346.94,165.26,346.57Z"/><path d="M153.78,338.23c0,.36.6,1,1,1s.56,0,.48.32-.67.24-.72.44-.41.77.47,1.09,1.49.44,1.49,0-.56-1,0-1.27.73-.14.68-.59-.36-.85-1.25-1A11.38,11.38,0,0,0,153.78,338.23Z"/><path d="M159.1,338.48c-.2-.16-1.09-.75-.85-.3a8,8,0,0,1,.56,1.18c.08.28,0,.85.28,1s.89.68.85-.2A2.87,2.87,0,0,0,159.1,338.48Z"/><path d="M147.78,329.61c.45-.21,2.5-1.41,3.06-1.61a13.59,13.59,0,0,1,2.94-.24,9.59,9.59,0,0,1,2.78.36,2.32,2.32,0,0,1,1.33,1.09c.32.48.73.28.52.85s.12.93-1.41,1.21a9.51,9.51,0,0,0-3.51,1.61c-.48.36-.4.81-1.49.56s-2.1-.48-2.62-.56-1,0-1.33-.6S147.15,329.9,147.78,329.61Z"/><path d="M163.57,328.44c.44,0,.48-.16.89.48a4.49,4.49,0,0,1,.64,1.71,18.72,18.72,0,0,1,.4,2,1.6,1.6,0,0,1-.2,1.21,7.33,7.33,0,0,1-1.45,1.49c-.28.2-.81.36-.81,0s.48-.52,0-.89-2.38-1.81-2.3-2.18.77-1.06.93-1.68.24-1.14.68-1.14a4.4,4.4,0,0,0,.78,0A9.67,9.67,0,0,0,163.57,328.44Z"/><path d="M166.92,334.69c.24-.12.81-.6,1.33-.44a7.53,7.53,0,0,1,1.57.44,4.87,4.87,0,0,0,2.3.32c.77,0,1.57-.47,2.1,0A21.38,21.38,0,0,1,176,336.5c.2.32.73.52.48,1.13s-1,.85-1.41,1.21-.28.59-1.69.48-6.93-.64-7.13-.76-1-.73-.73-1.13.77-.93.89-1.21.4-.13.4-.63A5.11,5.11,0,0,1,166.92,334.69Z"/><path d="M166.35,326c-.34.11,0-1.13.52-1.13s1.93-.44,2.78,0,4.92,3.59,5.76,4.23a8.06,8.06,0,0,0,1.73,1.21,3,3,0,0,1,1.41,1.09c.52.64,3.42,3.06,3.67,3.47s.12,1.17.24,1.57.6.76,1.09,1.55,1.13,1.31.93,1.55-4-.2-4.43-.22-1.53-2.12-1.77-2.92.4-.68-1-1.25-3-1.8-3.42-1.66a7.87,7.87,0,0,1-3.22,0,11.91,11.91,0,0,1-3.14-2.28c-.2-.48-.77-1.17-.52-1.49a3.13,3.13,0,0,0,.48-1.33C167.4,328.24,167,325.82,166.35,326Z"/><path d="M240.53,331.79c-.16.32-.81.36,0,1.25a21,21,0,0,0,2.34,2.46.65.65,0,0,0,.64-.44c0-.24.32,0-.44-.77S240.53,331.79,240.53,331.79Z"/><path d="M236.66,347.66s-.4.08-.36.2.08.48.36.52.4-.28.4-.36S236.66,347.66,236.66,347.66Z"/><path d="M238.8,350.6s-.52-.32-.64-.28-.16-.08,0,.28a.81.81,0,0,0,.64.48c.2,0,.28-.38.28-.38Z"/><path d="M239.76,349a1.15,1.15,0,0,0-.25-.12c-.13,0-.26,0-.28.12a.54.54,0,0,0,.26.55c.1.05.18-.07.26-.19S239.76,349,239.76,349Z"/><path d="M249.11,341.38s-1-.44-1.13,0-.64.73-.6,1a1.93,1.93,0,0,0,.44,1.29c.4.36,6.85,6.52,7,6.6s.64,0,.6-.24-.73-1-.73-1.19a2.86,2.86,0,0,1,.32-1,.93.93,0,0,0-.28-1,1.49,1.49,0,0,1-.4-1.09c0-.48-.36-.85,0-.93s1-.85,1-.85-.28-.77-.85-.73-1.45.2-1.65,0-.24-.73-.73-.85a3.36,3.36,0,0,0-1.09,0c-.4,0-.52.08-.81-.28A4.17,4.17,0,0,0,249.11,341.38Z"/><path d="M255,338.23c0,.11-.32.4.28.81s1.09.24,1.09,1.09-.73,2.18,0,2.7,3.95,3.34,4.43,3.3.77.16.64-.36-1-1.09-.28-1.25,1.17-.24,1-.93-2.9-2.58-3.22-3.06a9.09,9.09,0,0,0-2-2.1C256.36,338.23,255.07,337.91,255,338.23Z"/><path d="M262.41,339.44c-.24-.08-.81-.16-.89,0s.08.52.44.93a32,32,0,0,0,3,2.38c.2.08.4,0,.44-.32a3.88,3.88,0,0,0-.68-1.85,6.06,6.06,0,0,0-1.09-.28c-.32,0-.28-.12-.77-.48Z"/><path d="M256.48,334.61a1.78,1.78,0,0,0-.77.2,8.37,8.37,0,0,1-1.61.2c-.16,0-.89.09-.89.49s-.44.56.6.68.93.16,1.57-.2.2-.56,1.09-.77,1,.08.89-.2S256.48,334.61,256.48,334.61Z"/><path d="M258.74,334.24c-.28.12-.56.2-.56.36a.53.53,0,0,0,.56.52c.44,0,0,.24.81,0A2.33,2.33,0,0,0,261,334c.12-.32.24-.89,0-1s-.36-.48-.73,0A9.35,9.35,0,0,1,258.74,334.24Z"/><path d="M213.33,306.12a1.89,1.89,0,0,1-.32,0c-.45,0-1-.11-.77.49a18,18,0,0,0,1.81,2.7c.12.12,2,.2,2.34.32a69.11,69.11,0,0,1,5.32,4.83c.08.2-.28.6.28.89s1.69.85,2,.64.24-.85,1.25-.4a21.37,21.37,0,0,1,3.3,2.42c.4.32,1,1.21.81,1.37s-1.09-.24-.93.32a12.5,12.5,0,0,0,2.46,2.86c.28.12.56-.4.89-.4a1.75,1.75,0,0,1,1.57.42c.48.59,1.33.95,1.33,1.35s-.56.81,0,1.37a8.5,8.5,0,0,0,3.3,1.53c.68,0,.81-.85,1.33-.85a11.87,11.87,0,0,0,3.1-.52c.28-.24,2.22-1.81,2.3-1.93s-1.32-.28-1.08-.77.68-4.35.76-4.47.89-1.09,1.33-.4.13,4.59.45,4.43,5.68-7.29,5.72-7.41.28-1.29,0-1.49a10.24,10.24,0,0,0-1.53-.64c-.32-.12-.81-.28-1.09,0a9.2,9.2,0,0,1-2.18.73c-.28,0-.76-.24-.92.36a2.49,2.49,0,0,1-.81,1.41c-.32.16-.36.64-.32.16a15.84,15.84,0,0,1,.44-1.61,3.85,3.85,0,0,0,0-.93c-.08-.28,0-.6-.77-.6s-2.57-.2-2.78-.16.28.68-.81.6a17.56,17.56,0,0,1-3.42-.4c-.24-.2-.16-.93-1.45-1s-5,0-5.64-.28a17.17,17.17,0,0,1-2-.93c-.68-.44-3.18-1.69-3.79-2.1s-1.25-.6-1.49-.93-.68-1.16-1-1-1.29,1-1.61,1.2a35.14,35.14,0,0,1-4.67-.08s-1.13-1.11-1.49-1.14A10.64,10.64,0,0,0,213.33,306.12Z"/><path d="M229.73,306.06s-.36,1,.24,1.31a19.67,19.67,0,0,0,4.59,1.37c.48-.12.32-1,.32-1s.2-.68.44-.56.56.24.56.56v1.37a37.8,37.8,0,0,0,4.27,1.49c.2-.12,5.6-3,5.6-3s-5.12-4.92-5.28-4.92-5.4,0-5.52,0S229.73,306.06,229.73,306.06Z"/><path d="M80,326.39a16.25,16.25,0,0,0-.64,2.15c-.11.7-.21,1.94,0,2.1s.86,1,.91.38S80,326.39,80,326.39Z"/><path d="M81.1,339.76s-.85-.16-.8,0a4.91,4.91,0,0,0,.4,1.58,2.36,2.36,0,0,0,1.8.62,9.27,9.27,0,0,0,2.2-1.35c.48-.42,11.12-11.38,11.12-11.38s-.32-.54-.48-.43-2.63,3-3.44,3.06-1.34.32-1.29-.16-.27-5.37-.11-5.32a63.52,63.52,0,0,0,6.88-3.49c0-.21-1-5.64-.81-5.8a1.66,1.66,0,0,0,.48-1A9.49,9.49,0,0,0,96.3,313a11.27,11.27,0,0,0-1.45-1.4c-.16,0-4.41,7.25-4.73,8a3.69,3.69,0,0,0-.43,2.36c.16,1.07.21,3-.16,3.6a2,2,0,0,1-1,.81c-.21.11-.91.61-1.07.41s-.32-1.17-.7-.9a2.24,2.24,0,0,0-.54,1.85,12,12,0,0,0,1.61,2.55,3,3,0,0,1,.43,1.83c0,.91.16,2.15-.32,2.63s-4.08,5.43-4.19,5.59a4.06,4.06,0,0,1-1.34.54c-.43.11-.86.54-1,.05S80.72,340.35,81.1,339.76Z"/><path d="M66.54,295.66a12.14,12.14,0,0,1,0,2.79c-.05.16-1.45.75-1.56,1.24a4.37,4.37,0,0,0,0,2.2c.27.48.81,1.56,1.07,2.2s.43,1.07,1.07,1.18,1.93.27,2,.7a18.64,18.64,0,0,1,.43,1.93c0,.27-.81.43-.86.86s-.38.86.21.91.32.11,1.07.48,3.06,4.35,3.38,5.1a6.86,6.86,0,0,1,.38,1.67,10.74,10.74,0,0,0,1.34,1.83,6.3,6.3,0,0,0,2.2,1.61,30.34,30.34,0,0,1,2.44,2.1,17.82,17.82,0,0,0,4.65.38c.21-.11-.05-1.07.59-1.93s3.39-4.89,3.82-5.8.59-1.45,1-2.26-.16-1,.75-1.88a17.32,17.32,0,0,0,2.69-3.49,59,59,0,0,0-3.6-4.67l4.3-4.73a16.28,16.28,0,0,0,2.79,2,8.45,8.45,0,0,0,3,.16c.59,0,1.24.05,1.45.48a2.79,2.79,0,0,1,.64,2c-.16,1.07-.27,2.63,0,2.79s.72-.27.78,1a41.28,41.28,0,0,0,2.15,7.36c.21.11-.05.54,1.13.38s7.74-2.63,8.65-3,7.31-3.87,7.47-4,1-.86,0-1.45-9-4.62-8.76-5,1.56-3.17,2.26-3.06,1.34,1,1.88.7,1.07-1.83,1.24-1.45a6.65,6.65,0,0,0,.54,2.2c.54.86,6.66,3.6,6.88,4s.75,1.77,1.72,1.93a17.66,17.66,0,0,0,3,0s4-4.3,4-4.67a3.33,3.33,0,0,0-.21-1.24c-.11-.38.11-.43-1.07-.75s-2.69-.16-2.31-.59,2-2.74,2.58-2.63,5.8,1.61,6.5,1.61a16,16,0,0,0,2.47-.38,7.32,7.32,0,0,0,1.72-.43,4.46,4.46,0,0,0,1.61-1.24c.64-.7,1.18-1.07,1.13-1.24s-4.78-5-4.78-5l-3-.32s-4.89-4.94-5-5.37a17.35,17.35,0,0,0-1.07-3.71,6.89,6.89,0,0,0-3.44-2.79c-.64-.05-1.24-.05-1.5.27s-.86,1-.86,1-.32.05-.32-.21a3.18,3.18,0,0,1,.21-.81l-.32-.54h-1.34s.43,1.13-.59.91A19.79,19.79,0,0,1,122,276c-.16-.16-1-.16-1.45-.27s-.59.16-1.18,0a4.26,4.26,0,0,0-1.45,0s-.54-.89-.86-.89-2.85,0-2.9.21a14.69,14.69,0,0,1-.7,1.34s-.54.16-1,.32-.64,1.5-.64,1.5,3.12,2,3.65,2.52.38,1.67.38,1.67-.7-.38-.59.38.32,2.47.43,2.9-.05,1.56.11,1.67a8.75,8.75,0,0,1,1.18.91c.16.21,1.34.38,1.34.38s.54-.27.54.38-2.69,2.52-2.69,2.52-3.6-2.36-3.65-3a7.18,7.18,0,0,0-.64-3c-.54-.86-1.56-1.93-1.83-2.31s-.86-1-1-.91a40.69,40.69,0,0,0-3.33,2.85c-.11.21-.64,3.17-.64,3.44s-.59.81-.75,1.24-.38,1.93-.48,2.15-1,.43-1.24-.05a16.37,16.37,0,0,0-1.18-1.77s-4.78,4.57-4.78,4.41-3.92-3.33-3.33-4,6.88-6.12,6.88-6.29-.38-1.83-.16-2,4.46-3.71,4.46-4.24a1.29,1.29,0,0,0-.7-1c-.16-.05-8.76.32-8.76.32Z"/><path d="M418.57,149.35a1.64,1.64,0,0,1,1,1c.16.4.4,1.53.81,1.69a7,7,0,0,1,2.66,1.37,20,20,0,0,1,1.45,1.93c.32.56,1.37,1.93,1.45,2.26s-1.13,1.13-1.45,1.21-2.33-.24-2.21,0,.45,1.13,0,1.61a5.62,5.62,0,0,1-3.67.73c-1.13-.24-3.71-.73-3.71-.73l-1.21-2.58a4.3,4.3,0,0,0,1-.89l.81-1.66c.4-.84.24-.92.81-1.56a18.2,18.2,0,0,1,1.93-1.69Z"/><path d="M428.41,148.46,427.28,150s2.66,8.22,2.66,8.54-2,4.43-2.18,5-1,1.53-.48,2.26a38.39,38.39,0,0,0,6.12,4.43,6.57,6.57,0,0,1,2.34,2.42c.16.48.08,2.82.89,3.06S444,178,444.52,178s6.85-3.47,7.25-3.47,2.34.4,2.74.48,3.3-.16,3.3-.16-.16.64-.56.81l-2.1.81-3.38-.56s-6.77,3.3-7,3.3-4.92-1.61-5.16-1.61-.78-.16-.59.4,8.25,10.88,8.49,11.28-.73,5.16.08,5.4a16.89,16.89,0,0,0,4.51,0c.56-.16,23.13-9.67,23.61-9.83s1.53-6.93,2-7.09.16.64.48-.16,1.77-7.74,1.77-7.74.48-1.85.56-2.18-.4-1.21-.4-1.21a6.29,6.29,0,0,1-1.61.73,20.39,20.39,0,0,1-2.74.16l-6.29,2.58s-.73,2-1.29,2.26-5.16,1-5.16,1v-1l4.27-1.21,1.77-1.77,6.29-2.9a19.17,19.17,0,0,0,3-.4c.64-.24.58-.64,2.18-1.45s2.09-1.13,2.09-1.69.56-.56-.4-2.26-5.08-7.49-5.08-7.49-2-.24-2.1-.56-4.75-5.08-4.75-5.08-7-2.18-7.57-2.5-3.55-1.69-3.55-1.69h-2.1s-.81-1-1.37-1-2.82-.48-2.9,0-.48,2.26-1,2.42-3.95.48-3.95.48a8.5,8.5,0,0,0-1-.64c-.24-.08-3.06-.4-3.06-.4s-1.21-1.53-1.45-1.53-1.29-1.24-1.37-.54a13.91,13.91,0,0,1-.32,3c-.24.24-4.43,3.47-4.75,3.63s-5.56.4-5.56.4Z"/><path d="M317.36,155.26s-.48,1.58,0,1.82,2.42,1.61,2.66,1.77,1.37.48,1.77,1.29S323,163,323,163l2.42,1.53s-.24,1.85,0,2.1,1.37-.56,1.85-.56,4,3.47,4.43,3.3,1-.52.4-1.15-8.3-9.25-8.54-9.25a6.6,6.6,0,0,1-2.42-.56C320.91,158.13,317.36,155.26,317.36,155.26Z"/><path d="M346.78,164.1s-1.21.4-.64,1,2.5,2.87,2.74,3.21a53.77,53.77,0,0,0,5.24,4.69c.32,0,1-.56.48-1s-1.29-.24-1.13-1,.08-2.1-.64-2.42-1.59.29-2.45-.26A34,34,0,0,1,346.78,164.1Z"/><path d="M327.19,148.7c0,.32-1,.16.4,1.77s3.14,4.43,4,4.43,2.82-.56,3.06,0l.81,1.85,4.59.89,2.18,2.18s6.61,2,6.85,2.52,1.29,3.2,1.93,3.29,1.29.24,1.37,0,0-2.82.73-2.26a1.72,1.72,0,0,1,.4,1.69l3,4,.4.73s1.37-.48,1.61,0-.73.81-.73.81l.4,1.13s3-.08,3.79,0,2.42-.81,3-.81,3.06-.48,3.06-.48a13.4,13.4,0,0,1,1-1c.32-.25,1,.25,1.53,0s3.55-1.38,3.47-1.62-1.53-2.1-1.13-2.18,1.93.24,2.18.08a6.1,6.1,0,0,0,.81-1.13,5.16,5.16,0,0,0,1.21.4c.32,0,1.13-.89,1.37-.89s2.66,1,3.06,1a6.86,6.86,0,0,0,1.37-.32s.56.48.81.48a35.6,35.6,0,0,1,3.79-1.21c.73,0,2.74-.08,2.9-.4s-.32-1.25-.56-1.35a1.93,1.93,0,0,1-.48-1.55c.16-.4,1.21-1,1.45-1.29a2.19,2.19,0,0,0,0-2c-.4-.64-2.1-2.26-2.42-2.66s-1.93-1.13-2.1-.89,0,.48-.89.56-3.38-.32-3.95-.24-1.93.56-2.74.64-1.13.32-1.93-.08.24-.81-1.37-.56-.81.24-1.61.24-3.14-1.61-3.47-1.61-5.64,1.45-7,1.77a34.46,34.46,0,0,1-6.45,0c-1.45-.08-3.47-.16-4.27-.64s-3.38-1.53-3.46-1.77-1.37-2.82-2.26-2.9-3.87-.16-4.35-.64-4.75-2.5-5.64-3a20.32,20.32,0,0,0-2.66-1s-1.21.16-1.21.64-.33,1.29-.73,1.37-1.29-.16-1.37.32-1.29,1.53-1.29,1.53Z"/><path d="M387.55,167.08s-1-.56-1,0,.64,1.34,1,1.19a2.66,2.66,0,0,0,.73-.71Z"/><path d="M261.44,124.45a12.71,12.71,0,0,0,.56,1.29c.16.24,1.77,1.37,1.77,1.61s-.24,2.58,0,2.82,2.18,3.63,2.9,4.19a7.23,7.23,0,0,0,2.34.89V133.8c0-.48-3.87-3.71-3.79-4.19s.64-1.37,0-2S261.44,124.45,261.44,124.45Z"/><path d="M431.16,209.91l-.59.47-10.17-5.79s-2.83.19-3,.21a4.33,4.33,0,0,1-1.44,0c-.12-.13-2-1.09-2.1-1.2s-.81-.42-.75-.67a4.63,4.63,0,0,0,.2-.94,1.41,1.41,0,0,0-.48-.93,1.62,1.62,0,0,0-1.18-.05c-.43.17-.78.21-.94.71a3,3,0,0,1-.56.93c-.09.15-.16.39-.94.12s-3-.93-3.29-1-.85-.09-1-.35a2,2,0,0,1-.36-1.18c.08-.35,0-.6.34-.86s.94-1,1.14-1.09a3.9,3.9,0,0,1,.85-.21c.26-.07.4.13.44-.17a.78.78,0,0,0-.42-.64c-.08,0-1.5-.05-1.5-.05s-1.81-2.77-1.92-3.06-.6-.7-.6-1.18a18.9,18.9,0,0,0-.08-2.12c-.08-.51-.71-.86-1-1.64s-1.4-3-1.71-3.51a10.64,10.64,0,0,1-1.28-2.05,2.76,2.76,0,0,0-1.3-1.58,14.24,14.24,0,0,1-2.61-.55c-.73-.36-2.93-1.1-3.24-1.26s-4.92-1.85-4.92-1.85-.4.09-.44.28,0,.31.47.56,3.21,1.61,3.4,1.72.73.35.75.58.2.85-.27.67-1.42-.83-1.79-1-1.3-.42-1.8-.67a10.92,10.92,0,0,0-1.89-.78c-.31,0-1.56-.15-1.71-.15h-6.86a16.69,16.69,0,0,0-1.46,1.3c-.19.27-.71.83-.78,1s-.74.35-.64.64.13.27.43.47.51.15.63.83.28.86-.07,1a6.41,6.41,0,0,1-1.68,0,1.51,1.51,0,0,0-1.24,0c-.54.3-3.73,2.83-3.79,2.91s-.64-.11-.71-.34-.31-1-.31-1a.88.88,0,0,0-.34.31,1.45,1.45,0,0,0-.23.47c0,.13.09.23.24.38a9,9,0,0,1,.77.74,2,2,0,0,1,.55,1.26c0,.5-.12.56-.46.94a9.22,9.22,0,0,0-1.14,1.38,4.94,4.94,0,0,0-.52,1.24,5.21,5.21,0,0,1-.43,1c-.11.2-.26.64-.31.48a9.38,9.38,0,0,1-.13-2.24c.12-.26.11-.6.46-.9a1.33,1.33,0,0,0,.52-1c0-.26-.42-.77-.64-.7s-9.35.17-9.82.19-.81.55-1,.73-.6.44-.66-.05.66-.54-.34-1-7.7-3-8.22-3.41-6.2-4.54-6.43-4.94-.58-1-.9-1.63-2-2.55-2.4-3.17a16.25,16.25,0,0,0-2-2.83,3.17,3.17,0,0,0-1.84-.79,3.77,3.77,0,0,0-2.51.08c-.85.48-6.65,4.28-7,4.7s-.58.93-.47,1.16a4.6,4.6,0,0,0,.64.93c.2.2.56.73.32.74a1.12,1.12,0,0,1-.85-.28c-.43-.3-1-.86-1.42-.59a16.31,16.31,0,0,0-2.05,2,8.25,8.25,0,0,0-.79,1.52,7.8,7.8,0,0,1-.78,1.67c-.11,0-.5-.09-.44-.43a16,16,0,0,1,.87-2.91,12.16,12.16,0,0,1,1.76-2.27,18.54,18.54,0,0,0,2.05-2.5,2.28,2.28,0,0,0,.48-1.28,9.14,9.14,0,0,1,.36-2.5c.23-.21.54-.35.77-.55s.46-.2.42-.7-.7-.74-.89-1a3.71,3.71,0,0,1-.51-1.4c0-.32.3-.39-.43-.58s-1.07.15-1.45-.51-4.11-5.25-4.31-5.8a5.89,5.89,0,0,1-.62-2.16c.12-.47,0-1.81,0-2.85a5.6,5.6,0,0,0-.28-2.3c-.19-.36-.67-.66-.75-.93s-.34-.26-.09-.54a2.16,2.16,0,0,0,.44-.56,1,1,0,0,0-.31-1.07,2.48,2.48,0,0,0-1-.08c-.24,0-.35-.07-.55.34a.83.83,0,0,1-.81.5,10.22,10.22,0,0,0-2.12,0c-.17.13-.13.52-.54.87a6.4,6.4,0,0,1-2.26.54c-.71.13-2.48.21-2.79.3s-.73,0-1.06.43-5.06,7.83-5.17,8.07-.59.63-.5.94a2.28,2.28,0,0,1,0,1.16c-.11.47-1.95,4-1.95,4s-.2.52-.46.26-.36-.42-.77-.39-3.08-.09-3.16,0-.27,3.34-.31,4.11a25.57,25.57,0,0,1-.6,2.75c-.05.35.09.71-.42,1s-2.42.87-2.86,1.11a6,6,0,0,0-1.56.93c-.17.3-1.2,2.16-1.28,2.2s0-.82,0-.82.34-1.91.79-2.24a15.12,15.12,0,0,0,1.68-1.53,7.8,7.8,0,0,0,1.36-1.91c.16-.44,0-4.19.11-4.22s1-.32,1-.74-.13-.82.17-1.24,4.45-3.53,4.94-4.12,2.69-2.55,2.91-2.94a4,4,0,0,0,.21-1.87c-.08-.32-4.3-.28-5.21-.81s-1.07-.4-1.52-.68-1.25-1.69-2.61-1.69-3,0-3.29.05-.31.54-.58.62a10.73,10.73,0,0,1-2.94-1.6c-.23-.3-2.61-1.88-2.71-2.14s-.42-2.2-.78-2.28-.81-.28-1,0-.12,1.25-.4,1.4-.83.46-.83-.21a18.07,18.07,0,0,0,.19-1.84c-.09-.36-.54-.56-.93-.83s-1.25-.66-1.14-.83.64-.86.91-.75a13.86,13.86,0,0,1,2.54,1.49c.52.5,2.79,2.67,3.4,3.18a12.05,12.05,0,0,0,3.17,1.92,6.52,6.52,0,0,0,1.6.17,2.25,2.25,0,0,1,.94-.05,12.44,12.44,0,0,0,1.58.78,10.69,10.69,0,0,1,2,.6c.35.24.51.93,1,1a13.12,13.12,0,0,0,3,.34c1.37,0,3.85.44,4.54.2s.67-.66,1-1.1a2.84,2.84,0,0,0,.75-1.44,3.47,3.47,0,0,0-.21-1.84,20.64,20.64,0,0,0-4.39-3.48c-1.52-.77-3.4-1.65-3.77-1.84a24.56,24.56,0,0,1-3-1.8c-.46-.43-5.83-4.27-6.19-4.36a25.91,25.91,0,0,0-4.2.11c-.38.13-4.46,2.59-4.75,2.77s-.77.35-.78.7-.05,1.06.12,1.22.71.44.77.62a1,1,0,0,1-.26.82c-.19.12-.12.34-1.06.24a14.07,14.07,0,0,0-3.29.2,5.27,5.27,0,0,0-1.46.89c-.21.19-.93.71-1,1s.32.94,0,1.32-1.53.86-1.42,1.32a3.17,3.17,0,0,1,0,1.69c-.2.34-1.44,1.25-1.83,1.73s-.67,1.91-1.32,2.54-2.27,2.05-2.78,2.47a3.88,3.88,0,0,1-1.54.59c-.32.09-.62-.24-.85.42a4.46,4.46,0,0,1-1.11,2.46c-.86.71-5.43,3-5.87,3.45a14.78,14.78,0,0,1-1.46,1.56c-.23.11-2.39-.12-2.38-.07s-.07,1.26-.12,2.22-.56,1.06-.81,1.37-.42.78-.67.79-4.16-.12-4.35-.23-.59-.5-.24-.9.59-.24.64-.81-.05-1.69-.28-1.84-.77-.28-.79-.77a2.88,2.88,0,0,1,.66-1.87c.42-.34,1.6-1.24,1.61-1.46s-.12-.82-1-.86-2.94,0-3.45.36-1.45.93-1.67,1.4-.68,1.34-1.17,1.32-1-.54-.77-1.4a6.85,6.85,0,0,1,1.88-3.33,26.43,26.43,0,0,1,3-1.68c.47-.23.4-.83,1.77-.27s2.91,1.38,3.68,1.6a9.15,9.15,0,0,0,3,.36c1.14-.07,1.49,0,1.81-.46s.07-.48.86-.75,2.27-.63,2.51-1.17a4,4,0,0,0,.23-1.58c.07-.82-.39-1.21.24-1.6a5.18,5.18,0,0,1,2-1.06c.68,0,.83.44,1.41-.15s.7-2.47,1.29-3.14a9,9,0,0,1,2.3-1.89c.82-.43,1.36-.54,1.4-1.25a16.71,16.71,0,0,1,.66-3.41,7.28,7.28,0,0,1,.9-1.61,4,4,0,0,1,.9-.86c.36-.27.46-.16.52-.82s0-1,.46-1.33,1-.11,1.41-1a11.54,11.54,0,0,0,.82-2.56c0-.35-4.42-6.35-4.49-6.5a2.8,2.8,0,0,0-1.5-.42c-.47,0-3.88,3.14-4.07,3.18s-.77-.24-.66-.38,4.36-4.28,4.46-4.49a5.47,5.47,0,0,0-.31-1.93,6.48,6.48,0,0,1-.58-1.75,1.36,1.36,0,0,0-.86-1.34c-.68-.2-1.64-.47-1.87-.31a11.48,11.48,0,0,1-1.11.94,14.19,14.19,0,0,1-3.12.2c-.43,0-.67-.2-.67.15s.09.34.24.74.21,1,0,1a6.14,6.14,0,0,1-1.38-1.26,52.65,52.65,0,0,1-.31-6.25,1.16,1.16,0,0,1,.68-.12c.23.07.43,0,.48.73s.05,2.27.09,2.59.12.73.4.77a1.27,1.27,0,0,0,1-.15c.6-.3,1.56-1,1.92-1.2a5.56,5.56,0,0,0,1-.59.86.86,0,0,0,.35-.83,6.78,6.78,0,0,0-1.13-2.05c-.4-.35-1-1.1-1.25-1.11s-.5.31-1,0-.77-.66-1.36-1-3.13-2.2-3.36-2.38l-1.13-.83c-.19-.15-1.54-.23-1.73-.42s-.42-1.2-.75-1.56a19.56,19.56,0,0,0-2.15-1.71,10.7,10.7,0,0,0-1.56-.13c-.24,0-2.35,3.56-2.48,3.57s-1.56-.23-1.36-.47,2-3.51,2-3.55-6.14-3.94-6.23-3.81-1.64,2.86-1.8,3.18-.38,1-.75,1.09-1.61.34-1.6.09a2.16,2.16,0,0,1,.34-.74c.11-.2.51-.35-.15-.73a6.51,6.51,0,0,0-2.44-.81,18.67,18.67,0,0,0-1.49,1.33c-.23.23-.91.86-1,.74s-.82-.66-.63-.85,2-2.22,2.32-2.47a3.6,3.6,0,0,1,1.11-.47c.32-.11.5-.19.5-.38a3.33,3.33,0,0,0-1.2-1,9.77,9.77,0,0,0-3.2-.82l-4.61.54c-.31,0-5.56,0-6.47.35s-2.23.48-2.67.67-1.06.17-1.22.36-.42.64-.73,1a3.65,3.65,0,0,1-1.76.48c-.35,0-1-.24-1.58.16a7.62,7.62,0,0,0-1.24,1.3c-.27.31-13.91,9.83-14,9.91a14.57,14.57,0,0,1-1.73,1c-.35.13-1.33.27-1.6.56s.19.09-.59.7a3.21,3.21,0,0,1-1.34.79,15.59,15.59,0,0,0-1.84.66,8.72,8.72,0,0,0-1.93,1.57c-.4.46-2,2-2.26,2.28a4.66,4.66,0,0,0-1,.94c-.42.56-.91,1-.83,1.2s.42.4.35.85-.52.75-.82.55-.87-.78-1.36-.51a4.26,4.26,0,0,0-1.37.91c-.2.34-.93.87-1.16,1.42a2.65,2.65,0,0,0-.31,1.25,3.26,3.26,0,0,1-.34,1.42c-.12.05-.36-.09-.62.09a1.75,1.75,0,0,1-.55.34c-.16,0-.2,0-.4-.16a1.89,1.89,0,0,0-1.09-.21c-.26,0-5.28,0-5.56.15a9.59,9.59,0,0,0-1.07.67c-.13.13-.5.12-.56.52s-.05.7-.21.7-.32-.43-.54-.62-.16-.3-.85-.17a3.78,3.78,0,0,1-1.4.12,2.85,2.85,0,0,1-1-.7,10.88,10.88,0,0,0-1.71-1.36,10.32,10.32,0,0,0-2.08-.46c-.44,0-1.52-.12-1.68.07s-.24.19-.13.87a7.42,7.42,0,0,0,1.32,3.25,12,12,0,0,1,1.8,2.55c.34.67.23.19.32,1.33a13.47,13.47,0,0,1,.08,2.05c0,.64.36.56,0,1.14s-3.26,3.57-3.44,3.87a21.38,21.38,0,0,0-2,2.35c-.81,1.26-.71,1.4-.78,1.95s0,.7-.79,1.33a9.67,9.67,0,0,1-2.34,1.53,1.82,1.82,0,0,0-1.45.46c-.73.6-2.52,2.19-2.79,2.42a6.77,6.77,0,0,1-.85.78,4.29,4.29,0,0,1-1.4.17c-.3,0-.2,0-.79.58s-1.42.82-1.42,1.33-.24,1.11,0,1.28a2.87,2.87,0,0,0,.46.21c.15.07.5-.31.26.38a7.88,7.88,0,0,1-.54,1c0,.15.08.36.42.54s2.71,2.26,3.37,2.79a14.64,14.64,0,0,0,1.46,1.18c.16,0,.66-.08.64.51s-.55.15-.13,1,.36.38,1,1.49,1.37,2.35,1.49,2.62,0,.38-.32.91-.58.79-.56,1.42.2.62-.23,1.28a3.67,3.67,0,0,0-.48,1.67,2.85,2.85,0,0,1-.42.78c0,.05-.08.58-.28-.17s-.75-1.85-.63-2,.44-.28.42-.55-.62-.79-.67-.91-.26-.46,0-.7.58-.56.44-.85a3.27,3.27,0,0,0-.85-.79,4.54,4.54,0,0,1-.31-1.89,4.87,4.87,0,0,0-.09-1.52c-.11-.3-.24-.3-.83-.93s-2.48-2.19-2.48-2.19-.4-.28-.54-.07-.64.63-.73,1a3.1,3.1,0,0,0-.12,1.22c.05.59-.31,2.24-.26,3.21a2.75,2.75,0,0,1-.68,2c-.38.46-4,3-4.15,3.22a3.56,3.56,0,0,1-1.2.34c-.4.09-.55.35-.82.23s-.7-.32-.54-.55,0-.42.56-.48.85-.13,1-.4.16-.73.58-1a5.67,5.67,0,0,1,1.13-.36c.31-.11.47,0,.64-.31s.55-1.49.63-1.69.3-.54.13-.73-.35-.54-.5-.27-.19.4-.51.36-.42-.35-.81-.31-.63.12-.75,0-.46-.19-.26-.42,1-.75,1.25-1,.46-.44.6-.62a1.28,1.28,0,0,0,.43-.7c.08-.4.16-.62,0-.81s-.54-.26-.54-.39-.07-.16.15-.35a1,1,0,0,0,.35-.42c.08-.17-.3-1.16-.13-1.46s.51-.08.9-.66.23-2.24.23-2.83.05-.62-.24-.82a2.85,2.85,0,0,1-.58-.55c-.2-.21-.3-.39-.55-.23a1.22,1.22,0,0,0-.63.59c-.26.44-.47.73-.63.56s-.48-.51-.42-.83a2.44,2.44,0,0,0,0-1.11.44.44,0,0,0-.42-.2c-.19,0-.5.21-.64.24a9.79,9.79,0,0,0-1.28,0,15.68,15.68,0,0,1-1.75,0c-.05,0,0,.21-.19.46a1.76,1.76,0,0,1-1.17.42c-.12-.09-.58.62-.54-.47s.16-3.18-.27-3.51-1-.79-1.22-.6-3.38,3.73-3.52,3.73-.93-.67-.74-.89,3.76-3.69,3.76-3.69.64-.55,1.09-.48.66,0,1.4.83a7.28,7.28,0,0,0,2.07,1.73c.32.08,5.94.09,6.22,0s.12-.34.78-.36,1.24.13,1.3-.13-.59-.39.08-.7a7,7,0,0,0,1.56-1c.67-.5,4.63-3.48,5.09-3.89a6.07,6.07,0,0,0,1.22-1.37,9.05,9.05,0,0,1,.35-2,1.81,1.81,0,0,1,1.17-.91c.73-.2,1-.13,1.32-.59a4.22,4.22,0,0,1,.89-1.09,2.51,2.51,0,0,1,.86-.36c.44-.12.79-.08.82-.42s-.26-1-.42-1a2.68,2.68,0,0,1-.79-.11.67.67,0,0,0-.71,0c-.3.19-.74.38-.89.27a1,1,0,0,1-.28-.94,8.25,8.25,0,0,1,.5-1.07,1.25,1.25,0,0,0,.13-1c-.16-.38-.36-.58-.63-.62s-.71-.21-.68-.34a1.71,1.71,0,0,1,.55-1c.42-.28.66-.86.51-1s-.66.26-.67-.23-.21-1.77-.21-2-.46-.56-.7-.91a13.84,13.84,0,0,1-.31-3.84,2,2,0,0,0,.2-.32s1.17-.58,1.18-.81.47-.56-.73-1.2-6-5.43-6.23-5.67-.54-.5-.77-.35a3,3,0,0,0-1,1.06,1.82,1.82,0,0,0-.27,1c0,.4-.2,2.83-.27,3.33s0,1-.32,1S135,130,135,130s-.19-.56-.51-.3a7.52,7.52,0,0,0-.82,1.28,21.28,21.28,0,0,1-2.51,2.61c-.32.16-1,.13-1.1.26a.86.86,0,0,0-.24.62,1.37,1.37,0,0,1-.07.79c-.13.27-.3.23-.54.82s-.31,1-.36,1a2.39,2.39,0,0,1,0-.9c0-.43.13-1.07,0-1.24s-.58-.46-.56-.77-.23-.6.23-.79.38.07,1.24-.32a12.2,12.2,0,0,0,2.71-2.54,6.53,6.53,0,0,1,1.2-1.71c.78-.67.77-.62,1.11-1.18s.83-1.67,1-2a3.48,3.48,0,0,0,.42-1.67,3.48,3.48,0,0,0-2.23-1c-.68,0-1.58,0-1.81.2s-.44.66-.94.48a5.9,5.9,0,0,0-2.1-.67,31.11,31.11,0,0,0-4.41.77c-.56.15-2.83.7-3.36.82a4.2,4.2,0,0,0-1.81.68c-.52.44-4.39,3.16-5,3.69s-8.13,7.74-8.41,7.92-2.94,2-3.63,2.47a6.57,6.57,0,0,1-1.68.77,6.07,6.07,0,0,1-1.57-.09c-.52-.05-.48-.21-1.14,0a8.9,8.9,0,0,0-1.67.74c-.44.28-1,.5-1,.73s.09.46-.21.7-.38.32-.56.28-.55-.21-.78-.27a3,3,0,0,0-1.18-.11,1.86,1.86,0,0,0-1,.55c-.34.35-.73.82-.73.82a5.39,5.39,0,0,1-1.15.86c-.21.11-.86-.08-1.45,0s-1.42,0-1.72.3-.64.46-.62.89a2.18,2.18,0,0,1-.16,1.21c-.19.3-.19.54-.67.59s-1-.11-1.56.51a3.2,3.2,0,0,0-.59,2c-.11.7-.32,1.42,0,1.75s.86.51.78.86-.24.32-.7.56A2.08,2.08,0,0,0,82,154.1a11.7,11.7,0,0,0-.59,2.07,4.9,4.9,0,0,0-.24,1c0,.32.64.62.73,1s.13.94-.16,1.13-.89-.21-1.18.21-.4.43-.4.91.38.67-.21,1.1a6.15,6.15,0,0,0-1.4,1.24,2.81,2.81,0,0,0-.67,1c-.19.48-.27.62-.51.43s-.75-.64-1.16-.59a1.79,1.79,0,0,0-1.13.54,3.73,3.73,0,0,0-.32,1.1,1.13,1.13,0,0,1-.46.91c-.38.24-1.34.38-1.4.83a3.16,3.16,0,0,0,0,1.67c.24.67.62.64.43,1.4s0,.62-.38,1.32-.89,1-.75,1.45a6.28,6.28,0,0,1,.48,1.34c.11.73,0,3.81,0,4.51a1.38,1.38,0,0,1-.48,1.26c-.35.32-.86.38-.84,1a3.33,3.33,0,0,1-.21,1.88A44.65,44.65,0,0,1,68,186.39a3,3,0,0,0-.86,1.29c-.08.38.21,1,.13,1.72s.05.89-.15,1.18a4.74,4.74,0,0,1-.76.86c-.35.32-.94.46-1,1.1a4.67,4.67,0,0,1-.19,1.37,12.28,12.28,0,0,1-.86,1.56,7.62,7.62,0,0,1-1.45,1.4,2.5,2.5,0,0,0-1.56.19,4.3,4.3,0,0,0-1.1,1.16,3.42,3.42,0,0,0-.56,1.45,3.07,3.07,0,0,1-.46,1.48c-.43.75-2.85,5.94-3.12,6.37s-1.91,2.1-2.52,2.79-1.88,2.77-2.34,3.2a7.67,7.67,0,0,0-1,1.48s-.24,1.13-.38,1.58a3.61,3.61,0,0,1-.43,1.32c-.27.3-.4.67-.64.75s-.62-.16-1,0-1,.19-1.69.48a4.94,4.94,0,0,0-1.4,1.53v1.88a2.87,2.87,0,0,0,.83.89c.51.32,2,.73,2,.91a5.73,5.73,0,0,1-1.16,1.93,2.62,2.62,0,0,0-.83,1.72,22.32,22.32,0,0,1-.59,2.93c-.3,1.29-3.06,6-3.52,7.57s-3.79,9.67-3.95,10.31-5.94,16.39-5.94,16.39-2,5.86-2.07,6.12a6.12,6.12,0,0,0,.19,3.28,23.68,23.68,0,0,0,2.44,5c.62.78,1.64,1.75,1.18,2.34a5.76,5.76,0,0,1-1.45,1.29c-.48.32-1.07.19-1.07,1.07a11.82,11.82,0,0,1-.13,2.79c-.21.75-.59,1.1-.73,1.8s0,1.1-.32,1.48-.27.91-.86.67-.78,0-1.26-.51a2.18,2.18,0,0,0-1.53-.46c-.35,0-1.67.16-1.61.51s.38.44.78.52,1.1,0,1.16.45-.19,1.42.11,1.88.48.38.75.7a4.5,4.5,0,0,1,.35,2c0,.64.27,1.24-.27,1.37a7,7,0,0,1-1.93.46c-.32-.11.54-.73-1.16-.67a30.09,30.09,0,0,0-3.44.11c-.4.13-.35-.13-.7.58a55.18,55.18,0,0,0-2.34,5.27c-.05.54-.38,1.34,0,1.37s.73-.3.89-1a32,32,0,0,1,2.23-4.86,7.71,7.71,0,0,1,2.55,0c.83.05,2.28-.13,2.71,0s2.26-.11,2.79.54.81.13.81,1.42.24,4.06,0,4.67-1.24,1-1.93,1.53-1.29.3-1.34,1a5.93,5.93,0,0,1-.13,1.4c-.13.38-.13.43-.78.56s-1.69.08-1.91.56-.32.35-.24,1.07.19,1.42-.08,1.61-1.32.16-1.45.7a8,8,0,0,0-.13,1.85,26.09,26.09,0,0,0,0,2.9c.11.51-.13.94.46.89a2,2,0,0,0,1.37-.75c.3-.38.48-1.1,1.4-1s1.4,0,1.8.71a18.25,18.25,0,0,0,1.38,1.8,10.7,10.7,0,0,1,1.09,1.49,2.24,2.24,0,0,1,.35,1.06c0,.43.11.52-.3,1A3.85,3.85,0,0,1,27,324.88a14.05,14.05,0,0,1-2.28.52c-.47.08-1.57.17-1.68.55a4.84,4.84,0,0,0-.12,1.69c.08.54-.05,1.07.39.83a4.41,4.41,0,0,1,1.6-.75,2.92,2.92,0,0,1,1.91.31,2.18,2.18,0,0,1,.87,1.28c.3.85.62,1.83.9,2.5a4.29,4.29,0,0,1,.38,1.72c0,.51,0,1.41-.58,1.73s-5.82,2.51-6.25,2.61a1.29,1.29,0,0,0-1,1.46c.08.94,0,1.83.08,2.46a14.26,14.26,0,0,1,0,1.88,1.18,1.18,0,0,1-.55,1c-.31.11-.44.19-.75,0a6.32,6.32,0,0,1-1.4-1.25c-.26-.39-.67-.5-.68-1.11s0-1.95,0-2.35-.15-.71-.38-.55-.34.16-.3,1,0,2.22.12,2.69,1,1,1.42,1.46a5.15,5.15,0,0,0,2,1.34c.81.28,2.34.77,3.88,1.17s4.08,1,5.13,1.36,3.76,1,4.24,1,1.32.16,1.25-.19-1-.73-1.1-.73-8.25-2.4-8.85-2.55a26.5,26.5,0,0,1-3.16-.91,1.78,1.78,0,0,1-.2-1.33c.19-.42.44-1.2,1.4-1.1s2.31.05,3,.05,1,.2,1.1-.38-.16-1.22.12-2a8.73,8.73,0,0,1,1.56-2.58c.4-.31,1.25-.48,1.54-.94a3.08,3.08,0,0,0,.12-1.57s-.51-1.24-.9-1.92-1.26-2.79-1.26-2.79a3.29,3.29,0,0,1-.21-1.13,2,2,0,0,1,1-1c.48-.11,2.14.28,2.58-.26s.75-.52.51-1.72A27.42,27.42,0,0,0,30.4,322s-1.77-3.38-2.05-4.12-1.24-2.36-1.41-2.86a7.58,7.58,0,0,1-.52-2.22,2,2,0,0,1,1.48-1.67c1.06-.28,11.75-5.48,11.79-5.48s.6-.32.35-.54-1.41.27-1.57.4S33.31,308,33.06,308s-.5-.79-.47-1.14-.16-1.81.12-2.22,15.83-7.8,15.83-7.8.94-.23,1,.17a11.51,11.51,0,0,1,0,3c-.15.24-5.78,2.85-5.83,2.91s-.44.28-.35.48.46.26,1-.05,6.07-2.77,6.11-3.08.13-9.11.09-9.36-2.86-1.58-2.89-2-.28-.85.27-1a8.22,8.22,0,0,1,2.51-.2c.77.05,6.43.15,6.82.15A9.2,9.2,0,0,0,60,285.37c.11-.39,0-4,0-4s-11.67-21.07-11.67-21.17-3.29-3.94-3.26-4.31a20.71,20.71,0,0,1,3.13-3.45c.27-.12,1.2.4,1.2.4s.35.77-.11,1.16-.94.42-.7.74,1.52,2.2,1.95,2a10,10,0,0,0,1.5-1.3l1,1a3.23,3.23,0,0,0,.75.52c.19,0,6.15-5.71,6.23-5.76s.52,0,1.07.66,1,.93.6,1.38-7.55,7-7.59,7.13-.25.39-.06.54.47.78.83.54,1.44-1.6,1.53-1.63a.66.66,0,0,1,.51.4.87.87,0,0,1-.34.9c-.3.2-1,.59-.89.86a2,2,0,0,0,.67.86c.28.21.91.35,1.06.16s1.29-1.3,1.29-1.3a7.84,7.84,0,0,1,.86.82,6.44,6.44,0,0,1-.74,1.22c-.07.09-.07.3.08.28a9.46,9.46,0,0,0,1.24-1.11c.12-.12,6-6.12,6.12-6.12a4,4,0,0,1,1.2,1.11c.07.28-7.35,7.72-7.35,7.72a1.15,1.15,0,0,0,.17.63c.17.19.51.5.64.47s2.18-1.76,2.27-1.88a.89.89,0,0,1,.24-.2l.67.66s-2.3,2.11-2.34,2.24.42.74.58.82.35-.11.66-.4,1-1,1.17-1a6.81,6.81,0,0,1,.89.87c.07.09,0,.21-.32.51a6.12,6.12,0,0,0-1,1,.68.68,0,0,0,.27.34c.07,0,1.57-1.46,1.64-1.49a14.32,14.32,0,0,1,1.36,1.21s-1.09,1.41-1.17,1.57.85.82.9.82,1.45-1.58,1.5-1.6,1.26,1.34,1.26,1.34L68,273.32l.11,0,1.6-1.76,1.67,1.52-1.56,1.67.13.05,1.6-1.53,1.16,1.29L71,276.19l.13.12,1.68-1.53,1.91,1.92-2,2.16s.08.26.16.19S75,277,75,277s1.63,2,1.91,1.87S83.61,272,83.61,272l-4.51-4.79L79,263.86l.59-.42s.2-.52-.07-.6-.34-.07-.5-.13-.17-.67-.17-.67-.17-.56.09-.59,3.57,0,3.71,0,.23,0,.21.23a30,30,0,0,0,.08,3.45c.12.3,4.59,5.14,4.7,5.2a1,1,0,0,0,.78.15c.31-.12.3-.46.51-.47s.09.35.38.35a5.58,5.58,0,0,0,1.06-.27s.4.32.42-.36.11-3.52.09-3.69-.2-.12-.3-.59-.39-1.53-.21-1.84.35-.28.46-.54a4.83,4.83,0,0,0,0-1.64c-.08-.38-.31-.28-.39-.68a9.24,9.24,0,0,1-.09-1.13,3.36,3.36,0,0,1-.05-.47c0-.09.51-.59.71-.39a2.87,2.87,0,0,1,.52,1c.12.35.23.42.39.9s.63,2.08.68,2.2.12,5.25.15,5.32a6.21,6.21,0,0,0,1.49.16c.27,0,.6-.36,1.14-.38s4,.05,4,.05,1.58-.48,1.79-.6.74,0,1-.21a.72.72,0,0,0,.3-.59c0-.16-.08-5,0-5a8.19,8.19,0,0,1,2.2-1.33,4.59,4.59,0,0,1,2,.05c.3.23,1.48,2.32,2.32,2.67s1.53.52,1.76.62.58.05.56.48-.64,1.64.17,1.73a35.35,35.35,0,0,0,5.35-.08c.05-.16-.21-5.25,0-5.33a4,4,0,0,1,1.56-.23,14.38,14.38,0,0,1,1.45.17,4.26,4.26,0,0,0,1.21.15c.5,0,.56-.11,1.41-.2s.67-.43,1.42-.3a5.67,5.67,0,0,1,2.44,1.48c.73.68,3.85,3.67,4.82,4.08s1.5.58,2.15.9a6.32,6.32,0,0,0,1.41.58.35.35,0,0,0,.34-.16,7.67,7.67,0,0,1-.24-1.68,4.32,4.32,0,0,0,0-1.16c0-.26,0-.56-.6-.51a10.53,10.53,0,0,0-1.79.11l-.58.3s-.63-.08-.52-.24.51-.21.13-.56-.54-.26-.6-.68-.19-.64,0-.87,3.48-6.45,3.64-6.67,1.42-3.3,1.42-3.41-3.42-2.38-3.44-2.52.21-.75.35-.71,3.6,2.08,3.71,2a16.63,16.63,0,0,0,1.44-2.11c.28-.52,2.07-3.34,2.35-3.88a4.18,4.18,0,0,0,.46-1.52,4.89,4.89,0,0,0-.93-1.69c-.24-.27-.35-.4-.78-.35a4.57,4.57,0,0,1-1.71.26c-.64-.13-1.29-.07-1.63-.51s-.86-.9-.6-1.37.86-2,1.18-2.57a2.5,2.5,0,0,0,.23-1.84,3.94,3.94,0,0,0-.64-1.91c-.44-.55-.78-.7-.78-1.41s.3-1.36-.08-1.69a3.76,3.76,0,0,0-1.3-.78c-.73-.31-2.4-.48-2.77-.62s-1.09-.56-1-1.22.51-1.52,1.29-1.6,1.75-.21,2.07,0,.64.77,1,.86a.93.93,0,0,0,.91-.2,2.28,2.28,0,0,1,.83-.35,1.74,1.74,0,0,1,1.28.55,7.58,7.58,0,0,1,.85,1.33,13.74,13.74,0,0,0,1.71,2.57,2.59,2.59,0,0,1,1,1.41,7.76,7.76,0,0,0,.91,2.57c.42.48.81.87.78,1.41a2,2,0,0,1-.71,1.5,1.41,1.41,0,0,1-1.22.2c-.3-.16-1.21-.86-1.45-1s-.75-.42-.94-.27a2.18,2.18,0,0,0-.56.94,5.12,5.12,0,0,1-.63,1.2c-.19.28-.32.67-.11.9a2.06,2.06,0,0,0,1.28.39c.47,0,.94-.2,1,.08s-.07.43.36.36a1.27,1.27,0,0,0,.7-.38s.24-.83.5-.4a2.61,2.61,0,0,1,.44,1.46c.12,1,.11,1.73.19,2.51a15.85,15.85,0,0,1-.2,2.63s-.66,2.4-.9,3a20.59,20.59,0,0,1-1.87,2.9c-.5.64-2.28,2.7-2.61,3.3a4,4,0,0,0-.4,1.24,10.2,10.2,0,0,1,.24,1.5c.07.82.2,1.48.21,2.11s-.3,1.34.17,1.46,1.45.17,2.2.36,1.76,0,1.8.43.47,1-.08,1.13-1.92-.23-2.36-.12-.66.09-.64.36a23.12,23.12,0,0,0,1.18,2.47c.24.5,1.16.58,1.49.73s7.57,2,8.14,2.1,1-.79,1.28-1a4.38,4.38,0,0,1,1.29-.64.57.57,0,0,1,.66.55c0,.55-.11,1.53.24,1.67a15.82,15.82,0,0,1,1.57.64,12.53,12.53,0,0,0,2,.9,12.85,12.85,0,0,0,1.69.12c.51,0,6-.21,6.2-.32s.39-.11.35-.68-2.63-6.72-2.67-7.2a3.47,3.47,0,0,0-.3-1.2c-.16-.36-.32-.38-.91-.75a13.34,13.34,0,0,1-1.28-1,6,6,0,0,0-1.56-.43c-.43,0-.56,0-.62.11s0,.17-.21.21a.54.54,0,0,0-.42.24c-.08.13-.34.4-.27.47s.17,0,.38,0,.23,0,.5.11.47.08.6.32a2.5,2.5,0,0,1,.17,1.1c0,.3.35.46-.28,1a5,5,0,0,1-3,1.07c-1.09,0-3.87-1.85-4.43-2.54s-2.44-4-3.41-4.5-2.46-.66-2.54-1a35.38,35.38,0,0,1,.63-4.74c.15-.46.12-1.45,1-1.8s.71-.73,2.1-.08a11.83,11.83,0,0,0,3.51,1c1.4.26,3.73.78,4.15.91a1.42,1.42,0,0,1,.79.52c0,.12-.12.36-.3.75a7,7,0,0,0-.44,1.42c0,.13.11.47.21.32a1.49,1.49,0,0,0,.34-.66,3.27,3.27,0,0,1,.44-.93c.15-.21.09-.54.43-.5a.57.57,0,0,1,.4.71c-.08.24-.17.43-.44,1.2a3.87,3.87,0,0,0-.4,1.88,3.13,3.13,0,0,0,.46,1.76,7,7,0,0,0,1.5.52,2.48,2.48,0,0,1,1.8.78c.83.85,1.5,1.45,2.05,2s.6,1,1,2,1.1,2.27,1.4,3a6.94,6.94,0,0,0,.82,1.91c.51.7.58.51,1.3,1a8.38,8.38,0,0,1,1.95,1.95c.52.71,1.21,1.52,1.52,1.93s.38.43.16.74-1.28,1.93-1.38,2.18-.38.58-.13.9,10.56,6.57,10.56,6.57l-3,5-11-6.57-2.11,0a18.28,18.28,0,0,0-2.23.39,18,18,0,0,0-2.32,3.8c-.08.36,19.46,12.36,19.5,12.36s6.69-11.12,6.69-11.12,15.08,8.78,15.49,8.9,1-.07,1.09-.27.09-.67.47-.6a.79.79,0,0,1,.73.67c0,.36.47.4.47.4s.34-.46.59-.28a2.46,2.46,0,0,1,.73,1.25c.05.4,1.87,1.88,1.87,1.88s4.81,3.94,4.92,3.91,1.61-1.58,1.61-1.95.12-.35-.48-.74a23,23,0,0,1-2.57-2c-.12-.2-.52-1.14-.52-1.14s0-2,.05-2.18.55-.31.63,0a20.5,20.5,0,0,0,.28,2.05,4.52,4.52,0,0,0,2,2,2.46,2.46,0,0,1,1.32.77c.26.38.44,1.1.82,1.25a5.09,5.09,0,0,0,2,0c.24-.11.56-1.16.77-1.4s1-.24,1.42-.16,1,.11,1.26.51a12.11,12.11,0,0,1,.83,1.37c.12.3.44.85.83.85s3.57.23,3.84.2.23.79.24,1-.34.4-.68.38-1,0-1,.12.24.24.66.24a5,5,0,0,0,1.61-.17c.05-.13-.11-1.09.23-1.13s3.26.09,3.92.08,5.65-3.77,5.95-3.95,8.25-.11,8.3-.08,5.21,5,5.63,5.4a.94.94,0,0,0,1.3,0c.3-.27,1.24-.36.68-.91s-2.16-2.28-2.16-2.28.9-1,1.25-.87,5,4.71,5,4.71l.85-.38s-.24-.2-.4-.36-.43-.19-.44-.56-.16-9.7-.16-9.7-.34-.12-.28-.35a3.09,3.09,0,0,1,.5-.74,17.48,17.48,0,0,1,2.05.73c.66.32,1.77.82,1.84.87a3,3,0,0,1,.35.86A19.28,19.28,0,0,0,262,297a16,16,0,0,0,2.1.13l10-6.92a4.23,4.23,0,0,0,.43-1.71c-.11-.54-.75-2.31-.75-2.31l-2.3-1.79c-.46-.35-3.09-2.14-3.09-2.14l-2.77-.89-1.3-.39s-.89-.34-1.2-.2-.9.34-.87.52a6.59,6.59,0,0,1,.21.78,29.71,29.71,0,0,1-2.65,3.76,1.94,1.94,0,0,1-1.22.17c-.32-.15-.74-1-.85-1.2s-.66-.31-.66-.31l-.3-.82s-.13-1.81-.2-2a1.33,1.33,0,0,0-1.21-.6c-.52.09-1.52.24-1.68-.26a16.58,16.58,0,0,0-.46-1.87,3.4,3.4,0,0,0-.91-.44l-.59-.28h-1.8l-.56.19s-.39-.26-.11-.52.32-.68,1.29-.75a16.53,16.53,0,0,1,2.81.24,18.64,18.64,0,0,0,1.41,1.6c.39.32.3.71,1.26.6a5.12,5.12,0,0,0,2.08-1,4.9,4.9,0,0,1,2-.4c.7.12,1.17,0,2.42.27a15,15,0,0,0,3.87.31c1.42-.08,1.6.13,1.69-.3s-.05-3.41-.05-3.41a9.39,9.39,0,0,1-.73-2.71c0-1.1-.17-3,.11-3.51a37.09,37.09,0,0,1,2.86-2.57c.38-.4.67-.47.5-1a5.34,5.34,0,0,0-.93-1.71,12.88,12.88,0,0,1-1.41-2c0-.11-.05-.59.54-.3s1,.55,1.21.51a2.41,2.41,0,0,0,1-.55,19.61,19.61,0,0,0,1.36-1.91,7.43,7.43,0,0,0-.16-2.16c-.24-.47-.79-1-.81-1.67a3.81,3.81,0,0,1,.21-1.89c.3-.5.74-1.29.74-1.29s.48-.08.48.15a7,7,0,0,0-.19,1.18,4,4,0,0,0,0,1.77c.23.56.58.79.67,1.57a22.37,22.37,0,0,1,.16,2.55,4.13,4.13,0,0,1-.2,1.32,2.43,2.43,0,0,0-.36,1.28c0,.59,0,.94.3,1.16s.55.19.87.44.63.09.64.82-.17,1.63,0,1.91,2.39,1.91,3.13,1.89a3.58,3.58,0,0,0,1.72-.15,6,6,0,0,0,1.76-1,19.15,19.15,0,0,1,1.85-1.72c.16,0,.38-.05.39.31s-.94,1.5-1.45,2a18,18,0,0,1-1.91,1.6,4,4,0,0,1-.94.21l-3.14,0s-1.32-.07-1.4-.09-.17-.43-.34-.43-.24.44-.7.48-2.59.19-2.81.19-.62-.35-.94-.27-.59.26-.6.39-.36.26-.38.71a1.38,1.38,0,0,0,.26.89,3.07,3.07,0,0,1,.3,1.2,7.59,7.59,0,0,0,.39,1.93,11,11,0,0,0,1.28,2.27,5.06,5.06,0,0,1,1.21,1.89,4.53,4.53,0,0,0,.46,1.57,41.46,41.46,0,0,0,4.89,5.12c.15,0,2.77-2,3.13-2.27a1.94,1.94,0,0,1,1.2-.54c.54,0,3.81-2.89,4.54-3.4s3.1-2.39,3.81-2.74a14.62,14.62,0,0,1,2.07-.91c1.09-.39,5.86-2.58,6.89-3.17s21.17-7.19,21.53-7.24,5.61-1.42,5.61-1.42,4.53-.32,4.85-.47a5.28,5.28,0,0,0,1.11-1.56,2,2,0,0,1,.87-.93c.32-.11,1.45-.05,1.24.3a1.3,1.3,0,0,0-.23,1c.07.26,0,.59.35.51a5,5,0,0,0,1.32-.55,28,28,0,0,1,3.36-1.65c1.21-.42,2.51-1.17,2.89-1.32s.79.07,1.77,0a32.49,32.49,0,0,0,3.53-1.06c1.53-.4,2.44-1,3.59-1.07s2.18,0,2.66-.07a10.28,10.28,0,0,1,1.8-.5c.71-.05.85.11,1.37-.08a20.74,20.74,0,0,1,2.67-1.25,9.1,9.1,0,0,0,2.61-1,.85.85,0,0,0,.28-.85,3.6,3.6,0,0,0-.27-1.22c-.15-.31-.62-.78-.27-.87s.75-.12.86.16a2.83,2.83,0,0,0,.44,1c.28.31.26.62.83.78a3.33,3.33,0,0,0,2.07-.19,20.56,20.56,0,0,1,4.53-1,32.37,32.37,0,0,0,4.3-.12c.44-.19.3-8.86.3-8.86a4.1,4.1,0,0,1,.81,0c.05.05.11,9.15.13,9.24a14.78,14.78,0,0,0,3.44-.43,8.77,8.77,0,0,1,2.1-.48,2.23,2.23,0,0,1,1.22.36c.32.2.85.3,1,.79s0,3.69.12,3.72a6,6,0,0,0,2.3-.35,14.4,14.4,0,0,1,4.23-1,7.1,7.1,0,0,1,2.59.83A58,58,0,0,0,399,258a15.2,15.2,0,0,0,3.22,0,1.91,1.91,0,0,0,1.48-.59c.75-.63,6.9-4.42,7-4.46s10.11-.07,10.11-.07v4.71l4.53.07v-.54s-3.8-.17-3.73-.23,0-8.31,0-8.31h5.94v4.3H431l-.05-9.36-14.91.12,1.84-3.53,1.56-3.67s.94-2.26,1-2.39.21-.77.31-.71,5.22,2.71,5.35,2.73.56-.64.56-.7-5.47-3.41-5.45-3.49,4.75-8.92,4.75-8.92a1.73,1.73,0,0,1,.89.19,2,2,0,0,0,1,.12s.32-.43.21-.44-1.61-.73-1.61-.73l.62-2.1,5.76,2.43.91-2.18s-6-2.54-6-2.78a15.63,15.63,0,0,1,.13-2.87c.17-.19,2.34-2.18,2.44-2.34a5,5,0,0,1,.6-.56s3.57,2.43,3.79,2.48.73-.4,1-.28,2.82,2.23,3,2.15.3-.48.3-.48ZM94.53,195.47c-.59.48-3.28-2.15-4.08-3.17s-.32-.81-.27-1.56a1.37,1.37,0,0,0-.75-1.45c-.59-.43-.48.7-.54,1.13A3.5,3.5,0,0,1,88.4,192c-.32.43.38,1,.91,1.72s1.56,1.56,1.34,1.93-2.69-2.36-3.06-2.74-1.77,0-2.26,0-1.24-.59-1.83-.54-.43,1.29-1.07,1.77-1.4.81-2.31,1.34-.16.86.16,1a13.18,13.18,0,0,1,1.83,1.72c.38.38.59,0,1.4,0s-.38.81-.91,1.34.32.64.86.54.7-.59,1.07-.59-.16.54-.64.81-.43.43-.59.86-.38,1-.75.86,0,0,.16-.38-.38-.7-.54-1.07-.75-1-.81-1.67a2,2,0,0,0-1.07-1.45,1.75,1.75,0,0,0-1.34.31,1.9,1.9,0,0,1-1,.6c-.41.05-1.15-.48-1.69-.59s-1.45.48-1.88.81-1.4,0-3.06,0-1.88.11-2.26.44-1.18.64-1.61.26-.7-.32-1.4,0-1.07,1.24-1.72,2-.11.32-.64,1-1.18.81-1.4,1.29.32.86.54,1.34a4.15,4.15,0,0,1,.16,2.15c-.16.54,1,1.4,1.34,1.77s1.18.81.91,1.07-2.52-1.56-2.9-1.72-.81.06-1.88,0-.38.27-.91.64-.59-.05-.86-.27-.54,0-.86.32a2.57,2.57,0,0,1-1.4.75c-.43,0-.38.11-.54.43s-.38,1.61-.54,2.1-1,.54-1.56.75a4.22,4.22,0,0,0-1.4.81c-.59.48-.32,1.4-.32,1.61s1.93,1.4,2.36,2,.64,1.5.91,1.88,7.68,6.88,8.22,7.85-.16,1.39-.32,2a2.39,2.39,0,0,0,.64,1.83c.32.38,1.4-.11,1.88-.59s.81.11,1,.32a3.66,3.66,0,0,0,1.45.7,15.93,15.93,0,0,0,2.2-.05,2.1,2.1,0,0,0,1.5-.7c.43-.43.64-.27,1.29-.05s-.43.43-1,.7a11.5,11.5,0,0,0-1.45.86c-.43.27-.86.16-1.88.05s-1.07-.54-1.45-.64-.54.27-1,.64a16.22,16.22,0,0,1-2.31,1.4c-.81.43-.75-.11-.81-.43s-.86,0-1.29,0-.75-.32-.81-1-.05-1-.38-1.29-.7-.21-1-.7.21-1.18,1.07-1.67-.05-.59-.05-.59a1,1,0,0,1,.48-.85c.54-.37-.21-.6-.48-.92s-1.18-.05-1.72-.11-2.2.27-2.85,0a3.09,3.09,0,0,1-1.5-1.83c-.32-.86-.81-1.07-1.56-1.56s-1.72-.27-2.52-.7-.75-.86-1.24-1.29,0-.75,0-1.18a7.17,7.17,0,0,1,.59-1.83,18.14,18.14,0,0,0,.86-3.22,22.81,22.81,0,0,0,2.2-2.63c.64-1,3.17-3.76,3.81-4.78s3-5.8,3.22-6.29,1.29.11,1.5.11a6.07,6.07,0,0,0,1.88-.43c.75-.32.75-1,1.13-1.72s-.05-.81-.16-1.18a5.35,5.35,0,0,1,.05-1.61,1.19,1.19,0,0,1,.59-1.18,5,5,0,0,0,1.18-1.29,4.33,4.33,0,0,0,.7-1.61c.11-.48.27-.59.38-1.13s.59-1.24.75-1.77.32-1.45,1-1.67,1.07.59,1.29.81a5.35,5.35,0,0,1,.38,1.56A4.61,4.61,0,0,0,72,189c.68-.48,1.63-.05,2.17-.16s.75-.43,1.24-.92,4.19.06,5.26,0a2,2,0,0,1,1.88,1.18,8.24,8.24,0,0,1,.48,1,7.52,7.52,0,0,0,3.06,2c1,.21,2-2.79,2.31-3.55s.75-.27,1.24,0,1.5,1.18,1.45,1.5a5.31,5.31,0,0,0-.11,1.67c.11.54,2.26,1.67,3,2.2S95.12,195,94.53,195.47Zm0-16.1c-.26.16-.34.24-.66.12a10.76,10.76,0,0,0-2.26-.16c-.81,0-1.41.93-1.69,1.17s-1.09-.12-1.49-.2-.73,1.09-1.13,1.25-1-.32-1.21-.81-1-.08-1.45.28A1.39,1.39,0,0,1,83,181c-.44-.32.28-.44.73-.73a1.07,1.07,0,0,0,.4-1.25c-.16-.36-.36-.32-.6-.68s-.2-.93-.83-1.21-.21.68-.05,1.13a1,1,0,0,1-.36,1.13,4.31,4.31,0,0,1-1.49.12c-.81,0-.4.77-.81,1s-.52-.36-.52-.85.85-1.21,1.09-1.49a3.47,3.47,0,0,0,.28-1.65c0-.48.32-.4.52-.64a5.26,5.26,0,0,0,.16-1.93c0-.24-1.13.2-1.23.32a1,1,0,0,1-1.14,0c-.36-.36.89-1.61,1-1.89s-.52-.44-.93-.77-.28-.36-.12-.81-.12-.52-.52-1a3.31,3.31,0,0,1-.6-1.65c-.08-.52.56-1,1-1.41a21.75,21.75,0,0,0,2.1-1.29c.2-.32.12-.85.28-1a7,7,0,0,1,1.33-.68c.64-.28,2.05,1,2.34,1.61s1.13.52,2.1.24.56-1.09.44-1.89-.68-1.13-.52-1.41,1.45.32,1.89.73.2.89.24,1.57,1.09.85,1.69.81a3,3,0,0,1,1.45.08c.6.2-.24.68-.64.89s-.16.77.08,1.13,0,.85-.16,1.13-.52.12-.6-.12-.4-.32-.73-.2-.56,0-.81-.4-.24-.89-.56-1-.52.48-.81.85.28.77.6,1.25.08.64-.32.93-.68-.08-1.21-.4-1,.24-1.45.56,0,1.29.16,1.53,1.29.08,1.73.4.73,1,1,.85,0-.81,0-1.13.68-1,1.29-1,.44,1,1,1.25.36-.24.64-.77.68-.28.89.2a2.94,2.94,0,0,1-.56,2.18c-.4.44-.68.2-1.09.24s-.08,1-.6,1-1.13-.68-1.45-.56a2.41,2.41,0,0,0-1,.64c-.2.28.4,1.17-.12,1.45s-1.09-.89-1.77-.64.24,1.09.5,1.73,0,1.73.32,1.81.46-1.49.78-1.73,1.17.89,1.41,1.13.6-.28,1-.73-.28-1.45.32-1.65.56,1.17,1,1.13.93-1.93,1.25-2.14.64.56.68,1.17-.16,1,0,1.49.68.08,1.21-.32.64-.64.89-.16S94.79,179.2,94.53,179.37Zm8.2-29.78c-.12.56-.89.32-1.37.08s-1.33-1.45-1.57-1.53-.36.44-.85.68-.32-.12-.48-.56-1.09-.44-1.29-.56a15.73,15.73,0,0,0-1.45-.73,1.29,1.29,0,0,0-1.33.2c-.2.2.12.64.2,1a2.17,2.17,0,0,1-.48,1.65c-.44.52,0,.32.16.68s.93.52.64,1-.68,0-1.29-.34-.44-.67-.36-1.35-.48-.85-1-.85-.28.64-.36,1.17.48,1,.81,1.49.93.81,1.37,1.21.81.4,1.89.68.73.4.89.93-.44.4-.93.36a1.56,1.56,0,0,1-1.09-.6c-.28-.32-1-.32-1.53-.6s-.85-.36-1.13-.81-.56-1.09-1-1.25-.48.85-1.17.85-.56-1.33-.52-1.61-1.17-1.41-1.49-1.69-.68,0-1.29-.2-.44-1-.44-1.41,2.42.16,2.86.4,1.09,0,1.81-.28a2.11,2.11,0,0,0,1.25-1.53c.08-.56-.73-.16-1.25-.6s-.08-.44.24-.81,1.89-.2,2.26-.2,1.09.48,1.25.44.52,0,1.45,0,1,.44,1.21.44a4.67,4.67,0,0,0,1.09-.17c.52-.13.64.37,1,.41s.6-.32.85-.4.6.56.56.77-.4.81-.44,1.09,1.41,1,1.89,1.17S102.85,149,102.73,149.59Z"/><path d="M104.3,261.39s-.91.16-.81.64a.89.89,0,0,0,.81.75.53.53,0,0,1,.54.48c.05.27-.6.27-.68.54s-.29,2.69-.29,3-.16.86.54,1,4,.27,4.3,0,0-3.28,0-3.28-1.07.16-1.24-.11A19.78,19.78,0,0,0,104.3,261.39Z"/><path d="M119.67,261.6c-.32.51.48,5.69.7,6s.91.08,1.07.31.16.71.54.66.32-.62.7-.66,5.75.09,5.75,0,.32-1.28,0-1.6-3.87-4-4.62-4.08S120,261,119.67,261.6Z"/><path d="M153.89,254.72a2.6,2.6,0,0,1,0,1,2.6,2.6,0,0,0,0,1s.32.64.38,0A7,7,0,0,0,153.89,254.72Z"/><path d="M153.51,256.94a5.49,5.49,0,0,0-1.07.68,1.6,1.6,0,0,0-.21,1c.05.21-.23.38.64.38s1-.16,1.19-.38S154.08,256.59,153.51,256.94Z"/><path d="M136.54,229.21s-.86,2.1-.27,2.2a1.88,1.88,0,0,0,1.45-.38c.21-.21.27.26.81.4s.59.46.81.57.81.11.54-.38a6,6,0,0,0-1.45-1.77C138,229.64,136.69,228.79,136.54,229.21Z"/><path d="M138.26,232.75l-.91.75s-.48,1.07,0,1.18.38-.27,1.29,0,.7-.23.81,0a2.3,2.3,0,0,0,.5,1.05c.36.32.84.64.9.27a5,5,0,0,0,0-1.55c-.11-.22-.91-1.35-1.18-1.35S138.65,232.42,138.26,232.75Z"/></svg>