<?xml version="1.0" encoding="UTF-8"?>
<svg width="60px" height="60px" viewBox="0 0 60 60" version="1.1" xmlns="http://www.w3.org/2000/svg" xmlns:xlink="http://www.w3.org/1999/xlink">
    <!-- Generator: Sketch 42 (36781) - http://www.bohemiancoding.com/sketch -->
    <title>supply</title>
    <desc>Created with Sketch.</desc>
    <defs></defs>
    <g id="Welcome" stroke="none" stroke-width="1" fill="none" fill-rule="evenodd">
        <g id="Desktop" transform="translate(-675.000000, -3365.000000)" fill-rule="nonzero" fill="#0058A0">
            <g id="Credibility" transform="translate(0.000000, 2897.000000)">
                <g id="supply" transform="translate(675.000000, 468.000000)">
                    <path d="M19.8494362,43.3839893 L7.69233161,9.98790515 L2.5749384,9.98790515 C1.66462292,10.0161159 0.811119513,9.54657547 0.347622648,8.76258518 C-0.115874216,7.97859489 -0.115874216,7.00446129 0.347622648,6.220471 C0.811119513,5.43648072 1.66462292,4.96694029 2.5749384,4.99515103 L11.1870198,4.99515103 L24.8493811,42.5091188 C26.8942283,42.755629 28.7859343,43.7176142 30.1896865,45.2248127 L58.2934033,34.9948201 L60,39.6855641 L32.4140148,49.7262012 C33.1608728,54.1506371 30.435663,58.42175 26.1084582,59.6086489 C21.7812535,60.7955479 17.2583211,58.512511 15.6433538,54.3261868 C14.0283865,50.1398626 15.8462208,45.4107345 19.8494362,43.3839893 L19.8494362,43.3839893 Z M23.8067272,47.9069499 C25.6160141,47.9082735 27.0817819,49.3758293 27.0808997,51.1851165 C27.0800175,52.9944037 25.6128192,54.4605294 23.8035319,54.4600885 C21.9942445,54.4596477 20.527761,52.9928071 20.5277605,51.1835197 C20.5277602,50.3141039 20.8732983,49.4803321 21.4882928,48.8657871 C22.1032874,48.2512422 22.9373116,47.9063139 23.8067272,47.9069499 L23.8067272,47.9069499 Z M38.2864332,17.2265597 L50.1726875,12.8905577 L57.0038681,31.6583276 L28.5310279,42.0249439 L21.6998473,23.2499832 L33.5813077,18.9355533 L36.8890373,28.022222 L41.5797814,26.3156253 L38.2864332,17.2265597 Z M39.6263034,14.0770259 L20.8465489,20.9082065 L15.721965,6.83118063 L34.4921318,0 L39.6263034,14.0770259 Z"></path>
                </g>
            </g>
        </g>
    </g>
</svg>