<svg xmlns="http://www.w3.org/2000/svg" viewBox="0 0 500 500"><title>Artboard 2UK</title><path d="M73.44,461.81H73l-.25-.25-.21-.3-.15,0-.31.29.14.22.66.52h.52l.41-.41-.16-.17Zm-3.37.47-.23-.24-.19.07-.1.34,0,.27.08.19v.2l0,.14h.21l.21-.42Zm.18,4.21-.24.15,0,.36.35.37.21,0,.08-.38-.15-.28Zm239.31-62.57-.23-.23v-.43l.38-.29.16-.37-.11-.43-.42-.39-.57,0-1.15,2-1,.41v.47l3.64.54v-.54l-.3-.23ZM144.72,378.54l.31-.35,0-.85-.06-.45-.07-.3-.19-.52-.23.14-.15.89.05,1ZM70.95,462.11l-.14-.08-.22-.18-.32,0,0,.56.3.78.39.22.27-.51-.07-.51Zm1.54,1.67-.38.55-.08,1,.53.28.43-.3.15-.59-.36-.64ZM391.86,360.33l-.43-.24-5.49-1.92-.59.16-.31.43-.57,1.94.43.87.63,1,.78.79.87.33,5.18.45,1.1-.47.25-.86-.42-1-.93-1Zm-88.09,49.54-.38.09-.13-.05,0-.18.05-.59,0-.18-.53-.41-.47-.09-1.1,0-6.72-2.75-1,.06-1.11.77-1.51,1.88-1,.85-1.08.14.08-.24.12-.48.09-.23-3.87,1.81-1.74,1.52-1.08,2,.8-.48.72-.31,1.67-.19.51.21,1.47,1,.31.43,5.78,4.11,1.61.47,4.91-1.47.15-.33,0-.78,0-1.5.1-.36.27-.33,1.23-1.1.7-.35,1.66-.49.15-.17.1-.18.12-.11h.2v-.52l-.91-1.43ZM429.42,280.21l.06-2.61-.08-1.44-.27-1.12.28-1.54-.58-2.16-.81-2.13-.83-3.45-1.05-1.8-1.3-1.47-11-8.48-5.38-2.77-13.68-3.32v.5l.58-.06.55.07.52.2.47.33-2,.94-2.1-.53-2-1-1.76-.47H385.2l-.95-.22-1-.42-1-.24-.9.34.33.54-2.15-.09-2.39.47-2.19,1-1.53,1.61-.6,1.25-.69,1.79-.57,2-.24,1.78-.57,1L369.62,260l-.89,1.36.24,1.15V263l-.66-.33-1.24-1.79-.72-.42-1.77-.17-.93.13-.79.59-1.08-1.33-2.29-3.54-1.06-.72-.6-.24-1.24-1-.57-.25-2.3.55-1.35-.09-.08-.9.59-1,.7-.48,1-.41.93-1,3.49-5.18.6-.46.82-.35,4-4,.73-.46.88-.19.49-.2.27-.52.92-3.85,0-3.16-.62-2.78-3.62-10-.19-1-.5-1.16-.69-1-.77-.58.33-.5-1.28-.93L360,214l-.25-.3-.13-.67-.09-.78-.13-.55-.72-.84-.78-.35-.84-.19-.86-.39-4.25-3.49-2.07-2.61-.63-.26-1.56-.24-.77-.55-1.36-1.64-2-1-3.18-5-.85-1.5-1.23-.53-7.95,1.48-1.22,1-.7.27-.67-.44-.47-.52-1.8-1.31-1-.28-1.34.08-1.22.59-.67,1.18-.34-.36-.37-.29-.39-.21-.41-.15,3-2,.94-.3,2.57.3.12.17,1.1,1.08.31.14,1.5-.37h3.53l5.58-1.9,2,.32,1.56,1.15,4.22,5.53.78.63.9.49,1,.29,1.08.11.93-.24,1.72-1.09.87-.2,1,.36,1.92,1.42.91.31.71.54-.2,1.27-1,2.3,1-.79.25-.28.55-2.42-.71-2.46L349.9,186.6l-4.7-7.36-.78-2.26-1.27-4.92-1-2.11,1.09-3,1.37-1.57,3.93-2.18L347,161.74l-5.42-2.18-1.18-1.26-.09-.31-.31-2-.33-.76-1-.53-.53-.53-.44-.33-1.81-.48-.34-.4-.83-1.23-.37-.4.12-.3.19-.78-.46-.17-.35-.39-.24-.5-.16-.5,0-1.53-.54-1.91-.76-1.81-.66-1.2-.63-.63-1.47-1.09-.47-.64-.14-.78.08-.6,0-.68-.53-1.06-1.25-1.26-10-6.35-9.12-2.85-2.15-1.45-1.87-.26-.87-.31-.75-.66-.78-1-.38,2.16-.27.4-.54.11.08-.17-.11-.38-.17-.37-.13-.19-.21-.05-.07.19,0,.26-.12.12-.43,0-.31-.14-.22-.31-.11-.55,1.06-.48.43-.38.36-.66-.36-.42-.26-.5-.17-.57-.11-.62-.25-.45-.07-.24V119h.91v-.56l-2.35-1.07-.68-.51-1.55-2-1-2.41-2.61-9.58.12-.7-.32-.28-.11-.68,0-1.72,0-.46.08-.35,0-.47-.34-.84L289.89,96l-.16-.22-.5-.37-.3-.89-.2-1-.23-.68-.4-.69-.72-2-.16-.64-.06-.22-.16-.13-.57-.25-.18-.15-.16-.48-.4-1.65L285.55,85l-.21-.56-.77-1.19-.19-.8.2-.68.31-.66.12-.77-.27-.79-.44-.41-.22-.49.35-1-1-1.12-.56-.85-.24-.91-.1-.52-.17-.48-.08-.51.2-.57.16-.33.13-.33.09-.35.06-.36L282.77,70l-1.08-2-.27-1.69v-.68l0-.43.23-1.27.07-.75-.16-5.24-.2-.94-.31-.32-.45-.27-.22-.37.37-.68v-.54L280,54l-.38-.24v-.53l.61-.5-.47-.53-.31-.57-.08-.56.25-.51V50l-3-2.19-1-.12L274,48.1l-.54-.32v-.49h.91L274,46.17l-.53-.67-.57-.29-.49-.07-.17.17-.2.39-.28.37-.41.13-.23-.28-.2-.56-.24-.56-1-.67-.46-1-.65-1.82-5.85-7.54-.6-1.18-2,.77-.26.16-.21.26-.15.62-.13,1.2-.11.38-.21.42L258,37.63l-.21.15-.73.33-.23.19-.46.51-.42.34-.21.22-.17.31-.2.63-.23.49-2.41,3.68-.32.37-.44.23-.64.15h-1.75l-.54.16-.22.18-.18.2,0,.4v.33l.06.3.11.23.15.19.72.41.17.16.07.28,0,.3.11.26.14.2.53.54.12.24.06.27,0,.3.14.53.73,2,.74,1.38.58.87.45.94.06.25v.73l0,.23.1.26,1,1.48.16.19.11.23.07.26v.31l-.07.34-.19.39-.44.62-.57.62-.92.62-.52.24-1.26.26-.58.48-.46.55-1.31.59-.27.26-.32.59-.16.41-.18.7-.22.41-.36.38-.88.55-.38,0-.28-.09-.16-.2-.41-.32-.24-.12-.63-.12-1.12.22-.48.22-3.94,3.58-2.39,3-.6.48-.18.25-.12.31v.55l.11.33.11.24.07.2,0,.19,0,.27-.12.64-.16.34-.26.28-.56.25-.78.59-1.6,2.57-1,.94-1.23.85-2,.92-.77.21-.64.5-2.19,3.29-.16.29L224,89l-.32.26-1.42.66-.24.26-.74,1.67-.19.24-.23.2-.72.13-.31-.07-1.68-.88-.26-.07-.23.15-.18.37-.08,2,0,.33-.58,1.21-.2,1.43.21-.05,1.08.49v.58l-.84-.34-.69.29-.68.44-.85.14V99h3.05l-.78.56-3.69,1.11-.9-.07-1.65-.55-.35-.28-.25-.33-.33-.27-.55-.18-2.79.85-.67.52-1.15,1.27,2.22,1.13.56.45-1.82,1-.48.05-.72-.28-.47-.58-.52-.4-.87.21-1,1.26-.87,2.09L199.32,111l.41,1.3-.38,1.46-.71,1.28-.56.73-.47.33-1,.39-.37.32-.31.67-.62,1.91-1.5,3.47-1.18,6-.93,2.65-.21.18-.48.55-.32.58.46.52.47,1.1.22.25.73.4,4.18,5.87,1,.93,1.52,3.17,1.06.52.13.15.09.78.32,1.08-.08.67-.19.63-.11.59.24,1.2.59,1,1.32,1.66,1.6,2.86,1,1,.92-.41.7-.15,1,.09.66-.36-.39-1.45.43-1.92.37-.79.69-.4-.07,1.53.1,2.57-.37,2.21-1.47.45v.53l.68.57,0,1.1-.24,1.28-.13,1.16.44.54.52.33.61.16.7.05.41.38,1.57,2.19,0-.86-.13-1,.09-.85,1.21-.67.45-.73.75-1.58,1.32-1.7.19-.62.14-.84.25-1,.14-1.05-.2-1,.59-.3.51.32.4.74.32.88-.41.76.27,1.2.61,1.11.6.49,2-.15.84-.52.35-1.14.34-.8.81-.66,1.59-.87,1.32-1.06.63-.91.17-1.14h.3l0,1.46-.68,1.34-1,1-.94.39.15.71,1.69,3.38.75,1.12-.85,2-.52.75-1.43.59-.61.71-.87,1.62-.38.39-.46.37-.31.43.09.59.7,1.62.21.2,1.35-.14.78-.31.77-.58-.21,1.22-1.53,1.6.5.84-.32.17-.41.28-.34.39-.14.46-.15.33-.33-.14-.58-.45-.72.08-4.08,1.56-1,.65-.71,1.3.52,2.07-.51,5.66.32,2.51,1.23,1.77,1.62.73,3.81.05-.56.78L221,193.57l-.39.78-.37.27-2.36,3.08L215,202.54l-.52,1.16-.11,1,.24,1L219.69,217l1.06,1.64,1.42,1.53,1.71,1.22,1.9.72,1.95.21.77-.39.31-1.09.49-.3,2.23-.54.64,0-.4.42-.4.27-.38.05-.38-.19-.38.44-.34.51-.13.68.25,1-1.22.71-.63.19-.73.06-.32-.09-.67-.33-.4,0-.33.22-.16.34,0,.3,0,.16-1.37.07-1.29-.61-1.09-1-.8-1.07-2.62-6.89-1-1.26-1-.08-1.6,1.28-.9.36-1.89.29-.81.45-.48.74,0,1.15.61,1.11,1.59,2.11,1.08,2.29,1.19,2V227l.76.39,1.67.31.41.18,2.85,2.31,1.48,1.61.19.32.2.43.1.64,0,.34-.12.22-1.65,1-.15.17-.06.26,0,.23.24.41,2.16,2.33.23.32,1.17,2.67.31,1,.29,1.3,0,.26v.3l.09.35.21.44,1.1,1.25.32.78.22.19.32.15,1.67.24,1.83,1.12.1.59.28.7.07.24,0,.28,0,1.19,0,.29-.17.24-.27.15-.6.13-.44.21-.9.68-.36.12-.42-.1-.27-.15-2.34-2.45-.23-.12-.53-.15-.58,0-1.73.54-.39,0-.31-.05-.2-.12-.18-.17-.74-.91-.21-.1-.52-.12-.8,0-.49.24-2.26,1.71-.17.08-.22.06-.18.08-.56.43-.26.3-.24.39-.36.8-.3.32-.29.2-.47.17-.15.24-.07.35.1.61.09.35.11.32,0,.26,0,.31-.23.38-.6.58-.16.19-.26.43-.08.25,0,.44,0,.36.53,1.67.45.5.76.35,1.37.1.2.1.13.15.31.6.21.22.25.16,1.23.17,1.06.36.26.15.06.06.46.82.21.24.21.18.76.39.07.19-.05.23-.28.6-.28.26-.27.15-.86.07-.27.07-.19.1-.16.17-.13.26-.21.68-.31.64,0,.29,0,.48,0,.91-.15.68-.15.37-.19.2-.85.5-.16.18-.12.27-.09.41-.12,1-.07.34-.1.24-.28.41-.37.32-1.21.76-.16.16-.13.23-.07.3,0,.41,0,.32.17.51.35.62.1.23.06.24v.28l-.06.24-.25.41v.21l.2.15.48,0,.32-.05.27-.12.17-.17.14-.2.23-.48.15-.17.17-.15,1.25-.71.85-.84.21-.12h.22l.22.06,1.1,1.27.15.3.07.28,0,.27-.22.35-.34.4-1.15,1.07-.42,1-.29.2L214,283l-.46.18-1.16.83-2,.8-.19.15-.31.35-.51.86-.06.29,0,.28v.28l.08.56.08.33.12.35.12.25.14.22.15.17,1.52,1,1.13,1.09,1.6,1.14,1.15,1.28.31.26,5.05.41.08.68-.11.26-.28.39-.9.6-.32.34-.22.48-.15.49v.12l.12.76.14.3.21.25,1.11.33.21.12.11.2v.23l-.25.31-.27.14-1.52.07-.41.15-.19.13-.13.14-.3.49-.14.17-.18.15-.6.35-.19.17-.14.2-.11.25-.22.83-.24.43L214,306.28l-.06.31.07.32.35.45.27.11h.26l.22-.06.22.08.08.21-.11.4-.18.27-.22.2-1.17.4-.39.23-.11.21,0,.29.32.42.67.45,0,.09,0,.11-.22.18-.14.2-.14.26-.19.61-.28,1.25,0,.17.06.19.33.15.41.36.78.85.13.28.09.34,0,.59-.06.37.07.53.09.41,1.29,2.42,1,1.42,1.3,1.19.08.11.1.18.06.24.06.54.17.31.27.33.95.84.37.17.47,0,.31-.06.46-.2,1.32-1,.44-.17.49-.07,4.35,3.9.46.59.11.23.59.69.12.2.19.42.12.2.2.16.28.1.81-.05.36,0,.3.15.81.8.83.54.52-.3-.32,1-1,1.52-.15.59L233,335l0,.53.18.48.28.61,0,.4-.15.53-.15.3-.29.44,0,.29.06.37.39,1,.33,1.25.14.39.08.34v.23l-.18.27-.7.29-.11.16,0,.23.24.36.23.46,0,.67.33,1.52,2.9-3.48L237,342l.42-.46,2.64-1.75.62-.87.54-1,.61-.78.84-.32.87-.08,1-.34.79-.73.2-1.33.65.64.11.8-.35.83-.72.66-1.9.67-.77.43-1.52,2.07-2.52,2.67-.27.41-.3.6-.25.66-.1.58-.16.64-.4.32-.45.2-.37.29-3.92,6.73-.9.93-.94.39-1.05.09-.87.27-.79.45-.78.65-3,4-1.64,1.6-1.42-.3-1,1,.67.71-.29.66-.62.64-.35.66,0,1.09-.17.65-.46.2-.86-.27.5.84.12,1.34,0,2.65.14.67.16.37.09.47-.08.9-.15.52-.76,1.45-.61-.48.61-1-.33-.49-1.25.87-1.73.26-2.94-.15-1.6.21-3.18,1-5.07.23-.86-.41L199.59,375,194,373.74l-3.56.12-5.74-1.51-.8.07-1.41.75-1,.18h-3.2l-.84.16-1.66.63-8.11.76-3.38,1.35v.44l.5.33.33.59.07.75-.28.76-.33.12-1.49-.12.3.6.76,1.15.15.44.1.51.53,1.91.27.68-.46.27-.28.38-.2.42-.24.41-3,3.36-.67.48-.91.29-2.58-.29-.44-.16-.91-.69-.49-.15h-4l-.22.44,0,1,.17,1,.17.54-.62,1.75-.3.59-.5,2.91.21,6.18-1.22,2.44L147,407l-.83,1-.34,1.23-.52.87-3.14,2.71-.61-.17-.45.33-.15.75.27,1-.7,1.15-.51,1.27-.7,1-1.28.42-3.3.22-1.11-.22V419l.23.72-.22.59-.07.64.69.9,1.47.54.77.47.48.92-.72-.34-1.83-.11-.81-.49-.16.23-.11.1-.3.19,0-.79-.12-.94-.19-.81-.26-.39-.34.09-.58.66-.32.25h-.91l-.88.7-.43,1-.15,1.21,0,1.41-.4,2.7-.41.94-.09.4-3.09,1.66-.33,0-.67,0-.51.34.3,1.39.06.87,0,.81-.15.35-.61.2-1.63,1.14-5.08,5.35-1.65.92h-1.58l-.24.26-.13.64-.31.68-.64,1-.92.56-.89-.44-1.38-1.33-1,0-1.71,1.1-1.52.53-2.83,1.64-1.3.49-.35.25-.84,1.43-.08.24-.17.32.07.73.24,1.31h.07l.15.18.12.34v.43l-.19.28-.32.13-.43.05.46,2.08,1.68.67,2.12-.24,1.82-.59.66-.33.8-.64.49-.93-.27-1.2v-1l.85-.71,1.15-.4.93-.06.74.31,1.49.93,1.8.31,2.67,1.28.87.62.71.87,1.27,2.08.31.66,0,.49,0,.56.16.86.19.48.22.34,1.34,1.49.45.37.4.15.15-.37.52-1.61,1.32-1.56.3-.25.54-.08.9.18.4-.1,1.27-1.91.58-1.27-.19-.58-.19-.2-.15-.93-.1-.29-.21-.07-.51.09-.22,0-.63-.39-.38-.1-.5,0,1.42-.65.39-.29.18-.51,0-.57.06-.5.43-.31.54-.37.29-.13.37,0-.66-.78-.27-.2V448l.56-.77-.08-.79,0-.6.88-.25.56.51.26,2.45.53.85,1.85-3.2.6-.61,1.89-.64.77-.44.82-1,.84-.36,2.2.35.45-.48.08-.38.53-1.29v-.31l-.24-.46-.07-.43.16-.44.36-.51.41-.44.31-.25V438l-.35-.89.49-.56.91-.31.9-.08.26-.12.24-.23.26-.18.32,0,.61,1.9h.26l.22-.15.14-.21v-.1l7.29-.45,1.74-.67,3.22-2,2-.22,3.78,1,.77.46.41,1,.47.84.95.07v-.45l-.24-.48,0-.47.29-.36.5-.19v-.43h-1.24l.34-.52-.87-.09-.37.09v-.47l1.54-.43-1-.77-2.52.42-.75-1.08,2.15.18.58-.18.39-.54.16-.73-.18-.71-.64-.43v-.42h.54l.45-.24.34-.49.19-.75.48.41.45,0,.88-.44-.47,1-.61.93-.33,1,.34,1.15.35.71.19.56.26.44.57.4.49.11,1.64-.11-.61,1.3.46,1.06,1,.72,1,.29-.17.64-.1.25.7.61.45.26.5.11.36-.16.6-.66.25-.17.44-.15,1.13-.64.42-.1.48.21,2.92,2.68,2.57,3.19,1.65,1.52.66-.73.69.09.8.41,1,.24.76-.08,1.79-.53.66-.34-.34-1.73.26-1.63.45-1.43.24-1.18.46-.66,1-.27,1-.57.32-1.55.71.6.7.23.54-.37.29-1.74.23-.36.34-.18.4-.08,0-.25.45-1.21v-.48l-2,.11-.76-.38-.32-1.15.31-1,.76-.58,1-.25,1-.07-.79-2.9,0-1.37.5-1.89.58-1.42.65-1.19.71-1,.78-.75-.39-.94-.58-2.39-.56-.63-.05-.33.05-.32.15-.16.26.06.14.16.1.14.12.08.19.28.57,1.66.55,1,.6.57.75.24,1,.05,3.22-1.43.67-1,.41-.92.5-.71,1.81-.45,1.49-.68.85-.15.5.11.84.38.46,0,.43-.19.74-.62.22-.14,1-.84.52-.16,1.68.48,1.06-.13,1.57-1,3.34-.78,1,0,7.63,2.86,9.29,7.15,1,1.74,0,2.62h.27l.63-1,.47-1.1-.11-.88-1.12-.37-.41-.67.25-1.49.55-1.48.52-.69,1.67-.54.94-.15,1.53,1,8.22.92,3.33,1.58.76.16,3.6-.08.82-.37-.09-1,1.54-1.91-.24-.09-.66-.41.32-1.19-.31-.54-.65-.14h-.73l-.82-.19-.52-.52-.94-1.72-.49.41-.5.32-.52.19-.58.08,1.54-2.51.4-.35.23.2.38.93.16.25.36.09,1.16-.09,1.71.48.15.38.07.72.2.48.48-.36.67-.8.78-.62.83-.46.89-.28,1-.05,2.8.52.81-.19,1.71-.91,1-.28,1,0,3,.57,1,.64.86.25h.09l.09-.28,1.45-2.66,1.45.27.19,0,.51-.4,1.14-.42,2-.38v-.43l-.29-.28-.33-.26.65-.22,2.84-.25,1-.36.14-.83-.39-1-3.46-3.89-1.08-1.32-.55-.09-.82-.52-.44-.23v-.43l5.65,3.18,1.67,2,.58.31,1.47.51,1,.91,1.44.77.29.65.31.44.72.44.81.32.58,0,.58-.55.16-.75-.11-1.36-.26-.43-1.56-1.31.66-.2,2.77-.23.81.43-.27.95-.81,1.2-.42,1.24.9,1,1.18-.15.61-1.33.4-1.68.57-1.24.84-.24,1.38,0,1.4.26.9.48-.45,1,.32.09.55-.31.21-.24.51.28.86.86.44.34v.43l-1.27.52-.59.46-.24.72.32.41,4,2.59,1,.34.85-.48.21-.72-.3-1.31.25-.61.41-.17.37.24.36.32.39.13,7.27-2.44h7.6l5.67-2,1.63.65,1.19-.64,1.46.15,9.22,3.38,1.88.13.82.27.77.76.41.24,1.56,0,.49.1,2,.76.87.14,1.65,0,1.65-2.34,1.52-1,.09-.27.44-.75.48-.64h.23l1.64-.74,9.62-2.06,1.79-.8,4.34-4.26,1.76-.59,6.34,2.09,1.53-.61-.47-2.72-.12-1.82.44-.82,2.28-3.31,1.73-1.6.91-.62.87-.23,2.91-.08.87-.36.34-.35.38-.51.44-.44.52-.19,1,.07.49,0,1.23-.94,3-1,1.21-1.45.91-2.25.36-2.7-.38-2.79-.73-1.88-.32-1.19L413,366.8l.24-.25h1.58l.29-.23.25-.34.22-.43.15-.45.42-2.33-1.09-.65-14.32,1.33-5.49,1.7-9.45-1.07-.49-.51-.63-1.17-.48-1.29-.09-.9-.95,0-.21.68.2,1,.35.84-1.81-.49h-3.82l-.41-.18-.33-.43-.3-.48-.34-.41.8-.51,1.63-.4,1.4-1.36.69,0,1.58.36.92-.12.45-.39-.05-.69-.56-1-.65-.45-7.11-1-2.88.79-.21.23-.15.51-.2.49-.36.23-2.84.48.65-.37.65-.25.64-.36.58-.71.28-.8.12-.72.24-.52,3.06-.8,1.22-.08.72.68.59-.58.58-.15.6,0,.66-.21.85-.81.06-.13.29,0h.59l0,0,1.22-.07,3.51.57,2-.65,2.53-1.58,2.26-2.06,1.22-2-.17-.31-.43-.27-1.2.1.68-.51.35-.35.15-.39v-1.66l.16-.61.45-.39-.36-.87-.16-.56-.09-.56.1-.12.19-.54.12-.69-.08-.6-.69-.71-.78.15-1.28,1.06-1.36.56-2.84.63-1.27,1.24-.5-1.13-.76-.37-.8-.11-.69-.34,1-.57,2-.82,1.08-.11.43.11,1,.42H389l.45-.23.71-.61.52-.14.23-.38.2-.86.13-.85,0-.39.33-.18L393,332.9l1.63-.81.68-.78.11-1.34.4.94,1.45,2,.7,1.46.41.36.83.13,3.11-.47,1.44-.6,2.28-1.55,2.54-2.36.53-1.14-.07-1.51-.21.09-.33.72-.46.45-1.61-.24-.69-.3-.57-.43,3.51-3.6.16-1.36-.89.54-7.39-.47-1.16-.55,1.13-.18,2.16-.73,1-.06,1.24.83.55.15.54-.07.93-.31.52-.07.9.23.16-.33,0-1.16-.21-.32-.47-.24-2-.47-.93-.68-1.58-1.5v-.48l1.21.24,2.21,1.78,1.3.43,3,3.89.5-.19.5-.8,3.1-3.44,1.08-1.66.3-.26.36-.48.13-.92.23-.59.66.51.75-.86,3.48-1.49.23-.38.09-1,.63-2,.17-1.3.79-2.49.25-1.4-.12-3.25.1-1.86.47-.8.48-.54,1.4-2.57,2-5.2.1-.68,0-.71,1.13-3.75.56-.7.18-.66Z"/></svg>