<svg id="Great_Britain" data-name="Great Britain" xmlns="http://www.w3.org/2000/svg" viewBox="0 0 500 500"><defs><style>.cls-1{fill:#878787;}</style></defs><title>Artboard 2united kingdom</title><path class="cls-1" d="M272.4,469.75l-.05,0-.09.13-.06.14-.06.08v.17l.06.22,0,.18-.07.21.1,0,.2-.22.23-.34,0-.43Zm3.93-9.07.4-.44v-.19l-.1-.09h-.09l-.36.21-.22,0-.31.19-.17.37.21.17.36-.09Zm3.83,16.78-.11-.14,0-.33-1-.53-.34-.33-.33,0-.14,0-.15.16-.26-.16-.49-.12-.18-.18-.25.23-.22.14-.23.07-.3,0-.42-.23-.32-.09-.26.09,0,.42.2.67.15.77-.16.73h.23l.46-.2.07-.05.23.1.28.31.19.07.18-.42.17-.32.18-.19h.15l.2.09.2.13.52.53.37.17h.69l.2.09.2.15H280l.06-.34v-.38l0-.28.09-.22.19-.17-.08-.09Zm-11.65-9.87L268,468l-.46.2-1,1-.3.06H266l-.14.15.1.49-.25,0-.18.17-.06.18.09.09h2.15l.18,0,.14.08h.15l.22-.14.18-.18,0-.1v-.13l.14-.53.1-.74.36-.62.09-.3-.37-.31Zm1.88,1,0,.24,0,.3,0,.13.18-.42-.06-.32Zm-52-165.74-.08.06-.12.07v.28l.54.17.46-.31.44-.44.48-.23.33.13.42.55.33.12.29-.11.27-.16.24,0,.2.49.29-1,.18-.27.25-.13.35-.09.31-.15.14-.3.32-.4,1.23-.82,0-.47.64-.61.77-.42.49-.56-.19-1,.61-.36.14-.14.13-.28.12-.35.14-.31.17-.13.31-.67.13-.12.2-.14,0-.32-.14-.34-.12-.22-.17-.12-.41-.05-.17-.11-.12-.26-.15-.63-.12-.28,0-.52.46-1.44.13-.55-.37-.2-.4.13-.42.23-.84.2-1.2.72-.79.75-.53,1-1,2.39-.31.42-.69.61-.47.6-.54.38-.49.11,0,.16,0,.26-.08.37-.2.56-.09.5v1.14l-.2.67-.75,1.07,0,.73-.16,0Zm-1.05.76-.06.19.15.26.17,0,.1.12.09-.22.16-.45-.21-.07ZM19.15,162.71l0,0v0h.06l0,0h0l0,0Zm170.52,10.44-.07.17,0,.12-.06.3.38.25.36-.14.35-.27.37-.15.38-.31-.13-.68-.31-.68-.18-.3,0-1.27.33-1.44.37-1.22.09-.63-.11-.23-.13-.17-.17-.11-.2-.05.32.57v.3l-.45-.28-.22,0-.25.26.18.44.12.22.15.2v.28l-.64.08-.36.33-.17.69-.18,2.66,0,.69Zm-2.1-10.43-.24-.4-.43-.56-1-.86-.08-.2-.55-.94-.21-.29-.52-.44-.2-.26-.19-.44-.08.16-.07.06-.17.07-.29-.13-.16.29-.13.51-.2.5-.15.16-.89.58-.15,0-.05.14,0,.49.11.28.19.24.12.34-.1.57.16.17.22.12.26,0,.27,0-.28.85-.3.42-.08.42.37.87.77.92.31.52v.57l.1.16.11.27.11.14v.28l-1.7-2.27-.3-.15-.27.82-.48.62-.22-.06.51-1.23-.38,0-.31.17-.3,0-.32-.35-.25-.39-.24-.21-1-.58-.15-.12-.21-.26-.06-.26,0-.38-.09-.34-.49-.33-.25-.37-.32-.32h-.46v.31l.26.36,0,.6-.24.61-.29.42.56.15.68.45.57.66.22.75-.66-.31-.4-.05-.18.2,0,.15-.21.08-.05.18,0,.16.2.3.06.14.06.09.38.47-.1.07-.09.13-.1.08v.25l.13.52-.3-.07-.4-.32-.2-.26-.14-.38-1.18-1.75-.21-.14-.23.12-.3.45-.16.53,0,.5.2.45.31.36h-1.37l.24.93.93.7.21,1.08.17.6.42.5.52.35,2.05.71.37-.32,0-.47-.25-.75,0-.47.21-.33.27-.11.25-.18.19-.54.21.32.08.37,0,.39-.11.37.29-.2.44-.56.33-.09-.11.46,0,.34.15.22.21.11-.06.16-.07.06-.16.06.44.25.18,0v.31l-.32.26H181l.48-.21.25-.05.25.05.15.13.29.36,1.4,1.18.29.54-.6-.14-.46-.42-.4-.49-.4-.36-.5-.09-.44.2-1,.74.07.29.08.14.1.1.11.18.07.18.11.39.06.14,1.06,1.42.37.12,1-.1-.14.34-.17.22-.21.15-.24.11.34.76.43.67.35-.28.38-.2.4-.1.42,0v.25l-.68.9-.25.23v.31l3.16-.83.39-.27-.33-.33v-.25l.22,0,.2.1.18.18.16.25.18-.2.13-.09.12.06.18.22,0,.62.09.83.13.74.28.32.33-.18.21-.41.19-.46.27-.33-.15-.31.22-.23.15-.29.24-.61-.27-.65-.1-.33-.1-.43.26.14.29.37.53.9,0,.23v.29l0,.24.12.11,1.91,0L194,180l.61-.34V180l-2.15,1.1-.25.25-.2.27-.41.79-.15.2-.07.18-.09.39-.06.11-.13.09v.28l.06.36-.6.89-.07.71.21.54.32.14,1.19-.24.41-.29.36-.37,1.31-1.85.17-.32.21-.21.47-.27.47-.38.21-.56,0-.91.16-.28.89-.09.33-.18.82-.69.45-.62.17-.34.09-.4-.1-.45v-.27l.37-1h-1.66L197,176h-.66l-.63.23-.64.64-.93,0L194,177l-.13.27-.2.2-.32,0-.15-.23-.15-.39-.21-.37-.33-.16-.56.06-.3,0-.21-.17-.5-.51-.45.06-.49.25-.61.07v-.28l.56-.27.26-.38-.09-.34-.51-.15-1.91.26.3-.28.75-.46.17-.37-.15-.3-.34-.3-.32-.43L188,172l.14-.25.24-.34.12-.39-.19-.43-.34-.11-.39.14-.37.27-.27.26.2-.38.59-.58.13-.31,0-.56.2-.94.06-.62,0-.57-.22-1.24-.2-2.9Zm4.25,3.33v-.67l.29-1.6-.15-.2-.15,0-.16.18-.15.25,0,.16v0l.1.11-.26.52-.06.55.14.44Zm3.12-68,.26-.17-.08-.06v-.22l0-.17-.13-.06h-.1v.25l-.17.12-.08.11-.05.13,0,.13,0,0Zm-3.61,76-.53.33.14.57.51.55.59.24.74-.3-.09-.64-.59-.59ZM307.72,31.46l-.08.07-.12.14-.15.11-.2,0,0-.18,0-.32,0-.3-.24-.13h-2.61v.34l.75,1.57.49.74.61.15-.08-.17,0-.15-.07-.14L305.8,33V32.7l.63,0,.65.36.62.19.55-.52.13-.51-.08-.39-.24-.26ZM189.77,202.26l0-.18-1.05-.34-.31-.22-.72.09-.88.27-.66.51-.05.79-.17.18h-.19l-.2-.16-.2-.32-.36.33-.36.17-.82.08.13.49.46.51.18.38-1.07.8.31.32.37.28.43.2,2.09.37.46.26.27.3.2.37.37.83.21.21.2-.08.19-.18.17-.1.48-.08,1.44-.75.21.25.09.33,0,.39-.13.41-.27.21-1.33.64-.79-.09-.22.09-.19.25-.1.29-.07.29-.32.83-.17.19-.3.08-.25.12-.21.3-.1.4.1.43.44.39.56,0,1.09-.28,1.31-.73.45-.12.14.2-.43.45-1,.73-1.54.33-.38.36-.35.18-1-.23-.41.18.12.09.08.08.09.07.18,0v.28l-.41.28-.31-.35-.3-.59-.36-.42-.44-.08-.56.11-.48.33-.2.57.13.74.33.62.4.45.61.36.47.16.28,0,.23-.12.14-.28.1-.28.13-.13h2.08l.24-.12.53-.38.23-.08.26.1.28.18.28.08.26-.22.38-.43,1.78-.92.75-.18.21-.13.16-.28.12-.28.11-.13.55-.2.28,0,.18.22,0,.37-.2.34-.24.27-.15.12.71.48.88-.21,2-1.37.39-.47.15-.44-.36-.19-.85.12-.4.18-.36.28v-.3l.73-.65.27-.47-.07-.53.17,0,.15,0,.14.08.14.17,0,.43.32.16.73,0,.28-.26-.17-.56-.32-.57-.2-.27.41.06.18.07.19.14.11-.8-.23-.16-.33.08-.17-.09-.11-.49-.25-.47-.3-.37-.26-.21h-.15l-.41.07-.22-.06-.19-.17-.5-.78-.16-.13-.22,0-.22,0-.34.23-.16-.15-.16-.24-.18-.14h-2.23l-.23-.08-.06-.2v-.26l-.07-.29-.91-2.19-.55-.82-.69-.06,0-.18Zm-10.92-16.81.72-.13.59-.32-.27-.21-.55-.14-.26-.23-.42.11-.77.45-.34.3.58.14ZM176,204.18l-.61.12.13.39.21.49.2.22L176,205l.11-.37h.26l.54.24.37-.13,1.17-1,.83-1.13.29,0,.21-.11.17-.17.17-.24.16-.31.31-.82.21-.4.15-.42-.22-.11-.61.11-.36.13-.67.59-.53.23-.72.55-.26.33-1,1.66Zm12.13,38.28.59-.33.51-.47.4-.61.14.3.1-.32.18-.23.23-.18.27-.13v-.24l-.13-.32-.07-.4v-.45l.06-.45-.36-.17-.15-.15-.11-.22,0-.24.1-.36.06-.33-.11-.15-.21-.13-.34-.32-.31-.4-.14-.37-.07-1.2-.31-2.21-.09-1.7-.08-.24-.14-.15-.23-.08-.2.25-.29.27-.33.21-.32.09-.28.17-.56.77-.8.47-.72.73L184,234l.17.78v.27l-.28-.08-.17-.29-.17-.71v-.25l.28-1.13.17-.26-.29-.13-.25.2-.27.29-1.22.55-.81.59-.17.32-.06.5,0,.63-.09.37-.18.25-.29.26.75.54-1,1.5-.24.65.12.07.09.15.11.07-.29.71,0,.64.28.38.63-.11.29-.32.71-1.07.72-.5.31-.65.53-1.38.46-.39.63-.1.64.11.48.24-1,1-.57.73-.09.71.19,0,.89.44.28.34.48,1.39-1.21.7-.49.56-.13.9.31.88.53.19.57-.22.57-.46.21-.24.1-.15.16-.84.29-.15.95.15ZM248.75,108.6l.23,0,.22.18.1.05.27-.25.15.06.12.26-.05.19-.09.19,0,.24.46.88.2.21.26.19.22.24.09.38.43,1.11.11.2h2.09l1.11-.33.55-.85-.64-.07-1.3.64-.67,0,.26-.58.48-.37.53-.19.43-.06v-.27l-.32-.44-.19-.13-.27,0v-.32l.32-.26-1.18-1.84-.44-.25-.49-.17-.77-.77-.34-.22h-.28l-1,.36-.52.52,0,.16-.34.85.07.44Zm-62.07,115-.17.14-.14.23-.47.61-.2.49-.12.53-.17.46-.35.28.46.25.62,0,.61-.18.45-.34-.06-.71.26-.8.72-1.25-.1-.48h-.25l-.35.17-.37.05.06.26,0,.11.07.15-.18.16Zm13.59-8.32.13-.48-.3.15-.51-.1-.28.22-.31.8.14.64.42.27.51-.32-.14-.52.12-.34ZM186.8,256.47v.19l0,.32.16-.26.21-.44.14-.49-.05-.42-.23-.11-1.15-.17-.3,0-.26.12-.25.17-.25.23.51.08.55-.06.56.06.52.44-.08.18Zm11.76-37.54L199,220l.23.25.21-1.25.22-.59.17-.57,0-.57-.12.22-.11,0-.11-.1-.12-.14-.28.31-.25,1ZM185.5,186.32l-.49-.56-1.17-.75-.87.12-.7.57-1.34,1.56.42.22.7.74.34.16.32.22.37,1,.4.22.85-.08.62-.38.43-.85.3-1.49h-.6v-.3Zm79.67-91.43.13-.27.06-.59.39.12.46-.47.83-1.17.16.24.18,0,.43-.26v.3l-.06.14-.11.45,1-1.18.38,0,0,1,.23-.14.16-.25.44-1,.24-.24.18-.48.43-.22,1.06-.05-.06-.42-.21-.93-.14-.12-.31.37-.48.76-.33.11h-.36l-.34.06-.59.66-.73.15-.26.25-.07-.16-.07-.06-.17-.05.56-.7.33-.3.33-.22V89.8l-.56,0-.9.55h-.54l.33.5.13.13-.1.61-.16.15h-.22l-.27.14-.19.27-.37.67-.2.29-.29.22-.21.1-.15.23-.11.62v.5Zm13.42-41.24.53.24.33-.5,0-.8-.09-.38-.26-.08-.52.08-.35.24-.15.21,0,.33.15.27ZM262,95.52l.34.08.29.25.2.42.08.58.17.17.39-.05.66-.25v-.3l-.37,0-.18-.35,0-.57v-.69l.1-.22.5-.76.14-.37-.14-.4-.21-.21-.26-.05-.29.07v-.3h.17v-.33l-.37,0-.23.25-.09.45.06.56,0,.29.12.75,0,.15-.25.08-.22.14-.23,0L262,94.6Zm4.82,3,.33.49,0,1,.48-.3,1-.15.4-.44-.62-.4-.14-.26.14-.5.06-.05h.06l0-.05V97.6l-.52.31-.3.09-.27-.07-.26-.39.05-.39.24-.24.29.08-.19-.22-.28-.07-.62,0,.07-.16.07-.13v-.27l-.32,0-.89.31.23.17.69.76.15.26-.1.5-.28.16-.35,0-.33.15-.46.83.35.33.48-.17-.06-.69.39-.32Zm22.6-19.41.32-.07.07,0h.05l0-.06v-.21h-.44l-.5.2-.41.45-.17.74.13.65.32-.12.4-.43.37-.24V79.6h-.31l.05-.35Zm5.61-23-.11.51-.29.4,0,.19.31-.28.35-.57.06-.27,0-.27,0,.12,0,.54-.09.47,0,.32h.12l.15-.31.2-.7.17-.46.12-.46L296,55h-.16l-.18.25,0-.22.15-.6,0-.41h-.12l-.14.19-.4.11,0,.2.14.22.05.27-.21.45Zm-7.09-7.62.19.26.46.08.18.08,0,.2,0,.23.13.16.21.07.49-.07.68-.46.32-.11.14.4.11.45.26-.06.27-.42.11-.61.1-.36.55.94.28.23-.29.15-.67.18-.26.26-.12.3,0,.21.14.41.07,0,.48.55,0,.1.87.62.21,0,.18-.34.07-.5.09-.46.27-.26.12.61.2-.11.16-.59,0-.83.29,0,.2.16.44.46.15-.64-.29-.67-.3-.54-.35-.39-.43-.22v-.34l.73.19.47.47.32.76.31,1,.62-1.42.33-.47.43,0v.3l-.23.23-.2.36-.18.45L296,50.71l-.07.37.07.16.25,0,.09-.15.33-.25h.23l-.35.94-.07.22,0,.17.1.44.13,0,.14,0,.12.18L297,54l-.23.89-.33.88-.34,2.13-.34.75-.24.7.13.8h-.6v.3l.19.14.4.5v.25l-.26,0-.25.08-.22.22-.18.36.13.7-.4.57.27.55.36.2.7-.18.34.31v.3l-.26.4,0,.34.18.05.17-.46.38.69.08.22.22-.21.09-.34-.06-.37-.24-.32.2-.6.06-.52-.07-.49-.18-.52.06.09.09.21.31-.62.19-.84,0-.94-.1-.92.71.48.32,0,.19-.5L298.1,58l-.1-.61.35.15.42-.08.34-.34.12-.64H299l-.41-.43-.21-.59.38-.5-.45-.26-.18,0v-.27l.24,0,.16-.08.12-.21.1-.37-.32-.33h.4l.24-.31.23-.23.37.26v-.31h-.17v-.34h.62V52.2l-.77-.64.32-.78-.25-.22-.48.21-.36.51.12-.67.65-1.51-.29.1-.22.21-.41.61.19-.64.12-.32.15-.3H298V48.5l.36-.25.18-.06h.22v-.28l-.17-.16-.12-.25,0-.28.14-.25.22,0,.18.32.22.6.38.11.4-.18.89-.89-.14-.11-.3-.05-.17-.12-.11,0-.17.24-.11-.08-.06-.19,0-.27v-.23l.08-.1.25-.15,1.07-1.11-.58-.46L299.52,44l-.46-.47.34-.14,1.74-.19.2-.21.11-.45.05-.47,0-.25-.14-.49h-.29l-.29.21-.13.13-.22.44-.17.22-.14-.07,0-.37.13-.34,1.58-1.9.32-.78h-.44l-.42.27-.34.52-.2.74,0-.35,0-.15-.08-.15-.2.32-.1.36-.07.34-.09.27-.18.19-.11-.07-.08,0-.09.47h-.17l0-.87-.27-.19-.76.45v-.34l.23-.2.09-.11-.53.26-.27.07-.08-.1.23-.16.22-.23.18-.31.23-.21.49.28.28-.24-.29-.28,0-.1.11-.2-.1-.52-.17-.35-.22-.22L298.6,38l.14-.5-.29-.47-.41-.25-.21.12-.09.3-.46.81-.2.27,0-.76-.22-.12-.29.25-.24.34.32.42,1.06.82-1.42.26-.61.47,0,.82-.23.21-.26.12-.27,0-.29,0v-.34l.41-.39.53-1.58.43-.19v-.34l-.07-.27.06-.28.31-.69-.13-.28L296,37l-.19.19-.2.11-.21,0,.46-1.52-.17,0-.09-.08-.07-.1-.12-.09.25,0,.1-.08.11-.22h-.46l.27-.61.33-.35.18-.49-.17-1,.22-.07.12-.18,0-.29-.07-.4.1-.31v-.37l-.22-.9-.51,1,0,.46.39.44-.09.15-.07.19-.54-.48-.61-.34-.61-.09-.55.27.07.21,0,.17-.05.22-.2.33.09.07.23.27-.68.53-.25.06-.11.16-.31.79-.19.32.36.09.26.33.2.35.16.16h.57l.34.09.25.2-.74.45-.85-.3-.74-.77-.28-1-.3-.49-.29,0-.26.35-.21.44-.05.27v.65l-.12.32-.12.06-.55-.06-.2.25-.2.53-.12.53.06.25.77,0,.32-.17.21-.53.36.41.34,0,.37-.12h.45l-.29.31-.13.42.08.37.35.15.23-.21.23-.48.3-.88.17,1.44,0,.78-.06.56.22.25.3.09h.7v.31l-.24.33-.08.43.08.43.23.35.25.06.24-.16.43-.51.14,1,.53.34.66.14.54.39-1.11,0-.4.14.28.51-.33,0-.14-.06-.16-.19-.46,1.21.63.64-.31.41-.31.52-.23-1-.49-.6-.59-.2-.52.24.09.46.06.18h-.46l.07.2.12.47.11.25-.09.11-.25.18-.12,0,0-1.34-.3-.35-1.06.13v.31h.17v.31l-.77-.31.17.62-.38,0-.27-.27-.25-.38-.33-.29-.37,0-.43.13-.42.24-.33.29-.32.4-.09.26.25.88Zm-27.81,62.91.63-.41,0-.52-.52-.25-1-.08-1,.2-.86.39v.27h1.53v.32l-.26.19-.28.06-.28-.06-.26-.19.69,1.1.24.65-.3.31v.32l1.07,1.15.5-.33.15-.44-.1-.58-.24-.73.28-.25,0-.25-.12-.29,0-.39ZM300.37,54l.64.5.23-.11.16-1,.16-.38.15-.48.05-.64v-.31l-.28.25h-.16l-.07-.39,0-.44-.1-.25-.16.08-.07.37-.18.11-.41-.2-.43.06,0,.48.37.56-.06,1.45ZM256.69,89.11l.19,0,.21.14.21.34.07.23,0,.24.33.92.11.23.15.16.23.14.18,0,.16-.12.17-.39.32.33-.21-.47-.11-.16V90.4l.61.08.6.35,1.1,1.09-.16.28-.09.26,0,.3,0,.39.51-.74.27-.22H262v-.27l-.2-.3-.22-.07-.24,0-.26-.17-.12-.24L260.53,90l-.31-.18-1.75-.55v-.3l.15,0,.46,0-.09-.38v-.21l.24-.33.06,0h.06l0,0v-.19l-.41-.31-.34.26-.62.92-.36.16-.71-.17h-.47l.08.42ZM192,235.61l.15-.61.22-1.53.16-.3.37-.2.55-.7.24.09.49-1.6L196,227l.89-2.23.45-.46.34-.6.35-.35,0-.49-.06-.55-.08-.38-.48-.23-.68.46-1.14,1.16-1.7,1.7-.68.21-.46.35-.69.85-.63,1-.27.91.33.64.76,0,.82-.24.53,0-.73.63-1.75.34-.66.55-.36.4-.38.21-.34.27-.22.62,0,.7.2,1.91.35,1,.8.53.87.06ZM251,105l.76.29V105l.54-.54.19-.4-.12-.56,0-.07,0-.34-.08-.27-.21-.18.19-.15.19,0,.2.06.21.14v-.29l-.14-.29,0-.25.16-.2.24-.15.07.32.1.3.12.29.17.27v.27l-.36.6-.27.81-.07.93.24,1,.56.55,1.34-.23.55.24.11-.48.27-.15.69.06-.32-.62.29.05.23.1.2,0,.23-.18.41.11.36-.37.31-.43.28-.05.17.27.81,1.75.24.36.26.24,1.69.72.35,0,.35-.28.51-1,.29-.22.86-.2.43-.23.18-.3v-.65l0-.5-.14-.34-.32-.18-.37.07-.75.51-.41,0,.14.29.31.92-.43.11-.38-.13-.32-.36-.25-.57.34-.35.9-.67.15-.43-.12-.27-.21-.09-.51,0-.41.16-.37.32-.38.23-.46-.1,0-.21.06-.51,0-.2-.38.31-.25-.24-.24-.41-.35-.23-.31.16-.3.27-.31.09-.84-.79-.38.31-.35.53-.34.28-.84-.11-.43-.18-.34-.3.4-.13.51-.46.44-.64.19-.69.21.09,1.32-.54-.1-.08-.11-.12-.1-.09.07-.17.07-.06.17-.07L257,99.25l-.42-.49.15,0,.32-.27-.21-.16-.35-.52-.23-.18-.26,0-.28.13-.29,0-.78-.8-.6-.22L253,96.71l-1.08.21-1,.7-.59,1.29.14,2-.15.29-.35,1.3.3,1.44Zm52.7-77,.35.27.35.09.67-.09.32,0,.44,0,.18.11.17.15.19.1.22,0,.33-.39-.16-.45-.32-.51-.16-.56.16-.26.92-1V25.2l-.14-.13-.14-.09-.15-.06.44,0v-.34l-.15-.55.28-.32.45-.27.34-.39-.18,0-.43-.27.43-.26.18,0-.07-.56-.18-.37-.24-.22-.29-.13-.32,0L307,21l-.15-.22-.21.35-.48,1.68-.2.24-.32.26-.27.13-.06-.13.22-.38.25-.25.22-.3.1-.51-.09-.62-.22-.35h-.25l-.22.47v.43l-.3.53-.42.45-.35.19v.34l.28.36v.69l-.22.62-.37.17.15.55.06.65-.12.36-.39-.32.1.33,0,.39,0,.43ZM256.14,97l.58.4.65.2.71.05.66-.26,0-.6-.07-.69.38-.54.08,0h.07l0-.06V95.2l-.33-.19h-.29l-.92.22h-.16l-.14,0-.16-.14-.08-.19,0-.18,0-.09-.56,0-.63.32-.4.59.13.8ZM299.46,36.3l.52.56.75.17v-.28l-.24-.3,0-.27.13-.18.08,0,.11.36.27.11.55,0,.53.24.18-.11.07-.56,0-.53-.1-.39-.33-.78.43-.12.26-.44v-.56l-.38-.46.12-.09v0l0-.15-.35,0-.35-.13-.27-.28-.11-.51.31.25.32.07.31-.1.29-.23-.51-1.27-.31-.57-.26-.34.44.06.38.32.72.86.17-.47.13-.49-.39-.89,0-.43.24-.55-.1-.08-.09-.13-.12-.07v-.34L303,27l0-.19v-.62l-1-.09-.46.16-.26.52-.24-.79h-.27l-.27.44-.22.5-.1.34-.05.47,0,.41.13.18.05.13-.21.67-.07.3.07.62.31,1.21.08.21-.25.12-.35-.32-.25-.54.07-.54V29.9l-.74.15-.2,1,.27,4.28ZM303,42.48l-.25.12-.23.31-.11.34,0,.23-.12.17-.11.25.42.27.88-.28.61-.7.38-.57.3-.37.15-.26,0-.2-.14,0-.07.07-.23.08-.79.08-.15.23-.21.16ZM183.29,454.27l-.12.07v.18l.18.19.11,0,0-.19-.08-.14Zm22.24-214.1L205,241l-.31.86-.11,1.27.2,1,.42.79.55.78-.1.19,0,.12,0,.1-.11.1v.26l.09.3.21,1.05v.52l.92.81.93.59,1,.37,1.2.13,1-.2.58-.25.31-.37-.06-.65-.23-.61,0-.52.5-.36-.92-.41-.18-.15-.12-.52.21-.14h.32l.22-.12-.05-.89-1-1,.26-.53-.45-2-.31-.84-.46-.74-.4-.38-1.45-.73-.19,0-.58,0,0,.13.06.3,0,.13-.76.14Zm-7.28-20.12-.17-.3-.76.6-.36.38-.24.66.54-.07.69-.23.46-.42ZM345.4,400.75l-.22-.12-2.77-1-.3.08L342,400l-.29,1,.21.44.32.48.39.4.44.17,2.61.23.56-.24.13-.43-.21-.52-.47-.52Zm18.94-40.38,0-1.31,0-.73-.14-.57.14-.78L364,355.9l-.41-1.07-.42-1.74-.53-.91-.65-.74-5.55-4.27-2.71-1.39-6.9-1.67v.25l.29,0,.28,0,.26.1.24.17-1,.47-1.06-.27-1-.49-.89-.24H342l-.48-.11-.5-.21-.49-.12-.45.17.17.28-1.08,0-1.21.24-1.1.52-.77.81-.31.63-.35.9-.29,1-.12.9-.29.49-.59.66-.45.69.12.58v.25l-.33-.17-.63-.9-.36-.21-.89-.09-.47.06-.4.3-.54-.67-1.15-1.79-.53-.37-.3-.12-.63-.52-.29-.12-1.16.28-.68,0,0-.45.3-.52.35-.24.53-.21.47-.51,1.76-2.61.31-.23.41-.18,2-2,.37-.23.44-.1.25-.1.14-.26.47-1.94v-1.59l-.31-1.4-1.83-5-.09-.51-.25-.58-.35-.53-.39-.29.17-.25-.64-.47-.2-.06-.13-.15-.07-.34,0-.39-.07-.28-.37-.43-.39-.18-.42-.1-.43-.2-2.14-1.76-1-1.32-.32-.13-.79-.12-.39-.28-.69-.83-1-.52-1.6-2.51-.43-.76-.62-.27-4,.75-.62.49-.35.13-.34-.22-.24-.26-.91-.66-.52-.14-.68,0-.62.3-.34.59-.17-.18-.19-.15-.2-.11L309,317l1.52-1,.48-.15,1.3.15.06.09.55.54.16.07.76-.18h1.78l2.81-1,1,.16.78.58,2.13,2.79.39.32.45.25.52.15.54.06.47-.12.87-.55.44-.1.48.18,1,.71.46.16.36.27-.1.64-.49,1.16.49-.4.13-.14.28-1.22-.36-1.24-4-6-2.37-3.71-.39-1.14-.64-2.48-.49-1.06.55-1.51.69-.79,2-1.1-.81-.73-2.74-1.1-.59-.64,0-.15-.16-1-.17-.38-.51-.26-.27-.27-.22-.17-.91-.24-.17-.2-.42-.62-.19-.2.06-.15.09-.39-.23-.09-.18-.19-.12-.25-.08-.25v-.77l-.27-1-.38-.91-.33-.61-.31-.32-.74-.55-.23-.32-.07-.39,0-.31,0-.34-.27-.53-.63-.64-5-3.2-4.6-1.44-1.08-.73-.94-.13-.44-.16-.38-.33-.39-.52-.19,1.09-.13.2-.27.06,0-.09-.06-.19-.09-.18-.06-.09-.11,0,0,.1,0,.13-.06.06-.22,0-.16-.07-.11-.16-.06-.28.53-.24L299,281l.18-.33-.18-.21-.13-.25-.09-.29-.06-.31-.13-.23,0-.12v-.18h.46v-.28l-1.18-.54-.34-.26-.78-1-.48-1.21L295,270.95l.06-.35-.16-.14-.06-.34,0-.87V269l0-.18,0-.23-.17-.42-.63-.66-.08-.11-.25-.18-.15-.45-.1-.49-.12-.35-.2-.35-.37-1-.08-.32,0-.11-.08-.07-.29-.13-.09-.08-.08-.24-.2-.83-.08-.84-.1-.28-.39-.6-.09-.4.1-.34.15-.33.06-.39-.14-.4-.22-.21-.11-.24.18-.51-.51-.57-.28-.43-.12-.46-.05-.26-.09-.24,0-.26.1-.29.08-.17.06-.17,0-.18,0-.18-.07-.7-.55-1-.14-.85v-.35l0-.21.12-.64,0-.38-.08-2.64-.1-.47-.16-.16-.22-.14-.11-.19.18-.34v-.27l-.43-.41-.19-.12v-.27l.31-.25-.23-.27-.16-.29,0-.28.12-.26v-.27l-1.53-1.1-.48-.06-.79.22-.27-.16V243h.46l-.2-.56-.27-.34-.29-.14-.25,0-.08.09-.1.2-.14.19-.21.07-.11-.14-.1-.28-.12-.28-.48-.34-.23-.49-.33-.92-2.95-3.8-.3-.6L278.75,233l-.43-.49-.48-.2-.18-.12-.05-.3,0-.37-.12-.33-.2-.1-3.6-.71-1-.52-1.42-1.2-.86-.28-.91-.65-.33-.35-.15.18-.23.2-.09.16-.34-.24-.57.11-.31-.11.12-.21.2-.65-.41-.26-.64-.89-.42-.19-3.75-.27-.46.2-.66.79-.41.37.1.16.07.18.12.48-.55.07-.39.49-.37.62-.52.45-1.69.75-1.4.14-.28,0-.14-.15-.4-.57-.16-.12-4.06-.34-.38-.33-.24-.32-.22,0-.39.19h-1.06l-3.84-1.09h-.5l-1.26.28-.27-.1-.15-.24-.11-.27-.16-.21-.16,0-.43.09-.19-.07-.11-.3-.77-1.37-.19-.1-.19-.31-1.34-.95v-.25l.46,0,.31.21.47.6.82.8.79.56.86.29,2,0,3.62,1.07.88.06.87-.15.88-.41.78-.53.45-.21,1.56-.08.33-.23.25-.59.31-1.35.24-.43.45-.16.37-.21,1.24-1.43,1.19-.85.17-.37.23-.29.54-.15,1.07,0,1.38.73.55.09.5-.14,1.42-1,1.08-.25.53-.25.41-.8,1.19-1.17v-.25l-.81-.72-.18-.11-.76-.71-.49-.25-2-.16-.15-.28-.16-.09-.2,0-.25-.12,0-.15-.1-.55-.09-.12h-.55l.36-.41.3-.6.17-.72,0-.77-.27-.5-.79-.07-.4-.39-.39-.25-.54.1-.48.31-.21.38-.23.27-4.46,2.27L254,213l-.94.57-.47.13h-.95l-.39-.15-.27-.38,1,.32.94-.4,2.33-2.39.77-.6.87-.4,6.61-1,.28.09.18.16.16.11.22-.1.43-1.07.2-.31.85-.42.46-.33.38-.85,2.09-1.51.35-.44.23-.7.4-.43.12-.28v-.24l-.14-.56v-.32l.22-.6.31-.41.27-.49.25-1.78.32-.67.4-.47.38-.34L273,196l.36-.44.54-1,.6-.86.77-.61.33-.46.14-.74.09-.21.41-.54.11-.23v-.5l-.11-.3-.13-.25-.06-.35.29-1.47.69-1.48,2-3.25.37-.78-.07-.35-.43-.33-.06-.77.12-.84.53-2.14,1.44-3.83.57-.9,2.34-2.2.05-.57.39-.74.91-1.26.52-.45.15-.26-.28-.12-.21-.17,0-.35.15-.31.32,0-.63-.73-.24-.46.09-.52v-.26l-.35-.66-.12-.73-.08-.76-.2-.72-1.9-2.14-.25-.56-.16-.18h-.27l-.37.33-.27,0-.19-.23-.2-.39-.13-.36,0-.16-2.47-.08-.36.08-1.34,1-.58.13-.45-.15-1-.62-.47-.09-.19.08-.2.17-.16.22-.07.24-.12.2-.27-.07-.43-.27-.2.07-.38.37-.25.14-.24-.06-.2-.19-.17-.07-.16.32-1.05-.54-.4,0-.29.19-.16.32-.18.06-.36-.57-.7,0-1.91-.67-.76.37-.24-.26-.18,0-.18.14-.25.09-.22-.09-.23-.41-.15-.1h-3.53l-.37.14-1.38,1-.91.29-1,0-2.94-1-1.67-1.11-2.78-.12-.27.08-.59.37-.29.11-.28-.06-.22-.12-.2,0-.22.43.12.48-.21.53-.36.45-.32.25-.43.09-.44-.06-.82-.29.46,1.11-.34.08-.3.13-.29,0-.29-.25.18-.2.11-.2.17-.46-1.33.31-3.41,2.56-.69.21-2.15-.21-2.05.33-.62,0,.84.76.26.46-.4.2-.32.09-.35.23-.32.32-.42.62L233,166l-.51,0,0,.11-.17.27-.36.46-.47.24-.4,0-.81-.21.26-.33.25-.42.41-1-.28-.21-.3-.07-.64,0v-.31h1.22l.52.16.15-.06-.21-.39.38-.5.43-.25,1-.1-.09-.09-.08-.11-.07-.15-.07-.21.78-1.26.66-.52.65-.81.46-.87-.11-.53-.34.06-1,.62-.28.31-.36.29h-.49L232,160l-.29-.38-.26-.11-.18,0-1,.5-.86.9-1,.63-.27.38-.23.41-.31.42-.33.33-.67.29-.3.24-.11,0,.18-.64.18-.42.2-.27,1.45-1.48.32-.13.34-.28.15-.58.16-.48h.38l.42.08,1.46-.41.57,0,.3-.13,1.73-1.57.79-.29.59.59-.27.65.11.41.35.17.44-.09.29-.3.59-.91.51-.41,3-4,.18-.37.06-.68-.15-.41-.28,0-.34.39-.63.93-.8.76-.83.38-.73-.21.3-.54-.4-.53-.72-.17-1.26,1-.79-.21-1.43-1,.13.7h-.36l-.53-.38-.38-.47-.39-.38-.47.09-.9.44-.86-.19-.71-.6-1.18-1.78.45.16.43.39.72,1,.49.35,1.8-.48.62.18,1.28.67.63,0,.18-.16.39-.54.21-.16h.34l.67.26h.35l-.1-.47.11-.44.46-.78-.47-.82-.15-.19-.34-.17-.7,0-.33-.26-.19-.37-.06-.34.1-.17.64.39.58.07.31.17-.15.25.1.11.37.21,0-.44.08-.35.15-.25.22-.13,1.43-1,.71-.17.56-.31.2-.21.12-.31.22-.86.2-.45.41-.42,1.66-.85,4.91-4.07.94-1.06.42-.7.18-.7.2-.4,1.18-1.21.79-.49,2-.7.94-.54.84-1,1.18-1.73,1-1.92.2-1.51.23-.07.2-.24.1-.38-.08-.5-.17-.23-.21.05-.25.15-.28,0-.47-.29-.24-.51v-.69l.25-.84.16-.28.59-.56.2-.36.34-.77.25-.36.11-.64.43-.88.14-.78-.75-.34-1.47.3h-.74l-1.16-.85-.9.09-1.47.46h-.69l-.16-.16-.08-.38-.06-.4-.09-.23-.37-.07-.34.22L249,118l.24.59.36.44.41.3.38.17-.3.86h-.61l-1.24-.57-1.28.46-.62.05-.54-.51.09-.06.22-.23-.51-.25-.72,0-1.39.27-.86.41L241,121.09l-1,.46-1.91.32-1.91-.32-.5.1-.12-.11-.41-.83,0-.1,0,0-.2.05-.2.14-.29.72-.19.3L234,122h-.2l-.47-.15h-.85l-.25.13-.17.56-.19.13-.31-.06-.42-.22-.25,0-.15.16-.1.24-.13.26-.24.18.32.32-.51-.14-.67-.64-.44-.15-.23,0-.6.29-.86.61-.07.1-.91,1-.09.05-.09.07V125l0,.2,0,.17-.61.9-.38.38-.39.17.4-.93.29-.88.33-.78.52-.62,0-.43,0,0,0-.15v-.32l-1.1-.82-.94-.42-1-.19-.55.25-.23.61-.13.77-.25.74-.41.41-.45.22-.36.3-.15.66-.21.12-1.33,1.5-.42.07.21-.58.43-.8.4-1.07.79-.78.26-.35L221,123l.09-.39,0-.36-.23-.16-.29-.09-.63-.49-.37-.19-.69-.93-.39-.34.11.72-.12.3-.19.27-.1.62v.46l0,.43-.18.39-.41.34.14-.32.1-.32.06-.37,0-.48-.06,0-.13-.58-.12-.67v-.23l-.4-.52-.53-.35-2.88-.65-.38.45-.15.73-.08.88-.17.88h.15l-.26.66-.33.37-1.19.71-.18.2,0,.37v.77l2.46,2.17-.67-.47-.55-.26-1.24.74.21.22.09.07.15,0V128h-.29v.32l.25,0,.24,0,.22-.12.2-.22.15.32-.07.34.21.28.62.51-.93,0-1.3-.9-.14,0-.3-.18-.17,0-.09.1v.25l0,.28,0,.22-.21.45-.15.42v.43l.22.45h-.44l0,.31.07.32.17.53.08.08.42.65,0,.16.23.23.66,1,.33.23.24.09.46.4.23.09.24-.08.25-.38.18-.12h.44l1.42.29-.3.22-.64.12-.3.25.61.47.26.26.22.45-1.54-1.18-.34-.1-1.12.1-.3-.14-.68-.6-.4-.13-.2.08-.31.2-.3.28-.17.31-.47-.39-.49-.07-.47.17-.89.6-.38.1-.38-.1-.94-.66-.52-.23-.36.12,0,.71,1,1.6.22.16h.29l0,.2-.07.5,0,.2.21.07.2.12.18.17.17.21-.17.26.31.25.35.08.73,0v.31l-.3.18-.64.15-.29.22.46.31v.29H207l.15.3.11.35,0,.38-.11.41h.14l-.54.69-.49-.06-.48-.16-.49.41-.53-1.11-.85-.24-.42.57.74,1.35V144l-.12.14-.06.13,0,.14-.08.18.92-.06.44.15.33.48-.1.11v0l0,.12.57.12.92,1.18.66.17.32.3.72.15.27.25.2.52,0,.49-.18.31h-.44v.31l.54.15,2.24,2,.12.28.06.3.13.41.16.38.13.22-.46-.3-.64-1.16-.95-.44-.82-.81-.28-.18-.22-.08-.51-.37-.28-.09-.24,0-.43.22-.25,0-.49-.27-.63-.93-.43-.27-.12.51-.16,0-.17-.19-.14,0-.1.28V149l.05.1,0,.23.18.18,1.44.65,1,1,.66.3.25.26.33.59-1.62-.64-.75-.47-.63-.75-.31-.26-1-.45h-.29l-.21.44-.27,1.2-.27.36.14.28-.72-.09-.91-.49-.63-.85.13-1.15h-.82l-.25-.17-.32-.41-.18.33-.52.7-.21.4.06.16.07.08.17,0-.24.42.29.48.86.82.31.65,0,.54-.09.59.14.82-.41-.27-.22-.06h-.29l.17.51.1.21.17.2h-.37l-.34-.17-.29-.32-.22-.44-.17-.61-.15-.85-.07-.83.08-.57-.55-.36-.58-.19h-.59l-.57.22-.29.25-.24.35-.17.41-.08.45,0,.53.19.85-.06.34,0,.49-.11,1.08.07.45,1.86.44.26.16.22.27.15.28.16.21.25.07-.17.46-.23.32-.28,0-.66-.74-.43,0-.83.47v.31l.13.38-.46.51-.13.5.12.52.28.17.35,0,.34.14.41.67.28.82.39.65.75.14-.19.42-.12.13.76.9.62-.55,1-.14,1,.24.68.58-.09.27-.52,0-.93-.16-1.61.28.07.2,0,.21.07.22.12.23-.24-.06-.67-.48-.2-.16-.39-.6-.19.17-.38-.29-1.2-1.25-.39-.25-.4-.08-.4.16,0,.19.07.48,0,.19h-.35l-.1.33v.53l0,.59-.09.26-.3.7-.07.3,0,.54.21.72,0,.44.15.1.69.2.23.13-.24.27-.08.28v.56l0,.13.21.32.06.14,0,.13-.1.12-.11.07-.06,0,.38,1.63.52.26,1.17-.17.56-.29,1.5-2,.35-.34.1,0,0,.28.19.51.05.36-.19.27-.54.36.65.1.54.26.52.08.58-.44,1-1.44.6-.63.38.09-.19,1.17-1,.93-2.5,1.2-.52.09-.11-.15L199,173l-.16-.17-.21.18-.19.22-.48.3-.19.2-.52,1.28-.09.14.19.56.46,0,1-.32.44.1.85.4.47.07.45-.15.78-.57.38-.13.26-.26.28-.51.37-.34.54.24v.31l-.54.21-.54.59-.29.61.21.28.22.12.22.28.33.6.21.19.93.22V178l-.87.28-.76-.58-.7-.85-.72-.54-.77.17-.94.6-.54.78.41.7-.29.57-.78,1.13-.16.7.28.42,1.87.57.25.24.57.73.16.15.3,0,.52-.21,1.88-.33.44.28V183h-.15l-.16-.08-.37-.1-.37,0-.17.3-.11.13-2.2,0-.45-.24-.95-.72-.56-.23-.4.24-.23.19-.66-.07-.27,0-.16.15-.27.45-.93,1.22-.34.68.24.31.24.08.38.38.23.1.25,0,.46-.21.2,0,.49.36,0,.57-.08.52.34.23.46.17.47.32.49.14.5-.35.3.16.33-.11.36-.21.39-.11v.28l-1.08.54-1.22.3-.73-.12-.35-.17-.32-.25-.26-.34-.44-.8-.21-.25-.58-.12-.69.25-.63.45-.39.51-.24.81-.2.95-.25.84-.39.48.45.47.17.11v.31l-.79.05-.75.2,1,.29,2.11-.48,1,.19-.89,1-.19.41.88.23h.45l.35-.68.37-.19.41,0,.3.14-.72.74-.92.41-2.32.34-.31.31v.45l.43.51,1.68.83-.45-.13-.57-.16-.5.17-.32.41-.24-.2-.26-.11-.28,0-.28,0v.3l.4.07.23.3.11.43,0,.44-.19-.15-1.18-.53-.33-.25-.21-.28-.23-.23-.38-.1-.33.13-.79.59-.27.14-3.44.37-.29.24-.49.77-.17.1-.15-.07-.11,0,0,.39,0,.27.06.24.1.22.12.23.29.28.52.3.55.12.41-.27.44-.44.56-.05,1.65.46,1.55-.12.29.07.5.36.29.12h.24l.84-.25,2.44-1.36.92.25,1.12.72.49.09,2.07-.28-.47.32-.66.18-1.19.09-.56-.12-1.41-.74-.55.06-2.37,1.6v.4l.22.28.54.43-.17.3-.62-.61-.72-.37-.77-.16-1.12.07-.33.12-.23.31,0,.64.14.32,3.33,2.76,1.35.29.83-1.16h.17l0,.4-.09.33-.34.66.27.32.39.28.42.19.37.07.24.12.26.54.2.15.15-.07,1.51-1.23,1.48-1.78.89-1.36.24-.28.26-.21.28-.08.21-.17.32-.74.23-.17.45-.09.35-.25.64-.8.25-.5.18-.23.47-.18.21-.37.2-.08.4,0,.33-.15.29-.35.3-.6.07-.33,0-.36.08-.3.19-.12.23-.06.28-.16.23-.23.1-.26.19-.33,1.32-1.19-.37.8-.41.67L208.5,198l-.14.21-.23.56V199l1.74.84,3.68-.81-.38.27-1.8.42-.88.59-.46.14-1-.3h-.5l-.66.59-.29,0-.57-.07-.5.44-.19.12v.3l.43.3-.28.52-.92.84-.2.27-.58,1.11-.06.16-.07.34-.09.19-.14.17-.1.09-.08.13-.07.3.3,0,.36.41.27.13.27-.08.49-.41.25-.1.37-.3.09,0,.45,0,.25-.06.75-.47-.23.36-.28.21L207,206l-1.07.83-.41.18H205l-.55-.22-.53-.53-.13.57-.79,1.93.31.26.42-.88.26-.36.3-.15.37,1.55.36.26.63-.56,2.38.56,1-.12.25-.26.52-.87.92-.83.34-.62.25-.72.29-.6.49-.27-.47.67-.73,1.66-1.42,1.94-.6.52-.75.18-1.81-.51-2.25.2-.75.37-.57.8.09.33-.18.19-.29.14-.24.16-.17.32-.45,1.33.49.11,1-.33.54,0v.25l-1.12.45-.6.07-.41-.25-.43.48-.22.52-.27,1.5-.24.84-.05.45.13.35.22,0,.22-.2.21-.26.2-.13.93-.3.3.13.14.29,0,.29-.26.13-.44.1-.48.29-.27.43.2.53-.42.64-.38.77-.29.82-.14.83.52-.42.45-.7.51-.62.68-.2-.14.55-.15.36-.72,1.14-.09.27,0,.34.14.63.06.07.14.1.15.15.1.26,0,.24-.18,0-.19-.13-.06-.08v-.06L201,224l-.18-.09-.14,0-.14.08-.06.17,0,.18-.07.14-1.68,2.46-.82,1.64-.12,1.06-.09.24,0,.28.07.23.22.09.08-.13.37-.71,0-.88,1-1.13.13-.74.36-.22.3-.28.28-.16.29.13-.13.2-.13.14.09.18-.19.5-2.45,3.83,0,.44.14.46.16.26h.2l.4-.42.59-.31.76-.9.5-.26-.34.44-.4.39-.34.42-.14.53-.14.32L198.4,234l.11.31,0,1.06.17.54.31.4.3.19.61.23-.15.52h.29l.27-.11.8-.66L203.3,234l-.41,1.19-.7,1-.77.73-.64.28-.3.25-.38.58-.33.68-.14.55-.16.45-1.21,1,.26.55-.09.79-.48,1.39-.53,1.17-.08.45.06.28.15.26.1.29-.32,1.16,0,.88.11.89v.82l-.22.41-.85,1-.63.53-.12.77,0,.89L196,255l.24.48.39.15h.65l.26-.07.5-.37.24-.11h.26l.44.22.21.06.53-.11.5-.26.44-.35.37-.38.74-1,.22-.6-.26-.26,0-.16-.36-.89-.21-.3-.2-.21-.23-.1-.28,0v-.24l.52-.33.36-.53.5-1.32.1-.09.1,0,.08,0,0-.32,0-.75,0-.21.14-.38.47-.94-.15-.74.26-.23.35-.15.14-.52-.17-.4-.27-.08-.2-.23,0-.91,0-.12-.09-.18,0-.17.48-.37.06-.32.06-.7.06-.33.16-.49.21-.44.25-.37,1-1.16.34-.24.76-.25.31-.26.15-.55-.2-1-.56-.94-1.24-1.35.11-.08.11-.13.11-.08-.22-.2-.09,0v-.28h.15v-.25l-.27-.27-.08-.31,0-.37-.09-.46-.22-.79-.13,0-.34-.18-.08-.09.16-2.15V227l.08-.21.16-.09.05.25v.35l0,.18.42.14.55,0,.49-.15.21-.45.07,0,.14-.49.11-.57v-.2l.17-.12.41,0,.2-.12,1.85-2.85,2.67-1.82.21-.29.54-1.41.24-.5.34-.31.38-.17.91-.07.38-.2.83-.92.39-.27-.44,1.06-.78.58-.86.38-.68.45-.36.53-.79,1.84-.21.23-.94.74-1.3.55-2.44,4.28-.55.63.28,1.17,0,.34,0,.34-.22.44,0,.31,0,.73,0,.37.07.28.17.2.18.1.13.14.14,1,.23.31.75.28,1,.57H209l-.16-.7-.22-.61-.54-1.12.66-1,.11-.3,0-.4.14-.56.2-.53.23-.3v.83l.21.51,1.47,1.21.43.15.19-.38-.17-.84-.85-2.17-.35-.66.36-.28.17.33.12.51.9,1.2.08.8.23,1.14.32,1,.36.44.71.15.26-.05.32-.35.21-.41.1-.37.06-.39.11-.47.19-.35.26-.32.22-.39.08-.57-.11-.46-.23-.31-.29-.2-.28-.14V228l.38.11.36.21.33.12.31-.16-.12-.45,0-.54v-.78l-.1-.81.06-.3.28-.12.07-.62-.2-1.38-.31-1.41-.25-.72.3-.37.3.11.23.42.09.54,0,1.22.17.31.48,0,.32-.47,1.28-2.69.31-.42.24-.18.11.15-.1.58-1.59,2.57-.87,2.3,0,.34,0,1.52.07.72.24.56.52.23h.54l.41-.08.15-.32-.25-.73-1.06-1.61-.14-.5,0-.4.12-.3.33.08v.19l.29,1.2.26.51.35.53.41.42.91.35,1.14,1.46,1,.62,3.32.72-.54.37-3.72-.59-.48-.3-.26.12-.37-.07-1.42-.67-.3,0-.42.09-.7.29-.51.44-.32.7-.14,1.07.22,2.85.11.41.13.34.15.48.09,1.34-.34.86-1,1.05.44.64.73.66,1.29.86v.3l-.16.36.21.15.72,0,1.22.54.65.55.48.82.11.88-.47.72.81.27.54.68.2,1-.19,1.07-.54.78-1.49.71-.72.66-.21.45-.18.91-.13.38-.18.23-.41.34-.74.93-.12.24,0,.37.06.85,0,.39-.09.35-.51,1.32,0,.2v.42l0,.13-.23.06-.11.09-1.45,2-.92.6-.44.45-.19.72-.06.79-.15.53-.4.95-.09.34,0,.26v.86l.07.46.31.77.07.37.13.36.8,1.63V270l-.09.14-.08.15-.39.41-.4-.07-.37-.35-.29-.42-.1-.36,0-.94,0-.43-.11-.4-.16-.37-.34-.54-.08-.22-.21-.43-.22-.2-.1.45-.11.12-.25,0-.47,0-.32.31-.15.7-.07,1.4.11,1.54.41,1.38.64,1.18,2.13,2.57.45.21.22.23.14.5.1.54.1.35.15.14.18.08.42,0-.1.29v.27l.09.26.17.24-.26.35,0,.64.14.6.21.27.46.12,1,.52.48.13-.29-.63v-.55l.12-.7v-.33l-.64-.56-.36-.91-.25-.91-.15-.42-.23-.17-.17-.4-.11-.45,0-.33v-.28l0-.2.09-.23.2-.34.34-.49.45-.48.51-.4.54-.24h.85l.48.21.41,1.09.48.3,1,.28,2.64,1.65.74.73,1.29,2,.2.16.79,0,.21.09.57.44.47.21.51.08.23-.08.15-.18.11-.18.12-.08.15-.32-.11-.73-.07-.81.28-.57-.32-.56.11-.48.19-.44-.07-.5-.27-.37-.28-.2-.32-.09-.36,0-.15-.26-.18-.56-.21-.91.06-.42.15-.49.18-.4.14-.16.36.09.15.27.11.43.21.55.2.27.26.21,1.67.81.34,0,.36-.18.55-.69.33-.21-.19,1.55.79,1.31,1.14.75.87-.16-.22-.61.08-.66.26-.55.33-.29V274l.31.14,0,.4-.09.5,0,.39v0l-.06.14-.06.11.05.1.07.06.07,0,.09,0v.29l.7.06,1.06-.15,1.75-1.33,1.17-.53.22-.18-.76-.77.31-.25.15,0,0-.15-.1-.4.35-.34.26-.43.08.12,0,.11,0,.29L240,272l-.11-.06-.25.47.12.25.14.16.17,0,.2-.14-.08-.08h0l0-.2,1.59.26.48-.82.58-.09,2.09.2.37-.22.26-.63,0-.63,0-.84-.11-.77-.18-.42.29-1.06.64.57.35.14.38-.18,0-.17v0h0l-.07-.08.32-.13.33.12.35.2.38.11,7.12.53L257,268l.11,0,.54.25v.29l-.42-.17-.35.14-.34.22-.43.07V269h1.54l-.4.28-1.86.56-.45,0-.83-.28-.18-.14-.13-.17-.17-.14-.28-.09-1.41.43-.34.26-.58.64,1.12.57.28.23-.92.5-.24,0-.36-.14-.24-.29-.26-.2-.44.11-.52.64-.44,1.06-.73,2.27.2.66-.19.73-.36.64-.28.37-.24.17-.49.2-.18.16-.15.34-.31,1-.75,1.75-.6,3-.47,1.33-.11.09-.24.28-.16.29.23.26.24.55.11.13.37.2,2.1,3,.52.47.77,1.6.53.26.06.07,0,.39.16.54,0,.34-.1.32-.06.3.12.61.3.51.67.83.81,1.44.49.49.46-.2.35-.07.51,0,.33-.18-.2-.73.22-1,.19-.4.35-.2,0,.77.05,1.29-.19,1.11-.74.23v.27l.34.29v.55l-.12.65-.07.59.22.27.26.17.31.08.35,0,.21.19.79,1.11,0-.43-.07-.51,0-.43.61-.34.23-.37.38-.8.66-.86.1-.31.07-.42.13-.5.07-.53-.1-.52.3-.15.26.16.2.37.16.44-.2.38.14.61.31.56.3.25,1-.07.42-.26.18-.57.17-.4.41-.33.8-.44.67-.53.32-.46.09-.57h.15l0,.74-.34.67-.5.48-.48.2.07.36.85,1.71.38.56-.43,1-.26.38-.72.3-.31.36-.44.82-.19.2-.23.19-.15.22,0,.3.35.81.11.1.68-.07.39-.16L262,305l-.1.61-.77.8.25.42-.16.08-.21.14-.17.2-.07.23-.08.17-.17-.07-.29-.23-.37,0-2.05.79-.52.33-.36.65.26,1-.26,2.85.16,1.27.62.89.82.37,1.92,0-.28.39-.9.64-.2.39-.18.14-1.19,1.55-1.47,2.45-.26.59-.06.52.12.52,2.58,5.68.53.83.72.77.86.61,1,.36,1,.11.39-.2.16-.55.25-.15,1.13-.27.32,0-.2.21-.2.14-.19,0-.19-.09-.19.22-.17.26-.06.34.12.48-.61.36-.32.09-.37,0-.16,0-.34-.17-.2,0-.17.11-.08.17,0,.15,0,.08-.69,0-.65-.31-.55-.49-.4-.54-1.32-3.47-.52-.63-.51,0-.81.65-.46.18-1,.14-.41.23-.24.37,0,.58.31.56.8,1.07.54,1.15.6,1v1.38l-.08.14-.16-.17-.28-.47-.33-.38-2.87-1.88-.25-.3-.2-.37-.47-.37-.85-.43-.93,0-4.25,2.11-.89.21-2.55.07-.35-.22-.36-.55-.46-.42-.49-.16-.44.24-.29-.35-.39-.23-.44-.13-.41,0,.17.44.66.68.22.68h-.76l-2.44,1-.77.64-.52.14-.49.24-.29.2-.16-.06-.18-.11-.19-.05-.7.06-.66.2-.59.39-.5.62-.46,1-.3.42-.4.17-.25.18L229,338.5l0,.16-.17.43-.19.3-.09-.24-.07-.26-.15-.08-.15.15-.07.43,0,1.55-.09.66-.18.48-1.46,1-.44.76-1.8,1.41-.44.24-.41.12-.42,0-.34.19-3.1,3.62-.32.59-.14.18.09.22,0,.17-.23.34.34.22.32-.15.31-.37.32-.21,1.25.13.5-.13.16-.13.12-.17.16-.14.26-.06.26.08.43.34.48.17.31.38.27,0,.16-.07.16-.13.28-.3-.27-.4v-.48l.21-.42.35-.21-.05-.16-.08-.1.8-.92.42-.37.46-.25,1.55,0,.45-.27.37-.23,1.62-.5,1.27.21.61-.06.58-.44.18.41.23.06.25-.18.26-.29.07.15.07.06.17.07-1.33,1-.14.15,0,.25V348l.1.24.18.57.05.57-.26.26-.39.13-.06.3.11.34.43.9,1.71,2.09.38-.09.39-.31.59-.07-.29.37-.91.71-.24.09-.09.06-.05.15-.11.5-.08.1-.4.28-.47.7-.36.91-.07.91.25.57,1,1.41.34.28.61-.11,1.15-.41H237v.27l-1.15.86-.39.14-.23-.06-.49-.25-.18,0-.14.31,0,.43,0,.44.12.34-.25.52-.25.75-.19.84-.2,1.54-.3.82-.66,1.28-1.3,1.86-2.65,2.29-.41.12-.46,0-.37.1-.32.21-.67.8-.44.4-.44.31-.66.21-.15.21-.11.26-.15.18-.26.1-2.76-.1-.85.42,0,1.07-.74-.59h-.31l-.41.46-.55.9-.32.4-.44.3-.74.13-.17.14v.32l.1.41,0,.36-.2.15-.49-.08-.86-.34-.42-.07.15.49-.64.27h-.43l-1.19-.65-.26-.06-.61,0-.37.07-.25.19,0,.24.27.24v.22h-.32l-.07.93-.7.62-.91.34-.69.1-.29.16-.67.7-.42.16-.8.07-.21.21.18.46v.22l-.22.14-.06.11,0,.12.08.16v.27l-.15.09-.15.13H207l1.24-.25.32-.24.4.27.88.12.4.34.15-.24.31.29.19.45.09.54,0,.56.12.9-.07.35-.35.36-.39.17-.75.15-.32.31-.26.37-.24.18-.32.07h-.48l.43.13,1.11.85v.22l0,.39.32,0,.26-.31-.22-.58.4-.15,3.11.42.49,0,1.73-.41.34-.36.08-.4-.32-.29.13-.53-.1-.33-.27-.15H215l.28-.17,1.26-.11.65-.27.26-.18v.27l-.85.22-.37.74.13.87.64.64v.23l-.29-.16-.23.06-.54.38-1.08.22-.75.44-.3.07-.32-.05-.58-.2h-.33l0,.12.06.27,0,.12-1.72-.25-.14.25.43.49,1.1.28.33.7-.2.38.54.4,1.46.47.23.19.12,0,.2-.09.19-.34.42-.19.2-.26.18-.32.2-.27.34-.23.34-.08,2,0,.39-.4.15-.12.31.27.2.06.41-1,.05-.27V391l0-.07.2,0,0-.89.73-.53.94-.25.66-.07,1.68.23.85,0,.77-.42-.34-.33-.18-.35.08-.25.43-.08.19.27.19.17.23.05.14-.08.18-.3.12-.12.17-.38.14-.11.15.25V388l-.11.34-.13.25-.07.07.21.43.34.26.41.1.41,0-.21.32-.41.05-.92-.12.29.66.54.64.6.48.49.19,1.76-.27.32-.22,1.21.68.88.09.26,0,.18-.13.26-.33.11.07,0,.26V392l-.47.81-1.07.26-1.14.08-.69.23-.15-.16-.15-.11v-.22h.14l-.14-.27-.15.2-.24.45-.09.11-.76.24v.56l.2.46.06.38-.43.32.05.26,0,.1.07.13.39,0,1.32.57h.29l.08-.37h.2l.25.17.23.06.22-.14.31-.38.23-.22.24-.11h.21l.56.14.23.18.15,0,.1-.08.21-.34.07-.08.15,0,.17.08.15.11.06.14.06.19.13-.06.11-.16v-.09h.93l-.16-.31-.23-.34-.17-.35,0-.34.2-.22.3-.19.32-.13,2.41-.29.3.08.2.21.35.68.21.27.39.26.18.19.27.48.25.59.22.67.16.7-.06,0-.07,0,0,.06,0,.16.23.36.44.44.5.26.41-.2.31,0,1.31,1.09,1.05,1.45.41.23,5.59.51,1.58-.67.34,0,.43.14.39-.46.16-.76-.28-.77.14-.1.32,0,.16-.1.1-.17.13-.42.08-.15.58-.6.38-.28.34-.12,1.3-.83.12-.23.59-.74.21-.16.12.11.12.25.18.26.29.12,1.9-.14.94-.34,1.25-.86,1.06-.25.43-.34.63-.74,1.46-1.75.2-.35.21-.23,1.33-.88.31-.44.27-.49.31-.39.43-.16.44,0,.52-.17.4-.37.1-.67.33.32.06.4-.18.42-.36.33-1,.34-.39.21-.77,1-1.27,1.35-.14.21-.15.31-.12.33-.05.3-.08.32-.2.16-.23.1L267,394l-2,3.39-.46.47-.47.2-.53,0-.44.14-.4.23-.39.33-1.52,2-.83.81-.71-.15-.49.51.34.36-.14.33-.31.32-.17.33,0,.55-.08.33-.23.1-.43-.14.25.43.06.68v1.33l.07.34.08.19,0,.24,0,.45-.08.26-.38.73-.31-.24.31-.51-.17-.25-.63.44-.87.13-1.48-.08-.81.11-1.6.51-2.56.12-.44-.21-.66-.63-2.8-.65-1.8.06-2.9-.76-.4,0-.71.38-.49.09h-1.62l-.42.08-.84.32-4.09.38-1.7.68V409l.25.17.16.3,0,.38-.14.38-.17.06-.75-.06.15.3.38.58.08.22,0,.26.27,1,.14.34-.23.14-.14.19-.1.21-.12.21-1.51,1.69-.34.24-.46.14-1.3-.14-.22-.08-.46-.35-.25-.08h-2l-.11.22,0,.49.08.51.09.27-.31.88-.15.3-.25,1.47.11,3.11-.61,1.23-.93.7-.42.49-.17.62-.26.44-1.58,1.36-.31-.09-.23.17-.08.38.14.52-.35.58-.26.64-.35.51-.64.21-1.66.11-.56-.11v.22l.12.36-.11.3,0,.32.35.45.74.27.39.24.24.46-.36-.17-.92-.05-.41-.25-.08.12-.06.05-.15.09,0-.4-.06-.48-.1-.41-.13-.2-.17,0-.29.34-.16.12h-.46l-.44.35-.22.48-.07.61,0,.71-.2,1.36-.21.47,0,.2-1.56.84h-.17l-.34,0-.25.17.15.7,0,.44,0,.41-.08.18-.31.1-.82.57-2.56,2.7-.83.47h-.8l-.12.13-.06.32-.16.34-.32.52-.46.28-.45-.22-.69-.67H202l-.86.56-.76.26-1.43.83-.65.25-.18.13-.42.72,0,.12-.08.16,0,.37.12.66h0l.07.09.06.17v.22l-.1.14-.16.07-.22,0,.23,1,.85.34,1.07-.12.92-.3.33-.17.4-.32.24-.47-.13-.61v-.48l.43-.36.58-.2.47,0,.37.16.75.47.91.16,1.35.64.44.32.36.44.64,1,.16.34V450l0,.28.08.43.09.24.11.17.67.75.23.19.2.07.08-.19.26-.81.66-.79.15-.13.27,0,.45.09.2,0,.64-1,.29-.64-.09-.29-.09-.1-.08-.47-.05-.14-.11,0-.26,0h-.11l-.32-.2-.19-.05h-.25l.72-.33.2-.15.09-.26v-.28l0-.25.21-.16.27-.19.15-.07h.19l-.34-.39-.14-.1V445l.28-.38,0-.4,0-.3.44-.12.28.26.13,1.23.27.43.93-1.61.3-.31.95-.32.39-.22.41-.51.42-.18,1.11.17.23-.24,0-.19.26-.65v-.15l-.12-.23,0-.22.08-.22.18-.26.21-.22.16-.13v-.26l-.18-.45.25-.28.46-.16.45,0,.13-.06.12-.11.13-.09.16,0,.31,1h.13l.11-.08.07-.11v-.05l3.68-.22.88-.34,1.62-1,1-.11,1.91.5.39.23.21.5.24.43.48,0v-.22l-.12-.24,0-.24.15-.18.25-.09v-.22h-.63l.17-.26-.44,0-.18,0v-.24l.78-.21-.5-.39-1.27.21-.38-.55,1.08.09.29-.09.2-.27.08-.37-.09-.36-.32-.22v-.21h.27l.23-.12.17-.25.09-.38.24.21.23,0,.44-.22-.24.5-.31.47-.17.49.17.58.18.36.1.28.13.22.29.2.24.05.82-.05-.31.65.23.53.5.36.49.14-.09.32-.05.13.35.31.23.13.25.06.18-.08.3-.34.12-.08.22-.07.57-.32.21-.05.24.11,1.47,1.35,1.29,1.61.83.76.33-.37.35,0,.4.2.5.12.38,0,.9-.27.34-.17-.17-.87.13-.82.23-.72.12-.6.23-.34.5-.13.48-.28.16-.78.36.3.35.11.27-.19.15-.88.12-.18.17-.09.2,0,0-.13.23-.61v-.24l-1,.06-.38-.19-.16-.58.15-.5.39-.29.5-.13.51,0-.4-1.46,0-.69.25-1,.29-.72.33-.6.36-.49.4-.38-.2-.47-.29-1.21-.28-.32,0-.17,0-.16.08-.08.13,0,.07.08.05.07.06,0,.09.14.29.83.28.53.3.29.38.12.5,0,1.62-.72.34-.48.21-.46.25-.36.91-.22.75-.34.43-.07.25.05.43.19.23,0,.22-.1.37-.32.11-.07.51-.43.26-.08.85.24.53-.07.79-.52,1.68-.39.5,0,3.85,1.44,4.68,3.6.52.88,0,1.32h.14l.32-.49.24-.55-.06-.44-.56-.19-.21-.34.12-.75.28-.75.26-.35.84-.27.47-.08.77.48L277,429l1.68.8.38.08,1.82,0,.42-.19,0-.53.77-1-.12,0-.33-.21.16-.6-.15-.27-.33-.07h-.37l-.41-.09-.26-.26-.47-.86-.25.21-.25.16-.26.09-.29,0,.78-1.27.2-.17.11.1.19.47.08.13.18,0,.58,0,.86.24.07.19,0,.36.1.24.24-.18.34-.4.4-.31.42-.23.45-.14.5,0,1.41.26.41-.1.86-.46.49-.14h.5l1.53.29.48.32.43.13h0l0-.14.73-1.34.73.14h.1l.26-.2.57-.21,1-.19v-.21l-.15-.14-.16-.13.33-.11,1.43-.13.5-.18.07-.42-.2-.48-1.75-2-.54-.66-.28,0-.41-.26-.22-.12v-.22l2.85,1.6.84,1,.29.16.74.26.52.46.73.39.15.33.16.22.36.22.41.16.29,0,.29-.28.08-.38-.06-.69-.13-.21-.79-.66.34-.1,1.4-.11.41.21-.14.48-.41.6-.21.62.45.51.6-.08.31-.67.2-.85.29-.63.42-.12h.69l.7.13.45.24-.23.48.16,0,.28-.16.11-.12.26.14.44.44.22.17v.22l-.64.26-.3.23-.12.36.16.21,2,1.31.51.17.43-.24.1-.36-.15-.66.12-.31.21-.09.19.12.18.16.2.07,3.66-1.23h3.83l2.86-1,.82.33.6-.32.73.07,4.65,1.7,1,.07.41.14.39.38.21.12.79,0,.25,0,1,.38.44.07.83,0,.83-1.18.77-.51,0-.13.22-.38.24-.32h.11l.83-.37,4.85-1,.9-.4,2.19-2.15.89-.3,3.2,1.06.77-.31-.23-1.37-.06-.92.22-.42,1.15-1.67.87-.81.46-.31.44-.11,1.47,0,.44-.18.17-.17.19-.26.22-.22.26-.09.49,0,.25,0,.62-.47,1.49-.51.61-.73.46-1.13.18-1.36-.19-1.41-.37-.95-.16-.6-.07-.77.12-.13h.8l.15-.12.13-.17.11-.21.08-.22.21-1.17-.55-.33-7.22.67-2.77.86-4.76-.54-.24-.26-.32-.59-.24-.65,0-.45-.48,0-.11.34.1.49.18.42-.91-.25h-1.93l-.21-.09-.16-.22-.15-.24-.17-.21.4-.26.82-.2.7-.69h.35l.8.18.47-.06.23-.2,0-.35-.28-.51-.33-.23-3.58-.53-1.45.4-.11.12-.08.26-.1.25-.18.12-1.43.24.33-.18.33-.12.32-.18.29-.36.14-.4.06-.36.12-.26,1.55-.4.62,0,.36.35.3-.29.29-.07h.3l.33-.11.43-.41,0-.06.15,0h.31l.61,0,1.77.29,1-.32,1.27-.8,1.14-1,.62-1-.09-.16-.22-.13-.6,0,.34-.26.18-.17.08-.19v-.84l.08-.31.23-.2-.18-.44-.08-.28,0-.28,0-.06.09-.27.06-.35,0-.3-.35-.36-.39.07-.64.53-.68.28-1.43.32-.64.63-.25-.57-.38-.19-.4-.06-.35-.17.5-.29,1-.41.55-.06.22.06.5.21H344l.23-.12.36-.31.26-.07.12-.19.1-.43.07-.43v-.2l.16-.09.69-.65.82-.41.34-.39.05-.68.2.48.73,1,.35.74.21.18.42.07,1.57-.24.72-.3,1.15-.78,1.28-1.19.27-.57,0-.76-.1,0-.17.37-.23.23-.81-.12-.35-.15-.29-.22,1.77-1.81.08-.68-.45.27-3.73-.24-.59-.28.57-.09,1.09-.37.49,0,.63.42.28.07.27,0,.47-.15.26,0,.45.12.08-.16,0-.59-.1-.16-.24-.12-1-.24-.47-.34-.8-.76v-.24l.61.12,1.11.9.65.22,1.52,2,.25-.09.25-.4,1.56-1.73.54-.83.15-.13.18-.24.06-.46.12-.3.33.26.38-.43,1.76-.75.12-.19,0-.5.32-1,.09-.66.4-1.26.12-.71-.06-1.64.05-.94.24-.4.24-.27.71-1.29,1-2.62,0-.34,0-.36.57-1.89.28-.35.09-.33ZM301,425.72l-.19,0-.06,0v-.09l0-.3v-.09l-.27-.21-.24,0h-.55l-3.39-1.39-.51,0-.56.39-.76.95-.52.43-.54.07,0-.12.06-.24,0-.11-2,.92-.87.76-.54,1,.4-.24.37-.16.84-.1.26.11.74.53.16.21,2.91,2.07.81.24,2.48-.74.08-.17,0-.39,0-.75.05-.18.14-.17.62-.55.35-.17.84-.25.08-.09,0-.09.06-.05h.1v-.26l-.46-.72ZM198.57,296.56l.07.31.17,0,.2-.09.15-.11.15-.79.1,0,.25.07.1,0,.74-.77.59-.88.27-1.1-.22-1.46-.65-.7-1,.27-1,.61-.9.34.24-.4.82-.67.18-.36.62-2-.16-.24.11-.25,0-.11,0-.16-.28-.1-.14-.33v-.44l.11-.46-.68-.38.14-.18.49-.09.36-.13-.25-.22-.83-.06-.16-.13-.2-.2-.25-.16-.31,0,.22-.23.19-.32.07-.39-.17-.38v-.26l.67,0,.6.35,1.56,1.49.38.65.24.89.08,1.19-.11.58-.52.66-.15.45,0,.43.16.43.23.34.26.15.23.75.21.54.26.28.31-.06.28-.54.33-.18-.32-.42.12-.3.3-.26.21-.3.08-.64-.15-.64.14-.47.43-.67.11-.23v-.21l-.07-.15,0-.21.15-.36-.14-.1-.71-1.09-.09-.53-.13-1.52-.15-.31-.38-.22-.26-.56-.35-1.35-.06-.39,0-.33-.07-.22-.24-.09-.21-.12-.28-.54-.13-.13-2.68.45-.49,0-.35-.28-.35-.14-.48.22-.77.58-.79.39-.22.26-.5.8-.25.24-.12.24-.17.19-.28,0-.06-.19,0-.35-.09-.34-.27-.18.82-1.52.43-.58.58-.54.6-.33,1.33-.4.66-.33.5-.56.32-.86.06-1.08-.27-1.23-.42-.63-.69-.62-.67-.18-.35.66,1.43,1.52.41.83h-.14l-.53-.8-.66-.27-.57-.36-.24-1.07-.06-.56-.16-.47-.2-.39-.2-.3-.18-.2-.35-.3-.14-.17-.14-.29-.15-.62-.1-.26-.45-.68-.53-.5-.6-.31-.65-.11,0-.27.4-1.44,0-.7-.17-.37-.29-.25-.33-.15-.3,0-.42,0-.42-.06-.17-.34.33-.84.15-.64.08-2.18-.23-.42-.83-.93-.18-.1-.19-.3-.44-.21-.88-.16-.44.08-.85.37-.5.08-.36-.1-2.17-1.24-.57-.15-.84.56-.54-.16-.81-.49-.5.06-.48.25-.43.39-.34.47-.37.29-1.55.11-2.55,1.19-2.89.14-.44-.18-1-.66-.36,0-.14.54-.14,1.77-.26.37-.26.28-.27.64-.18.72v.5l-.33.24-.49.63-.25.2-.77.11-.77-.11-1-.51-.4,0-1,.31H163l.22-.73-.18,0-.26.12-.2.24-.17.28-.18.2-1.43.22-.27.21-.23.26-.63,1,.09.34-.06.06-.12,0-.09.27.13,1,0,.32-.19.31-.44.18-.18.24-.08.46.1,1v.4l-.23.84-.35.68-1.62,2-.14.53,0,1,.08.28.12.14v.08l-.29.13-.23,0-.42-.22-.67.2-.77-.21-.4.23-.78.77-.77.44-.76.05-.74-.39-.64-.56-.31,0-.76.78L148,279l.37.31.14.08-.17.58.18.4.37.24.39.11.19.12.22.49.18.19H150l.35-.26.17-.05.31.18.72.65.35.13.38-.18.35-.25.24.06.06.78-.93.31L149.76,285l-.86.34-.88,0-1.69-.4-.47.53-.45.67-.27.57-.12.16-.26.24-.55.32-1.19.35-.53.3.28.26.07.29,0,.31.22.32.53.6.95,1.34.52.55.56.3h.65l.47,1.2.29.55.38.43.37.15.88.14.33.25.15.61.09,1.69.3.59.44.27,1.23.17,1.33-.1.4.08,1.61,1.2.16.24,0,.34.07.33.26.19,2.39.57.48-.1.92-.73.56,0-.25.33.08.05.22,0,.18.05.16.33,0,.17.1,0,.33-.08,1.09.37.37,0-.51-1.07V300l.16-.2.68-.4.08.1-.06.27,0,.34v.44l0,.35.08.15.31-.16.21-.23.16-.33.06-.38-.1-.39.44-.22,0-.2-.21-.18-.11-.15.13-.38.14-.25.18-.19.25-.19,1.22-.32.48-.32-.14-.63.31-.43-.8-.67.13-.53-.75-.37-.05-.41.11,0,.17.05.12-.15h0l.17-.36v0l-.06-.06-.09-.2-.05-.24,0-.18.15-.08.39.08h.18l.74-.56,1.09-1.72.65-.65.7-.06.76.38,1.39,1.17.16.26.2.65.18.11.27,0,.14.15.48,1.31,0,.55-.18.38-.39.21.79.41.2.23.1.32.08.37.13.39.37.61.44.51.48.41.48.31.27,0,.18-.2.17-.25.24-.14.27,0,.24.13.47.4.51.6.13.68-.21.7-.5.65.24.44,0,.43-.35.89.34.28.6.73.32.17.12-.07.24-.37.12-.13.18,0,.34.15.18,0,1.91-.71.62,0,0,.07.09.16.13.17.14.1h.16l.58-.21.53-.08.14-.14.09-.32,0-.32,0-.29,0-.24.3-.51.18,0,.17.26.27.19.3-.06.32-.16.34,0,.34.29.14-.26.48.2.67,0,.6.21.26.7.29,0,1.71.64-.18,0-.44.21V304l.39.28.35.06.87-.07.3-.14,1-.73.69-.73.93-.48.41-.51.23-.61.19-.76.13-.79.06-.73,0-1.46.13-.46.44-.17.44-.09,1-.36,1-.1,1.3.11Zm8.17,93.09.21,0,0-.11.18,0,.22-.16-.21-.1-.28-.18-.38.11-.1.1.1.2.12,0,.09,0v.1Zm97.18,33.08-.12-.12v-.22l.19-.15.08-.19-.06-.21-.21-.2h-.29l-.58,1-.49.21v.24l1.83.27v-.27l-.15-.12Zm-86-70.5,0,.34.14-.24h.08l.15-.06.13-.33,0-.14-.27-.06Zm5-19.19-.08-.5-.21-.45-.3-.4-.34-.34-.16-.14-.4.06-.26,0-.26-.15-.6.54v.25l.38.66.14.08.65,0,.19,0,.22.26.45.86.46.41.23.1.19-.1.11-.39-.12-.29-.2-.23ZM201.48,212.11l.4-.47.34-.7-.21.23-.32.07-.7,0-.36.46-.13.26-.11.38.6,0ZM220,392.67l0,.14.09.17,0,.06.12,0,.14.16.21,0,.09-.2-.28-.19Zm9.8-63.56-.06-.45-.11-.44-.22-.2-.85-.49-.42,0-1.55-.27h-.28l-2.87,1-.39.3.23.56,0,.54-.11,1.24v.82l0,.56-.13.38v.28l.4.5.74,1.46.45.43.07.28,0,.27V336l0,.1,0,.31v.1l.07,0,.18,0,.06,0,.74.65,0,.12.33-.14.49-.72.34-.17.24.16-.12.35-.26.34-.17.16,0,.14,0,.32,0,.34,0,.21.14,0,.18-.08.13-.12V338l.58.26.27.05.24-.08,1.43-.86.35-.44.79-.57.1,0,.07,0,0-.31v-.27l0-.15,0-.1.09-.11.43-.49.53-.42.57-.28.55-.11.53-.3.78-1.46.46-.51-.27-.21-.31-.07-.65,0-.1,0-.29-.19-.15,0-.13.09-.2.36-.13.08-.28,0-.51.16-.29,0-.28-.06-.1-.2,0-.33-.12-.42-.36-.43,0-.08-.08-.1v-.23l0-.25,0-.2h-.12l-.32-.18-.28-.22,0-.1ZM206,384.2h-.12l-.19.16.07.21-.08.12V385l.15.05v.09h0l.11,0,.09-.21v-.31l.07-.26Zm14.88,25.73.15-.18v-.43l0-.23,0-.15-.09-.26-.12.07-.07.45,0,.48Zm-7.64-172.89,0-.23-.23-1.24-.15-.54-.21-.52-.27-.53-.19-.18-.21-.08-.16-.2-.13-.9-.15-.12-.2,0-.2-.12-.68-.76-.69-.6-.73.39,0,.62.27.69.18.61.14.3.77.53,0,.51.26,1.11.23.66,1.46,1.38.26.7.22.34.28,0,.15-.26,0-.33L213,238l-.24-.17.24-.54Zm-47-96.09.13.18-.12.51.18.22.66,1.38.18,0,1-.71-.11.31-.14.25-.17.19-.21.14h.63v.27l-.26-.07-.23.05-.18.2-.1.39h.66l2.11-.59-1.36.78-.73.26-.68.11,0,.13V145l0,0,.07.09v.26l-.44,0-.29.25-.26.35-.36.31,1.05.81h.19l.29-.24.18.67.59.23,1.29-.06.34.14.59.61.3.14h1.3v.29l-.17,0-.42.28.06.14.07.12.17.2-.67-.16-.67.15-1.14.67v.28l1.08.83-1.08,0-.51.16-.28.47L167,153.74l-.09-.52-.12-.35-.18-.19-.28-.06-.35.1V153l.16.32.1.31.25.18,1.35,1.72.22.13,1.14,1.35.17.07.41-.44,1.37-.95.46-.48-.1-.08-.11-.12-.11-.08.59-.49.25-.27.24-.41-.15-.16-.19-.29-.12-.1.15-.31,1,.78.5.08v-.26h-.17v-.29l.4,0,.4-.08.31-.21.12-.33-.09-.24-.52-1-.2-.13-.48-.21-.25-.18.18-.29.11-.27.12-.21.21-.14.78.46,1.83.45-.09-.89-.06-.28-.1-.1-.18-.07-.19-.12-.15-.27.16,0,.11-.09.09-.11.12-.08-.21-.29-.22-.39-.26-.34-.32-.15-.25-.26-.47-1.27-.29-.46.44-.28.63-.6.52-.68.1-.48v-.27h2.15v.27l-.84.06-.81.27-.64.61-.33,1.1,0,.6.18.57.61,1.26.14.51.12.22.22.21.71.37.15-.27-.17-.29-.21-.51-.12-.48.12-.21.21.09.12.23.19.57.28.45.34.32.42.09.5-.26v-.31l-.1-.09-.11-.12-.1-.08v-.32l.41.11.29.16.28,0,.4-.3.19-.28.36-.67.21-.17v-.29l-.32-.43-.79-.24-.35-.35-.48-.21-.19-.18.13-.31.12,0,.47.19,2.1.37.53-.14.35-.36.32-.47.41-.48-.28,0-.28,0-.27-.1-.24-.18.21,0,.2-.1.19-.17.17-.24-.22-.24-.09-.07,0-.55-.12-.54-.22-.43-.29-.21-.3.05-.69.42-2.91.7-.85,0v-.29l.36,0,1.16-.32.61-.58.21,0,.34.24h.21l.33-.22.75-.94,1.13-.26.39-.32-.1-.32,0-.21.08-.17.19-.19-.24-.48-.52-1.54h.34l.67.44.37.13,1-.13.38.13.66.46.31.05.41-.22.08-.12.21-.41.16-.2.2-.14.59-.29-.11-.42-.06-.16.09-.14.11-.26.1-.21h-.14v-.26l.21-.32-.24,0-.41.14-.34.2-1.08,1.18-.62.28-.89.06-.82-.26-.41-.68h.62l.25-.09.2-.21,0-.31-.07-.37,0-.31.66-.27.21-.61.27-.13.29-.06.17-.18,0-.28-.12-.38.37-.42,1-.76.48-.24v-.32H187l-.3-.11-.25-.21-.19-.28.51-1.76.17-.24.4-.2-.07-.45-.4-.69-.11-.68-.28-.82-.4-.76-.45-.5-.54,0-.65.63-1.1,1.46-4,3.09-.56.76-.2.18-1.41.76-.6.18h-.76l-.18.13-.14.21-.17.11-.27-.16-.48.68-1.82,1.64.24,0,.15.09.1.2.12.31h-.15l-.11.09-.09.1-.11.09.09.25.11.21.26.38,0,.11.09.38,0,.11.14,0,.33-.09.13.05.1.24.12.66.09.26.19.23.56.35-.61.9-.26-.62-.54-.53-.58-.29-.38.12-.22.18-1,.25-.07.13,0,.3-.08.31-.22.16.13.41.34.74.16.27-.05.57V141l0,.37-.3-.42-.34-.8-.23-.88,0-.65-.28-.32-.47-.72-.15-.6.67,0v-.29l-1.22-.57-.17.15-.18,0-.87-.48-.33-.26-.43.52-.13.29,0,.52.09.51.23.23.59.27-.46.2-1.68.12v.26l.12.07.16.17.16.07-.1.22-.06.15-.09.1-.2.07,0,.42-.25.37-.07.54.1.23Zm.76,9.94.31,0,.23-.13.16-.28.08-.48.79.52.27-.16v-.9l-.41-.29-.5.24-.93.91,0,.15,0,0v.09Zm-9,12.91.28.17.18,0,.15-.09.15-.19.15-.27.69.18,1.35.89.74.07-.43.29-.2,0,.18.2.1.23.08.23.26.49.09.1.21.15.4.1.78-.07.36.28.37-.3.46-.08.93.07.45-.87.07-.26-.08-.28-.14-.14-.38-.15-.45-.07-1.31.39h-1.61v-.31l.94-.77.29-.08.11.13.19.54.16.17.14,0,.32-.21.16-.06,1.31-.12.54-.39.44-.91-.72.25h-.36l-.16-.38-.07-.56-.2-.2-.65,0v-.31l.14-.26,0-.17-.16-.09-.26,0v-.31h1l.51.5.25.1.15.15.17.32.22.29.31.06.15-.18.38-.7.23-.23-.2-.51-.41-.24h-.49l-.33,0-.3-.22-.68.36-.37-.23.39-.27.14-.35-.08-.39-.28-.39-.61.1-1,.8-.47.21.31.24.15,0v.29l-.47-.06-1.22-.51.22-.54.1-.17.14-.14v-.26l-.52.52-.7,1-.66.67-.4-.54.44-.26.17,0V160l-1.52.27-.48-.27-.37.69-.3.82-.35.71-.51.36v.29l1,.75Zm7-6,.4-.46-.21-.45-.42.1-.95,1,.53.07Zm21.41,51.24,1.17-.07-.23-.47-.68-.56-.33-.35-.32,0-.28.15-.25.27-.23.39.59.53Zm-14.2-.69.5-.1.45-.39,0-.68,1.35-.17.32-.51-.28-.71-.57,0-1.15.44-.5.12-.83.54-.5.18-1.51.25-.49.28.23.67.13.63.2.47,1.4.65.47,0-.13-.72.41-.7Zm-.55-72.08.28.16v.27h-.31V137h1.83l-.1-.38-.14-.31-.17-.26-.2-.21-.23.15-.72-.83-.42-.19-.14.43.09.48Zm-13.51,53.5.35-.05.35-.16.19-.27-.12-.38.17-.09.17-.14.18-.2.18-.26.19-.15.65,0-.19-.19-.09-.32-.07-.34-.11-.27-.2-.18-.72-.37.14-.16.32-.7-.09-.12-.1-.09-.12,0-.15,0-.14-.22-.08-.06h-.1l-.17,1.11-.42.35-.54.11L157,187l.23.3.05.46-.11.43-.26.19-.38.18-.25.39v.4l.34.18Zm25.54,262.27-.07,0-.11-.09-.16,0,0,.28.15.39.2.11.13-.26,0-.25ZM162.58,177.89l.43-.2.16-.33.23-.85.13-.37.26-.32.26-.14.21-.23.11-.6-.37,0-.24-.24-.21-.34-.26-.27-.35-.11h-.69l-.33-.17-.28-.5-.09-.09-.54-.26-.18,0-.2,0-.17-.08-.07-.35-.05-.18-.12-.21-.15-.18-.14-.13.51-.29.44.45.44.66.93.55.41.41.48.23.62-.33v-.28l-.5-.08-.7-.67-.5-.1V172l.43.16h.16l.19-.15-2-1.42h-.22l-1,.51-.44.33.6,1.87.26,1.25-.17.57-.28.09-.11.24-.05.36-.1.44-.29.78-.17.29-.28.34.29.08.24.22.38.54v.28l-.13.48.08.67.58,2.16.19.44.65.77.7-.42,1.85.38.52-.55v-.26l-.45,0-.28-.34-.26-.43-.39-.32-.34,0-.8.11-.4-.07v-.28l.86,0,.43.08.39.25.25-.49,0-.82-.1-.87-.2-.63-.4-.4-1.44-.44v-.26ZM183.2,452.15l-.11-.12-.09,0-.05.17v.13l0,.1v.1l0,.07h.11l.11-.21Zm1.22.75-.19.28,0,.48.27.14.22-.15.07-.3-.18-.32ZM162.81,167.7v0l0-.18-.25,0-.22,0-.18-.1-.13-.2-.25.24-.28.05-.28-.09-.26-.2-.52,0-.44.39-.3.65-.11.78.25.48,1.74,1.07.59.14,1.94-.57,0-.28-.18-.28-.32-.13h-.52l-.19-.15-.12-.41.42,0,.5-.47.3.18.14-.25-.61-.49-.15-.07-.21,0-.19.1-.18,0-.19-.17.09-.07Zm22.08,284.21h-.2l-.13-.13-.11-.15-.08,0-.15.15.07.11.33.26h.26l.21-.21-.08-.09Zm-52-298.74-.35-.28.23.86.44.33.49-.12.38-.48-.38-.2Z"/></svg>